%TF.GenerationSoftware,KiCad,Pcbnew,10.0.1-10.0.1~ubuntu24.04.1*%
%TF.CreationDate,2026-05-12T21:30:37-07:00*%
%TF.ProjectId,PiZeroHat,50695a65-726f-4486-9174-2e6b69636164,rev?*%
%TF.SameCoordinates,Original*%
%TF.FileFunction,Copper,L1,Top*%
%TF.FilePolarity,Positive*%
%FSLAX46Y46*%
G04 Gerber Fmt 4.6, Leading zero omitted, Abs format (unit mm)*
G04 Created by KiCad (PCBNEW 10.0.1-10.0.1~ubuntu24.04.1) date 2026-05-12 21:30:37*
%MOMM*%
%LPD*%
G01*
G04 APERTURE LIST*
%ADD10C,0.300000*%
%TA.AperFunction,NonConductor*%
%ADD11C,0.300000*%
%TD*%
%TA.AperFunction,NonConductor*%
%ADD12C,0.200000*%
%TD*%
%TA.AperFunction,ComponentPad*%
%ADD13C,1.600000*%
%TD*%
%TA.AperFunction,ComponentPad*%
%ADD14R,1.500000X1.500000*%
%TD*%
%TA.AperFunction,ComponentPad*%
%ADD15C,1.500000*%
%TD*%
%TA.AperFunction,ComponentPad*%
%ADD16C,1.524000*%
%TD*%
%TA.AperFunction,ComponentPad*%
%ADD17R,1.778000X1.778000*%
%TD*%
%TA.AperFunction,ComponentPad*%
%ADD18C,1.778000*%
%TD*%
%TA.AperFunction,ComponentPad*%
%ADD19C,1.700000*%
%TD*%
%TA.AperFunction,ViaPad*%
%ADD20C,0.600000*%
%TD*%
%TA.AperFunction,Conductor*%
%ADD21C,0.250000*%
%TD*%
G04 APERTURE END LIST*
D10*
D11*
X171202725Y-89706912D02*
X172059868Y-89706912D01*
X171631296Y-91206912D02*
X171631296Y-89706912D01*
X172559867Y-91206912D02*
X172559867Y-90206912D01*
X172559867Y-90492626D02*
X172631296Y-90349769D01*
X172631296Y-90349769D02*
X172702725Y-90278341D01*
X172702725Y-90278341D02*
X172845582Y-90206912D01*
X172845582Y-90206912D02*
X172988439Y-90206912D01*
X174059867Y-91135484D02*
X173917010Y-91206912D01*
X173917010Y-91206912D02*
X173631296Y-91206912D01*
X173631296Y-91206912D02*
X173488438Y-91135484D01*
X173488438Y-91135484D02*
X173417010Y-90992626D01*
X173417010Y-90992626D02*
X173417010Y-90421198D01*
X173417010Y-90421198D02*
X173488438Y-90278341D01*
X173488438Y-90278341D02*
X173631296Y-90206912D01*
X173631296Y-90206912D02*
X173917010Y-90206912D01*
X173917010Y-90206912D02*
X174059867Y-90278341D01*
X174059867Y-90278341D02*
X174131296Y-90421198D01*
X174131296Y-90421198D02*
X174131296Y-90564055D01*
X174131296Y-90564055D02*
X173417010Y-90706912D01*
X175417010Y-91206912D02*
X175417010Y-89706912D01*
X175417010Y-91135484D02*
X175274152Y-91206912D01*
X175274152Y-91206912D02*
X174988438Y-91206912D01*
X174988438Y-91206912D02*
X174845581Y-91135484D01*
X174845581Y-91135484D02*
X174774152Y-91064055D01*
X174774152Y-91064055D02*
X174702724Y-90921198D01*
X174702724Y-90921198D02*
X174702724Y-90492626D01*
X174702724Y-90492626D02*
X174774152Y-90349769D01*
X174774152Y-90349769D02*
X174845581Y-90278341D01*
X174845581Y-90278341D02*
X174988438Y-90206912D01*
X174988438Y-90206912D02*
X175274152Y-90206912D01*
X175274152Y-90206912D02*
X175417010Y-90278341D01*
X176774153Y-91206912D02*
X176774153Y-89706912D01*
X176774153Y-91135484D02*
X176631295Y-91206912D01*
X176631295Y-91206912D02*
X176345581Y-91206912D01*
X176345581Y-91206912D02*
X176202724Y-91135484D01*
X176202724Y-91135484D02*
X176131295Y-91064055D01*
X176131295Y-91064055D02*
X176059867Y-90921198D01*
X176059867Y-90921198D02*
X176059867Y-90492626D01*
X176059867Y-90492626D02*
X176131295Y-90349769D01*
X176131295Y-90349769D02*
X176202724Y-90278341D01*
X176202724Y-90278341D02*
X176345581Y-90206912D01*
X176345581Y-90206912D02*
X176631295Y-90206912D01*
X176631295Y-90206912D02*
X176774153Y-90278341D01*
X177345581Y-90206912D02*
X177702724Y-91206912D01*
X178059867Y-90206912D02*
X177702724Y-91206912D01*
X177702724Y-91206912D02*
X177559867Y-91564055D01*
X177559867Y-91564055D02*
X177488438Y-91635484D01*
X177488438Y-91635484D02*
X177345581Y-91706912D01*
X172274153Y-93478971D02*
X172202725Y-93550400D01*
X172202725Y-93550400D02*
X171988439Y-93621828D01*
X171988439Y-93621828D02*
X171845582Y-93621828D01*
X171845582Y-93621828D02*
X171631296Y-93550400D01*
X171631296Y-93550400D02*
X171488439Y-93407542D01*
X171488439Y-93407542D02*
X171417010Y-93264685D01*
X171417010Y-93264685D02*
X171345582Y-92978971D01*
X171345582Y-92978971D02*
X171345582Y-92764685D01*
X171345582Y-92764685D02*
X171417010Y-92478971D01*
X171417010Y-92478971D02*
X171488439Y-92336114D01*
X171488439Y-92336114D02*
X171631296Y-92193257D01*
X171631296Y-92193257D02*
X171845582Y-92121828D01*
X171845582Y-92121828D02*
X171988439Y-92121828D01*
X171988439Y-92121828D02*
X172202725Y-92193257D01*
X172202725Y-92193257D02*
X172274153Y-92264685D01*
X173131296Y-93621828D02*
X172988439Y-93550400D01*
X172988439Y-93550400D02*
X172917010Y-93478971D01*
X172917010Y-93478971D02*
X172845582Y-93336114D01*
X172845582Y-93336114D02*
X172845582Y-92907542D01*
X172845582Y-92907542D02*
X172917010Y-92764685D01*
X172917010Y-92764685D02*
X172988439Y-92693257D01*
X172988439Y-92693257D02*
X173131296Y-92621828D01*
X173131296Y-92621828D02*
X173345582Y-92621828D01*
X173345582Y-92621828D02*
X173488439Y-92693257D01*
X173488439Y-92693257D02*
X173559868Y-92764685D01*
X173559868Y-92764685D02*
X173631296Y-92907542D01*
X173631296Y-92907542D02*
X173631296Y-93336114D01*
X173631296Y-93336114D02*
X173559868Y-93478971D01*
X173559868Y-93478971D02*
X173488439Y-93550400D01*
X173488439Y-93550400D02*
X173345582Y-93621828D01*
X173345582Y-93621828D02*
X173131296Y-93621828D01*
X174274153Y-92621828D02*
X174274153Y-93621828D01*
X174274153Y-92764685D02*
X174345582Y-92693257D01*
X174345582Y-92693257D02*
X174488439Y-92621828D01*
X174488439Y-92621828D02*
X174702725Y-92621828D01*
X174702725Y-92621828D02*
X174845582Y-92693257D01*
X174845582Y-92693257D02*
X174917011Y-92836114D01*
X174917011Y-92836114D02*
X174917011Y-93621828D01*
X175417011Y-92621828D02*
X175988439Y-92621828D01*
X175631296Y-92121828D02*
X175631296Y-93407542D01*
X175631296Y-93407542D02*
X175702725Y-93550400D01*
X175702725Y-93550400D02*
X175845582Y-93621828D01*
X175845582Y-93621828D02*
X175988439Y-93621828D01*
X176488439Y-93621828D02*
X176488439Y-92621828D01*
X176488439Y-92907542D02*
X176559868Y-92764685D01*
X176559868Y-92764685D02*
X176631297Y-92693257D01*
X176631297Y-92693257D02*
X176774154Y-92621828D01*
X176774154Y-92621828D02*
X176917011Y-92621828D01*
X177631296Y-93621828D02*
X177488439Y-93550400D01*
X177488439Y-93550400D02*
X177417010Y-93478971D01*
X177417010Y-93478971D02*
X177345582Y-93336114D01*
X177345582Y-93336114D02*
X177345582Y-92907542D01*
X177345582Y-92907542D02*
X177417010Y-92764685D01*
X177417010Y-92764685D02*
X177488439Y-92693257D01*
X177488439Y-92693257D02*
X177631296Y-92621828D01*
X177631296Y-92621828D02*
X177845582Y-92621828D01*
X177845582Y-92621828D02*
X177988439Y-92693257D01*
X177988439Y-92693257D02*
X178059868Y-92764685D01*
X178059868Y-92764685D02*
X178131296Y-92907542D01*
X178131296Y-92907542D02*
X178131296Y-93336114D01*
X178131296Y-93336114D02*
X178059868Y-93478971D01*
X178059868Y-93478971D02*
X177988439Y-93550400D01*
X177988439Y-93550400D02*
X177845582Y-93621828D01*
X177845582Y-93621828D02*
X177631296Y-93621828D01*
X178988439Y-93621828D02*
X178845582Y-93550400D01*
X178845582Y-93550400D02*
X178774153Y-93407542D01*
X178774153Y-93407542D02*
X178774153Y-92121828D01*
X179774153Y-93621828D02*
X179631296Y-93550400D01*
X179631296Y-93550400D02*
X179559867Y-93407542D01*
X179559867Y-93407542D02*
X179559867Y-92121828D01*
X180917010Y-93550400D02*
X180774153Y-93621828D01*
X180774153Y-93621828D02*
X180488439Y-93621828D01*
X180488439Y-93621828D02*
X180345581Y-93550400D01*
X180345581Y-93550400D02*
X180274153Y-93407542D01*
X180274153Y-93407542D02*
X180274153Y-92836114D01*
X180274153Y-92836114D02*
X180345581Y-92693257D01*
X180345581Y-92693257D02*
X180488439Y-92621828D01*
X180488439Y-92621828D02*
X180774153Y-92621828D01*
X180774153Y-92621828D02*
X180917010Y-92693257D01*
X180917010Y-92693257D02*
X180988439Y-92836114D01*
X180988439Y-92836114D02*
X180988439Y-92978971D01*
X180988439Y-92978971D02*
X180274153Y-93121828D01*
X181631295Y-93621828D02*
X181631295Y-92621828D01*
X181631295Y-92907542D02*
X181702724Y-92764685D01*
X181702724Y-92764685D02*
X181774153Y-92693257D01*
X181774153Y-92693257D02*
X181917010Y-92621828D01*
X181917010Y-92621828D02*
X182059867Y-92621828D01*
X171702725Y-94536744D02*
X171845582Y-94536744D01*
X171845582Y-94536744D02*
X171988439Y-94608173D01*
X171988439Y-94608173D02*
X172059868Y-94679601D01*
X172059868Y-94679601D02*
X172131296Y-94822458D01*
X172131296Y-94822458D02*
X172202725Y-95108173D01*
X172202725Y-95108173D02*
X172202725Y-95465316D01*
X172202725Y-95465316D02*
X172131296Y-95751030D01*
X172131296Y-95751030D02*
X172059868Y-95893887D01*
X172059868Y-95893887D02*
X171988439Y-95965316D01*
X171988439Y-95965316D02*
X171845582Y-96036744D01*
X171845582Y-96036744D02*
X171702725Y-96036744D01*
X171702725Y-96036744D02*
X171559868Y-95965316D01*
X171559868Y-95965316D02*
X171488439Y-95893887D01*
X171488439Y-95893887D02*
X171417010Y-95751030D01*
X171417010Y-95751030D02*
X171345582Y-95465316D01*
X171345582Y-95465316D02*
X171345582Y-95108173D01*
X171345582Y-95108173D02*
X171417010Y-94822458D01*
X171417010Y-94822458D02*
X171488439Y-94679601D01*
X171488439Y-94679601D02*
X171559868Y-94608173D01*
X171559868Y-94608173D02*
X171702725Y-94536744D01*
X172845581Y-95893887D02*
X172917010Y-95965316D01*
X172917010Y-95965316D02*
X172845581Y-96036744D01*
X172845581Y-96036744D02*
X172774153Y-95965316D01*
X172774153Y-95965316D02*
X172845581Y-95893887D01*
X172845581Y-95893887D02*
X172845581Y-96036744D01*
X173488439Y-94679601D02*
X173559867Y-94608173D01*
X173559867Y-94608173D02*
X173702725Y-94536744D01*
X173702725Y-94536744D02*
X174059867Y-94536744D01*
X174059867Y-94536744D02*
X174202725Y-94608173D01*
X174202725Y-94608173D02*
X174274153Y-94679601D01*
X174274153Y-94679601D02*
X174345582Y-94822458D01*
X174345582Y-94822458D02*
X174345582Y-94965316D01*
X174345582Y-94965316D02*
X174274153Y-95179601D01*
X174274153Y-95179601D02*
X173417010Y-96036744D01*
X173417010Y-96036744D02*
X174345582Y-96036744D01*
D12*
X169960000Y-88748584D02*
X182460000Y-88748584D01*
X182460000Y-98391416D01*
X169960000Y-98391416D01*
X169960000Y-88748584D01*
D13*
%TO.P,C3,1*%
%TO.N,GND*%
X147345000Y-94380000D03*
%TO.P,C3,2*%
%TO.N,+8V*%
X142345000Y-94380000D03*
%TD*%
D14*
%TO.P,J2,1*%
%TO.N,GND*%
X165800000Y-114220000D03*
D15*
%TO.P,J2,2*%
%TO.N,+8V*%
X167070000Y-111680000D03*
%TO.P,J2,3*%
%TO.N,Net-(J1-Pad3)*%
X168340000Y-114220000D03*
%TO.P,J2,4*%
%TO.N,Net-(J1-Pad4)*%
X169610000Y-111680000D03*
%TO.P,J2,5*%
%TO.N,Net-(J1-Pad5)*%
X170880000Y-114220000D03*
%TO.P,J2,6*%
%TO.N,Net-(J2-Pad6)*%
X172150000Y-111680000D03*
%TO.P,J2,7*%
%TO.N,GND*%
X173420000Y-114220000D03*
%TO.P,J2,8*%
%TO.N,+8V*%
X174690000Y-111680000D03*
%TD*%
D13*
%TO.P,C4,1*%
%TO.N,GND*%
X147345000Y-99333000D03*
%TO.P,C4,2*%
%TO.N,Net-(U1-VOUT)*%
X142345000Y-99333000D03*
%TD*%
%TO.P,R1,1*%
%TO.N,Net-(J1-Pad3)*%
X164530000Y-99866400D03*
%TO.P,R1,2*%
%TO.N,Net-(A1-GP17)*%
X164530000Y-89706400D03*
%TD*%
%TO.P,R3,1*%
%TO.N,Net-(J2-Pad6)*%
X157419000Y-99866400D03*
%TO.P,R3,2*%
%TO.N,Net-(A1-GP22)*%
X157419000Y-89706400D03*
%TD*%
D16*
%TO.P,U1,1,VOUT_1*%
%TO.N,Net-(U1-VOUT)*%
X137772500Y-99372500D03*
%TO.P,U1,2,GND_2*%
%TO.N,GND*%
X137772500Y-96832500D03*
%TO.P,U1,3,VIN_3*%
%TO.N,+8V*%
X137772500Y-94292500D03*
%TO.P,U1,4,~{SHDN}_4*%
%TO.N,unconnected-(U1-~{SHDN}-Pad4)*%
X137772500Y-91752500D03*
%TO.P,U1,5,PG_5*%
%TO.N,unconnected-(U1-PG-Pad5)*%
X137772500Y-89212500D03*
%TD*%
D14*
%TO.P,J1,1*%
%TO.N,GND*%
X128970000Y-114220000D03*
D15*
%TO.P,J1,2*%
%TO.N,+8V*%
X130240000Y-111680000D03*
%TO.P,J1,3*%
%TO.N,Net-(J1-Pad3)*%
X131510000Y-114220000D03*
%TO.P,J1,4*%
%TO.N,Net-(J1-Pad4)*%
X132780000Y-111680000D03*
%TO.P,J1,5*%
%TO.N,Net-(J1-Pad5)*%
X134050000Y-114220000D03*
%TO.P,J1,6*%
%TO.N,Net-(J1-Pad6)*%
X135320000Y-111680000D03*
%TO.P,J1,7*%
%TO.N,GND*%
X136590000Y-114220000D03*
%TO.P,J1,8*%
%TO.N,+8V*%
X137860000Y-111680000D03*
%TD*%
D17*
%TO.P,A1,1,+3V3_1*%
%TO.N,unconnected-(A1-+3V3-Pad1)*%
X175630000Y-83870000D03*
D18*
%TO.P,A1,2,+5V_2*%
%TO.N,Net-(U1-VOUT)*%
X175630000Y-81330000D03*
%TO.P,A1,3,GP2/SDA_3*%
%TO.N,unconnected-(A1-GP2{slash}SDA-Pad3)*%
X173090000Y-83870000D03*
%TO.P,A1,4,+5V_4*%
%TO.N,unconnected-(A1-+5V-Pad4)*%
X173090000Y-81330000D03*
%TO.P,A1,5,GP3/SCL_5*%
%TO.N,unconnected-(A1-GP3{slash}SCL-Pad5)*%
X170550000Y-83870000D03*
%TO.P,A1,6,GND_6*%
%TO.N,GND*%
X170550000Y-81330000D03*
%TO.P,A1,7,GP4_7*%
%TO.N,unconnected-(A1-GP4-Pad7)*%
X168010000Y-83870000D03*
%TO.P,A1,8,GP14/TXD_8*%
%TO.N,unconnected-(A1-GP14{slash}TXD-Pad8)*%
X168010000Y-81330000D03*
%TO.P,A1,9,GND_9*%
%TO.N,GND*%
X165470000Y-83870000D03*
%TO.P,A1,10,GP15/RXD_10*%
%TO.N,unconnected-(A1-GP15{slash}RXD-Pad10)*%
X165470000Y-81330000D03*
%TO.P,A1,11,GP17_11*%
%TO.N,Net-(A1-GP17)*%
X162930000Y-83870000D03*
%TO.P,A1,12,GP18_12*%
%TO.N,unconnected-(A1-GP18-Pad12)*%
X162930000Y-81330000D03*
%TO.P,A1,13,GP27_13*%
%TO.N,Net-(A1-GP27)*%
X160390000Y-83870000D03*
%TO.P,A1,14,GND_14*%
%TO.N,GND*%
X160390000Y-81330000D03*
%TO.P,A1,15,GP22_15*%
%TO.N,Net-(A1-GP22)*%
X157850000Y-83870000D03*
%TO.P,A1,16,GP23_16*%
%TO.N,unconnected-(A1-GP23-Pad16)*%
X157850000Y-81330000D03*
%TO.P,A1,17,+3V3_17*%
%TO.N,unconnected-(A1-+3V3-Pad17)*%
X155310000Y-83870000D03*
%TO.P,A1,18,GP24_18*%
%TO.N,unconnected-(A1-GP24-Pad18)*%
X155310000Y-81330000D03*
%TO.P,A1,19,GP10/MOSI_19*%
%TO.N,unconnected-(A1-GP10{slash}MOSI-Pad19)*%
X152770000Y-83870000D03*
%TO.P,A1,20,GND_20*%
%TO.N,GND*%
X152770000Y-81330000D03*
%TO.P,A1,21,GP9/MISO_21*%
%TO.N,unconnected-(A1-GP9{slash}MISO-Pad21)*%
X150230000Y-83870000D03*
%TO.P,A1,22,GP25_22*%
%TO.N,unconnected-(A1-GP25-Pad22)*%
X150230000Y-81330000D03*
%TO.P,A1,23,GP11/SCLK_23*%
%TO.N,unconnected-(A1-GP11{slash}SCLK-Pad23)*%
X147690000Y-83870000D03*
%TO.P,A1,24,GP8/CS0_24*%
%TO.N,unconnected-(A1-GP8{slash}CS0-Pad24)*%
X147690000Y-81330000D03*
%TO.P,A1,25,GND_25*%
%TO.N,GND*%
X145150000Y-83870000D03*
%TO.P,A1,26,GP7/CS1_26*%
%TO.N,unconnected-(A1-GP7{slash}CS1-Pad26)*%
X145150000Y-81330000D03*
%TO.P,A1,27,GP0_27*%
%TO.N,unconnected-(A1-GP0-Pad27)*%
X142610000Y-83870000D03*
%TO.P,A1,28,GP1_28*%
%TO.N,unconnected-(A1-GP1-Pad28)*%
X142610000Y-81330000D03*
%TO.P,A1,29,GP5_29*%
%TO.N,unconnected-(A1-GP5-Pad29)*%
X140070000Y-83870000D03*
%TO.P,A1,30,GND_30*%
%TO.N,GND*%
X140070000Y-81330000D03*
%TO.P,A1,31,GP6_31*%
%TO.N,unconnected-(A1-GP6-Pad31)*%
X137530000Y-83870000D03*
%TO.P,A1,32,GP12/PWM0_32*%
%TO.N,unconnected-(A1-GP12{slash}PWM0-Pad32)*%
X137530000Y-81330000D03*
%TO.P,A1,33,GP13/PWM1_33*%
%TO.N,unconnected-(A1-GP13{slash}PWM1-Pad33)*%
X134990000Y-83870000D03*
%TO.P,A1,34,GND_34*%
%TO.N,GND*%
X134990000Y-81330000D03*
%TO.P,A1,35,GP19_35*%
%TO.N,unconnected-(A1-GP19-Pad35)*%
X132450000Y-83870000D03*
%TO.P,A1,36,GP16_36*%
%TO.N,unconnected-(A1-GP16-Pad36)*%
X132450000Y-81330000D03*
%TO.P,A1,37,GP26_37*%
%TO.N,unconnected-(A1-GP26-Pad37)*%
X129910000Y-83870000D03*
%TO.P,A1,38,GP20_38*%
%TO.N,unconnected-(A1-GP20-Pad38)*%
X129910000Y-81330000D03*
%TO.P,A1,39,GND_39*%
%TO.N,GND*%
X127370000Y-83870000D03*
%TO.P,A1,40,GP21_40*%
%TO.N,unconnected-(A1-GP21-Pad40)*%
X127370000Y-81330000D03*
D19*
%TO.P,A1,PP1,+5V_USB_PP1*%
%TO.N,unconnected-(A1-+5V_USB-PadPP1)*%
X130200000Y-102800000D03*
%TO.P,A1,PP6,GND_PP6*%
%TO.N,GND*%
X129900000Y-105600000D03*
D15*
%TO.P,A1,PP22,USB_D+_PP22*%
%TO.N,unconnected-(A1-USB_D+-PadPP22)*%
X142000000Y-107250000D03*
%TO.P,A1,PP23,USB_D-_PP23*%
%TO.N,unconnected-(A1-USB_D--PadPP23)*%
X143850000Y-107250000D03*
%TD*%
D13*
%TO.P,R2,1*%
%TO.N,Net-(J1-Pad6)*%
X160974000Y-99866400D03*
%TO.P,R2,2*%
%TO.N,Net-(A1-GP27)*%
X160974000Y-89706400D03*
%TD*%
D20*
%TO.N,+8V*%
X139638000Y-109112000D03*
X174690000Y-109112000D03*
X167070000Y-109112000D03*
X130240000Y-109112000D03*
X139638000Y-94380000D03*
X137860000Y-109112000D03*
%TO.N,Net-(J1-Pad3)*%
X158180000Y-118070000D03*
X158180000Y-107080000D03*
X168340000Y-118070000D03*
X131510000Y-118070000D03*
X164530000Y-107080000D03*
%TO.N,Net-(J1-Pad4)*%
X132780000Y-117240000D03*
X169610000Y-117240000D03*
%TO.N,Net-(J1-Pad5)*%
X170880000Y-116224000D03*
X134050000Y-116224000D03*
%TO.N,Net-(J2-Pad6)*%
X172150000Y-103016000D03*
X157418000Y-103016000D03*
%TO.N,Net-(U1-VOUT)*%
X140400000Y-86252000D03*
X140400000Y-99372500D03*
X177230000Y-86252000D03*
%TO.N,Net-(J1-Pad6)*%
X135320000Y-101746000D03*
X160974000Y-101746000D03*
%TD*%
%TO.N,+8V*%
D21*
X142257500Y-94292500D02*
X142345000Y-94380000D01*
X137860000Y-109112000D02*
X139638000Y-109112000D01*
X139638000Y-109112000D02*
X167070000Y-109112000D01*
X130460000Y-109070000D02*
X138080000Y-109070000D01*
X167070000Y-109112000D02*
X174690000Y-109112000D01*
X137772500Y-94292500D02*
X142257500Y-94292500D01*
%TO.N,Net-(J1-Pad3)*%
X168340000Y-118070000D02*
X131510000Y-118070000D01*
X158180000Y-107080000D02*
X164530000Y-107080000D01*
%TO.N,Net-(J1-Pad4)*%
X132780000Y-117240000D02*
X169610000Y-117240000D01*
%TO.N,Net-(J1-Pad5)*%
X170880000Y-116224000D02*
X134050000Y-116224000D01*
%TO.N,Net-(J2-Pad6)*%
X171896000Y-103016000D02*
X157672000Y-103016000D01*
%TO.N,Net-(U1-VOUT)*%
X142305500Y-99372500D02*
X142345000Y-99333000D01*
X140400000Y-99372500D02*
X140400000Y-99206000D01*
X140400000Y-99372500D02*
X142305500Y-99372500D01*
X175630000Y-81330000D02*
X175630000Y-81451600D01*
X175630000Y-81451600D02*
X175731400Y-81553000D01*
X175630000Y-81350000D02*
X175960000Y-81680000D01*
X177230000Y-86252000D02*
X140654000Y-86252000D01*
X137772500Y-99372500D02*
X140400000Y-99372500D01*
%TO.N,Net-(J1-Pad6)*%
X135320000Y-101746000D02*
X160943249Y-101746000D01*
%TD*%
M02*
