%TF.GenerationSoftware,KiCad,Pcbnew,10.0.1-10.0.1~ubuntu24.04.1*%
%TF.CreationDate,2026-05-12T21:30:37-07:00*%
%TF.ProjectId,PiZeroHat,50695a65-726f-4486-9174-2e6b69636164,rev?*%
%TF.SameCoordinates,Original*%
%TF.FileFunction,Drillmap*%
%TF.FilePolarity,Positive*%
%FSLAX45Y45*%
G04 Gerber Fmt 4.5, Leading zero omitted, Abs format (unit mm)*
G04 Created by KiCad (PCBNEW 10.0.1-10.0.1~ubuntu24.04.1) date 2026-05-12 21:30:37*
%MOMM*%
%LPD*%
G01*
G04 APERTURE LIST*
%ADD10C,0.100000*%
%ADD11C,0.200000*%
%ADD12C,0.275000*%
%ADD13C,0.320000*%
G04 APERTURE END LIST*
D10*
X11900000Y-8210000D02*
X11900000Y-12110000D01*
X11900000Y-8210000D02*
G75*
G02*
X12200000Y-7910000I300000J0D01*
G01*
X12200000Y-7910000D02*
X18100000Y-7910000D01*
X12200000Y-12410000D02*
G75*
G02*
X11900000Y-12110000I0J300000D01*
G01*
X12200000Y-12410000D02*
X18100000Y-12410000D01*
X18100000Y-7910000D02*
G75*
G02*
X18400000Y-8210000I0J-300000D01*
G01*
X18400000Y-12110000D02*
G75*
G02*
X18100000Y-12410000I-300000J0D01*
G01*
X18400000Y-12110000D02*
X18400000Y-8210000D01*
D11*
D12*
X12112500Y-8122500D02*
X12387500Y-8397500D01*
X12387500Y-8122500D02*
X12112500Y-8397500D01*
X12112500Y-10422500D02*
X12387500Y-10697500D01*
X12387500Y-10422500D02*
X12112500Y-10697500D01*
X17912500Y-8122500D02*
X18187500Y-8397500D01*
X18187500Y-8122500D02*
X17912500Y-8397500D01*
X17912500Y-10422500D02*
X18187500Y-10697500D01*
X18187500Y-10422500D02*
X17912500Y-10697500D01*
D13*
X12930000Y-12057000D02*
G75*
G02*
X12610000Y-12057000I-160000J0D01*
G01*
X12610000Y-12057000D02*
G75*
G02*
X12930000Y-12057000I160000J0D01*
G01*
X14073000Y-12057000D02*
G75*
G02*
X13753000Y-12057000I-160000J0D01*
G01*
X13753000Y-12057000D02*
G75*
G02*
X14073000Y-12057000I160000J0D01*
G01*
X16613000Y-12057000D02*
G75*
G02*
X16293000Y-12057000I-160000J0D01*
G01*
X16293000Y-12057000D02*
G75*
G02*
X16613000Y-12057000I160000J0D01*
G01*
X17756000Y-12057000D02*
G75*
G02*
X17436000Y-12057000I-160000J0D01*
G01*
X17436000Y-12057000D02*
G75*
G02*
X17756000Y-12057000I160000J0D01*
G01*
D11*
X12155777Y-12726484D02*
X12155777Y-12526484D01*
X12155777Y-12526484D02*
X12203396Y-12526484D01*
X12203396Y-12526484D02*
X12231967Y-12536008D01*
X12231967Y-12536008D02*
X12251015Y-12555055D01*
X12251015Y-12555055D02*
X12260539Y-12574103D01*
X12260539Y-12574103D02*
X12270062Y-12612198D01*
X12270062Y-12612198D02*
X12270062Y-12640769D01*
X12270062Y-12640769D02*
X12260539Y-12678865D01*
X12260539Y-12678865D02*
X12251015Y-12697912D01*
X12251015Y-12697912D02*
X12231967Y-12716960D01*
X12231967Y-12716960D02*
X12203396Y-12726484D01*
X12203396Y-12726484D02*
X12155777Y-12726484D01*
X12355777Y-12726484D02*
X12355777Y-12593150D01*
X12355777Y-12631246D02*
X12365301Y-12612198D01*
X12365301Y-12612198D02*
X12374824Y-12602674D01*
X12374824Y-12602674D02*
X12393872Y-12593150D01*
X12393872Y-12593150D02*
X12412920Y-12593150D01*
X12479586Y-12726484D02*
X12479586Y-12593150D01*
X12479586Y-12526484D02*
X12470062Y-12536008D01*
X12470062Y-12536008D02*
X12479586Y-12545531D01*
X12479586Y-12545531D02*
X12489110Y-12536008D01*
X12489110Y-12536008D02*
X12479586Y-12526484D01*
X12479586Y-12526484D02*
X12479586Y-12545531D01*
X12603396Y-12726484D02*
X12584348Y-12716960D01*
X12584348Y-12716960D02*
X12574824Y-12697912D01*
X12574824Y-12697912D02*
X12574824Y-12526484D01*
X12708158Y-12726484D02*
X12689110Y-12716960D01*
X12689110Y-12716960D02*
X12679586Y-12697912D01*
X12679586Y-12697912D02*
X12679586Y-12526484D01*
X12936729Y-12726484D02*
X12936729Y-12526484D01*
X12936729Y-12526484D02*
X13003396Y-12669341D01*
X13003396Y-12669341D02*
X13070062Y-12526484D01*
X13070062Y-12526484D02*
X13070062Y-12726484D01*
X13251015Y-12726484D02*
X13251015Y-12621722D01*
X13251015Y-12621722D02*
X13241491Y-12602674D01*
X13241491Y-12602674D02*
X13222443Y-12593150D01*
X13222443Y-12593150D02*
X13184348Y-12593150D01*
X13184348Y-12593150D02*
X13165301Y-12602674D01*
X13251015Y-12716960D02*
X13231967Y-12726484D01*
X13231967Y-12726484D02*
X13184348Y-12726484D01*
X13184348Y-12726484D02*
X13165301Y-12716960D01*
X13165301Y-12716960D02*
X13155777Y-12697912D01*
X13155777Y-12697912D02*
X13155777Y-12678865D01*
X13155777Y-12678865D02*
X13165301Y-12659817D01*
X13165301Y-12659817D02*
X13184348Y-12650293D01*
X13184348Y-12650293D02*
X13231967Y-12650293D01*
X13231967Y-12650293D02*
X13251015Y-12640769D01*
X13346253Y-12593150D02*
X13346253Y-12793150D01*
X13346253Y-12602674D02*
X13365301Y-12593150D01*
X13365301Y-12593150D02*
X13403396Y-12593150D01*
X13403396Y-12593150D02*
X13422443Y-12602674D01*
X13422443Y-12602674D02*
X13431967Y-12612198D01*
X13431967Y-12612198D02*
X13441491Y-12631246D01*
X13441491Y-12631246D02*
X13441491Y-12688388D01*
X13441491Y-12688388D02*
X13431967Y-12707436D01*
X13431967Y-12707436D02*
X13422443Y-12716960D01*
X13422443Y-12716960D02*
X13403396Y-12726484D01*
X13403396Y-12726484D02*
X13365301Y-12726484D01*
X13365301Y-12726484D02*
X13346253Y-12716960D01*
X13527205Y-12707436D02*
X13536729Y-12716960D01*
X13536729Y-12716960D02*
X13527205Y-12726484D01*
X13527205Y-12726484D02*
X13517682Y-12716960D01*
X13517682Y-12716960D02*
X13527205Y-12707436D01*
X13527205Y-12707436D02*
X13527205Y-12726484D01*
X13527205Y-12602674D02*
X13536729Y-12612198D01*
X13536729Y-12612198D02*
X13527205Y-12621722D01*
X13527205Y-12621722D02*
X13517682Y-12612198D01*
X13517682Y-12612198D02*
X13527205Y-12602674D01*
X13527205Y-12602674D02*
X13527205Y-12621722D01*
X11695000Y-12955000D02*
X11895000Y-13155000D01*
X11895000Y-12955000D02*
X11695000Y-13155000D01*
X12146253Y-12965531D02*
X12155777Y-12956008D01*
X12155777Y-12956008D02*
X12174824Y-12946484D01*
X12174824Y-12946484D02*
X12222443Y-12946484D01*
X12222443Y-12946484D02*
X12241491Y-12956008D01*
X12241491Y-12956008D02*
X12251015Y-12965531D01*
X12251015Y-12965531D02*
X12260539Y-12984579D01*
X12260539Y-12984579D02*
X12260539Y-13003627D01*
X12260539Y-13003627D02*
X12251015Y-13032198D01*
X12251015Y-13032198D02*
X12136729Y-13146484D01*
X12136729Y-13146484D02*
X12260539Y-13146484D01*
X12346253Y-13127436D02*
X12355777Y-13136960D01*
X12355777Y-13136960D02*
X12346253Y-13146484D01*
X12346253Y-13146484D02*
X12336729Y-13136960D01*
X12336729Y-13136960D02*
X12346253Y-13127436D01*
X12346253Y-13127436D02*
X12346253Y-13146484D01*
X12422443Y-12946484D02*
X12555777Y-12946484D01*
X12555777Y-12946484D02*
X12470062Y-13146484D01*
X12727205Y-12946484D02*
X12631967Y-12946484D01*
X12631967Y-12946484D02*
X12622443Y-13041722D01*
X12622443Y-13041722D02*
X12631967Y-13032198D01*
X12631967Y-13032198D02*
X12651015Y-13022674D01*
X12651015Y-13022674D02*
X12698634Y-13022674D01*
X12698634Y-13022674D02*
X12717682Y-13032198D01*
X12717682Y-13032198D02*
X12727205Y-13041722D01*
X12727205Y-13041722D02*
X12736729Y-13060769D01*
X12736729Y-13060769D02*
X12736729Y-13108388D01*
X12736729Y-13108388D02*
X12727205Y-13127436D01*
X12727205Y-13127436D02*
X12717682Y-13136960D01*
X12717682Y-13136960D02*
X12698634Y-13146484D01*
X12698634Y-13146484D02*
X12651015Y-13146484D01*
X12651015Y-13146484D02*
X12631967Y-13136960D01*
X12631967Y-13136960D02*
X12622443Y-13127436D01*
X12860539Y-12946484D02*
X12879586Y-12946484D01*
X12879586Y-12946484D02*
X12898634Y-12956008D01*
X12898634Y-12956008D02*
X12908158Y-12965531D01*
X12908158Y-12965531D02*
X12917682Y-12984579D01*
X12917682Y-12984579D02*
X12927205Y-13022674D01*
X12927205Y-13022674D02*
X12927205Y-13070293D01*
X12927205Y-13070293D02*
X12917682Y-13108388D01*
X12917682Y-13108388D02*
X12908158Y-13127436D01*
X12908158Y-13127436D02*
X12898634Y-13136960D01*
X12898634Y-13136960D02*
X12879586Y-13146484D01*
X12879586Y-13146484D02*
X12860539Y-13146484D01*
X12860539Y-13146484D02*
X12841491Y-13136960D01*
X12841491Y-13136960D02*
X12831967Y-13127436D01*
X12831967Y-13127436D02*
X12822443Y-13108388D01*
X12822443Y-13108388D02*
X12812920Y-13070293D01*
X12812920Y-13070293D02*
X12812920Y-13022674D01*
X12812920Y-13022674D02*
X12822443Y-12984579D01*
X12822443Y-12984579D02*
X12831967Y-12965531D01*
X12831967Y-12965531D02*
X12841491Y-12956008D01*
X12841491Y-12956008D02*
X12860539Y-12946484D01*
X13012920Y-13146484D02*
X13012920Y-13013150D01*
X13012920Y-13032198D02*
X13022443Y-13022674D01*
X13022443Y-13022674D02*
X13041491Y-13013150D01*
X13041491Y-13013150D02*
X13070063Y-13013150D01*
X13070063Y-13013150D02*
X13089110Y-13022674D01*
X13089110Y-13022674D02*
X13098634Y-13041722D01*
X13098634Y-13041722D02*
X13098634Y-13146484D01*
X13098634Y-13041722D02*
X13108158Y-13022674D01*
X13108158Y-13022674D02*
X13127205Y-13013150D01*
X13127205Y-13013150D02*
X13155777Y-13013150D01*
X13155777Y-13013150D02*
X13174824Y-13022674D01*
X13174824Y-13022674D02*
X13184348Y-13041722D01*
X13184348Y-13041722D02*
X13184348Y-13146484D01*
X13279586Y-13146484D02*
X13279586Y-13013150D01*
X13279586Y-13032198D02*
X13289110Y-13022674D01*
X13289110Y-13022674D02*
X13308158Y-13013150D01*
X13308158Y-13013150D02*
X13336729Y-13013150D01*
X13336729Y-13013150D02*
X13355777Y-13022674D01*
X13355777Y-13022674D02*
X13365301Y-13041722D01*
X13365301Y-13041722D02*
X13365301Y-13146484D01*
X13365301Y-13041722D02*
X13374824Y-13022674D01*
X13374824Y-13022674D02*
X13393872Y-13013150D01*
X13393872Y-13013150D02*
X13422443Y-13013150D01*
X13422443Y-13013150D02*
X13441491Y-13022674D01*
X13441491Y-13022674D02*
X13451015Y-13041722D01*
X13451015Y-13041722D02*
X13451015Y-13146484D01*
X13841491Y-12936960D02*
X13670063Y-13194103D01*
X14098634Y-12946484D02*
X14117682Y-12946484D01*
X14117682Y-12946484D02*
X14136729Y-12956008D01*
X14136729Y-12956008D02*
X14146253Y-12965531D01*
X14146253Y-12965531D02*
X14155777Y-12984579D01*
X14155777Y-12984579D02*
X14165301Y-13022674D01*
X14165301Y-13022674D02*
X14165301Y-13070293D01*
X14165301Y-13070293D02*
X14155777Y-13108388D01*
X14155777Y-13108388D02*
X14146253Y-13127436D01*
X14146253Y-13127436D02*
X14136729Y-13136960D01*
X14136729Y-13136960D02*
X14117682Y-13146484D01*
X14117682Y-13146484D02*
X14098634Y-13146484D01*
X14098634Y-13146484D02*
X14079586Y-13136960D01*
X14079586Y-13136960D02*
X14070063Y-13127436D01*
X14070063Y-13127436D02*
X14060539Y-13108388D01*
X14060539Y-13108388D02*
X14051015Y-13070293D01*
X14051015Y-13070293D02*
X14051015Y-13022674D01*
X14051015Y-13022674D02*
X14060539Y-12984579D01*
X14060539Y-12984579D02*
X14070063Y-12965531D01*
X14070063Y-12965531D02*
X14079586Y-12956008D01*
X14079586Y-12956008D02*
X14098634Y-12946484D01*
X14251015Y-13127436D02*
X14260539Y-13136960D01*
X14260539Y-13136960D02*
X14251015Y-13146484D01*
X14251015Y-13146484D02*
X14241491Y-13136960D01*
X14241491Y-13136960D02*
X14251015Y-13127436D01*
X14251015Y-13127436D02*
X14251015Y-13146484D01*
X14451015Y-13146484D02*
X14336729Y-13146484D01*
X14393872Y-13146484D02*
X14393872Y-12946484D01*
X14393872Y-12946484D02*
X14374825Y-12975055D01*
X14374825Y-12975055D02*
X14355777Y-12994103D01*
X14355777Y-12994103D02*
X14336729Y-13003627D01*
X14574825Y-12946484D02*
X14593872Y-12946484D01*
X14593872Y-12946484D02*
X14612920Y-12956008D01*
X14612920Y-12956008D02*
X14622444Y-12965531D01*
X14622444Y-12965531D02*
X14631967Y-12984579D01*
X14631967Y-12984579D02*
X14641491Y-13022674D01*
X14641491Y-13022674D02*
X14641491Y-13070293D01*
X14641491Y-13070293D02*
X14631967Y-13108388D01*
X14631967Y-13108388D02*
X14622444Y-13127436D01*
X14622444Y-13127436D02*
X14612920Y-13136960D01*
X14612920Y-13136960D02*
X14593872Y-13146484D01*
X14593872Y-13146484D02*
X14574825Y-13146484D01*
X14574825Y-13146484D02*
X14555777Y-13136960D01*
X14555777Y-13136960D02*
X14546253Y-13127436D01*
X14546253Y-13127436D02*
X14536729Y-13108388D01*
X14536729Y-13108388D02*
X14527206Y-13070293D01*
X14527206Y-13070293D02*
X14527206Y-13022674D01*
X14527206Y-13022674D02*
X14536729Y-12984579D01*
X14536729Y-12984579D02*
X14546253Y-12965531D01*
X14546253Y-12965531D02*
X14555777Y-12956008D01*
X14555777Y-12956008D02*
X14574825Y-12946484D01*
X14755777Y-13032198D02*
X14736729Y-13022674D01*
X14736729Y-13022674D02*
X14727206Y-13013150D01*
X14727206Y-13013150D02*
X14717682Y-12994103D01*
X14717682Y-12994103D02*
X14717682Y-12984579D01*
X14717682Y-12984579D02*
X14727206Y-12965531D01*
X14727206Y-12965531D02*
X14736729Y-12956008D01*
X14736729Y-12956008D02*
X14755777Y-12946484D01*
X14755777Y-12946484D02*
X14793872Y-12946484D01*
X14793872Y-12946484D02*
X14812920Y-12956008D01*
X14812920Y-12956008D02*
X14822444Y-12965531D01*
X14822444Y-12965531D02*
X14831967Y-12984579D01*
X14831967Y-12984579D02*
X14831967Y-12994103D01*
X14831967Y-12994103D02*
X14822444Y-13013150D01*
X14822444Y-13013150D02*
X14812920Y-13022674D01*
X14812920Y-13022674D02*
X14793872Y-13032198D01*
X14793872Y-13032198D02*
X14755777Y-13032198D01*
X14755777Y-13032198D02*
X14736729Y-13041722D01*
X14736729Y-13041722D02*
X14727206Y-13051246D01*
X14727206Y-13051246D02*
X14717682Y-13070293D01*
X14717682Y-13070293D02*
X14717682Y-13108388D01*
X14717682Y-13108388D02*
X14727206Y-13127436D01*
X14727206Y-13127436D02*
X14736729Y-13136960D01*
X14736729Y-13136960D02*
X14755777Y-13146484D01*
X14755777Y-13146484D02*
X14793872Y-13146484D01*
X14793872Y-13146484D02*
X14812920Y-13136960D01*
X14812920Y-13136960D02*
X14822444Y-13127436D01*
X14822444Y-13127436D02*
X14831967Y-13108388D01*
X14831967Y-13108388D02*
X14831967Y-13070293D01*
X14831967Y-13070293D02*
X14822444Y-13051246D01*
X14822444Y-13051246D02*
X14812920Y-13041722D01*
X14812920Y-13041722D02*
X14793872Y-13032198D01*
X14898634Y-12946484D02*
X15022444Y-12946484D01*
X15022444Y-12946484D02*
X14955777Y-13022674D01*
X14955777Y-13022674D02*
X14984348Y-13022674D01*
X14984348Y-13022674D02*
X15003396Y-13032198D01*
X15003396Y-13032198D02*
X15012920Y-13041722D01*
X15012920Y-13041722D02*
X15022444Y-13060769D01*
X15022444Y-13060769D02*
X15022444Y-13108388D01*
X15022444Y-13108388D02*
X15012920Y-13127436D01*
X15012920Y-13127436D02*
X15003396Y-13136960D01*
X15003396Y-13136960D02*
X14984348Y-13146484D01*
X14984348Y-13146484D02*
X14927206Y-13146484D01*
X14927206Y-13146484D02*
X14908158Y-13136960D01*
X14908158Y-13136960D02*
X14898634Y-13127436D01*
X15098634Y-12946484D02*
X15098634Y-12984579D01*
X15174825Y-12946484D02*
X15174825Y-12984579D01*
X15470063Y-13222674D02*
X15460539Y-13213150D01*
X15460539Y-13213150D02*
X15441491Y-13184579D01*
X15441491Y-13184579D02*
X15431968Y-13165531D01*
X15431968Y-13165531D02*
X15422444Y-13136960D01*
X15422444Y-13136960D02*
X15412920Y-13089341D01*
X15412920Y-13089341D02*
X15412920Y-13051246D01*
X15412920Y-13051246D02*
X15422444Y-13003627D01*
X15422444Y-13003627D02*
X15431968Y-12975055D01*
X15431968Y-12975055D02*
X15441491Y-12956008D01*
X15441491Y-12956008D02*
X15460539Y-12927436D01*
X15460539Y-12927436D02*
X15470063Y-12917912D01*
X15631968Y-13013150D02*
X15631968Y-13146484D01*
X15584348Y-12936960D02*
X15536729Y-13079817D01*
X15536729Y-13079817D02*
X15660539Y-13079817D01*
X15889110Y-13146484D02*
X15889110Y-12946484D01*
X15974825Y-13146484D02*
X15974825Y-13041722D01*
X15974825Y-13041722D02*
X15965301Y-13022674D01*
X15965301Y-13022674D02*
X15946253Y-13013150D01*
X15946253Y-13013150D02*
X15917682Y-13013150D01*
X15917682Y-13013150D02*
X15898634Y-13022674D01*
X15898634Y-13022674D02*
X15889110Y-13032198D01*
X16098634Y-13146484D02*
X16079587Y-13136960D01*
X16079587Y-13136960D02*
X16070063Y-13127436D01*
X16070063Y-13127436D02*
X16060539Y-13108388D01*
X16060539Y-13108388D02*
X16060539Y-13051246D01*
X16060539Y-13051246D02*
X16070063Y-13032198D01*
X16070063Y-13032198D02*
X16079587Y-13022674D01*
X16079587Y-13022674D02*
X16098634Y-13013150D01*
X16098634Y-13013150D02*
X16127206Y-13013150D01*
X16127206Y-13013150D02*
X16146253Y-13022674D01*
X16146253Y-13022674D02*
X16155777Y-13032198D01*
X16155777Y-13032198D02*
X16165301Y-13051246D01*
X16165301Y-13051246D02*
X16165301Y-13108388D01*
X16165301Y-13108388D02*
X16155777Y-13127436D01*
X16155777Y-13127436D02*
X16146253Y-13136960D01*
X16146253Y-13136960D02*
X16127206Y-13146484D01*
X16127206Y-13146484D02*
X16098634Y-13146484D01*
X16279587Y-13146484D02*
X16260539Y-13136960D01*
X16260539Y-13136960D02*
X16251015Y-13117912D01*
X16251015Y-13117912D02*
X16251015Y-12946484D01*
X16431968Y-13136960D02*
X16412920Y-13146484D01*
X16412920Y-13146484D02*
X16374825Y-13146484D01*
X16374825Y-13146484D02*
X16355777Y-13136960D01*
X16355777Y-13136960D02*
X16346253Y-13117912D01*
X16346253Y-13117912D02*
X16346253Y-13041722D01*
X16346253Y-13041722D02*
X16355777Y-13022674D01*
X16355777Y-13022674D02*
X16374825Y-13013150D01*
X16374825Y-13013150D02*
X16412920Y-13013150D01*
X16412920Y-13013150D02*
X16431968Y-13022674D01*
X16431968Y-13022674D02*
X16441491Y-13041722D01*
X16441491Y-13041722D02*
X16441491Y-13060769D01*
X16441491Y-13060769D02*
X16346253Y-13079817D01*
X16517682Y-13136960D02*
X16536730Y-13146484D01*
X16536730Y-13146484D02*
X16574825Y-13146484D01*
X16574825Y-13146484D02*
X16593872Y-13136960D01*
X16593872Y-13136960D02*
X16603396Y-13117912D01*
X16603396Y-13117912D02*
X16603396Y-13108388D01*
X16603396Y-13108388D02*
X16593872Y-13089341D01*
X16593872Y-13089341D02*
X16574825Y-13079817D01*
X16574825Y-13079817D02*
X16546253Y-13079817D01*
X16546253Y-13079817D02*
X16527206Y-13070293D01*
X16527206Y-13070293D02*
X16517682Y-13051246D01*
X16517682Y-13051246D02*
X16517682Y-13041722D01*
X16517682Y-13041722D02*
X16527206Y-13022674D01*
X16527206Y-13022674D02*
X16546253Y-13013150D01*
X16546253Y-13013150D02*
X16574825Y-13013150D01*
X16574825Y-13013150D02*
X16593872Y-13022674D01*
X16670063Y-13222674D02*
X16679587Y-13213150D01*
X16679587Y-13213150D02*
X16698634Y-13184579D01*
X16698634Y-13184579D02*
X16708158Y-13165531D01*
X16708158Y-13165531D02*
X16717682Y-13136960D01*
X16717682Y-13136960D02*
X16727206Y-13089341D01*
X16727206Y-13089341D02*
X16727206Y-13051246D01*
X16727206Y-13051246D02*
X16717682Y-13003627D01*
X16717682Y-13003627D02*
X16708158Y-12975055D01*
X16708158Y-12975055D02*
X16698634Y-12956008D01*
X16698634Y-12956008D02*
X16679587Y-12927436D01*
X16679587Y-12927436D02*
X16670063Y-12917912D01*
X17031968Y-13222674D02*
X17022444Y-13213150D01*
X17022444Y-13213150D02*
X17003396Y-13184579D01*
X17003396Y-13184579D02*
X16993873Y-13165531D01*
X16993873Y-13165531D02*
X16984349Y-13136960D01*
X16984349Y-13136960D02*
X16974825Y-13089341D01*
X16974825Y-13089341D02*
X16974825Y-13051246D01*
X16974825Y-13051246D02*
X16984349Y-13003627D01*
X16984349Y-13003627D02*
X16993873Y-12975055D01*
X16993873Y-12975055D02*
X17003396Y-12956008D01*
X17003396Y-12956008D02*
X17022444Y-12927436D01*
X17022444Y-12927436D02*
X17031968Y-12917912D01*
X17108158Y-13013150D02*
X17108158Y-13146484D01*
X17108158Y-13032198D02*
X17117682Y-13022674D01*
X17117682Y-13022674D02*
X17136730Y-13013150D01*
X17136730Y-13013150D02*
X17165301Y-13013150D01*
X17165301Y-13013150D02*
X17184349Y-13022674D01*
X17184349Y-13022674D02*
X17193873Y-13041722D01*
X17193873Y-13041722D02*
X17193873Y-13146484D01*
X17317682Y-13146484D02*
X17298634Y-13136960D01*
X17298634Y-13136960D02*
X17289111Y-13127436D01*
X17289111Y-13127436D02*
X17279587Y-13108388D01*
X17279587Y-13108388D02*
X17279587Y-13051246D01*
X17279587Y-13051246D02*
X17289111Y-13032198D01*
X17289111Y-13032198D02*
X17298634Y-13022674D01*
X17298634Y-13022674D02*
X17317682Y-13013150D01*
X17317682Y-13013150D02*
X17346254Y-13013150D01*
X17346254Y-13013150D02*
X17365301Y-13022674D01*
X17365301Y-13022674D02*
X17374825Y-13032198D01*
X17374825Y-13032198D02*
X17384349Y-13051246D01*
X17384349Y-13051246D02*
X17384349Y-13108388D01*
X17384349Y-13108388D02*
X17374825Y-13127436D01*
X17374825Y-13127436D02*
X17365301Y-13136960D01*
X17365301Y-13136960D02*
X17346254Y-13146484D01*
X17346254Y-13146484D02*
X17317682Y-13146484D01*
X17441492Y-13013150D02*
X17517682Y-13013150D01*
X17470063Y-12946484D02*
X17470063Y-13117912D01*
X17470063Y-13117912D02*
X17479587Y-13136960D01*
X17479587Y-13136960D02*
X17498634Y-13146484D01*
X17498634Y-13146484D02*
X17517682Y-13146484D01*
X17736730Y-13013150D02*
X17736730Y-13213150D01*
X17736730Y-13022674D02*
X17755777Y-13013150D01*
X17755777Y-13013150D02*
X17793873Y-13013150D01*
X17793873Y-13013150D02*
X17812920Y-13022674D01*
X17812920Y-13022674D02*
X17822444Y-13032198D01*
X17822444Y-13032198D02*
X17831968Y-13051246D01*
X17831968Y-13051246D02*
X17831968Y-13108388D01*
X17831968Y-13108388D02*
X17822444Y-13127436D01*
X17822444Y-13127436D02*
X17812920Y-13136960D01*
X17812920Y-13136960D02*
X17793873Y-13146484D01*
X17793873Y-13146484D02*
X17755777Y-13146484D01*
X17755777Y-13146484D02*
X17736730Y-13136960D01*
X17946254Y-13146484D02*
X17927206Y-13136960D01*
X17927206Y-13136960D02*
X17917682Y-13117912D01*
X17917682Y-13117912D02*
X17917682Y-12946484D01*
X18108158Y-13146484D02*
X18108158Y-13041722D01*
X18108158Y-13041722D02*
X18098635Y-13022674D01*
X18098635Y-13022674D02*
X18079587Y-13013150D01*
X18079587Y-13013150D02*
X18041492Y-13013150D01*
X18041492Y-13013150D02*
X18022444Y-13022674D01*
X18108158Y-13136960D02*
X18089111Y-13146484D01*
X18089111Y-13146484D02*
X18041492Y-13146484D01*
X18041492Y-13146484D02*
X18022444Y-13136960D01*
X18022444Y-13136960D02*
X18012920Y-13117912D01*
X18012920Y-13117912D02*
X18012920Y-13098865D01*
X18012920Y-13098865D02*
X18022444Y-13079817D01*
X18022444Y-13079817D02*
X18041492Y-13070293D01*
X18041492Y-13070293D02*
X18089111Y-13070293D01*
X18089111Y-13070293D02*
X18108158Y-13060769D01*
X18174825Y-13013150D02*
X18251015Y-13013150D01*
X18203396Y-12946484D02*
X18203396Y-13117912D01*
X18203396Y-13117912D02*
X18212920Y-13136960D01*
X18212920Y-13136960D02*
X18231968Y-13146484D01*
X18231968Y-13146484D02*
X18251015Y-13146484D01*
X18393873Y-13136960D02*
X18374825Y-13146484D01*
X18374825Y-13146484D02*
X18336730Y-13146484D01*
X18336730Y-13146484D02*
X18317682Y-13136960D01*
X18317682Y-13136960D02*
X18308158Y-13117912D01*
X18308158Y-13117912D02*
X18308158Y-13041722D01*
X18308158Y-13041722D02*
X18317682Y-13022674D01*
X18317682Y-13022674D02*
X18336730Y-13013150D01*
X18336730Y-13013150D02*
X18374825Y-13013150D01*
X18374825Y-13013150D02*
X18393873Y-13022674D01*
X18393873Y-13022674D02*
X18403396Y-13041722D01*
X18403396Y-13041722D02*
X18403396Y-13060769D01*
X18403396Y-13060769D02*
X18308158Y-13079817D01*
X18574825Y-13146484D02*
X18574825Y-12946484D01*
X18574825Y-13136960D02*
X18555777Y-13146484D01*
X18555777Y-13146484D02*
X18517682Y-13146484D01*
X18517682Y-13146484D02*
X18498635Y-13136960D01*
X18498635Y-13136960D02*
X18489111Y-13127436D01*
X18489111Y-13127436D02*
X18479587Y-13108388D01*
X18479587Y-13108388D02*
X18479587Y-13051246D01*
X18479587Y-13051246D02*
X18489111Y-13032198D01*
X18489111Y-13032198D02*
X18498635Y-13022674D01*
X18498635Y-13022674D02*
X18517682Y-13013150D01*
X18517682Y-13013150D02*
X18555777Y-13013150D01*
X18555777Y-13013150D02*
X18574825Y-13022674D01*
X18651016Y-13222674D02*
X18660539Y-13213150D01*
X18660539Y-13213150D02*
X18679587Y-13184579D01*
X18679587Y-13184579D02*
X18689111Y-13165531D01*
X18689111Y-13165531D02*
X18698635Y-13136960D01*
X18698635Y-13136960D02*
X18708158Y-13089341D01*
X18708158Y-13089341D02*
X18708158Y-13051246D01*
X18708158Y-13051246D02*
X18698635Y-13003627D01*
X18698635Y-13003627D02*
X18689111Y-12975055D01*
X18689111Y-12975055D02*
X18679587Y-12956008D01*
X18679587Y-12956008D02*
X18660539Y-12927436D01*
X18660539Y-12927436D02*
X18651016Y-12917912D01*
X11895000Y-13375000D02*
G75*
G02*
X11695000Y-13375000I-100000J0D01*
G01*
X11695000Y-13375000D02*
G75*
G02*
X11895000Y-13375000I100000J0D01*
G01*
X12136729Y-13266484D02*
X12260539Y-13266484D01*
X12260539Y-13266484D02*
X12193872Y-13342674D01*
X12193872Y-13342674D02*
X12222443Y-13342674D01*
X12222443Y-13342674D02*
X12241491Y-13352198D01*
X12241491Y-13352198D02*
X12251015Y-13361722D01*
X12251015Y-13361722D02*
X12260539Y-13380769D01*
X12260539Y-13380769D02*
X12260539Y-13428388D01*
X12260539Y-13428388D02*
X12251015Y-13447436D01*
X12251015Y-13447436D02*
X12241491Y-13456960D01*
X12241491Y-13456960D02*
X12222443Y-13466484D01*
X12222443Y-13466484D02*
X12165301Y-13466484D01*
X12165301Y-13466484D02*
X12146253Y-13456960D01*
X12146253Y-13456960D02*
X12136729Y-13447436D01*
X12346253Y-13447436D02*
X12355777Y-13456960D01*
X12355777Y-13456960D02*
X12346253Y-13466484D01*
X12346253Y-13466484D02*
X12336729Y-13456960D01*
X12336729Y-13456960D02*
X12346253Y-13447436D01*
X12346253Y-13447436D02*
X12346253Y-13466484D01*
X12431967Y-13285531D02*
X12441491Y-13276008D01*
X12441491Y-13276008D02*
X12460539Y-13266484D01*
X12460539Y-13266484D02*
X12508158Y-13266484D01*
X12508158Y-13266484D02*
X12527205Y-13276008D01*
X12527205Y-13276008D02*
X12536729Y-13285531D01*
X12536729Y-13285531D02*
X12546253Y-13304579D01*
X12546253Y-13304579D02*
X12546253Y-13323627D01*
X12546253Y-13323627D02*
X12536729Y-13352198D01*
X12536729Y-13352198D02*
X12422443Y-13466484D01*
X12422443Y-13466484D02*
X12546253Y-13466484D01*
X12670062Y-13266484D02*
X12689110Y-13266484D01*
X12689110Y-13266484D02*
X12708158Y-13276008D01*
X12708158Y-13276008D02*
X12717682Y-13285531D01*
X12717682Y-13285531D02*
X12727205Y-13304579D01*
X12727205Y-13304579D02*
X12736729Y-13342674D01*
X12736729Y-13342674D02*
X12736729Y-13390293D01*
X12736729Y-13390293D02*
X12727205Y-13428388D01*
X12727205Y-13428388D02*
X12717682Y-13447436D01*
X12717682Y-13447436D02*
X12708158Y-13456960D01*
X12708158Y-13456960D02*
X12689110Y-13466484D01*
X12689110Y-13466484D02*
X12670062Y-13466484D01*
X12670062Y-13466484D02*
X12651015Y-13456960D01*
X12651015Y-13456960D02*
X12641491Y-13447436D01*
X12641491Y-13447436D02*
X12631967Y-13428388D01*
X12631967Y-13428388D02*
X12622443Y-13390293D01*
X12622443Y-13390293D02*
X12622443Y-13342674D01*
X12622443Y-13342674D02*
X12631967Y-13304579D01*
X12631967Y-13304579D02*
X12641491Y-13285531D01*
X12641491Y-13285531D02*
X12651015Y-13276008D01*
X12651015Y-13276008D02*
X12670062Y-13266484D01*
X12860539Y-13266484D02*
X12879586Y-13266484D01*
X12879586Y-13266484D02*
X12898634Y-13276008D01*
X12898634Y-13276008D02*
X12908158Y-13285531D01*
X12908158Y-13285531D02*
X12917682Y-13304579D01*
X12917682Y-13304579D02*
X12927205Y-13342674D01*
X12927205Y-13342674D02*
X12927205Y-13390293D01*
X12927205Y-13390293D02*
X12917682Y-13428388D01*
X12917682Y-13428388D02*
X12908158Y-13447436D01*
X12908158Y-13447436D02*
X12898634Y-13456960D01*
X12898634Y-13456960D02*
X12879586Y-13466484D01*
X12879586Y-13466484D02*
X12860539Y-13466484D01*
X12860539Y-13466484D02*
X12841491Y-13456960D01*
X12841491Y-13456960D02*
X12831967Y-13447436D01*
X12831967Y-13447436D02*
X12822443Y-13428388D01*
X12822443Y-13428388D02*
X12812920Y-13390293D01*
X12812920Y-13390293D02*
X12812920Y-13342674D01*
X12812920Y-13342674D02*
X12822443Y-13304579D01*
X12822443Y-13304579D02*
X12831967Y-13285531D01*
X12831967Y-13285531D02*
X12841491Y-13276008D01*
X12841491Y-13276008D02*
X12860539Y-13266484D01*
X13012920Y-13466484D02*
X13012920Y-13333150D01*
X13012920Y-13352198D02*
X13022443Y-13342674D01*
X13022443Y-13342674D02*
X13041491Y-13333150D01*
X13041491Y-13333150D02*
X13070063Y-13333150D01*
X13070063Y-13333150D02*
X13089110Y-13342674D01*
X13089110Y-13342674D02*
X13098634Y-13361722D01*
X13098634Y-13361722D02*
X13098634Y-13466484D01*
X13098634Y-13361722D02*
X13108158Y-13342674D01*
X13108158Y-13342674D02*
X13127205Y-13333150D01*
X13127205Y-13333150D02*
X13155777Y-13333150D01*
X13155777Y-13333150D02*
X13174824Y-13342674D01*
X13174824Y-13342674D02*
X13184348Y-13361722D01*
X13184348Y-13361722D02*
X13184348Y-13466484D01*
X13279586Y-13466484D02*
X13279586Y-13333150D01*
X13279586Y-13352198D02*
X13289110Y-13342674D01*
X13289110Y-13342674D02*
X13308158Y-13333150D01*
X13308158Y-13333150D02*
X13336729Y-13333150D01*
X13336729Y-13333150D02*
X13355777Y-13342674D01*
X13355777Y-13342674D02*
X13365301Y-13361722D01*
X13365301Y-13361722D02*
X13365301Y-13466484D01*
X13365301Y-13361722D02*
X13374824Y-13342674D01*
X13374824Y-13342674D02*
X13393872Y-13333150D01*
X13393872Y-13333150D02*
X13422443Y-13333150D01*
X13422443Y-13333150D02*
X13441491Y-13342674D01*
X13441491Y-13342674D02*
X13451015Y-13361722D01*
X13451015Y-13361722D02*
X13451015Y-13466484D01*
X13841491Y-13256960D02*
X13670063Y-13514103D01*
X14098634Y-13266484D02*
X14117682Y-13266484D01*
X14117682Y-13266484D02*
X14136729Y-13276008D01*
X14136729Y-13276008D02*
X14146253Y-13285531D01*
X14146253Y-13285531D02*
X14155777Y-13304579D01*
X14155777Y-13304579D02*
X14165301Y-13342674D01*
X14165301Y-13342674D02*
X14165301Y-13390293D01*
X14165301Y-13390293D02*
X14155777Y-13428388D01*
X14155777Y-13428388D02*
X14146253Y-13447436D01*
X14146253Y-13447436D02*
X14136729Y-13456960D01*
X14136729Y-13456960D02*
X14117682Y-13466484D01*
X14117682Y-13466484D02*
X14098634Y-13466484D01*
X14098634Y-13466484D02*
X14079586Y-13456960D01*
X14079586Y-13456960D02*
X14070063Y-13447436D01*
X14070063Y-13447436D02*
X14060539Y-13428388D01*
X14060539Y-13428388D02*
X14051015Y-13390293D01*
X14051015Y-13390293D02*
X14051015Y-13342674D01*
X14051015Y-13342674D02*
X14060539Y-13304579D01*
X14060539Y-13304579D02*
X14070063Y-13285531D01*
X14070063Y-13285531D02*
X14079586Y-13276008D01*
X14079586Y-13276008D02*
X14098634Y-13266484D01*
X14251015Y-13447436D02*
X14260539Y-13456960D01*
X14260539Y-13456960D02*
X14251015Y-13466484D01*
X14251015Y-13466484D02*
X14241491Y-13456960D01*
X14241491Y-13456960D02*
X14251015Y-13447436D01*
X14251015Y-13447436D02*
X14251015Y-13466484D01*
X14451015Y-13466484D02*
X14336729Y-13466484D01*
X14393872Y-13466484D02*
X14393872Y-13266484D01*
X14393872Y-13266484D02*
X14374825Y-13295055D01*
X14374825Y-13295055D02*
X14355777Y-13314103D01*
X14355777Y-13314103D02*
X14336729Y-13323627D01*
X14527206Y-13285531D02*
X14536729Y-13276008D01*
X14536729Y-13276008D02*
X14555777Y-13266484D01*
X14555777Y-13266484D02*
X14603396Y-13266484D01*
X14603396Y-13266484D02*
X14622444Y-13276008D01*
X14622444Y-13276008D02*
X14631967Y-13285531D01*
X14631967Y-13285531D02*
X14641491Y-13304579D01*
X14641491Y-13304579D02*
X14641491Y-13323627D01*
X14641491Y-13323627D02*
X14631967Y-13352198D01*
X14631967Y-13352198D02*
X14517682Y-13466484D01*
X14517682Y-13466484D02*
X14641491Y-13466484D01*
X14812920Y-13266484D02*
X14774825Y-13266484D01*
X14774825Y-13266484D02*
X14755777Y-13276008D01*
X14755777Y-13276008D02*
X14746253Y-13285531D01*
X14746253Y-13285531D02*
X14727206Y-13314103D01*
X14727206Y-13314103D02*
X14717682Y-13352198D01*
X14717682Y-13352198D02*
X14717682Y-13428388D01*
X14717682Y-13428388D02*
X14727206Y-13447436D01*
X14727206Y-13447436D02*
X14736729Y-13456960D01*
X14736729Y-13456960D02*
X14755777Y-13466484D01*
X14755777Y-13466484D02*
X14793872Y-13466484D01*
X14793872Y-13466484D02*
X14812920Y-13456960D01*
X14812920Y-13456960D02*
X14822444Y-13447436D01*
X14822444Y-13447436D02*
X14831967Y-13428388D01*
X14831967Y-13428388D02*
X14831967Y-13380769D01*
X14831967Y-13380769D02*
X14822444Y-13361722D01*
X14822444Y-13361722D02*
X14812920Y-13352198D01*
X14812920Y-13352198D02*
X14793872Y-13342674D01*
X14793872Y-13342674D02*
X14755777Y-13342674D01*
X14755777Y-13342674D02*
X14736729Y-13352198D01*
X14736729Y-13352198D02*
X14727206Y-13361722D01*
X14727206Y-13361722D02*
X14717682Y-13380769D01*
X14955777Y-13266484D02*
X14974825Y-13266484D01*
X14974825Y-13266484D02*
X14993872Y-13276008D01*
X14993872Y-13276008D02*
X15003396Y-13285531D01*
X15003396Y-13285531D02*
X15012920Y-13304579D01*
X15012920Y-13304579D02*
X15022444Y-13342674D01*
X15022444Y-13342674D02*
X15022444Y-13390293D01*
X15022444Y-13390293D02*
X15012920Y-13428388D01*
X15012920Y-13428388D02*
X15003396Y-13447436D01*
X15003396Y-13447436D02*
X14993872Y-13456960D01*
X14993872Y-13456960D02*
X14974825Y-13466484D01*
X14974825Y-13466484D02*
X14955777Y-13466484D01*
X14955777Y-13466484D02*
X14936729Y-13456960D01*
X14936729Y-13456960D02*
X14927206Y-13447436D01*
X14927206Y-13447436D02*
X14917682Y-13428388D01*
X14917682Y-13428388D02*
X14908158Y-13390293D01*
X14908158Y-13390293D02*
X14908158Y-13342674D01*
X14908158Y-13342674D02*
X14917682Y-13304579D01*
X14917682Y-13304579D02*
X14927206Y-13285531D01*
X14927206Y-13285531D02*
X14936729Y-13276008D01*
X14936729Y-13276008D02*
X14955777Y-13266484D01*
X15098634Y-13266484D02*
X15098634Y-13304579D01*
X15174825Y-13266484D02*
X15174825Y-13304579D01*
X15470063Y-13542674D02*
X15460539Y-13533150D01*
X15460539Y-13533150D02*
X15441491Y-13504579D01*
X15441491Y-13504579D02*
X15431968Y-13485531D01*
X15431968Y-13485531D02*
X15422444Y-13456960D01*
X15422444Y-13456960D02*
X15412920Y-13409341D01*
X15412920Y-13409341D02*
X15412920Y-13371246D01*
X15412920Y-13371246D02*
X15422444Y-13323627D01*
X15422444Y-13323627D02*
X15431968Y-13295055D01*
X15431968Y-13295055D02*
X15441491Y-13276008D01*
X15441491Y-13276008D02*
X15460539Y-13247436D01*
X15460539Y-13247436D02*
X15470063Y-13237912D01*
X15631968Y-13333150D02*
X15631968Y-13466484D01*
X15584348Y-13256960D02*
X15536729Y-13399817D01*
X15536729Y-13399817D02*
X15660539Y-13399817D01*
X15889110Y-13466484D02*
X15889110Y-13266484D01*
X15974825Y-13466484D02*
X15974825Y-13361722D01*
X15974825Y-13361722D02*
X15965301Y-13342674D01*
X15965301Y-13342674D02*
X15946253Y-13333150D01*
X15946253Y-13333150D02*
X15917682Y-13333150D01*
X15917682Y-13333150D02*
X15898634Y-13342674D01*
X15898634Y-13342674D02*
X15889110Y-13352198D01*
X16098634Y-13466484D02*
X16079587Y-13456960D01*
X16079587Y-13456960D02*
X16070063Y-13447436D01*
X16070063Y-13447436D02*
X16060539Y-13428388D01*
X16060539Y-13428388D02*
X16060539Y-13371246D01*
X16060539Y-13371246D02*
X16070063Y-13352198D01*
X16070063Y-13352198D02*
X16079587Y-13342674D01*
X16079587Y-13342674D02*
X16098634Y-13333150D01*
X16098634Y-13333150D02*
X16127206Y-13333150D01*
X16127206Y-13333150D02*
X16146253Y-13342674D01*
X16146253Y-13342674D02*
X16155777Y-13352198D01*
X16155777Y-13352198D02*
X16165301Y-13371246D01*
X16165301Y-13371246D02*
X16165301Y-13428388D01*
X16165301Y-13428388D02*
X16155777Y-13447436D01*
X16155777Y-13447436D02*
X16146253Y-13456960D01*
X16146253Y-13456960D02*
X16127206Y-13466484D01*
X16127206Y-13466484D02*
X16098634Y-13466484D01*
X16279587Y-13466484D02*
X16260539Y-13456960D01*
X16260539Y-13456960D02*
X16251015Y-13437912D01*
X16251015Y-13437912D02*
X16251015Y-13266484D01*
X16431968Y-13456960D02*
X16412920Y-13466484D01*
X16412920Y-13466484D02*
X16374825Y-13466484D01*
X16374825Y-13466484D02*
X16355777Y-13456960D01*
X16355777Y-13456960D02*
X16346253Y-13437912D01*
X16346253Y-13437912D02*
X16346253Y-13361722D01*
X16346253Y-13361722D02*
X16355777Y-13342674D01*
X16355777Y-13342674D02*
X16374825Y-13333150D01*
X16374825Y-13333150D02*
X16412920Y-13333150D01*
X16412920Y-13333150D02*
X16431968Y-13342674D01*
X16431968Y-13342674D02*
X16441491Y-13361722D01*
X16441491Y-13361722D02*
X16441491Y-13380769D01*
X16441491Y-13380769D02*
X16346253Y-13399817D01*
X16517682Y-13456960D02*
X16536730Y-13466484D01*
X16536730Y-13466484D02*
X16574825Y-13466484D01*
X16574825Y-13466484D02*
X16593872Y-13456960D01*
X16593872Y-13456960D02*
X16603396Y-13437912D01*
X16603396Y-13437912D02*
X16603396Y-13428388D01*
X16603396Y-13428388D02*
X16593872Y-13409341D01*
X16593872Y-13409341D02*
X16574825Y-13399817D01*
X16574825Y-13399817D02*
X16546253Y-13399817D01*
X16546253Y-13399817D02*
X16527206Y-13390293D01*
X16527206Y-13390293D02*
X16517682Y-13371246D01*
X16517682Y-13371246D02*
X16517682Y-13361722D01*
X16517682Y-13361722D02*
X16527206Y-13342674D01*
X16527206Y-13342674D02*
X16546253Y-13333150D01*
X16546253Y-13333150D02*
X16574825Y-13333150D01*
X16574825Y-13333150D02*
X16593872Y-13342674D01*
X16670063Y-13542674D02*
X16679587Y-13533150D01*
X16679587Y-13533150D02*
X16698634Y-13504579D01*
X16698634Y-13504579D02*
X16708158Y-13485531D01*
X16708158Y-13485531D02*
X16717682Y-13456960D01*
X16717682Y-13456960D02*
X16727206Y-13409341D01*
X16727206Y-13409341D02*
X16727206Y-13371246D01*
X16727206Y-13371246D02*
X16717682Y-13323627D01*
X16717682Y-13323627D02*
X16708158Y-13295055D01*
X16708158Y-13295055D02*
X16698634Y-13276008D01*
X16698634Y-13276008D02*
X16679587Y-13247436D01*
X16679587Y-13247436D02*
X16670063Y-13237912D01*
X17031968Y-13542674D02*
X17022444Y-13533150D01*
X17022444Y-13533150D02*
X17003396Y-13504579D01*
X17003396Y-13504579D02*
X16993873Y-13485531D01*
X16993873Y-13485531D02*
X16984349Y-13456960D01*
X16984349Y-13456960D02*
X16974825Y-13409341D01*
X16974825Y-13409341D02*
X16974825Y-13371246D01*
X16974825Y-13371246D02*
X16984349Y-13323627D01*
X16984349Y-13323627D02*
X16993873Y-13295055D01*
X16993873Y-13295055D02*
X17003396Y-13276008D01*
X17003396Y-13276008D02*
X17022444Y-13247436D01*
X17022444Y-13247436D02*
X17031968Y-13237912D01*
X17108158Y-13333150D02*
X17108158Y-13466484D01*
X17108158Y-13352198D02*
X17117682Y-13342674D01*
X17117682Y-13342674D02*
X17136730Y-13333150D01*
X17136730Y-13333150D02*
X17165301Y-13333150D01*
X17165301Y-13333150D02*
X17184349Y-13342674D01*
X17184349Y-13342674D02*
X17193873Y-13361722D01*
X17193873Y-13361722D02*
X17193873Y-13466484D01*
X17317682Y-13466484D02*
X17298634Y-13456960D01*
X17298634Y-13456960D02*
X17289111Y-13447436D01*
X17289111Y-13447436D02*
X17279587Y-13428388D01*
X17279587Y-13428388D02*
X17279587Y-13371246D01*
X17279587Y-13371246D02*
X17289111Y-13352198D01*
X17289111Y-13352198D02*
X17298634Y-13342674D01*
X17298634Y-13342674D02*
X17317682Y-13333150D01*
X17317682Y-13333150D02*
X17346254Y-13333150D01*
X17346254Y-13333150D02*
X17365301Y-13342674D01*
X17365301Y-13342674D02*
X17374825Y-13352198D01*
X17374825Y-13352198D02*
X17384349Y-13371246D01*
X17384349Y-13371246D02*
X17384349Y-13428388D01*
X17384349Y-13428388D02*
X17374825Y-13447436D01*
X17374825Y-13447436D02*
X17365301Y-13456960D01*
X17365301Y-13456960D02*
X17346254Y-13466484D01*
X17346254Y-13466484D02*
X17317682Y-13466484D01*
X17441492Y-13333150D02*
X17517682Y-13333150D01*
X17470063Y-13266484D02*
X17470063Y-13437912D01*
X17470063Y-13437912D02*
X17479587Y-13456960D01*
X17479587Y-13456960D02*
X17498634Y-13466484D01*
X17498634Y-13466484D02*
X17517682Y-13466484D01*
X17736730Y-13333150D02*
X17736730Y-13533150D01*
X17736730Y-13342674D02*
X17755777Y-13333150D01*
X17755777Y-13333150D02*
X17793873Y-13333150D01*
X17793873Y-13333150D02*
X17812920Y-13342674D01*
X17812920Y-13342674D02*
X17822444Y-13352198D01*
X17822444Y-13352198D02*
X17831968Y-13371246D01*
X17831968Y-13371246D02*
X17831968Y-13428388D01*
X17831968Y-13428388D02*
X17822444Y-13447436D01*
X17822444Y-13447436D02*
X17812920Y-13456960D01*
X17812920Y-13456960D02*
X17793873Y-13466484D01*
X17793873Y-13466484D02*
X17755777Y-13466484D01*
X17755777Y-13466484D02*
X17736730Y-13456960D01*
X17946254Y-13466484D02*
X17927206Y-13456960D01*
X17927206Y-13456960D02*
X17917682Y-13437912D01*
X17917682Y-13437912D02*
X17917682Y-13266484D01*
X18108158Y-13466484D02*
X18108158Y-13361722D01*
X18108158Y-13361722D02*
X18098635Y-13342674D01*
X18098635Y-13342674D02*
X18079587Y-13333150D01*
X18079587Y-13333150D02*
X18041492Y-13333150D01*
X18041492Y-13333150D02*
X18022444Y-13342674D01*
X18108158Y-13456960D02*
X18089111Y-13466484D01*
X18089111Y-13466484D02*
X18041492Y-13466484D01*
X18041492Y-13466484D02*
X18022444Y-13456960D01*
X18022444Y-13456960D02*
X18012920Y-13437912D01*
X18012920Y-13437912D02*
X18012920Y-13418865D01*
X18012920Y-13418865D02*
X18022444Y-13399817D01*
X18022444Y-13399817D02*
X18041492Y-13390293D01*
X18041492Y-13390293D02*
X18089111Y-13390293D01*
X18089111Y-13390293D02*
X18108158Y-13380769D01*
X18174825Y-13333150D02*
X18251015Y-13333150D01*
X18203396Y-13266484D02*
X18203396Y-13437912D01*
X18203396Y-13437912D02*
X18212920Y-13456960D01*
X18212920Y-13456960D02*
X18231968Y-13466484D01*
X18231968Y-13466484D02*
X18251015Y-13466484D01*
X18393873Y-13456960D02*
X18374825Y-13466484D01*
X18374825Y-13466484D02*
X18336730Y-13466484D01*
X18336730Y-13466484D02*
X18317682Y-13456960D01*
X18317682Y-13456960D02*
X18308158Y-13437912D01*
X18308158Y-13437912D02*
X18308158Y-13361722D01*
X18308158Y-13361722D02*
X18317682Y-13342674D01*
X18317682Y-13342674D02*
X18336730Y-13333150D01*
X18336730Y-13333150D02*
X18374825Y-13333150D01*
X18374825Y-13333150D02*
X18393873Y-13342674D01*
X18393873Y-13342674D02*
X18403396Y-13361722D01*
X18403396Y-13361722D02*
X18403396Y-13380769D01*
X18403396Y-13380769D02*
X18308158Y-13399817D01*
X18574825Y-13466484D02*
X18574825Y-13266484D01*
X18574825Y-13456960D02*
X18555777Y-13466484D01*
X18555777Y-13466484D02*
X18517682Y-13466484D01*
X18517682Y-13466484D02*
X18498635Y-13456960D01*
X18498635Y-13456960D02*
X18489111Y-13447436D01*
X18489111Y-13447436D02*
X18479587Y-13428388D01*
X18479587Y-13428388D02*
X18479587Y-13371246D01*
X18479587Y-13371246D02*
X18489111Y-13352198D01*
X18489111Y-13352198D02*
X18498635Y-13342674D01*
X18498635Y-13342674D02*
X18517682Y-13333150D01*
X18517682Y-13333150D02*
X18555777Y-13333150D01*
X18555777Y-13333150D02*
X18574825Y-13342674D01*
X18651016Y-13542674D02*
X18660539Y-13533150D01*
X18660539Y-13533150D02*
X18679587Y-13504579D01*
X18679587Y-13504579D02*
X18689111Y-13485531D01*
X18689111Y-13485531D02*
X18698635Y-13456960D01*
X18698635Y-13456960D02*
X18708158Y-13409341D01*
X18708158Y-13409341D02*
X18708158Y-13371246D01*
X18708158Y-13371246D02*
X18698635Y-13323627D01*
X18698635Y-13323627D02*
X18689111Y-13295055D01*
X18689111Y-13295055D02*
X18679587Y-13276008D01*
X18679587Y-13276008D02*
X18660539Y-13247436D01*
X18660539Y-13247436D02*
X18651016Y-13237912D01*
M02*
