M48
; DRILL file KiCad 10.0.1-10.0.1~ubuntu24.04.1 date 2026-05-12T21:30:37
; FORMAT={-:-/ absolute / metric / decimal}
; #@! TF.CreationDate,2026-05-12T21:30:37-07:00
; #@! TF.GenerationSoftware,Kicad,Pcbnew,10.0.1-10.0.1~ubuntu24.04.1
; #@! TF.FileFunction,Plated,1,2,PTH
FMAT,2
METRIC
; #@! TA.AperFunction,Plated,PTH,ViaDrill
T1C0.300
; #@! TA.AperFunction,Plated,PTH,ComponentDrill
T2C0.760
; #@! TA.AperFunction,Plated,PTH,ComponentDrill
T3C0.800
; #@! TA.AperFunction,Plated,PTH,ComponentDrill
T4C1.000
%
G90
G05
T1
X130.24Y-109.112
X131.51Y-118.07
X132.78Y-117.24
X134.05Y-116.224
X135.32Y-101.746
X137.86Y-109.112
X139.638Y-94.38
X139.638Y-109.112
X140.4Y-86.252
X140.4Y-99.373
X157.418Y-103.016
X158.18Y-107.08
X158.18Y-118.07
X160.974Y-101.746
X164.53Y-107.08
X167.07Y-109.112
X168.34Y-118.07
X169.61Y-117.24
X170.88Y-116.224
X172.15Y-103.016
X174.69Y-109.112
X177.23Y-86.252
T2
X128.97Y-114.22
X130.24Y-111.68
X131.51Y-114.22
X132.78Y-111.68
X134.05Y-114.22
X135.32Y-111.68
X136.59Y-114.22
X137.86Y-111.68
X165.8Y-114.22
X167.07Y-111.68
X168.34Y-114.22
X169.61Y-111.68
X170.88Y-114.22
X172.15Y-111.68
X173.42Y-114.22
X174.69Y-111.68
T3
X129.9Y-105.6
X130.2Y-102.8
X142.0Y-107.25
X142.345Y-94.38
X142.345Y-99.333
X143.85Y-107.25
X147.345Y-94.38
X147.345Y-99.333
X157.419Y-89.706
X157.419Y-99.866
X160.974Y-89.706
X160.974Y-99.866
X164.53Y-89.706
X164.53Y-99.866
T4
X127.37Y-81.33
X127.37Y-83.87
X129.91Y-81.33
X129.91Y-83.87
X132.45Y-81.33
X132.45Y-83.87
X134.99Y-81.33
X134.99Y-83.87
X137.53Y-81.33
X137.53Y-83.87
X137.773Y-89.212
X137.773Y-91.752
X137.773Y-94.292
X137.773Y-96.832
X137.773Y-99.373
X140.07Y-81.33
X140.07Y-83.87
X142.61Y-81.33
X142.61Y-83.87
X145.15Y-81.33
X145.15Y-83.87
X147.69Y-81.33
X147.69Y-83.87
X150.23Y-81.33
X150.23Y-83.87
X152.77Y-81.33
X152.77Y-83.87
X155.31Y-81.33
X155.31Y-83.87
X157.85Y-81.33
X157.85Y-83.87
X160.39Y-81.33
X160.39Y-83.87
X162.93Y-81.33
X162.93Y-83.87
X165.47Y-81.33
X165.47Y-83.87
X168.01Y-81.33
X168.01Y-83.87
X170.55Y-81.33
X170.55Y-83.87
X173.09Y-81.33
X173.09Y-83.87
X175.63Y-81.33
X175.63Y-83.87
M30
