%TF.GenerationSoftware,KiCad,Pcbnew,10.0.1-10.0.1~ubuntu24.04.1*%
%TF.CreationDate,2026-05-12T21:30:37-07:00*%
%TF.ProjectId,PiZeroHat,50695a65-726f-4486-9174-2e6b69636164,rev?*%
%TF.SameCoordinates,Original*%
%TF.FileFunction,Soldermask,Bot*%
%TF.FilePolarity,Negative*%
%FSLAX46Y46*%
G04 Gerber Fmt 4.6, Leading zero omitted, Abs format (unit mm)*
G04 Created by KiCad (PCBNEW 10.0.1-10.0.1~ubuntu24.04.1) date 2026-05-12 21:30:37*
%MOMM*%
%LPD*%
G01*
G04 APERTURE LIST*
G04 Aperture macros list*
%AMRoundRect*
0 Rectangle with rounded corners*
0 $1 Rounding radius*
0 $2 $3 $4 $5 $6 $7 $8 $9 X,Y pos of 4 corners*
0 Add a 4 corners polygon primitive as box body*
4,1,4,$2,$3,$4,$5,$6,$7,$8,$9,$2,$3,0*
0 Add four circle primitives for the rounded corners*
1,1,$1+$1,$2,$3*
1,1,$1+$1,$4,$5*
1,1,$1+$1,$6,$7*
1,1,$1+$1,$8,$9*
0 Add four rect primitives between the rounded corners*
20,1,$1+$1,$2,$3,$4,$5,0*
20,1,$1+$1,$4,$5,$6,$7,0*
20,1,$1+$1,$6,$7,$8,$9,0*
20,1,$1+$1,$8,$9,$2,$3,0*%
G04 Aperture macros list end*
%ADD10C,0.000000*%
%ADD11C,1.600000*%
%ADD12C,3.200000*%
%ADD13R,1.500000X1.500000*%
%ADD14C,1.500000*%
%ADD15C,1.524000*%
%ADD16C,2.750000*%
%ADD17RoundRect,0.101600X-0.889000X-0.889000X0.889000X-0.889000X0.889000X0.889000X-0.889000X0.889000X0*%
%ADD18C,1.981200*%
%ADD19C,1.903200*%
%ADD20C,1.703200*%
G04 APERTURE END LIST*
D10*
%TO.C,A1*%
G36*
X122836905Y-79519492D02*
G01*
X123179630Y-79577723D01*
X123513680Y-79673962D01*
X123834855Y-79806997D01*
X124139114Y-79975155D01*
X124422633Y-80176322D01*
X124681846Y-80407969D01*
X124913493Y-80667182D01*
X125114660Y-80950701D01*
X125282818Y-81254960D01*
X125415853Y-81576135D01*
X125512092Y-81910185D01*
X125570323Y-82252910D01*
X125589815Y-82600000D01*
X125570323Y-82947090D01*
X125512092Y-83289815D01*
X125415853Y-83623865D01*
X125282818Y-83945040D01*
X125114660Y-84249299D01*
X124913493Y-84532818D01*
X124681846Y-84792031D01*
X124422633Y-85023678D01*
X124139114Y-85224845D01*
X123834855Y-85393003D01*
X123513680Y-85526038D01*
X123179630Y-85622277D01*
X122836905Y-85680508D01*
X122489815Y-85700000D01*
X122142725Y-85680508D01*
X121800000Y-85622277D01*
X121465950Y-85526038D01*
X121144775Y-85393003D01*
X120840516Y-85224845D01*
X120556997Y-85023678D01*
X120297784Y-84792031D01*
X120066137Y-84532818D01*
X119864970Y-84249299D01*
X119696812Y-83945040D01*
X119563777Y-83623865D01*
X119467538Y-83289815D01*
X119409307Y-82947090D01*
X119389815Y-82600000D01*
X119409307Y-82252910D01*
X119467538Y-81910185D01*
X119563777Y-81576135D01*
X119696812Y-81254960D01*
X119864970Y-80950701D01*
X120066137Y-80667182D01*
X120297784Y-80407969D01*
X120556997Y-80176322D01*
X120840516Y-79975155D01*
X121144775Y-79806997D01*
X121465950Y-79673962D01*
X121800000Y-79577723D01*
X122142725Y-79519492D01*
X122489815Y-79500000D01*
X122836905Y-79519492D01*
G37*
G36*
X122847090Y-102519492D02*
G01*
X123189815Y-102577723D01*
X123523865Y-102673962D01*
X123845040Y-102806997D01*
X124149299Y-102975155D01*
X124432818Y-103176322D01*
X124692031Y-103407969D01*
X124923678Y-103667182D01*
X125124845Y-103950701D01*
X125293003Y-104254960D01*
X125426038Y-104576135D01*
X125522277Y-104910185D01*
X125580508Y-105252910D01*
X125600000Y-105600000D01*
X125580508Y-105947090D01*
X125522277Y-106289815D01*
X125426038Y-106623865D01*
X125293003Y-106945040D01*
X125124845Y-107249299D01*
X124923678Y-107532818D01*
X124692031Y-107792031D01*
X124432818Y-108023678D01*
X124149299Y-108224845D01*
X123845040Y-108393003D01*
X123523865Y-108526038D01*
X123189815Y-108622277D01*
X122847090Y-108680508D01*
X122500000Y-108700000D01*
X122152910Y-108680508D01*
X121810185Y-108622277D01*
X121476135Y-108526038D01*
X121154960Y-108393003D01*
X120850701Y-108224845D01*
X120567182Y-108023678D01*
X120307969Y-107792031D01*
X120076322Y-107532818D01*
X119875155Y-107249299D01*
X119706997Y-106945040D01*
X119573962Y-106623865D01*
X119477723Y-106289815D01*
X119419492Y-105947090D01*
X119400000Y-105600000D01*
X119419492Y-105252910D01*
X119477723Y-104910185D01*
X119573962Y-104576135D01*
X119706997Y-104254960D01*
X119875155Y-103950701D01*
X120076322Y-103667182D01*
X120307969Y-103407969D01*
X120567182Y-103176322D01*
X120850701Y-102975155D01*
X121154960Y-102806997D01*
X121476135Y-102673962D01*
X121810185Y-102577723D01*
X122152910Y-102519492D01*
X122500000Y-102500000D01*
X122847090Y-102519492D01*
G37*
G36*
X180847090Y-79519492D02*
G01*
X181189815Y-79577723D01*
X181523865Y-79673962D01*
X181845040Y-79806997D01*
X182149299Y-79975155D01*
X182432818Y-80176322D01*
X182692031Y-80407969D01*
X182923678Y-80667182D01*
X183124845Y-80950701D01*
X183293003Y-81254960D01*
X183426038Y-81576135D01*
X183522277Y-81910185D01*
X183580508Y-82252910D01*
X183600000Y-82600000D01*
X183580508Y-82947090D01*
X183522277Y-83289815D01*
X183426038Y-83623865D01*
X183293003Y-83945040D01*
X183124845Y-84249299D01*
X182923678Y-84532818D01*
X182692031Y-84792031D01*
X182432818Y-85023678D01*
X182149299Y-85224845D01*
X181845040Y-85393003D01*
X181523865Y-85526038D01*
X181189815Y-85622277D01*
X180847090Y-85680508D01*
X180500000Y-85700000D01*
X180152910Y-85680508D01*
X179810185Y-85622277D01*
X179476135Y-85526038D01*
X179154960Y-85393003D01*
X178850701Y-85224845D01*
X178567182Y-85023678D01*
X178307969Y-84792031D01*
X178076322Y-84532818D01*
X177875155Y-84249299D01*
X177706997Y-83945040D01*
X177573962Y-83623865D01*
X177477723Y-83289815D01*
X177419492Y-82947090D01*
X177400000Y-82600000D01*
X177419492Y-82252910D01*
X177477723Y-81910185D01*
X177573962Y-81576135D01*
X177706997Y-81254960D01*
X177875155Y-80950701D01*
X178076322Y-80667182D01*
X178307969Y-80407969D01*
X178567182Y-80176322D01*
X178850701Y-79975155D01*
X179154960Y-79806997D01*
X179476135Y-79673962D01*
X179810185Y-79577723D01*
X180152910Y-79519492D01*
X180500000Y-79500000D01*
X180847090Y-79519492D01*
G37*
G36*
X180847090Y-102519492D02*
G01*
X181189815Y-102577723D01*
X181523865Y-102673962D01*
X181845040Y-102806997D01*
X182149299Y-102975155D01*
X182432818Y-103176322D01*
X182692031Y-103407969D01*
X182923678Y-103667182D01*
X183124845Y-103950701D01*
X183293003Y-104254960D01*
X183426038Y-104576135D01*
X183522277Y-104910185D01*
X183580508Y-105252910D01*
X183600000Y-105600000D01*
X183580508Y-105947090D01*
X183522277Y-106289815D01*
X183426038Y-106623865D01*
X183293003Y-106945040D01*
X183124845Y-107249299D01*
X182923678Y-107532818D01*
X182692031Y-107792031D01*
X182432818Y-108023678D01*
X182149299Y-108224845D01*
X181845040Y-108393003D01*
X181523865Y-108526038D01*
X181189815Y-108622277D01*
X180847090Y-108680508D01*
X180500000Y-108700000D01*
X180152910Y-108680508D01*
X179810185Y-108622277D01*
X179476135Y-108526038D01*
X179154960Y-108393003D01*
X178850701Y-108224845D01*
X178567182Y-108023678D01*
X178307969Y-107792031D01*
X178076322Y-107532818D01*
X177875155Y-107249299D01*
X177706997Y-106945040D01*
X177573962Y-106623865D01*
X177477723Y-106289815D01*
X177419492Y-105947090D01*
X177400000Y-105600000D01*
X177419492Y-105252910D01*
X177477723Y-104910185D01*
X177573962Y-104576135D01*
X177706997Y-104254960D01*
X177875155Y-103950701D01*
X178076322Y-103667182D01*
X178307969Y-103407969D01*
X178567182Y-103176322D01*
X178850701Y-102975155D01*
X179154960Y-102806997D01*
X179476135Y-102673962D01*
X179810185Y-102577723D01*
X180152910Y-102519492D01*
X180500000Y-102500000D01*
X180847090Y-102519492D01*
G37*
%TD*%
D11*
%TO.C,C3*%
X147345000Y-94380000D03*
X142345000Y-94380000D03*
%TD*%
D12*
%TO.C,J2*%
X164530000Y-120570000D03*
X175960000Y-120570000D03*
D13*
X165800000Y-114220000D03*
D14*
X167070000Y-111680000D03*
X168340000Y-114220000D03*
X169610000Y-111680000D03*
X170880000Y-114220000D03*
X172150000Y-111680000D03*
X173420000Y-114220000D03*
X174690000Y-111680000D03*
%TD*%
D11*
%TO.C,C4*%
X147345000Y-99333000D03*
X142345000Y-99333000D03*
%TD*%
%TO.C,R1*%
X164530000Y-99866400D03*
X164530000Y-89706400D03*
%TD*%
%TO.C,R3*%
X157419000Y-99866400D03*
X157419000Y-89706400D03*
%TD*%
D15*
%TO.C,U1*%
X137772500Y-99372500D03*
X137772500Y-96832500D03*
X137772500Y-94292500D03*
X137772500Y-91752500D03*
X137772500Y-89212500D03*
%TD*%
D12*
%TO.C,J1*%
X127700000Y-120570000D03*
X139130000Y-120570000D03*
D13*
X128970000Y-114220000D03*
D14*
X130240000Y-111680000D03*
X131510000Y-114220000D03*
X132780000Y-111680000D03*
X134050000Y-114220000D03*
X135320000Y-111680000D03*
X136590000Y-114220000D03*
X137860000Y-111680000D03*
%TD*%
D16*
%TO.C,A1*%
X122500000Y-82600000D03*
X122500000Y-105600000D03*
X180500000Y-82600000D03*
X180500000Y-105600000D03*
D17*
X175630000Y-83870000D03*
D18*
X175630000Y-81330000D03*
X173090000Y-83870000D03*
X173090000Y-81330000D03*
X170550000Y-83870000D03*
X170550000Y-81330000D03*
X168010000Y-83870000D03*
X168010000Y-81330000D03*
X165470000Y-83870000D03*
X165470000Y-81330000D03*
X162930000Y-83870000D03*
X162930000Y-81330000D03*
X160390000Y-83870000D03*
X160390000Y-81330000D03*
X157850000Y-83870000D03*
X157850000Y-81330000D03*
X155310000Y-83870000D03*
X155310000Y-81330000D03*
X152770000Y-83870000D03*
X152770000Y-81330000D03*
X150230000Y-83870000D03*
X150230000Y-81330000D03*
X147690000Y-83870000D03*
X147690000Y-81330000D03*
X145150000Y-83870000D03*
X145150000Y-81330000D03*
X142610000Y-83870000D03*
X142610000Y-81330000D03*
X140070000Y-83870000D03*
X140070000Y-81330000D03*
X137530000Y-83870000D03*
X137530000Y-81330000D03*
X134990000Y-83870000D03*
X134990000Y-81330000D03*
X132450000Y-83870000D03*
X132450000Y-81330000D03*
X129910000Y-83870000D03*
X129910000Y-81330000D03*
X127370000Y-83870000D03*
X127370000Y-81330000D03*
D19*
X130200000Y-102800000D03*
X129900000Y-105600000D03*
D20*
X142000000Y-107250000D03*
X143850000Y-107250000D03*
%TD*%
D11*
%TO.C,R2*%
X160974000Y-99866400D03*
X160974000Y-89706400D03*
%TD*%
M02*
