%TF.GenerationSoftware,KiCad,Pcbnew,10.0.1-10.0.1~ubuntu24.04.1*%
%TF.CreationDate,2026-05-12T21:30:37-07:00*%
%TF.ProjectId,PiZeroHat,50695a65-726f-4486-9174-2e6b69636164,rev?*%
%TF.SameCoordinates,Original*%
%TF.FileFunction,Copper,L2,Bot*%
%TF.FilePolarity,Positive*%
%FSLAX46Y46*%
G04 Gerber Fmt 4.6, Leading zero omitted, Abs format (unit mm)*
G04 Created by KiCad (PCBNEW 10.0.1-10.0.1~ubuntu24.04.1) date 2026-05-12 21:30:37*
%MOMM*%
%LPD*%
G01*
G04 APERTURE LIST*
%TA.AperFunction,ComponentPad*%
%ADD10C,1.600000*%
%TD*%
%TA.AperFunction,ComponentPad*%
%ADD11R,1.500000X1.500000*%
%TD*%
%TA.AperFunction,ComponentPad*%
%ADD12C,1.500000*%
%TD*%
%TA.AperFunction,ComponentPad*%
%ADD13C,1.524000*%
%TD*%
%TA.AperFunction,ComponentPad*%
%ADD14R,1.778000X1.778000*%
%TD*%
%TA.AperFunction,ComponentPad*%
%ADD15C,1.778000*%
%TD*%
%TA.AperFunction,ComponentPad*%
%ADD16C,1.700000*%
%TD*%
%TA.AperFunction,ViaPad*%
%ADD17C,0.600000*%
%TD*%
%TA.AperFunction,Conductor*%
%ADD18C,0.250000*%
%TD*%
G04 APERTURE END LIST*
D10*
%TO.P,C3,1*%
%TO.N,GND*%
X147345000Y-94380000D03*
%TO.P,C3,2*%
%TO.N,+8V*%
X142345000Y-94380000D03*
%TD*%
D11*
%TO.P,J2,1*%
%TO.N,GND*%
X165800000Y-114220000D03*
D12*
%TO.P,J2,2*%
%TO.N,+8V*%
X167070000Y-111680000D03*
%TO.P,J2,3*%
%TO.N,Net-(J1-Pad3)*%
X168340000Y-114220000D03*
%TO.P,J2,4*%
%TO.N,Net-(J1-Pad4)*%
X169610000Y-111680000D03*
%TO.P,J2,5*%
%TO.N,Net-(J1-Pad5)*%
X170880000Y-114220000D03*
%TO.P,J2,6*%
%TO.N,Net-(J2-Pad6)*%
X172150000Y-111680000D03*
%TO.P,J2,7*%
%TO.N,GND*%
X173420000Y-114220000D03*
%TO.P,J2,8*%
%TO.N,+8V*%
X174690000Y-111680000D03*
%TD*%
D10*
%TO.P,C4,1*%
%TO.N,GND*%
X147345000Y-99333000D03*
%TO.P,C4,2*%
%TO.N,Net-(U1-VOUT)*%
X142345000Y-99333000D03*
%TD*%
%TO.P,R1,1*%
%TO.N,Net-(J1-Pad3)*%
X164530000Y-99866400D03*
%TO.P,R1,2*%
%TO.N,Net-(A1-GP17)*%
X164530000Y-89706400D03*
%TD*%
%TO.P,R3,1*%
%TO.N,Net-(J2-Pad6)*%
X157419000Y-99866400D03*
%TO.P,R3,2*%
%TO.N,Net-(A1-GP22)*%
X157419000Y-89706400D03*
%TD*%
D13*
%TO.P,U1,1,VOUT_1*%
%TO.N,Net-(U1-VOUT)*%
X137772500Y-99372500D03*
%TO.P,U1,2,GND_2*%
%TO.N,GND*%
X137772500Y-96832500D03*
%TO.P,U1,3,VIN_3*%
%TO.N,+8V*%
X137772500Y-94292500D03*
%TO.P,U1,4,~{SHDN}_4*%
%TO.N,unconnected-(U1-~{SHDN}-Pad4)*%
X137772500Y-91752500D03*
%TO.P,U1,5,PG_5*%
%TO.N,unconnected-(U1-PG-Pad5)*%
X137772500Y-89212500D03*
%TD*%
D11*
%TO.P,J1,1*%
%TO.N,GND*%
X128970000Y-114220000D03*
D12*
%TO.P,J1,2*%
%TO.N,+8V*%
X130240000Y-111680000D03*
%TO.P,J1,3*%
%TO.N,Net-(J1-Pad3)*%
X131510000Y-114220000D03*
%TO.P,J1,4*%
%TO.N,Net-(J1-Pad4)*%
X132780000Y-111680000D03*
%TO.P,J1,5*%
%TO.N,Net-(J1-Pad5)*%
X134050000Y-114220000D03*
%TO.P,J1,6*%
%TO.N,Net-(J1-Pad6)*%
X135320000Y-111680000D03*
%TO.P,J1,7*%
%TO.N,GND*%
X136590000Y-114220000D03*
%TO.P,J1,8*%
%TO.N,+8V*%
X137860000Y-111680000D03*
%TD*%
D14*
%TO.P,A1,1,+3V3_1*%
%TO.N,unconnected-(A1-+3V3-Pad1)*%
X175630000Y-83870000D03*
D15*
%TO.P,A1,2,+5V_2*%
%TO.N,Net-(U1-VOUT)*%
X175630000Y-81330000D03*
%TO.P,A1,3,GP2/SDA_3*%
%TO.N,unconnected-(A1-GP2{slash}SDA-Pad3)*%
X173090000Y-83870000D03*
%TO.P,A1,4,+5V_4*%
%TO.N,unconnected-(A1-+5V-Pad4)*%
X173090000Y-81330000D03*
%TO.P,A1,5,GP3/SCL_5*%
%TO.N,unconnected-(A1-GP3{slash}SCL-Pad5)*%
X170550000Y-83870000D03*
%TO.P,A1,6,GND_6*%
%TO.N,GND*%
X170550000Y-81330000D03*
%TO.P,A1,7,GP4_7*%
%TO.N,unconnected-(A1-GP4-Pad7)*%
X168010000Y-83870000D03*
%TO.P,A1,8,GP14/TXD_8*%
%TO.N,unconnected-(A1-GP14{slash}TXD-Pad8)*%
X168010000Y-81330000D03*
%TO.P,A1,9,GND_9*%
%TO.N,GND*%
X165470000Y-83870000D03*
%TO.P,A1,10,GP15/RXD_10*%
%TO.N,unconnected-(A1-GP15{slash}RXD-Pad10)*%
X165470000Y-81330000D03*
%TO.P,A1,11,GP17_11*%
%TO.N,Net-(A1-GP17)*%
X162930000Y-83870000D03*
%TO.P,A1,12,GP18_12*%
%TO.N,unconnected-(A1-GP18-Pad12)*%
X162930000Y-81330000D03*
%TO.P,A1,13,GP27_13*%
%TO.N,Net-(A1-GP27)*%
X160390000Y-83870000D03*
%TO.P,A1,14,GND_14*%
%TO.N,GND*%
X160390000Y-81330000D03*
%TO.P,A1,15,GP22_15*%
%TO.N,Net-(A1-GP22)*%
X157850000Y-83870000D03*
%TO.P,A1,16,GP23_16*%
%TO.N,unconnected-(A1-GP23-Pad16)*%
X157850000Y-81330000D03*
%TO.P,A1,17,+3V3_17*%
%TO.N,unconnected-(A1-+3V3-Pad17)*%
X155310000Y-83870000D03*
%TO.P,A1,18,GP24_18*%
%TO.N,unconnected-(A1-GP24-Pad18)*%
X155310000Y-81330000D03*
%TO.P,A1,19,GP10/MOSI_19*%
%TO.N,unconnected-(A1-GP10{slash}MOSI-Pad19)*%
X152770000Y-83870000D03*
%TO.P,A1,20,GND_20*%
%TO.N,GND*%
X152770000Y-81330000D03*
%TO.P,A1,21,GP9/MISO_21*%
%TO.N,unconnected-(A1-GP9{slash}MISO-Pad21)*%
X150230000Y-83870000D03*
%TO.P,A1,22,GP25_22*%
%TO.N,unconnected-(A1-GP25-Pad22)*%
X150230000Y-81330000D03*
%TO.P,A1,23,GP11/SCLK_23*%
%TO.N,unconnected-(A1-GP11{slash}SCLK-Pad23)*%
X147690000Y-83870000D03*
%TO.P,A1,24,GP8/CS0_24*%
%TO.N,unconnected-(A1-GP8{slash}CS0-Pad24)*%
X147690000Y-81330000D03*
%TO.P,A1,25,GND_25*%
%TO.N,GND*%
X145150000Y-83870000D03*
%TO.P,A1,26,GP7/CS1_26*%
%TO.N,unconnected-(A1-GP7{slash}CS1-Pad26)*%
X145150000Y-81330000D03*
%TO.P,A1,27,GP0_27*%
%TO.N,unconnected-(A1-GP0-Pad27)*%
X142610000Y-83870000D03*
%TO.P,A1,28,GP1_28*%
%TO.N,unconnected-(A1-GP1-Pad28)*%
X142610000Y-81330000D03*
%TO.P,A1,29,GP5_29*%
%TO.N,unconnected-(A1-GP5-Pad29)*%
X140070000Y-83870000D03*
%TO.P,A1,30,GND_30*%
%TO.N,GND*%
X140070000Y-81330000D03*
%TO.P,A1,31,GP6_31*%
%TO.N,unconnected-(A1-GP6-Pad31)*%
X137530000Y-83870000D03*
%TO.P,A1,32,GP12/PWM0_32*%
%TO.N,unconnected-(A1-GP12{slash}PWM0-Pad32)*%
X137530000Y-81330000D03*
%TO.P,A1,33,GP13/PWM1_33*%
%TO.N,unconnected-(A1-GP13{slash}PWM1-Pad33)*%
X134990000Y-83870000D03*
%TO.P,A1,34,GND_34*%
%TO.N,GND*%
X134990000Y-81330000D03*
%TO.P,A1,35,GP19_35*%
%TO.N,unconnected-(A1-GP19-Pad35)*%
X132450000Y-83870000D03*
%TO.P,A1,36,GP16_36*%
%TO.N,unconnected-(A1-GP16-Pad36)*%
X132450000Y-81330000D03*
%TO.P,A1,37,GP26_37*%
%TO.N,unconnected-(A1-GP26-Pad37)*%
X129910000Y-83870000D03*
%TO.P,A1,38,GP20_38*%
%TO.N,unconnected-(A1-GP20-Pad38)*%
X129910000Y-81330000D03*
%TO.P,A1,39,GND_39*%
%TO.N,GND*%
X127370000Y-83870000D03*
%TO.P,A1,40,GP21_40*%
%TO.N,unconnected-(A1-GP21-Pad40)*%
X127370000Y-81330000D03*
D16*
%TO.P,A1,PP1,+5V_USB_PP1*%
%TO.N,unconnected-(A1-+5V_USB-PadPP1)*%
X130200000Y-102800000D03*
%TO.P,A1,PP6,GND_PP6*%
%TO.N,GND*%
X129900000Y-105600000D03*
D12*
%TO.P,A1,PP22,USB_D+_PP22*%
%TO.N,unconnected-(A1-USB_D+-PadPP22)*%
X142000000Y-107250000D03*
%TO.P,A1,PP23,USB_D-_PP23*%
%TO.N,unconnected-(A1-USB_D--PadPP23)*%
X143850000Y-107250000D03*
%TD*%
D10*
%TO.P,R2,1*%
%TO.N,Net-(J1-Pad6)*%
X160974000Y-99866400D03*
%TO.P,R2,2*%
%TO.N,Net-(A1-GP27)*%
X160974000Y-89706400D03*
%TD*%
D17*
%TO.N,+8V*%
X139638000Y-109112000D03*
X174690000Y-109112000D03*
X167070000Y-109112000D03*
X130240000Y-109112000D03*
X139638000Y-94380000D03*
X137860000Y-109112000D03*
%TO.N,Net-(J1-Pad3)*%
X158180000Y-118070000D03*
X158180000Y-107080000D03*
X168340000Y-118070000D03*
X131510000Y-118070000D03*
X164530000Y-107080000D03*
%TO.N,Net-(J1-Pad4)*%
X132780000Y-117240000D03*
X169610000Y-117240000D03*
%TO.N,Net-(J1-Pad5)*%
X170880000Y-116224000D03*
X134050000Y-116224000D03*
%TO.N,Net-(J2-Pad6)*%
X172150000Y-103016000D03*
X157418000Y-103016000D03*
%TO.N,Net-(U1-VOUT)*%
X140400000Y-86252000D03*
X140400000Y-99372500D03*
X177230000Y-86252000D03*
%TO.N,Net-(J1-Pad6)*%
X135320000Y-101746000D03*
X160974000Y-101746000D03*
%TD*%
%TO.N,+8V*%
D18*
X167070000Y-111680000D02*
X167070000Y-109112000D01*
X174690000Y-111680000D02*
X174690000Y-109112000D01*
X137860000Y-111680000D02*
X137860000Y-109112000D01*
X139638000Y-94380000D02*
X139521000Y-94497000D01*
X139638000Y-94380000D02*
X139638000Y-109112000D01*
X142257500Y-94292500D02*
X142345000Y-94380000D01*
X130240000Y-111680000D02*
X130240000Y-109112000D01*
%TO.N,Net-(J1-Pad3)*%
X158180000Y-118070000D02*
X158180000Y-107080000D01*
X168340000Y-118070000D02*
X168340000Y-114220000D01*
X164530000Y-99714000D02*
X164530000Y-107080000D01*
X131510000Y-114220000D02*
X131510000Y-118070000D01*
%TO.N,Net-(J1-Pad4)*%
X132780000Y-111680000D02*
X132780000Y-117240000D01*
X169610000Y-117240000D02*
X169356000Y-117240000D01*
X169610000Y-111680000D02*
X169610000Y-117240000D01*
%TO.N,Net-(J1-Pad5)*%
X170880000Y-116224000D02*
X170880000Y-114220000D01*
X134050000Y-114220000D02*
X134050000Y-116224000D01*
%TO.N,Net-(J2-Pad6)*%
X157419000Y-100163000D02*
X157419000Y-103017000D01*
X172150000Y-103270000D02*
X172150000Y-111680000D01*
%TO.N,Net-(U1-VOUT)*%
X142305500Y-99372500D02*
X142345000Y-99333000D01*
X175630000Y-81330000D02*
X177294492Y-82994492D01*
X177294492Y-86187508D02*
X177230000Y-86252000D01*
X140400000Y-99372500D02*
X140400000Y-86252000D01*
X177294492Y-82994492D02*
X177294492Y-86187508D01*
X142345000Y-99333000D02*
X142345000Y-98825000D01*
%TO.N,Net-(A1-GP17)*%
X162930000Y-83870000D02*
X162930000Y-87954000D01*
X163007958Y-83967958D02*
X162930000Y-83890000D01*
X162930000Y-87954000D02*
X164530000Y-89554000D01*
X163260000Y-84220000D02*
X163120794Y-84080794D01*
X164530000Y-89554000D02*
X164530000Y-89935000D01*
X162930000Y-83890000D02*
X162930000Y-83870000D01*
X163120794Y-84080794D02*
X163007958Y-83967958D01*
%TO.N,Net-(A1-GP22)*%
X157002098Y-89749000D02*
X156910000Y-89841098D01*
X157850000Y-83870000D02*
X157850000Y-89318000D01*
X157850000Y-83890000D02*
X157926000Y-83966000D01*
X157850000Y-89318000D02*
X157419000Y-89749000D01*
X157850000Y-83870000D02*
X157850000Y-83890000D01*
%TO.N,Net-(J1-Pad6)*%
X160974000Y-99841000D02*
X160974000Y-101746000D01*
X135320000Y-111680000D02*
X135320000Y-101746000D01*
%TO.N,Net-(A1-GP27)*%
X160390000Y-88224699D02*
X160390000Y-88074251D01*
X160390000Y-83870000D02*
X160466000Y-83946000D01*
X160974000Y-89681000D02*
X160390000Y-89097000D01*
X160390000Y-83890000D02*
X160466000Y-83966000D01*
X160390000Y-88074251D02*
X160390000Y-83870000D01*
X160390000Y-89097000D02*
X160390000Y-88224699D01*
X160390000Y-83870000D02*
X160390000Y-83890000D01*
%TD*%
%TA.AperFunction,Conductor*%
%TO.N,GND*%
G36*
X179114918Y-79620185D02*
G01*
X179160673Y-79672989D01*
X179170617Y-79742147D01*
X179141592Y-79805703D01*
X179107860Y-79833028D01*
X178850700Y-79975155D01*
X178567175Y-80176326D01*
X178307970Y-80407967D01*
X178307967Y-80407970D01*
X178076326Y-80667175D01*
X177875155Y-80950700D01*
X177706996Y-81254961D01*
X177663431Y-81360138D01*
X177588492Y-81541058D01*
X177573961Y-81576138D01*
X177477724Y-81910180D01*
X177477723Y-81910185D01*
X177462312Y-82000884D01*
X177431675Y-82063679D01*
X177371953Y-82099942D01*
X177302106Y-82098159D01*
X177252383Y-82067793D01*
X177003379Y-81818789D01*
X176969894Y-81757466D01*
X176973128Y-81692790D01*
X176985286Y-81655375D01*
X177003392Y-81541058D01*
X177019500Y-81439361D01*
X177019500Y-81220638D01*
X176986854Y-81014526D01*
X176985286Y-81004625D01*
X176917701Y-80796617D01*
X176917701Y-80796616D01*
X176858343Y-80680122D01*
X176818407Y-80601743D01*
X176799681Y-80575969D01*
X176689857Y-80424806D01*
X176535193Y-80270142D01*
X176358260Y-80141595D01*
X176358259Y-80141594D01*
X176358257Y-80141593D01*
X176295825Y-80109782D01*
X176163383Y-80042298D01*
X176163380Y-80042297D01*
X175955376Y-79974714D01*
X175739361Y-79940500D01*
X175739356Y-79940500D01*
X175520644Y-79940500D01*
X175520639Y-79940500D01*
X175304623Y-79974714D01*
X175096619Y-80042297D01*
X175096616Y-80042298D01*
X174901739Y-80141595D01*
X174724806Y-80270142D01*
X174570142Y-80424806D01*
X174460318Y-80575969D01*
X174404989Y-80618635D01*
X174335375Y-80624614D01*
X174273580Y-80592009D01*
X174259682Y-80575969D01*
X174149857Y-80424806D01*
X173995193Y-80270142D01*
X173818260Y-80141595D01*
X173818259Y-80141594D01*
X173818257Y-80141593D01*
X173755825Y-80109782D01*
X173623383Y-80042298D01*
X173623380Y-80042297D01*
X173415376Y-79974714D01*
X173199361Y-79940500D01*
X173199356Y-79940500D01*
X172980644Y-79940500D01*
X172980639Y-79940500D01*
X172764623Y-79974714D01*
X172556619Y-80042297D01*
X172556616Y-80042298D01*
X172361739Y-80141595D01*
X172184806Y-80270142D01*
X172030142Y-80424806D01*
X171901595Y-80601739D01*
X171802298Y-80796616D01*
X171802297Y-80796619D01*
X171734714Y-81004623D01*
X171700500Y-81220638D01*
X171700500Y-81439361D01*
X171734714Y-81655376D01*
X171802297Y-81863380D01*
X171802298Y-81863383D01*
X171835239Y-81928031D01*
X171896628Y-82048513D01*
X171901595Y-82058260D01*
X172030142Y-82235193D01*
X172184806Y-82389857D01*
X172335969Y-82499682D01*
X172378635Y-82555011D01*
X172384614Y-82624625D01*
X172352009Y-82686420D01*
X172335969Y-82700318D01*
X172184806Y-82810142D01*
X172030142Y-82964806D01*
X171920318Y-83115969D01*
X171864989Y-83158635D01*
X171795375Y-83164614D01*
X171733580Y-83132009D01*
X171719682Y-83115969D01*
X171609857Y-82964806D01*
X171455193Y-82810142D01*
X171278260Y-82681595D01*
X171278259Y-82681594D01*
X171278257Y-82681593D01*
X171205808Y-82644678D01*
X171083383Y-82582298D01*
X171083380Y-82582297D01*
X170875376Y-82514714D01*
X170659361Y-82480500D01*
X170659356Y-82480500D01*
X170440644Y-82480500D01*
X170440639Y-82480500D01*
X170224623Y-82514714D01*
X170016619Y-82582297D01*
X170016616Y-82582298D01*
X169821739Y-82681595D01*
X169644806Y-82810142D01*
X169490142Y-82964806D01*
X169380318Y-83115969D01*
X169324989Y-83158635D01*
X169255375Y-83164614D01*
X169193580Y-83132009D01*
X169179682Y-83115969D01*
X169069857Y-82964806D01*
X168915199Y-82810148D01*
X168915191Y-82810142D01*
X168764028Y-82700316D01*
X168721364Y-82644989D01*
X168715385Y-82575376D01*
X168747990Y-82513580D01*
X168764023Y-82499686D01*
X168915199Y-82389852D01*
X169069852Y-82235199D01*
X169069854Y-82235195D01*
X169069857Y-82235193D01*
X169126229Y-82157601D01*
X169198407Y-82058257D01*
X169297701Y-81863383D01*
X169365286Y-81655375D01*
X169386253Y-81522993D01*
X169399500Y-81439361D01*
X169399500Y-81220638D01*
X169366854Y-81014526D01*
X169365286Y-81004625D01*
X169297701Y-80796617D01*
X169297701Y-80796616D01*
X169238343Y-80680122D01*
X169198407Y-80601743D01*
X169179681Y-80575969D01*
X169069857Y-80424806D01*
X168915193Y-80270142D01*
X168738260Y-80141595D01*
X168738259Y-80141594D01*
X168738257Y-80141593D01*
X168675825Y-80109782D01*
X168543383Y-80042298D01*
X168543380Y-80042297D01*
X168335376Y-79974714D01*
X168119361Y-79940500D01*
X168119356Y-79940500D01*
X167900644Y-79940500D01*
X167900639Y-79940500D01*
X167684623Y-79974714D01*
X167476619Y-80042297D01*
X167476616Y-80042298D01*
X167281739Y-80141595D01*
X167104806Y-80270142D01*
X166950142Y-80424806D01*
X166840318Y-80575969D01*
X166784989Y-80618635D01*
X166715375Y-80624614D01*
X166653580Y-80592009D01*
X166639682Y-80575969D01*
X166529857Y-80424806D01*
X166375193Y-80270142D01*
X166198260Y-80141595D01*
X166198259Y-80141594D01*
X166198257Y-80141593D01*
X166135825Y-80109782D01*
X166003383Y-80042298D01*
X166003380Y-80042297D01*
X165795376Y-79974714D01*
X165579361Y-79940500D01*
X165579356Y-79940500D01*
X165360644Y-79940500D01*
X165360639Y-79940500D01*
X165144623Y-79974714D01*
X164936619Y-80042297D01*
X164936616Y-80042298D01*
X164741739Y-80141595D01*
X164564806Y-80270142D01*
X164410142Y-80424806D01*
X164300318Y-80575969D01*
X164244989Y-80618635D01*
X164175375Y-80624614D01*
X164113580Y-80592009D01*
X164099682Y-80575969D01*
X163989857Y-80424806D01*
X163835193Y-80270142D01*
X163658260Y-80141595D01*
X163658259Y-80141594D01*
X163658257Y-80141593D01*
X163595825Y-80109782D01*
X163463383Y-80042298D01*
X163463380Y-80042297D01*
X163255376Y-79974714D01*
X163039361Y-79940500D01*
X163039356Y-79940500D01*
X162820644Y-79940500D01*
X162820639Y-79940500D01*
X162604623Y-79974714D01*
X162396619Y-80042297D01*
X162396616Y-80042298D01*
X162201739Y-80141595D01*
X162024806Y-80270142D01*
X161870146Y-80424802D01*
X161870142Y-80424807D01*
X161760008Y-80576394D01*
X161704678Y-80619060D01*
X161635065Y-80625039D01*
X161573270Y-80592433D01*
X161559372Y-80576394D01*
X161449475Y-80425133D01*
X161449471Y-80425128D01*
X161294871Y-80270528D01*
X161294866Y-80270524D01*
X161117998Y-80142023D01*
X160923191Y-80042762D01*
X160923188Y-80042761D01*
X160715258Y-79975201D01*
X160640000Y-79963281D01*
X160640000Y-80896988D01*
X160582993Y-80864075D01*
X160455826Y-80830000D01*
X160324174Y-80830000D01*
X160197007Y-80864075D01*
X160140000Y-80896988D01*
X160140000Y-79963281D01*
X160064741Y-79975201D01*
X159856811Y-80042761D01*
X159856808Y-80042762D01*
X159662001Y-80142023D01*
X159485133Y-80270524D01*
X159485128Y-80270528D01*
X159330528Y-80425128D01*
X159330524Y-80425133D01*
X159220627Y-80576394D01*
X159165297Y-80619060D01*
X159095684Y-80625039D01*
X159033889Y-80592433D01*
X159019991Y-80576394D01*
X158909857Y-80424807D01*
X158909853Y-80424802D01*
X158755193Y-80270142D01*
X158578260Y-80141595D01*
X158578259Y-80141594D01*
X158578257Y-80141593D01*
X158515825Y-80109782D01*
X158383383Y-80042298D01*
X158383380Y-80042297D01*
X158175376Y-79974714D01*
X157959361Y-79940500D01*
X157959356Y-79940500D01*
X157740644Y-79940500D01*
X157740639Y-79940500D01*
X157524623Y-79974714D01*
X157316619Y-80042297D01*
X157316616Y-80042298D01*
X157121739Y-80141595D01*
X156944806Y-80270142D01*
X156790142Y-80424806D01*
X156680318Y-80575969D01*
X156624989Y-80618635D01*
X156555375Y-80624614D01*
X156493580Y-80592009D01*
X156479682Y-80575969D01*
X156369857Y-80424806D01*
X156215193Y-80270142D01*
X156038260Y-80141595D01*
X156038259Y-80141594D01*
X156038257Y-80141593D01*
X155975825Y-80109782D01*
X155843383Y-80042298D01*
X155843380Y-80042297D01*
X155635376Y-79974714D01*
X155419361Y-79940500D01*
X155419356Y-79940500D01*
X155200644Y-79940500D01*
X155200639Y-79940500D01*
X154984623Y-79974714D01*
X154776619Y-80042297D01*
X154776616Y-80042298D01*
X154581739Y-80141595D01*
X154404806Y-80270142D01*
X154250146Y-80424802D01*
X154250142Y-80424807D01*
X154140008Y-80576394D01*
X154084678Y-80619060D01*
X154015065Y-80625039D01*
X153953270Y-80592433D01*
X153939372Y-80576394D01*
X153829475Y-80425133D01*
X153829471Y-80425128D01*
X153674871Y-80270528D01*
X153674866Y-80270524D01*
X153497998Y-80142023D01*
X153303191Y-80042762D01*
X153303188Y-80042761D01*
X153095258Y-79975201D01*
X153020000Y-79963281D01*
X153020000Y-80896988D01*
X152962993Y-80864075D01*
X152835826Y-80830000D01*
X152704174Y-80830000D01*
X152577007Y-80864075D01*
X152520000Y-80896988D01*
X152520000Y-79963281D01*
X152444741Y-79975201D01*
X152236811Y-80042761D01*
X152236808Y-80042762D01*
X152042001Y-80142023D01*
X151865133Y-80270524D01*
X151865128Y-80270528D01*
X151710528Y-80425128D01*
X151710524Y-80425133D01*
X151600627Y-80576394D01*
X151545297Y-80619060D01*
X151475684Y-80625039D01*
X151413889Y-80592433D01*
X151399991Y-80576394D01*
X151289857Y-80424807D01*
X151289853Y-80424802D01*
X151135193Y-80270142D01*
X150958260Y-80141595D01*
X150958259Y-80141594D01*
X150958257Y-80141593D01*
X150895825Y-80109782D01*
X150763383Y-80042298D01*
X150763380Y-80042297D01*
X150555376Y-79974714D01*
X150339361Y-79940500D01*
X150339356Y-79940500D01*
X150120644Y-79940500D01*
X150120639Y-79940500D01*
X149904623Y-79974714D01*
X149696619Y-80042297D01*
X149696616Y-80042298D01*
X149501739Y-80141595D01*
X149324806Y-80270142D01*
X149170142Y-80424806D01*
X149060318Y-80575969D01*
X149004989Y-80618635D01*
X148935375Y-80624614D01*
X148873580Y-80592009D01*
X148859682Y-80575969D01*
X148749857Y-80424806D01*
X148595193Y-80270142D01*
X148418260Y-80141595D01*
X148418259Y-80141594D01*
X148418257Y-80141593D01*
X148355825Y-80109782D01*
X148223383Y-80042298D01*
X148223380Y-80042297D01*
X148015376Y-79974714D01*
X147799361Y-79940500D01*
X147799356Y-79940500D01*
X147580644Y-79940500D01*
X147580639Y-79940500D01*
X147364623Y-79974714D01*
X147156619Y-80042297D01*
X147156616Y-80042298D01*
X146961739Y-80141595D01*
X146784806Y-80270142D01*
X146630142Y-80424806D01*
X146520318Y-80575969D01*
X146464989Y-80618635D01*
X146395375Y-80624614D01*
X146333580Y-80592009D01*
X146319682Y-80575969D01*
X146209857Y-80424806D01*
X146055193Y-80270142D01*
X145878260Y-80141595D01*
X145878259Y-80141594D01*
X145878257Y-80141593D01*
X145815825Y-80109782D01*
X145683383Y-80042298D01*
X145683380Y-80042297D01*
X145475376Y-79974714D01*
X145259361Y-79940500D01*
X145259356Y-79940500D01*
X145040644Y-79940500D01*
X145040639Y-79940500D01*
X144824623Y-79974714D01*
X144616619Y-80042297D01*
X144616616Y-80042298D01*
X144421739Y-80141595D01*
X144244806Y-80270142D01*
X144090142Y-80424806D01*
X143980318Y-80575969D01*
X143924989Y-80618635D01*
X143855375Y-80624614D01*
X143793580Y-80592009D01*
X143779682Y-80575969D01*
X143669857Y-80424806D01*
X143515193Y-80270142D01*
X143338260Y-80141595D01*
X143338259Y-80141594D01*
X143338257Y-80141593D01*
X143275825Y-80109782D01*
X143143383Y-80042298D01*
X143143380Y-80042297D01*
X142935376Y-79974714D01*
X142719361Y-79940500D01*
X142719356Y-79940500D01*
X142500644Y-79940500D01*
X142500639Y-79940500D01*
X142284623Y-79974714D01*
X142076619Y-80042297D01*
X142076616Y-80042298D01*
X141881739Y-80141595D01*
X141704806Y-80270142D01*
X141550146Y-80424802D01*
X141550142Y-80424807D01*
X141440008Y-80576394D01*
X141384678Y-80619060D01*
X141315065Y-80625039D01*
X141253270Y-80592433D01*
X141239372Y-80576394D01*
X141129475Y-80425133D01*
X141129471Y-80425128D01*
X140974871Y-80270528D01*
X140974866Y-80270524D01*
X140797998Y-80142023D01*
X140603191Y-80042762D01*
X140603188Y-80042761D01*
X140395258Y-79975201D01*
X140320000Y-79963281D01*
X140320000Y-80896988D01*
X140262993Y-80864075D01*
X140135826Y-80830000D01*
X140004174Y-80830000D01*
X139877007Y-80864075D01*
X139820000Y-80896988D01*
X139820000Y-79963281D01*
X139744741Y-79975201D01*
X139536811Y-80042761D01*
X139536808Y-80042762D01*
X139342001Y-80142023D01*
X139165133Y-80270524D01*
X139165128Y-80270528D01*
X139010528Y-80425128D01*
X139010524Y-80425133D01*
X138900627Y-80576394D01*
X138845297Y-80619060D01*
X138775684Y-80625039D01*
X138713889Y-80592433D01*
X138699991Y-80576394D01*
X138589857Y-80424807D01*
X138589853Y-80424802D01*
X138435193Y-80270142D01*
X138258260Y-80141595D01*
X138258259Y-80141594D01*
X138258257Y-80141593D01*
X138195825Y-80109782D01*
X138063383Y-80042298D01*
X138063380Y-80042297D01*
X137855376Y-79974714D01*
X137639361Y-79940500D01*
X137639356Y-79940500D01*
X137420644Y-79940500D01*
X137420639Y-79940500D01*
X137204623Y-79974714D01*
X136996619Y-80042297D01*
X136996616Y-80042298D01*
X136801739Y-80141595D01*
X136624806Y-80270142D01*
X136470146Y-80424802D01*
X136470142Y-80424807D01*
X136360008Y-80576394D01*
X136304678Y-80619060D01*
X136235065Y-80625039D01*
X136173270Y-80592433D01*
X136159372Y-80576394D01*
X136049475Y-80425133D01*
X136049471Y-80425128D01*
X135894871Y-80270528D01*
X135894866Y-80270524D01*
X135717998Y-80142023D01*
X135523191Y-80042762D01*
X135523188Y-80042761D01*
X135315258Y-79975201D01*
X135240000Y-79963281D01*
X135240000Y-80896988D01*
X135182993Y-80864075D01*
X135055826Y-80830000D01*
X134924174Y-80830000D01*
X134797007Y-80864075D01*
X134740000Y-80896988D01*
X134740000Y-79963281D01*
X134664741Y-79975201D01*
X134456811Y-80042761D01*
X134456808Y-80042762D01*
X134262001Y-80142023D01*
X134085133Y-80270524D01*
X134085128Y-80270528D01*
X133930528Y-80425128D01*
X133930524Y-80425133D01*
X133820627Y-80576394D01*
X133765297Y-80619060D01*
X133695684Y-80625039D01*
X133633889Y-80592433D01*
X133619991Y-80576394D01*
X133509857Y-80424807D01*
X133509853Y-80424802D01*
X133355193Y-80270142D01*
X133178260Y-80141595D01*
X133178259Y-80141594D01*
X133178257Y-80141593D01*
X133115825Y-80109782D01*
X132983383Y-80042298D01*
X132983380Y-80042297D01*
X132775376Y-79974714D01*
X132559361Y-79940500D01*
X132559356Y-79940500D01*
X132340644Y-79940500D01*
X132340639Y-79940500D01*
X132124623Y-79974714D01*
X131916619Y-80042297D01*
X131916616Y-80042298D01*
X131721739Y-80141595D01*
X131544806Y-80270142D01*
X131390142Y-80424806D01*
X131280318Y-80575969D01*
X131224989Y-80618635D01*
X131155375Y-80624614D01*
X131093580Y-80592009D01*
X131079682Y-80575969D01*
X130969857Y-80424806D01*
X130815193Y-80270142D01*
X130638260Y-80141595D01*
X130638259Y-80141594D01*
X130638257Y-80141593D01*
X130575825Y-80109782D01*
X130443383Y-80042298D01*
X130443380Y-80042297D01*
X130235376Y-79974714D01*
X130019361Y-79940500D01*
X130019356Y-79940500D01*
X129800644Y-79940500D01*
X129800639Y-79940500D01*
X129584623Y-79974714D01*
X129376619Y-80042297D01*
X129376616Y-80042298D01*
X129181739Y-80141595D01*
X129004806Y-80270142D01*
X128850142Y-80424806D01*
X128740318Y-80575969D01*
X128684989Y-80618635D01*
X128615375Y-80624614D01*
X128553580Y-80592009D01*
X128539682Y-80575969D01*
X128429857Y-80424806D01*
X128275193Y-80270142D01*
X128098260Y-80141595D01*
X128098259Y-80141594D01*
X128098257Y-80141593D01*
X128035825Y-80109782D01*
X127903383Y-80042298D01*
X127903380Y-80042297D01*
X127695376Y-79974714D01*
X127479361Y-79940500D01*
X127479356Y-79940500D01*
X127260644Y-79940500D01*
X127260639Y-79940500D01*
X127044623Y-79974714D01*
X126836619Y-80042297D01*
X126836616Y-80042298D01*
X126641739Y-80141595D01*
X126464806Y-80270142D01*
X126310142Y-80424806D01*
X126181595Y-80601739D01*
X126082298Y-80796616D01*
X126082297Y-80796619D01*
X126014714Y-81004623D01*
X125980500Y-81220638D01*
X125980500Y-81439361D01*
X126014714Y-81655376D01*
X126082297Y-81863380D01*
X126082298Y-81863383D01*
X126115239Y-81928031D01*
X126176628Y-82048513D01*
X126181595Y-82058260D01*
X126310142Y-82235193D01*
X126464802Y-82389853D01*
X126464807Y-82389857D01*
X126616394Y-82499991D01*
X126659060Y-82555320D01*
X126665039Y-82624934D01*
X126632434Y-82686729D01*
X126616394Y-82700627D01*
X126465133Y-82810524D01*
X126465128Y-82810528D01*
X126310528Y-82965128D01*
X126310524Y-82965133D01*
X126182023Y-83142001D01*
X126082762Y-83336808D01*
X126082761Y-83336811D01*
X126015201Y-83544741D01*
X126003282Y-83620000D01*
X126936988Y-83620000D01*
X126904075Y-83677007D01*
X126870000Y-83804174D01*
X126870000Y-83935826D01*
X126904075Y-84062993D01*
X126936988Y-84120000D01*
X126003282Y-84120000D01*
X126015201Y-84195258D01*
X126082761Y-84403188D01*
X126082762Y-84403191D01*
X126182023Y-84597998D01*
X126310524Y-84774866D01*
X126310528Y-84774871D01*
X126465128Y-84929471D01*
X126465133Y-84929475D01*
X126642001Y-85057976D01*
X126836808Y-85157237D01*
X126836811Y-85157238D01*
X127044739Y-85224797D01*
X127119999Y-85236717D01*
X127120000Y-85236717D01*
X127120000Y-84303012D01*
X127177007Y-84335925D01*
X127304174Y-84370000D01*
X127435826Y-84370000D01*
X127562993Y-84335925D01*
X127620000Y-84303012D01*
X127620000Y-85236717D01*
X127695258Y-85224797D01*
X127695261Y-85224797D01*
X127903188Y-85157238D01*
X127903191Y-85157237D01*
X128097998Y-85057976D01*
X128274866Y-84929475D01*
X128274871Y-84929471D01*
X128429469Y-84774873D01*
X128539371Y-84623605D01*
X128594701Y-84580939D01*
X128664314Y-84574960D01*
X128726110Y-84607565D01*
X128740008Y-84623605D01*
X128850142Y-84775192D01*
X128850146Y-84775197D01*
X129004806Y-84929857D01*
X129133935Y-85023673D01*
X129181743Y-85058407D01*
X129302060Y-85119712D01*
X129376616Y-85157701D01*
X129376619Y-85157702D01*
X129466025Y-85186751D01*
X129584625Y-85225286D01*
X129684672Y-85241132D01*
X129800639Y-85259500D01*
X129800644Y-85259500D01*
X130019361Y-85259500D01*
X130124082Y-85242912D01*
X130235375Y-85225286D01*
X130443383Y-85157701D01*
X130638257Y-85058407D01*
X130737601Y-84986229D01*
X130815193Y-84929857D01*
X130815195Y-84929854D01*
X130815199Y-84929852D01*
X130969852Y-84775199D01*
X131079683Y-84624028D01*
X131135011Y-84581364D01*
X131204624Y-84575385D01*
X131266420Y-84607990D01*
X131280313Y-84624023D01*
X131299499Y-84650430D01*
X131390148Y-84775199D01*
X131544806Y-84929857D01*
X131673935Y-85023673D01*
X131721743Y-85058407D01*
X131842060Y-85119712D01*
X131916616Y-85157701D01*
X131916619Y-85157702D01*
X132006025Y-85186751D01*
X132124625Y-85225286D01*
X132224672Y-85241132D01*
X132340639Y-85259500D01*
X132340644Y-85259500D01*
X132559361Y-85259500D01*
X132664082Y-85242912D01*
X132775375Y-85225286D01*
X132983383Y-85157701D01*
X133178257Y-85058407D01*
X133277601Y-84986229D01*
X133355193Y-84929857D01*
X133355195Y-84929854D01*
X133355199Y-84929852D01*
X133509852Y-84775199D01*
X133619683Y-84624028D01*
X133675011Y-84581364D01*
X133744624Y-84575385D01*
X133806420Y-84607990D01*
X133820313Y-84624023D01*
X133839499Y-84650430D01*
X133930148Y-84775199D01*
X134084806Y-84929857D01*
X134213935Y-85023673D01*
X134261743Y-85058407D01*
X134382060Y-85119712D01*
X134456616Y-85157701D01*
X134456619Y-85157702D01*
X134546025Y-85186751D01*
X134664625Y-85225286D01*
X134764672Y-85241132D01*
X134880639Y-85259500D01*
X134880644Y-85259500D01*
X135099361Y-85259500D01*
X135204082Y-85242912D01*
X135315375Y-85225286D01*
X135523383Y-85157701D01*
X135718257Y-85058407D01*
X135817601Y-84986229D01*
X135895193Y-84929857D01*
X135895195Y-84929854D01*
X135895199Y-84929852D01*
X136049852Y-84775199D01*
X136159683Y-84624028D01*
X136215011Y-84581364D01*
X136284624Y-84575385D01*
X136346420Y-84607990D01*
X136360313Y-84624023D01*
X136379499Y-84650430D01*
X136470148Y-84775199D01*
X136624806Y-84929857D01*
X136753935Y-85023673D01*
X136801743Y-85058407D01*
X136922060Y-85119712D01*
X136996616Y-85157701D01*
X136996619Y-85157702D01*
X137086025Y-85186751D01*
X137204625Y-85225286D01*
X137304672Y-85241132D01*
X137420639Y-85259500D01*
X137420644Y-85259500D01*
X137639361Y-85259500D01*
X137744082Y-85242912D01*
X137855375Y-85225286D01*
X138063383Y-85157701D01*
X138258257Y-85058407D01*
X138357601Y-84986229D01*
X138435193Y-84929857D01*
X138435195Y-84929854D01*
X138435199Y-84929852D01*
X138589852Y-84775199D01*
X138699683Y-84624028D01*
X138755011Y-84581364D01*
X138824624Y-84575385D01*
X138886420Y-84607990D01*
X138900313Y-84624023D01*
X138919499Y-84650430D01*
X139010148Y-84775199D01*
X139164806Y-84929857D01*
X139293935Y-85023673D01*
X139341743Y-85058407D01*
X139462060Y-85119712D01*
X139536616Y-85157701D01*
X139536619Y-85157702D01*
X139626025Y-85186751D01*
X139744625Y-85225286D01*
X139844672Y-85241132D01*
X139960639Y-85259500D01*
X140080910Y-85259500D01*
X140147949Y-85279185D01*
X140193704Y-85331989D01*
X140203648Y-85401147D01*
X140174623Y-85464703D01*
X140128362Y-85498061D01*
X140020827Y-85542602D01*
X140020814Y-85542609D01*
X139889711Y-85630210D01*
X139889707Y-85630213D01*
X139778213Y-85741707D01*
X139778210Y-85741711D01*
X139690609Y-85872814D01*
X139690602Y-85872827D01*
X139630264Y-86018498D01*
X139630261Y-86018510D01*
X139599500Y-86173153D01*
X139599500Y-86330846D01*
X139630261Y-86485489D01*
X139630264Y-86485501D01*
X139690602Y-86631172D01*
X139690609Y-86631184D01*
X139753602Y-86725459D01*
X139774480Y-86792136D01*
X139774500Y-86794350D01*
X139774500Y-93455500D01*
X139754815Y-93522539D01*
X139702011Y-93568294D01*
X139650500Y-93579500D01*
X139559155Y-93579500D01*
X139404510Y-93610261D01*
X139404498Y-93610264D01*
X139258827Y-93670602D01*
X139258814Y-93670609D01*
X139127711Y-93758210D01*
X139127706Y-93758214D01*
X139108938Y-93776982D01*
X139047614Y-93810466D01*
X138977923Y-93805480D01*
X138921990Y-93763607D01*
X138910777Y-93745599D01*
X138852287Y-93630806D01*
X138735481Y-93470036D01*
X138594964Y-93329519D01*
X138434194Y-93212713D01*
X138277718Y-93132984D01*
X138226923Y-93085010D01*
X138210128Y-93017189D01*
X138232665Y-92951054D01*
X138277718Y-92912015D01*
X138434194Y-92832287D01*
X138594964Y-92715481D01*
X138735481Y-92574964D01*
X138852287Y-92414194D01*
X138942505Y-92237132D01*
X139003913Y-92048136D01*
X139035000Y-91851861D01*
X139035000Y-91653139D01*
X139003913Y-91456864D01*
X138942505Y-91267868D01*
X138942505Y-91267867D01*
X138852286Y-91090805D01*
X138735481Y-90930036D01*
X138594964Y-90789519D01*
X138434194Y-90672713D01*
X138277718Y-90592984D01*
X138226923Y-90545010D01*
X138210128Y-90477189D01*
X138232665Y-90411054D01*
X138277718Y-90372015D01*
X138434194Y-90292287D01*
X138594964Y-90175481D01*
X138735481Y-90034964D01*
X138852287Y-89874194D01*
X138942505Y-89697132D01*
X139003913Y-89508136D01*
X139035000Y-89311861D01*
X139035000Y-89113139D01*
X139003913Y-88916864D01*
X138942505Y-88727868D01*
X138942505Y-88727867D01*
X138852286Y-88550805D01*
X138816232Y-88501181D01*
X138735481Y-88390036D01*
X138594964Y-88249519D01*
X138434194Y-88132713D01*
X138257132Y-88042494D01*
X138257129Y-88042493D01*
X138068137Y-87981087D01*
X137969998Y-87965543D01*
X137871861Y-87950000D01*
X137673139Y-87950000D01*
X137607714Y-87960362D01*
X137476862Y-87981087D01*
X137287870Y-88042493D01*
X137287867Y-88042494D01*
X137110805Y-88132713D01*
X136950033Y-88249521D01*
X136809521Y-88390033D01*
X136692713Y-88550805D01*
X136602494Y-88727867D01*
X136602493Y-88727870D01*
X136541087Y-88916862D01*
X136510000Y-89113139D01*
X136510000Y-89311860D01*
X136541087Y-89508137D01*
X136602493Y-89697129D01*
X136602494Y-89697132D01*
X136659368Y-89808751D01*
X136692713Y-89874194D01*
X136809519Y-90034964D01*
X136950036Y-90175481D01*
X137110806Y-90292287D01*
X137229332Y-90352679D01*
X137267280Y-90372015D01*
X137318076Y-90419990D01*
X137334871Y-90487811D01*
X137312333Y-90553946D01*
X137267280Y-90592985D01*
X137110805Y-90672713D01*
X136950033Y-90789521D01*
X136809521Y-90930033D01*
X136692713Y-91090805D01*
X136602494Y-91267867D01*
X136602493Y-91267870D01*
X136541087Y-91456862D01*
X136510000Y-91653139D01*
X136510000Y-91851860D01*
X136541087Y-92048137D01*
X136602493Y-92237129D01*
X136602494Y-92237132D01*
X136692713Y-92414194D01*
X136809519Y-92574964D01*
X136950036Y-92715481D01*
X137110806Y-92832287D01*
X137229332Y-92892679D01*
X137267280Y-92912015D01*
X137318076Y-92959990D01*
X137334871Y-93027811D01*
X137312333Y-93093946D01*
X137267280Y-93132985D01*
X137110805Y-93212713D01*
X136950033Y-93329521D01*
X136809521Y-93470033D01*
X136692713Y-93630805D01*
X136602494Y-93807867D01*
X136602493Y-93807870D01*
X136541087Y-93996862D01*
X136510000Y-94193139D01*
X136510000Y-94391860D01*
X136541087Y-94588137D01*
X136602493Y-94777129D01*
X136602494Y-94777132D01*
X136692713Y-94954194D01*
X136809519Y-95114964D01*
X136950036Y-95255481D01*
X137110806Y-95372287D01*
X137267832Y-95452296D01*
X137318627Y-95500269D01*
X137335422Y-95568090D01*
X137312885Y-95634225D01*
X137267832Y-95673264D01*
X137111066Y-95753141D01*
X137073783Y-95780229D01*
X137073782Y-95780230D01*
X137643090Y-96349537D01*
X137579507Y-96366575D01*
X137465493Y-96432401D01*
X137372401Y-96525493D01*
X137306575Y-96639507D01*
X137289537Y-96703090D01*
X136720230Y-96133782D01*
X136720229Y-96133783D01*
X136693143Y-96171064D01*
X136602957Y-96348062D01*
X136541575Y-96536976D01*
X136541575Y-96536979D01*
X136510500Y-96733178D01*
X136510500Y-96931821D01*
X136541575Y-97128020D01*
X136541575Y-97128023D01*
X136602957Y-97316937D01*
X136693141Y-97493932D01*
X136720230Y-97531215D01*
X136720231Y-97531216D01*
X137289537Y-96961909D01*
X137306575Y-97025493D01*
X137372401Y-97139507D01*
X137465493Y-97232599D01*
X137579507Y-97298425D01*
X137643090Y-97315462D01*
X137073783Y-97884768D01*
X137073783Y-97884769D01*
X137111067Y-97911858D01*
X137267831Y-97991734D01*
X137318627Y-98039709D01*
X137335422Y-98107530D01*
X137312884Y-98173665D01*
X137267831Y-98212704D01*
X137110805Y-98292713D01*
X136950033Y-98409521D01*
X136809521Y-98550033D01*
X136692713Y-98710805D01*
X136602494Y-98887867D01*
X136602493Y-98887870D01*
X136541087Y-99076862D01*
X136510000Y-99273139D01*
X136510000Y-99471860D01*
X136541087Y-99668137D01*
X136602493Y-99857129D01*
X136602494Y-99857132D01*
X136682734Y-100014610D01*
X136692713Y-100034194D01*
X136809519Y-100194964D01*
X136950036Y-100335481D01*
X137110806Y-100452287D01*
X137197649Y-100496535D01*
X137287867Y-100542505D01*
X137287870Y-100542506D01*
X137382366Y-100573209D01*
X137476864Y-100603913D01*
X137673139Y-100635000D01*
X137673140Y-100635000D01*
X137871860Y-100635000D01*
X137871861Y-100635000D01*
X138068136Y-100603913D01*
X138257132Y-100542505D01*
X138434194Y-100452287D01*
X138594964Y-100335481D01*
X138735481Y-100194964D01*
X138788182Y-100122426D01*
X138843512Y-100079761D01*
X138913125Y-100073782D01*
X138974920Y-100106387D01*
X139009277Y-100167226D01*
X139012500Y-100195312D01*
X139012500Y-108569650D01*
X138992815Y-108636689D01*
X138991602Y-108638541D01*
X138928609Y-108732815D01*
X138928602Y-108732828D01*
X138868262Y-108878503D01*
X138867659Y-108880493D01*
X138867059Y-108881407D01*
X138865932Y-108884130D01*
X138865415Y-108883916D01*
X138829359Y-108938930D01*
X138765546Y-108967384D01*
X138696479Y-108956821D01*
X138644088Y-108910595D01*
X138630341Y-108880493D01*
X138629737Y-108878503D01*
X138569397Y-108732827D01*
X138569390Y-108732814D01*
X138481789Y-108601711D01*
X138481786Y-108601707D01*
X138370292Y-108490213D01*
X138370288Y-108490210D01*
X138239185Y-108402609D01*
X138239172Y-108402602D01*
X138093501Y-108342264D01*
X138093489Y-108342261D01*
X137938845Y-108311500D01*
X137938842Y-108311500D01*
X137781158Y-108311500D01*
X137781155Y-108311500D01*
X137626510Y-108342261D01*
X137626498Y-108342264D01*
X137480827Y-108402602D01*
X137480814Y-108402609D01*
X137349711Y-108490210D01*
X137349707Y-108490213D01*
X137238213Y-108601707D01*
X137238210Y-108601711D01*
X137150609Y-108732814D01*
X137150602Y-108732827D01*
X137090264Y-108878498D01*
X137090261Y-108878510D01*
X137059500Y-109033153D01*
X137059500Y-109190846D01*
X137090261Y-109345489D01*
X137090264Y-109345501D01*
X137150602Y-109491172D01*
X137150609Y-109491184D01*
X137213602Y-109585459D01*
X137234480Y-109652136D01*
X137234500Y-109654350D01*
X137234500Y-110525568D01*
X137214815Y-110592607D01*
X137183388Y-110625883D01*
X137045354Y-110726172D01*
X137045352Y-110726174D01*
X137045351Y-110726174D01*
X136906174Y-110865351D01*
X136906174Y-110865352D01*
X136906172Y-110865354D01*
X136856485Y-110933741D01*
X136790476Y-111024594D01*
X136700485Y-111201213D01*
X136652511Y-111252009D01*
X136584690Y-111268804D01*
X136518555Y-111246267D01*
X136479515Y-111201213D01*
X136389523Y-111024594D01*
X136273828Y-110865354D01*
X136134646Y-110726172D01*
X135996612Y-110625884D01*
X135953949Y-110570556D01*
X135945500Y-110525568D01*
X135945500Y-102288350D01*
X135965185Y-102221311D01*
X135966398Y-102219459D01*
X135969043Y-102215500D01*
X136029394Y-102125179D01*
X136089737Y-101979497D01*
X136120500Y-101824842D01*
X136120500Y-101667158D01*
X136120500Y-101667155D01*
X136120499Y-101667153D01*
X136089738Y-101512510D01*
X136089737Y-101512503D01*
X136029397Y-101366828D01*
X136029397Y-101366827D01*
X136029390Y-101366814D01*
X135941789Y-101235711D01*
X135941786Y-101235707D01*
X135830292Y-101124213D01*
X135830288Y-101124210D01*
X135699185Y-101036609D01*
X135699172Y-101036602D01*
X135553501Y-100976264D01*
X135553489Y-100976261D01*
X135398845Y-100945500D01*
X135398842Y-100945500D01*
X135241158Y-100945500D01*
X135241155Y-100945500D01*
X135086510Y-100976261D01*
X135086498Y-100976264D01*
X134940827Y-101036602D01*
X134940814Y-101036609D01*
X134809711Y-101124210D01*
X134809707Y-101124213D01*
X134698213Y-101235707D01*
X134698210Y-101235711D01*
X134610609Y-101366814D01*
X134610602Y-101366827D01*
X134550264Y-101512498D01*
X134550261Y-101512510D01*
X134519500Y-101667153D01*
X134519500Y-101824846D01*
X134550261Y-101979489D01*
X134550264Y-101979501D01*
X134610602Y-102125172D01*
X134610609Y-102125184D01*
X134673602Y-102219459D01*
X134694480Y-102286136D01*
X134694500Y-102288350D01*
X134694500Y-110525568D01*
X134674815Y-110592607D01*
X134643388Y-110625883D01*
X134505354Y-110726172D01*
X134505352Y-110726174D01*
X134505351Y-110726174D01*
X134366174Y-110865351D01*
X134366174Y-110865352D01*
X134366172Y-110865354D01*
X134316485Y-110933741D01*
X134250476Y-111024594D01*
X134160485Y-111201213D01*
X134112511Y-111252009D01*
X134044690Y-111268804D01*
X133978555Y-111246267D01*
X133939515Y-111201213D01*
X133849523Y-111024594D01*
X133733828Y-110865354D01*
X133594646Y-110726172D01*
X133435405Y-110610476D01*
X133400335Y-110592607D01*
X133260029Y-110521117D01*
X133072826Y-110460290D01*
X132878422Y-110429500D01*
X132878417Y-110429500D01*
X132681583Y-110429500D01*
X132681578Y-110429500D01*
X132487173Y-110460290D01*
X132299970Y-110521117D01*
X132124594Y-110610476D01*
X132033741Y-110676485D01*
X131965354Y-110726172D01*
X131965352Y-110726174D01*
X131965351Y-110726174D01*
X131826174Y-110865351D01*
X131826174Y-110865352D01*
X131826172Y-110865354D01*
X131776485Y-110933741D01*
X131710476Y-111024594D01*
X131620485Y-111201213D01*
X131572511Y-111252009D01*
X131504690Y-111268804D01*
X131438555Y-111246267D01*
X131399515Y-111201213D01*
X131309523Y-111024594D01*
X131193828Y-110865354D01*
X131054646Y-110726172D01*
X130916612Y-110625884D01*
X130873949Y-110570556D01*
X130865500Y-110525568D01*
X130865500Y-109654350D01*
X130885185Y-109587311D01*
X130886398Y-109585459D01*
X130886809Y-109584843D01*
X130949394Y-109491179D01*
X131009737Y-109345497D01*
X131040500Y-109190842D01*
X131040500Y-109033158D01*
X131040500Y-109033155D01*
X131040499Y-109033153D01*
X131009737Y-108878503D01*
X130949397Y-108732828D01*
X130949397Y-108732827D01*
X130949390Y-108732814D01*
X130861789Y-108601711D01*
X130861786Y-108601707D01*
X130750292Y-108490213D01*
X130750288Y-108490210D01*
X130619185Y-108402609D01*
X130619172Y-108402602D01*
X130473501Y-108342264D01*
X130473489Y-108342261D01*
X130318845Y-108311500D01*
X130318842Y-108311500D01*
X130161158Y-108311500D01*
X130161155Y-108311500D01*
X130006510Y-108342261D01*
X130006498Y-108342264D01*
X129860827Y-108402602D01*
X129860814Y-108402609D01*
X129729711Y-108490210D01*
X129729707Y-108490213D01*
X129618213Y-108601707D01*
X129618210Y-108601711D01*
X129530609Y-108732814D01*
X129530602Y-108732827D01*
X129470264Y-108878498D01*
X129470261Y-108878510D01*
X129439500Y-109033153D01*
X129439500Y-109190846D01*
X129470261Y-109345489D01*
X129470264Y-109345501D01*
X129530602Y-109491172D01*
X129530609Y-109491184D01*
X129593602Y-109585459D01*
X129614480Y-109652136D01*
X129614500Y-109654350D01*
X129614500Y-110525568D01*
X129594815Y-110592607D01*
X129563388Y-110625883D01*
X129425354Y-110726172D01*
X129425352Y-110726174D01*
X129425351Y-110726174D01*
X129286174Y-110865351D01*
X129286174Y-110865352D01*
X129286172Y-110865354D01*
X129236485Y-110933741D01*
X129170476Y-111024594D01*
X129081117Y-111199970D01*
X129020290Y-111387173D01*
X128989500Y-111581577D01*
X128989500Y-111778422D01*
X129020290Y-111972826D01*
X129081117Y-112160029D01*
X129170475Y-112335403D01*
X129170476Y-112335405D01*
X129286172Y-112494646D01*
X129425354Y-112633828D01*
X129563385Y-112734114D01*
X129579307Y-112745682D01*
X129621972Y-112801012D01*
X129627951Y-112870626D01*
X129595345Y-112932421D01*
X129534506Y-112966778D01*
X129506421Y-112970000D01*
X129220000Y-112970000D01*
X129220000Y-113932599D01*
X129203325Y-113915924D01*
X129116675Y-113865896D01*
X129020028Y-113840000D01*
X128919972Y-113840000D01*
X128823325Y-113865896D01*
X128736675Y-113915924D01*
X128720000Y-113932599D01*
X128720000Y-112970000D01*
X128172155Y-112970000D01*
X128112627Y-112976401D01*
X128112620Y-112976403D01*
X127977913Y-113026645D01*
X127977906Y-113026649D01*
X127862812Y-113112809D01*
X127862809Y-113112812D01*
X127776649Y-113227906D01*
X127776645Y-113227913D01*
X127726403Y-113362620D01*
X127726401Y-113362627D01*
X127720000Y-113422155D01*
X127720000Y-113970000D01*
X128682599Y-113970000D01*
X128665924Y-113986675D01*
X128615896Y-114073325D01*
X128590000Y-114169972D01*
X128590000Y-114270028D01*
X128615896Y-114366675D01*
X128665924Y-114453325D01*
X128682599Y-114470000D01*
X127720000Y-114470000D01*
X127720000Y-115017844D01*
X127726401Y-115077372D01*
X127726403Y-115077379D01*
X127776645Y-115212086D01*
X127776649Y-115212093D01*
X127862809Y-115327187D01*
X127862812Y-115327190D01*
X127977906Y-115413350D01*
X127977913Y-115413354D01*
X128112620Y-115463596D01*
X128112627Y-115463598D01*
X128172155Y-115469999D01*
X128172172Y-115470000D01*
X128720000Y-115470000D01*
X128720000Y-114507401D01*
X128736675Y-114524076D01*
X128823325Y-114574104D01*
X128919972Y-114600000D01*
X129020028Y-114600000D01*
X129116675Y-114574104D01*
X129203325Y-114524076D01*
X129220000Y-114507401D01*
X129220000Y-115470000D01*
X129767828Y-115470000D01*
X129767844Y-115469999D01*
X129827372Y-115463598D01*
X129827379Y-115463596D01*
X129962086Y-115413354D01*
X129962093Y-115413350D01*
X130077187Y-115327190D01*
X130077190Y-115327187D01*
X130163350Y-115212093D01*
X130163354Y-115212086D01*
X130213596Y-115077379D01*
X130213598Y-115077372D01*
X130219999Y-115017844D01*
X130220000Y-115017827D01*
X130220000Y-114953578D01*
X130239685Y-114886539D01*
X130292489Y-114840784D01*
X130361647Y-114830840D01*
X130425203Y-114859865D01*
X130444314Y-114880688D01*
X130556172Y-115034646D01*
X130695354Y-115173828D01*
X130833387Y-115274115D01*
X130876051Y-115329444D01*
X130884500Y-115374432D01*
X130884500Y-117527650D01*
X130864815Y-117594689D01*
X130863626Y-117596503D01*
X130848471Y-117619185D01*
X130800609Y-117690815D01*
X130800602Y-117690828D01*
X130740264Y-117836498D01*
X130740261Y-117836510D01*
X130709500Y-117991153D01*
X130709500Y-118148846D01*
X130740261Y-118303489D01*
X130740264Y-118303501D01*
X130800602Y-118449172D01*
X130800609Y-118449185D01*
X130888210Y-118580288D01*
X130888213Y-118580292D01*
X130999707Y-118691786D01*
X130999711Y-118691789D01*
X131130814Y-118779390D01*
X131130827Y-118779397D01*
X131276498Y-118839735D01*
X131276503Y-118839737D01*
X131431153Y-118870499D01*
X131431156Y-118870500D01*
X131431158Y-118870500D01*
X131588844Y-118870500D01*
X131588845Y-118870499D01*
X131743497Y-118839737D01*
X131889179Y-118779394D01*
X132020289Y-118691789D01*
X132131789Y-118580289D01*
X132219394Y-118449179D01*
X132279737Y-118303497D01*
X132310500Y-118148842D01*
X132310500Y-118097560D01*
X132330185Y-118030521D01*
X132382989Y-117984766D01*
X132452147Y-117974822D01*
X132481947Y-117982997D01*
X132546503Y-118009737D01*
X132650991Y-118030521D01*
X132701153Y-118040499D01*
X132701156Y-118040500D01*
X132701158Y-118040500D01*
X132858844Y-118040500D01*
X132858845Y-118040499D01*
X133013497Y-118009737D01*
X133159179Y-117949394D01*
X133290289Y-117861789D01*
X133401789Y-117750289D01*
X133489394Y-117619179D01*
X133549737Y-117473497D01*
X133580500Y-117318842D01*
X133580500Y-117161158D01*
X133580500Y-117161155D01*
X133580499Y-117161153D01*
X133568276Y-117099701D01*
X133574503Y-117030110D01*
X133617366Y-116974932D01*
X133683256Y-116951688D01*
X133737344Y-116960948D01*
X133816503Y-116993737D01*
X133971153Y-117024499D01*
X133971156Y-117024500D01*
X133971158Y-117024500D01*
X134128844Y-117024500D01*
X134128845Y-117024499D01*
X134283497Y-116993737D01*
X134429179Y-116933394D01*
X134560289Y-116845789D01*
X134671789Y-116734289D01*
X134759394Y-116603179D01*
X134819737Y-116457497D01*
X134850500Y-116302842D01*
X134850500Y-116145158D01*
X134850500Y-116145155D01*
X134850499Y-116145153D01*
X134819738Y-115990510D01*
X134819737Y-115990503D01*
X134759394Y-115844821D01*
X134696397Y-115750539D01*
X134675520Y-115683863D01*
X134675500Y-115681650D01*
X134675500Y-115374432D01*
X134695185Y-115307393D01*
X134726611Y-115274116D01*
X134864646Y-115173828D01*
X135003828Y-115034646D01*
X135119524Y-114875405D01*
X135208884Y-114700025D01*
X135208884Y-114700022D01*
X135209795Y-114698236D01*
X135257769Y-114647440D01*
X135325590Y-114630644D01*
X135391725Y-114653181D01*
X135430765Y-114698235D01*
X135520905Y-114875145D01*
X135546319Y-114910125D01*
X135546320Y-114910125D01*
X136210000Y-114246445D01*
X136210000Y-114270028D01*
X136235896Y-114366675D01*
X136285924Y-114453325D01*
X136356675Y-114524076D01*
X136443325Y-114574104D01*
X136539972Y-114600000D01*
X136563553Y-114600000D01*
X135899873Y-115263677D01*
X135899873Y-115263678D01*
X135934858Y-115289096D01*
X136110164Y-115378418D01*
X136297294Y-115439221D01*
X136491618Y-115470000D01*
X136688382Y-115470000D01*
X136882705Y-115439221D01*
X137069835Y-115378418D01*
X137245143Y-115289095D01*
X137280125Y-115263678D01*
X137280126Y-115263678D01*
X136616448Y-114600000D01*
X136640028Y-114600000D01*
X136736675Y-114574104D01*
X136823325Y-114524076D01*
X136894076Y-114453325D01*
X136944104Y-114366675D01*
X136970000Y-114270028D01*
X136970000Y-114246448D01*
X137633678Y-114910126D01*
X137633678Y-114910125D01*
X137659095Y-114875143D01*
X137748418Y-114699835D01*
X137809221Y-114512705D01*
X137840000Y-114318382D01*
X137840000Y-114121617D01*
X137809221Y-113927294D01*
X137748418Y-113740164D01*
X137659096Y-113564858D01*
X137633678Y-113529873D01*
X137633677Y-113529873D01*
X136970000Y-114193551D01*
X136970000Y-114169972D01*
X136944104Y-114073325D01*
X136894076Y-113986675D01*
X136823325Y-113915924D01*
X136736675Y-113865896D01*
X136640028Y-113840000D01*
X136616447Y-113840000D01*
X137280125Y-113176320D01*
X137280125Y-113176319D01*
X137245145Y-113150905D01*
X137069835Y-113061581D01*
X136882705Y-113000778D01*
X136688382Y-112970000D01*
X136491618Y-112970000D01*
X136297294Y-113000778D01*
X136110161Y-113061582D01*
X135934863Y-113150899D01*
X135934859Y-113150902D01*
X135899873Y-113176320D01*
X135899872Y-113176320D01*
X136563554Y-113840000D01*
X136539972Y-113840000D01*
X136443325Y-113865896D01*
X136356675Y-113915924D01*
X136285924Y-113986675D01*
X136235896Y-114073325D01*
X136210000Y-114169972D01*
X136210000Y-114193552D01*
X135546320Y-113529872D01*
X135546320Y-113529873D01*
X135520902Y-113564859D01*
X135430765Y-113741764D01*
X135382790Y-113792560D01*
X135314969Y-113809355D01*
X135248835Y-113786818D01*
X135209795Y-113741763D01*
X135119525Y-113564596D01*
X135083132Y-113514506D01*
X135003828Y-113405354D01*
X134864646Y-113266172D01*
X134705405Y-113150476D01*
X134662885Y-113128811D01*
X134530029Y-113061117D01*
X134342826Y-113000290D01*
X134148422Y-112969500D01*
X134148417Y-112969500D01*
X133951583Y-112969500D01*
X133951578Y-112969500D01*
X133757173Y-113000290D01*
X133642352Y-113037599D01*
X133569975Y-113061116D01*
X133569972Y-113061117D01*
X133567819Y-113061817D01*
X133539697Y-113062620D01*
X133511853Y-113066624D01*
X133505241Y-113063604D01*
X133497978Y-113063812D01*
X133473891Y-113049287D01*
X133448297Y-113037599D01*
X133444367Y-113031484D01*
X133438145Y-113027732D01*
X133425733Y-113002489D01*
X133410523Y-112978821D01*
X133409046Y-112968549D01*
X133407316Y-112965031D01*
X133405500Y-112943886D01*
X133405500Y-112834432D01*
X133425185Y-112767393D01*
X133456611Y-112734116D01*
X133594646Y-112633828D01*
X133733828Y-112494646D01*
X133849524Y-112335405D01*
X133938884Y-112160025D01*
X133939515Y-112158787D01*
X133987489Y-112107990D01*
X134055310Y-112091195D01*
X134121445Y-112113732D01*
X134160485Y-112158787D01*
X134250474Y-112335403D01*
X134285234Y-112383246D01*
X134366172Y-112494646D01*
X134505354Y-112633828D01*
X134664595Y-112749524D01*
X134742943Y-112789444D01*
X134839970Y-112838882D01*
X134839972Y-112838882D01*
X134839975Y-112838884D01*
X134937666Y-112870626D01*
X135027173Y-112899709D01*
X135221578Y-112930500D01*
X135221583Y-112930500D01*
X135418422Y-112930500D01*
X135612826Y-112899709D01*
X135800025Y-112838884D01*
X135975405Y-112749524D01*
X136134646Y-112633828D01*
X136273828Y-112494646D01*
X136389524Y-112335405D01*
X136478884Y-112160025D01*
X136479515Y-112158787D01*
X136527489Y-112107990D01*
X136595310Y-112091195D01*
X136661445Y-112113732D01*
X136700485Y-112158787D01*
X136790474Y-112335403D01*
X136825234Y-112383246D01*
X136906172Y-112494646D01*
X137045354Y-112633828D01*
X137204595Y-112749524D01*
X137282943Y-112789444D01*
X137379970Y-112838882D01*
X137379972Y-112838882D01*
X137379975Y-112838884D01*
X137477666Y-112870626D01*
X137567173Y-112899709D01*
X137761578Y-112930500D01*
X137761583Y-112930500D01*
X137958422Y-112930500D01*
X138152826Y-112899709D01*
X138340025Y-112838884D01*
X138515405Y-112749524D01*
X138674646Y-112633828D01*
X138813828Y-112494646D01*
X138929524Y-112335405D01*
X139018884Y-112160025D01*
X139079709Y-111972826D01*
X139110500Y-111778422D01*
X139110500Y-111581577D01*
X139079709Y-111387173D01*
X139018882Y-111199970D01*
X138929523Y-111024594D01*
X138813828Y-110865354D01*
X138674646Y-110726172D01*
X138536612Y-110625884D01*
X138493949Y-110570556D01*
X138485500Y-110525568D01*
X138485500Y-109654350D01*
X138505185Y-109587311D01*
X138506398Y-109585459D01*
X138506809Y-109584843D01*
X138569394Y-109491179D01*
X138629737Y-109345497D01*
X138629739Y-109345489D01*
X138630340Y-109343510D01*
X138630938Y-109342596D01*
X138632068Y-109339870D01*
X138632585Y-109340084D01*
X138668637Y-109285072D01*
X138732450Y-109256615D01*
X138801517Y-109267176D01*
X138853910Y-109313401D01*
X138867660Y-109343510D01*
X138868262Y-109345497D01*
X138928602Y-109491172D01*
X138928609Y-109491185D01*
X139016210Y-109622288D01*
X139016213Y-109622292D01*
X139127707Y-109733786D01*
X139127711Y-109733789D01*
X139258814Y-109821390D01*
X139258827Y-109821397D01*
X139404498Y-109881735D01*
X139404503Y-109881737D01*
X139559153Y-109912499D01*
X139559156Y-109912500D01*
X139559158Y-109912500D01*
X139716844Y-109912500D01*
X139716845Y-109912499D01*
X139871497Y-109881737D01*
X140017179Y-109821394D01*
X140148289Y-109733789D01*
X140259789Y-109622289D01*
X140347394Y-109491179D01*
X140407737Y-109345497D01*
X140438500Y-109190842D01*
X140438500Y-109033158D01*
X140438500Y-109033155D01*
X140438499Y-109033153D01*
X140407737Y-108878503D01*
X140347394Y-108732821D01*
X140284397Y-108638539D01*
X140263520Y-108571863D01*
X140263500Y-108569650D01*
X140263500Y-107151577D01*
X140749500Y-107151577D01*
X140749500Y-107348422D01*
X140780290Y-107542826D01*
X140841117Y-107730029D01*
X140902111Y-107849735D01*
X140930476Y-107905405D01*
X141046172Y-108064646D01*
X141185354Y-108203828D01*
X141344595Y-108319524D01*
X141389225Y-108342264D01*
X141519970Y-108408882D01*
X141519972Y-108408882D01*
X141519975Y-108408884D01*
X141620317Y-108441487D01*
X141707173Y-108469709D01*
X141901578Y-108500500D01*
X141901583Y-108500500D01*
X142098422Y-108500500D01*
X142292826Y-108469709D01*
X142480025Y-108408884D01*
X142655405Y-108319524D01*
X142814646Y-108203828D01*
X142837319Y-108181155D01*
X142898642Y-108147670D01*
X142968334Y-108152654D01*
X143012681Y-108181155D01*
X143035354Y-108203828D01*
X143194595Y-108319524D01*
X143239225Y-108342264D01*
X143369970Y-108408882D01*
X143369972Y-108408882D01*
X143369975Y-108408884D01*
X143470317Y-108441487D01*
X143557173Y-108469709D01*
X143751578Y-108500500D01*
X143751583Y-108500500D01*
X143948422Y-108500500D01*
X144142826Y-108469709D01*
X144330025Y-108408884D01*
X144505405Y-108319524D01*
X144664646Y-108203828D01*
X144803828Y-108064646D01*
X144919524Y-107905405D01*
X145008884Y-107730025D01*
X145069709Y-107542826D01*
X145071294Y-107532818D01*
X145100500Y-107348422D01*
X145100500Y-107151577D01*
X145078783Y-107014464D01*
X145076675Y-107001153D01*
X157379500Y-107001153D01*
X157379500Y-107158846D01*
X157410261Y-107313489D01*
X157410264Y-107313501D01*
X157470602Y-107459172D01*
X157470609Y-107459184D01*
X157533602Y-107553459D01*
X157554480Y-107620136D01*
X157554500Y-107622350D01*
X157554500Y-117527650D01*
X157534815Y-117594689D01*
X157533626Y-117596503D01*
X157518471Y-117619185D01*
X157470609Y-117690815D01*
X157470602Y-117690828D01*
X157410264Y-117836498D01*
X157410261Y-117836510D01*
X157379500Y-117991153D01*
X157379500Y-118148846D01*
X157410261Y-118303489D01*
X157410264Y-118303501D01*
X157470602Y-118449172D01*
X157470609Y-118449185D01*
X157558210Y-118580288D01*
X157558213Y-118580292D01*
X157669707Y-118691786D01*
X157669711Y-118691789D01*
X157800814Y-118779390D01*
X157800827Y-118779397D01*
X157946498Y-118839735D01*
X157946503Y-118839737D01*
X158101153Y-118870499D01*
X158101156Y-118870500D01*
X158101158Y-118870500D01*
X158258844Y-118870500D01*
X158258845Y-118870499D01*
X158413497Y-118839737D01*
X158559179Y-118779394D01*
X158690289Y-118691789D01*
X158801789Y-118580289D01*
X158889394Y-118449179D01*
X158949737Y-118303497D01*
X158980500Y-118148842D01*
X158980500Y-117991158D01*
X158980500Y-117991155D01*
X158980499Y-117991153D01*
X158978877Y-117982999D01*
X158949737Y-117836503D01*
X158889394Y-117690821D01*
X158826397Y-117596539D01*
X158805520Y-117529863D01*
X158805500Y-117527650D01*
X158805500Y-113422155D01*
X164550000Y-113422155D01*
X164550000Y-113970000D01*
X165512599Y-113970000D01*
X165495924Y-113986675D01*
X165445896Y-114073325D01*
X165420000Y-114169972D01*
X165420000Y-114270028D01*
X165445896Y-114366675D01*
X165495924Y-114453325D01*
X165512599Y-114470000D01*
X164550000Y-114470000D01*
X164550000Y-115017844D01*
X164556401Y-115077372D01*
X164556403Y-115077379D01*
X164606645Y-115212086D01*
X164606649Y-115212093D01*
X164692809Y-115327187D01*
X164692812Y-115327190D01*
X164807906Y-115413350D01*
X164807913Y-115413354D01*
X164942620Y-115463596D01*
X164942627Y-115463598D01*
X165002155Y-115469999D01*
X165002172Y-115470000D01*
X165550000Y-115470000D01*
X165550000Y-114507401D01*
X165566675Y-114524076D01*
X165653325Y-114574104D01*
X165749972Y-114600000D01*
X165850028Y-114600000D01*
X165946675Y-114574104D01*
X166033325Y-114524076D01*
X166050000Y-114507401D01*
X166050000Y-115470000D01*
X166597828Y-115470000D01*
X166597844Y-115469999D01*
X166657372Y-115463598D01*
X166657379Y-115463596D01*
X166792086Y-115413354D01*
X166792093Y-115413350D01*
X166907187Y-115327190D01*
X166907190Y-115327187D01*
X166993350Y-115212093D01*
X166993354Y-115212086D01*
X167043596Y-115077379D01*
X167043598Y-115077372D01*
X167049999Y-115017844D01*
X167050000Y-115017827D01*
X167050000Y-114953578D01*
X167069685Y-114886539D01*
X167122489Y-114840784D01*
X167191647Y-114830840D01*
X167255203Y-114859865D01*
X167274314Y-114880688D01*
X167386172Y-115034646D01*
X167525354Y-115173828D01*
X167663387Y-115274115D01*
X167706051Y-115329444D01*
X167714500Y-115374432D01*
X167714500Y-117527650D01*
X167694815Y-117594689D01*
X167693626Y-117596503D01*
X167678471Y-117619185D01*
X167630609Y-117690815D01*
X167630602Y-117690828D01*
X167570264Y-117836498D01*
X167570261Y-117836510D01*
X167539500Y-117991153D01*
X167539500Y-118148846D01*
X167570261Y-118303489D01*
X167570264Y-118303501D01*
X167630602Y-118449172D01*
X167630609Y-118449185D01*
X167718210Y-118580288D01*
X167718213Y-118580292D01*
X167829707Y-118691786D01*
X167829711Y-118691789D01*
X167960814Y-118779390D01*
X167960827Y-118779397D01*
X168106498Y-118839735D01*
X168106503Y-118839737D01*
X168261153Y-118870499D01*
X168261156Y-118870500D01*
X168261158Y-118870500D01*
X168418844Y-118870500D01*
X168418845Y-118870499D01*
X168573497Y-118839737D01*
X168719179Y-118779394D01*
X168850289Y-118691789D01*
X168961789Y-118580289D01*
X169049394Y-118449179D01*
X169109737Y-118303497D01*
X169140500Y-118148842D01*
X169140500Y-118097560D01*
X169160185Y-118030521D01*
X169212989Y-117984766D01*
X169282147Y-117974822D01*
X169311947Y-117982997D01*
X169376503Y-118009737D01*
X169480991Y-118030521D01*
X169531153Y-118040499D01*
X169531156Y-118040500D01*
X169531158Y-118040500D01*
X169688844Y-118040500D01*
X169688845Y-118040499D01*
X169843497Y-118009737D01*
X169989179Y-117949394D01*
X170120289Y-117861789D01*
X170231789Y-117750289D01*
X170319394Y-117619179D01*
X170379737Y-117473497D01*
X170410500Y-117318842D01*
X170410500Y-117161158D01*
X170410500Y-117161155D01*
X170410499Y-117161153D01*
X170398276Y-117099701D01*
X170404503Y-117030110D01*
X170447366Y-116974932D01*
X170513256Y-116951688D01*
X170567344Y-116960948D01*
X170646503Y-116993737D01*
X170801153Y-117024499D01*
X170801156Y-117024500D01*
X170801158Y-117024500D01*
X170958844Y-117024500D01*
X170958845Y-117024499D01*
X171113497Y-116993737D01*
X171259179Y-116933394D01*
X171390289Y-116845789D01*
X171501789Y-116734289D01*
X171589394Y-116603179D01*
X171649737Y-116457497D01*
X171680500Y-116302842D01*
X171680500Y-116145158D01*
X171680500Y-116145155D01*
X171680499Y-116145153D01*
X171649738Y-115990510D01*
X171649737Y-115990503D01*
X171589394Y-115844821D01*
X171526397Y-115750539D01*
X171505520Y-115683863D01*
X171505500Y-115681650D01*
X171505500Y-115374432D01*
X171525185Y-115307393D01*
X171556611Y-115274116D01*
X171694646Y-115173828D01*
X171833828Y-115034646D01*
X171949524Y-114875405D01*
X172038884Y-114700025D01*
X172038884Y-114700022D01*
X172039795Y-114698236D01*
X172087769Y-114647440D01*
X172155590Y-114630644D01*
X172221725Y-114653181D01*
X172260765Y-114698235D01*
X172350905Y-114875145D01*
X172376319Y-114910125D01*
X172376320Y-114910125D01*
X173040000Y-114246445D01*
X173040000Y-114270028D01*
X173065896Y-114366675D01*
X173115924Y-114453325D01*
X173186675Y-114524076D01*
X173273325Y-114574104D01*
X173369972Y-114600000D01*
X173393553Y-114600000D01*
X172729873Y-115263677D01*
X172729873Y-115263678D01*
X172764858Y-115289096D01*
X172940164Y-115378418D01*
X173127294Y-115439221D01*
X173321618Y-115470000D01*
X173518382Y-115470000D01*
X173712705Y-115439221D01*
X173899835Y-115378418D01*
X174075143Y-115289095D01*
X174110125Y-115263678D01*
X174110126Y-115263678D01*
X173446448Y-114600000D01*
X173470028Y-114600000D01*
X173566675Y-114574104D01*
X173653325Y-114524076D01*
X173724076Y-114453325D01*
X173774104Y-114366675D01*
X173800000Y-114270028D01*
X173800000Y-114246448D01*
X174463678Y-114910126D01*
X174463678Y-114910125D01*
X174489095Y-114875143D01*
X174578418Y-114699835D01*
X174639221Y-114512705D01*
X174670000Y-114318382D01*
X174670000Y-114121617D01*
X174639221Y-113927294D01*
X174578418Y-113740164D01*
X174489096Y-113564858D01*
X174463678Y-113529873D01*
X174463677Y-113529873D01*
X173800000Y-114193551D01*
X173800000Y-114169972D01*
X173774104Y-114073325D01*
X173724076Y-113986675D01*
X173653325Y-113915924D01*
X173566675Y-113865896D01*
X173470028Y-113840000D01*
X173446447Y-113840000D01*
X174110125Y-113176320D01*
X174110125Y-113176319D01*
X174075145Y-113150905D01*
X173899835Y-113061581D01*
X173712705Y-113000778D01*
X173518382Y-112970000D01*
X173321618Y-112970000D01*
X173127294Y-113000778D01*
X172940161Y-113061582D01*
X172764863Y-113150899D01*
X172764859Y-113150902D01*
X172729873Y-113176320D01*
X172729872Y-113176320D01*
X173393554Y-113840000D01*
X173369972Y-113840000D01*
X173273325Y-113865896D01*
X173186675Y-113915924D01*
X173115924Y-113986675D01*
X173065896Y-114073325D01*
X173040000Y-114169972D01*
X173040000Y-114193552D01*
X172376320Y-113529872D01*
X172376320Y-113529873D01*
X172350902Y-113564859D01*
X172260765Y-113741764D01*
X172212790Y-113792560D01*
X172144969Y-113809355D01*
X172078835Y-113786818D01*
X172039795Y-113741763D01*
X171949525Y-113564596D01*
X171913132Y-113514506D01*
X171833828Y-113405354D01*
X171694646Y-113266172D01*
X171535405Y-113150476D01*
X171492885Y-113128811D01*
X171360029Y-113061117D01*
X171172826Y-113000290D01*
X170978422Y-112969500D01*
X170978417Y-112969500D01*
X170781583Y-112969500D01*
X170781578Y-112969500D01*
X170587173Y-113000290D01*
X170472352Y-113037599D01*
X170399975Y-113061116D01*
X170399972Y-113061117D01*
X170397819Y-113061817D01*
X170369697Y-113062620D01*
X170341853Y-113066624D01*
X170335241Y-113063604D01*
X170327978Y-113063812D01*
X170303891Y-113049287D01*
X170278297Y-113037599D01*
X170274367Y-113031484D01*
X170268145Y-113027732D01*
X170255733Y-113002489D01*
X170240523Y-112978821D01*
X170239046Y-112968549D01*
X170237316Y-112965031D01*
X170235500Y-112943886D01*
X170235500Y-112834432D01*
X170255185Y-112767393D01*
X170286611Y-112734116D01*
X170424646Y-112633828D01*
X170563828Y-112494646D01*
X170679524Y-112335405D01*
X170768884Y-112160025D01*
X170769515Y-112158787D01*
X170817489Y-112107990D01*
X170885310Y-112091195D01*
X170951445Y-112113732D01*
X170990485Y-112158787D01*
X171080474Y-112335403D01*
X171115234Y-112383246D01*
X171196172Y-112494646D01*
X171335354Y-112633828D01*
X171494595Y-112749524D01*
X171572943Y-112789444D01*
X171669970Y-112838882D01*
X171669972Y-112838882D01*
X171669975Y-112838884D01*
X171767666Y-112870626D01*
X171857173Y-112899709D01*
X172051578Y-112930500D01*
X172051583Y-112930500D01*
X172248422Y-112930500D01*
X172442826Y-112899709D01*
X172630025Y-112838884D01*
X172805405Y-112749524D01*
X172964646Y-112633828D01*
X173103828Y-112494646D01*
X173219524Y-112335405D01*
X173308884Y-112160025D01*
X173309515Y-112158787D01*
X173357489Y-112107990D01*
X173425310Y-112091195D01*
X173491445Y-112113732D01*
X173530485Y-112158787D01*
X173620474Y-112335403D01*
X173655234Y-112383246D01*
X173736172Y-112494646D01*
X173875354Y-112633828D01*
X174034595Y-112749524D01*
X174112943Y-112789444D01*
X174209970Y-112838882D01*
X174209972Y-112838882D01*
X174209975Y-112838884D01*
X174307666Y-112870626D01*
X174397173Y-112899709D01*
X174591578Y-112930500D01*
X174591583Y-112930500D01*
X174788422Y-112930500D01*
X174982826Y-112899709D01*
X175170025Y-112838884D01*
X175345405Y-112749524D01*
X175504646Y-112633828D01*
X175643828Y-112494646D01*
X175759524Y-112335405D01*
X175848884Y-112160025D01*
X175909709Y-111972826D01*
X175940500Y-111778422D01*
X175940500Y-111581577D01*
X175909709Y-111387173D01*
X175848882Y-111199970D01*
X175759523Y-111024594D01*
X175643828Y-110865354D01*
X175504646Y-110726172D01*
X175366612Y-110625884D01*
X175323949Y-110570556D01*
X175315500Y-110525568D01*
X175315500Y-109654350D01*
X175335185Y-109587311D01*
X175336398Y-109585459D01*
X175336809Y-109584843D01*
X175399394Y-109491179D01*
X175459737Y-109345497D01*
X175490500Y-109190842D01*
X175490500Y-109033158D01*
X175490500Y-109033155D01*
X175490499Y-109033153D01*
X175459737Y-108878503D01*
X175399397Y-108732828D01*
X175399397Y-108732827D01*
X175399390Y-108732814D01*
X175311789Y-108601711D01*
X175311786Y-108601707D01*
X175200292Y-108490213D01*
X175200288Y-108490210D01*
X175069185Y-108402609D01*
X175069172Y-108402602D01*
X174923501Y-108342264D01*
X174923489Y-108342261D01*
X174768845Y-108311500D01*
X174768842Y-108311500D01*
X174611158Y-108311500D01*
X174611155Y-108311500D01*
X174456510Y-108342261D01*
X174456498Y-108342264D01*
X174310827Y-108402602D01*
X174310814Y-108402609D01*
X174179711Y-108490210D01*
X174179707Y-108490213D01*
X174068213Y-108601707D01*
X174068210Y-108601711D01*
X173980609Y-108732814D01*
X173980602Y-108732827D01*
X173920264Y-108878498D01*
X173920261Y-108878510D01*
X173889500Y-109033153D01*
X173889500Y-109190846D01*
X173920261Y-109345489D01*
X173920264Y-109345501D01*
X173980602Y-109491172D01*
X173980609Y-109491184D01*
X174043602Y-109585459D01*
X174064480Y-109652136D01*
X174064500Y-109654350D01*
X174064500Y-110525568D01*
X174044815Y-110592607D01*
X174013388Y-110625883D01*
X173875354Y-110726172D01*
X173875352Y-110726174D01*
X173875351Y-110726174D01*
X173736174Y-110865351D01*
X173736174Y-110865352D01*
X173736172Y-110865354D01*
X173686485Y-110933741D01*
X173620476Y-111024594D01*
X173530485Y-111201213D01*
X173482511Y-111252009D01*
X173414690Y-111268804D01*
X173348555Y-111246267D01*
X173309515Y-111201213D01*
X173219523Y-111024594D01*
X173103828Y-110865354D01*
X172964646Y-110726172D01*
X172826612Y-110625884D01*
X172783949Y-110570556D01*
X172775500Y-110525568D01*
X172775500Y-103558350D01*
X172795185Y-103491311D01*
X172796398Y-103489459D01*
X172850847Y-103407970D01*
X172859394Y-103395179D01*
X172919737Y-103249497D01*
X172950500Y-103094842D01*
X172950500Y-102937158D01*
X172950500Y-102937155D01*
X172950499Y-102937153D01*
X172919738Y-102782510D01*
X172919737Y-102782503D01*
X172919735Y-102782498D01*
X172859397Y-102636827D01*
X172859390Y-102636814D01*
X172771789Y-102505711D01*
X172771786Y-102505707D01*
X172660292Y-102394213D01*
X172660288Y-102394210D01*
X172529185Y-102306609D01*
X172529172Y-102306602D01*
X172383501Y-102246264D01*
X172383489Y-102246261D01*
X172228845Y-102215500D01*
X172228842Y-102215500D01*
X172071158Y-102215500D01*
X172071155Y-102215500D01*
X171916510Y-102246261D01*
X171916498Y-102246264D01*
X171770827Y-102306602D01*
X171770814Y-102306609D01*
X171639711Y-102394210D01*
X171639707Y-102394213D01*
X171528213Y-102505707D01*
X171528210Y-102505711D01*
X171440609Y-102636814D01*
X171440602Y-102636827D01*
X171380264Y-102782498D01*
X171380261Y-102782510D01*
X171349500Y-102937153D01*
X171349500Y-103094846D01*
X171380261Y-103249489D01*
X171380264Y-103249501D01*
X171440602Y-103395172D01*
X171440609Y-103395184D01*
X171503602Y-103489459D01*
X171524480Y-103556136D01*
X171524500Y-103558350D01*
X171524500Y-110525568D01*
X171504815Y-110592607D01*
X171473388Y-110625883D01*
X171335354Y-110726172D01*
X171335352Y-110726174D01*
X171335351Y-110726174D01*
X171196174Y-110865351D01*
X171196174Y-110865352D01*
X171196172Y-110865354D01*
X171146485Y-110933741D01*
X171080476Y-111024594D01*
X170990485Y-111201213D01*
X170942511Y-111252009D01*
X170874690Y-111268804D01*
X170808555Y-111246267D01*
X170769515Y-111201213D01*
X170679523Y-111024594D01*
X170563828Y-110865354D01*
X170424646Y-110726172D01*
X170265405Y-110610476D01*
X170230335Y-110592607D01*
X170090029Y-110521117D01*
X169902826Y-110460290D01*
X169708422Y-110429500D01*
X169708417Y-110429500D01*
X169511583Y-110429500D01*
X169511578Y-110429500D01*
X169317173Y-110460290D01*
X169129970Y-110521117D01*
X168954594Y-110610476D01*
X168863741Y-110676485D01*
X168795354Y-110726172D01*
X168795352Y-110726174D01*
X168795351Y-110726174D01*
X168656174Y-110865351D01*
X168656174Y-110865352D01*
X168656172Y-110865354D01*
X168606485Y-110933741D01*
X168540476Y-111024594D01*
X168450485Y-111201213D01*
X168402511Y-111252009D01*
X168334690Y-111268804D01*
X168268555Y-111246267D01*
X168229515Y-111201213D01*
X168139523Y-111024594D01*
X168023828Y-110865354D01*
X167884646Y-110726172D01*
X167746612Y-110625884D01*
X167703949Y-110570556D01*
X167695500Y-110525568D01*
X167695500Y-109654350D01*
X167715185Y-109587311D01*
X167716398Y-109585459D01*
X167716809Y-109584843D01*
X167779394Y-109491179D01*
X167839737Y-109345497D01*
X167870500Y-109190842D01*
X167870500Y-109033158D01*
X167870500Y-109033155D01*
X167870499Y-109033153D01*
X167839737Y-108878503D01*
X167779397Y-108732828D01*
X167779397Y-108732827D01*
X167779390Y-108732814D01*
X167691789Y-108601711D01*
X167691786Y-108601707D01*
X167580292Y-108490213D01*
X167580288Y-108490210D01*
X167449185Y-108402609D01*
X167449172Y-108402602D01*
X167303501Y-108342264D01*
X167303489Y-108342261D01*
X167148845Y-108311500D01*
X167148842Y-108311500D01*
X166991158Y-108311500D01*
X166991155Y-108311500D01*
X166836510Y-108342261D01*
X166836498Y-108342264D01*
X166690827Y-108402602D01*
X166690814Y-108402609D01*
X166559711Y-108490210D01*
X166559707Y-108490213D01*
X166448213Y-108601707D01*
X166448210Y-108601711D01*
X166360609Y-108732814D01*
X166360602Y-108732827D01*
X166300264Y-108878498D01*
X166300261Y-108878510D01*
X166269500Y-109033153D01*
X166269500Y-109190846D01*
X166300261Y-109345489D01*
X166300264Y-109345501D01*
X166360602Y-109491172D01*
X166360609Y-109491184D01*
X166423602Y-109585459D01*
X166444480Y-109652136D01*
X166444500Y-109654350D01*
X166444500Y-110525568D01*
X166424815Y-110592607D01*
X166393388Y-110625883D01*
X166255354Y-110726172D01*
X166255352Y-110726174D01*
X166255351Y-110726174D01*
X166116174Y-110865351D01*
X166116174Y-110865352D01*
X166116172Y-110865354D01*
X166066485Y-110933741D01*
X166000476Y-111024594D01*
X165911117Y-111199970D01*
X165850290Y-111387173D01*
X165819500Y-111581577D01*
X165819500Y-111778422D01*
X165850290Y-111972826D01*
X165911117Y-112160029D01*
X166000475Y-112335403D01*
X166000476Y-112335405D01*
X166116172Y-112494646D01*
X166255354Y-112633828D01*
X166393385Y-112734114D01*
X166409307Y-112745682D01*
X166451972Y-112801012D01*
X166457951Y-112870626D01*
X166425345Y-112932421D01*
X166364506Y-112966778D01*
X166336421Y-112970000D01*
X166050000Y-112970000D01*
X166050000Y-113932599D01*
X166033325Y-113915924D01*
X165946675Y-113865896D01*
X165850028Y-113840000D01*
X165749972Y-113840000D01*
X165653325Y-113865896D01*
X165566675Y-113915924D01*
X165550000Y-113932599D01*
X165550000Y-112970000D01*
X165002155Y-112970000D01*
X164942627Y-112976401D01*
X164942620Y-112976403D01*
X164807913Y-113026645D01*
X164807906Y-113026649D01*
X164692812Y-113112809D01*
X164692809Y-113112812D01*
X164606649Y-113227906D01*
X164606645Y-113227913D01*
X164556403Y-113362620D01*
X164556401Y-113362627D01*
X164550000Y-113422155D01*
X158805500Y-113422155D01*
X158805500Y-107622350D01*
X158825185Y-107555311D01*
X158826398Y-107553459D01*
X158840190Y-107532818D01*
X158889394Y-107459179D01*
X158949737Y-107313497D01*
X158980500Y-107158842D01*
X158980500Y-107001158D01*
X158980500Y-107001155D01*
X158980499Y-107001153D01*
X158949738Y-106846510D01*
X158949737Y-106846503D01*
X158949735Y-106846498D01*
X158889397Y-106700827D01*
X158889390Y-106700814D01*
X158801789Y-106569711D01*
X158801786Y-106569707D01*
X158690292Y-106458213D01*
X158690288Y-106458210D01*
X158559185Y-106370609D01*
X158559172Y-106370602D01*
X158413501Y-106310264D01*
X158413489Y-106310261D01*
X158258845Y-106279500D01*
X158258842Y-106279500D01*
X158101158Y-106279500D01*
X158101155Y-106279500D01*
X157946510Y-106310261D01*
X157946498Y-106310264D01*
X157800827Y-106370602D01*
X157800814Y-106370609D01*
X157669711Y-106458210D01*
X157669707Y-106458213D01*
X157558213Y-106569707D01*
X157558210Y-106569711D01*
X157470609Y-106700814D01*
X157470602Y-106700827D01*
X157410264Y-106846498D01*
X157410261Y-106846510D01*
X157379500Y-107001153D01*
X145076675Y-107001153D01*
X145069709Y-106957173D01*
X145008882Y-106769970D01*
X144961743Y-106677455D01*
X144919524Y-106594595D01*
X144803828Y-106435354D01*
X144664646Y-106296172D01*
X144505405Y-106180476D01*
X144330029Y-106091117D01*
X144142826Y-106030290D01*
X143948422Y-105999500D01*
X143948417Y-105999500D01*
X143751583Y-105999500D01*
X143751578Y-105999500D01*
X143557173Y-106030290D01*
X143369970Y-106091117D01*
X143194594Y-106180476D01*
X143103741Y-106246485D01*
X143035354Y-106296172D01*
X143035352Y-106296174D01*
X143035351Y-106296174D01*
X143012681Y-106318845D01*
X142951358Y-106352330D01*
X142881666Y-106347346D01*
X142837319Y-106318845D01*
X142814648Y-106296174D01*
X142814646Y-106296172D01*
X142655405Y-106180476D01*
X142480029Y-106091117D01*
X142292826Y-106030290D01*
X142098422Y-105999500D01*
X142098417Y-105999500D01*
X141901583Y-105999500D01*
X141901578Y-105999500D01*
X141707173Y-106030290D01*
X141519970Y-106091117D01*
X141344594Y-106180476D01*
X141253741Y-106246485D01*
X141185354Y-106296172D01*
X141185352Y-106296174D01*
X141185351Y-106296174D01*
X141046174Y-106435351D01*
X141046174Y-106435352D01*
X141046172Y-106435354D01*
X141029564Y-106458213D01*
X140930476Y-106594594D01*
X140841117Y-106769970D01*
X140780290Y-106957173D01*
X140749500Y-107151577D01*
X140263500Y-107151577D01*
X140263500Y-100297000D01*
X140283185Y-100229961D01*
X140335989Y-100184206D01*
X140387500Y-100173000D01*
X140478844Y-100173000D01*
X140478845Y-100172999D01*
X140633497Y-100142237D01*
X140779179Y-100081894D01*
X140910289Y-99994289D01*
X140996341Y-99908236D01*
X141057662Y-99874753D01*
X141127354Y-99879737D01*
X141183288Y-99921608D01*
X141194506Y-99939624D01*
X141232715Y-100014614D01*
X141353028Y-100180213D01*
X141497786Y-100324971D01*
X141618226Y-100412474D01*
X141663390Y-100445287D01*
X141779607Y-100504503D01*
X141845776Y-100538218D01*
X141845778Y-100538218D01*
X141845781Y-100538220D01*
X141950137Y-100572127D01*
X142040465Y-100601477D01*
X142141557Y-100617488D01*
X142242648Y-100633500D01*
X142242649Y-100633500D01*
X142447351Y-100633500D01*
X142447352Y-100633500D01*
X142649534Y-100601477D01*
X142844219Y-100538220D01*
X143026610Y-100445287D01*
X143136259Y-100365623D01*
X143192213Y-100324971D01*
X143192215Y-100324968D01*
X143192219Y-100324966D01*
X143336966Y-100180219D01*
X143336968Y-100180215D01*
X143336971Y-100180213D01*
X143390608Y-100106387D01*
X143457287Y-100014610D01*
X143550220Y-99832219D01*
X143613477Y-99637534D01*
X143645500Y-99435352D01*
X143645500Y-99230682D01*
X146045000Y-99230682D01*
X146045000Y-99435317D01*
X146077009Y-99637417D01*
X146140244Y-99832031D01*
X146233141Y-100014350D01*
X146233147Y-100014359D01*
X146265523Y-100058921D01*
X146265524Y-100058922D01*
X146945000Y-99379446D01*
X146945000Y-99385661D01*
X146972259Y-99487394D01*
X147024920Y-99578606D01*
X147099394Y-99653080D01*
X147190606Y-99705741D01*
X147292339Y-99733000D01*
X147298553Y-99733000D01*
X146619076Y-100412474D01*
X146663650Y-100444859D01*
X146845968Y-100537755D01*
X147040582Y-100600990D01*
X147242683Y-100633000D01*
X147447317Y-100633000D01*
X147649417Y-100600990D01*
X147844031Y-100537755D01*
X148026349Y-100444859D01*
X148070921Y-100412474D01*
X147391447Y-99733000D01*
X147397661Y-99733000D01*
X147499394Y-99705741D01*
X147590606Y-99653080D01*
X147665080Y-99578606D01*
X147717741Y-99487394D01*
X147745000Y-99385661D01*
X147745000Y-99379448D01*
X148424474Y-100058922D01*
X148424474Y-100058921D01*
X148456859Y-100014349D01*
X148549755Y-99832029D01*
X148571844Y-99764048D01*
X156118500Y-99764048D01*
X156118500Y-99968751D01*
X156150522Y-100170934D01*
X156213781Y-100365623D01*
X156306715Y-100548013D01*
X156427028Y-100713613D01*
X156427034Y-100713619D01*
X156571781Y-100858366D01*
X156737390Y-100978687D01*
X156737394Y-100978689D01*
X156741332Y-100981550D01*
X156740111Y-100983229D01*
X156781155Y-101028577D01*
X156793500Y-101082514D01*
X156793500Y-102472152D01*
X156773815Y-102539191D01*
X156772602Y-102541043D01*
X156708609Y-102636814D01*
X156708602Y-102636827D01*
X156648264Y-102782498D01*
X156648261Y-102782510D01*
X156617500Y-102937153D01*
X156617500Y-103094846D01*
X156648261Y-103249489D01*
X156648264Y-103249501D01*
X156708602Y-103395172D01*
X156708609Y-103395185D01*
X156796210Y-103526288D01*
X156796213Y-103526292D01*
X156907707Y-103637786D01*
X156907711Y-103637789D01*
X157038814Y-103725390D01*
X157038827Y-103725397D01*
X157184498Y-103785735D01*
X157184503Y-103785737D01*
X157339153Y-103816499D01*
X157339156Y-103816500D01*
X157339158Y-103816500D01*
X157496844Y-103816500D01*
X157496845Y-103816499D01*
X157651497Y-103785737D01*
X157797179Y-103725394D01*
X157928289Y-103637789D01*
X158039789Y-103526289D01*
X158127394Y-103395179D01*
X158187737Y-103249497D01*
X158218500Y-103094842D01*
X158218500Y-102937158D01*
X158218500Y-102937155D01*
X158218499Y-102937153D01*
X158187738Y-102782510D01*
X158187737Y-102782503D01*
X158142778Y-102673961D01*
X158127395Y-102636823D01*
X158065398Y-102544037D01*
X158044520Y-102477359D01*
X158044500Y-102475146D01*
X158044500Y-101082514D01*
X158064185Y-101015475D01*
X158097575Y-100982798D01*
X158096668Y-100981550D01*
X158100605Y-100978689D01*
X158100610Y-100978687D01*
X158266219Y-100858366D01*
X158410966Y-100713619D01*
X158410968Y-100713615D01*
X158410971Y-100713613D01*
X158492795Y-100600990D01*
X158531287Y-100548010D01*
X158624220Y-100365619D01*
X158687477Y-100170934D01*
X158719500Y-99968752D01*
X158719500Y-99764048D01*
X159673500Y-99764048D01*
X159673500Y-99968751D01*
X159705522Y-100170934D01*
X159768781Y-100365623D01*
X159861715Y-100548013D01*
X159982028Y-100713613D01*
X159982034Y-100713619D01*
X160126781Y-100858366D01*
X160292390Y-100978687D01*
X160292394Y-100978689D01*
X160296332Y-100981550D01*
X160295111Y-100983229D01*
X160296245Y-100984481D01*
X160305703Y-100988801D01*
X160319290Y-101009944D01*
X160336155Y-101028577D01*
X160338859Y-101040394D01*
X160343477Y-101047579D01*
X160348500Y-101082514D01*
X160348500Y-101203650D01*
X160328815Y-101270689D01*
X160327602Y-101272541D01*
X160264609Y-101366815D01*
X160264602Y-101366828D01*
X160204264Y-101512498D01*
X160204261Y-101512510D01*
X160173500Y-101667153D01*
X160173500Y-101824846D01*
X160204261Y-101979489D01*
X160204264Y-101979501D01*
X160264602Y-102125172D01*
X160264609Y-102125185D01*
X160352210Y-102256288D01*
X160352213Y-102256292D01*
X160463707Y-102367786D01*
X160463711Y-102367789D01*
X160594814Y-102455390D01*
X160594827Y-102455397D01*
X160702510Y-102500000D01*
X160740503Y-102515737D01*
X160867724Y-102541043D01*
X160895153Y-102546499D01*
X160895156Y-102546500D01*
X160895158Y-102546500D01*
X161052844Y-102546500D01*
X161052845Y-102546499D01*
X161207497Y-102515737D01*
X161353179Y-102455394D01*
X161484289Y-102367789D01*
X161595789Y-102256289D01*
X161683394Y-102125179D01*
X161743737Y-101979497D01*
X161774500Y-101824842D01*
X161774500Y-101667158D01*
X161774500Y-101667155D01*
X161774499Y-101667153D01*
X161743738Y-101512510D01*
X161743737Y-101512503D01*
X161683394Y-101366821D01*
X161620397Y-101272539D01*
X161614747Y-101254494D01*
X161604523Y-101238585D01*
X161600071Y-101207623D01*
X161599520Y-101205863D01*
X161599500Y-101203650D01*
X161599500Y-101082514D01*
X161619185Y-101015475D01*
X161652575Y-100982798D01*
X161651668Y-100981550D01*
X161655605Y-100978689D01*
X161655610Y-100978687D01*
X161821219Y-100858366D01*
X161965966Y-100713619D01*
X161965968Y-100713615D01*
X161965971Y-100713613D01*
X162047795Y-100600990D01*
X162086287Y-100548010D01*
X162179220Y-100365619D01*
X162242477Y-100170934D01*
X162274500Y-99968752D01*
X162274500Y-99764048D01*
X163229500Y-99764048D01*
X163229500Y-99968751D01*
X163261522Y-100170934D01*
X163324781Y-100365623D01*
X163417715Y-100548013D01*
X163538028Y-100713613D01*
X163538034Y-100713619D01*
X163682781Y-100858366D01*
X163848390Y-100978687D01*
X163848394Y-100978689D01*
X163852332Y-100981550D01*
X163851111Y-100983229D01*
X163892155Y-101028577D01*
X163904500Y-101082514D01*
X163904500Y-106537650D01*
X163884815Y-106604689D01*
X163883602Y-106606541D01*
X163820609Y-106700815D01*
X163820602Y-106700828D01*
X163760264Y-106846498D01*
X163760261Y-106846510D01*
X163729500Y-107001153D01*
X163729500Y-107158846D01*
X163760261Y-107313489D01*
X163760264Y-107313501D01*
X163820602Y-107459172D01*
X163820609Y-107459185D01*
X163908210Y-107590288D01*
X163908213Y-107590292D01*
X164019707Y-107701786D01*
X164019711Y-107701789D01*
X164150814Y-107789390D01*
X164150827Y-107789397D01*
X164296498Y-107849735D01*
X164296503Y-107849737D01*
X164451153Y-107880499D01*
X164451156Y-107880500D01*
X164451158Y-107880500D01*
X164608844Y-107880500D01*
X164608845Y-107880499D01*
X164763497Y-107849737D01*
X164902813Y-107792031D01*
X164909172Y-107789397D01*
X164909172Y-107789396D01*
X164909179Y-107789394D01*
X165040289Y-107701789D01*
X165151789Y-107590289D01*
X165239394Y-107459179D01*
X165299737Y-107313497D01*
X165330500Y-107158842D01*
X165330500Y-107001158D01*
X165330500Y-107001155D01*
X165330499Y-107001153D01*
X165299738Y-106846510D01*
X165299737Y-106846503D01*
X165239394Y-106700821D01*
X165176397Y-106606539D01*
X165155520Y-106539863D01*
X165155500Y-106537650D01*
X165155500Y-101082514D01*
X165175185Y-101015475D01*
X165208575Y-100982798D01*
X165207668Y-100981550D01*
X165211605Y-100978689D01*
X165211610Y-100978687D01*
X165377219Y-100858366D01*
X165521966Y-100713619D01*
X165521968Y-100713615D01*
X165521971Y-100713613D01*
X165603795Y-100600990D01*
X165642287Y-100548010D01*
X165735220Y-100365619D01*
X165798477Y-100170934D01*
X165830500Y-99968752D01*
X165830500Y-99764048D01*
X165806722Y-99613919D01*
X165798477Y-99561865D01*
X165757359Y-99435317D01*
X165735220Y-99367181D01*
X165735218Y-99367178D01*
X165735218Y-99367176D01*
X165665670Y-99230682D01*
X165642287Y-99184790D01*
X165603265Y-99131080D01*
X165521971Y-99019186D01*
X165377213Y-98874428D01*
X165211613Y-98754115D01*
X165211612Y-98754114D01*
X165211610Y-98754113D01*
X165154653Y-98725091D01*
X165029223Y-98661181D01*
X164834534Y-98597922D01*
X164659995Y-98570278D01*
X164632352Y-98565900D01*
X164427648Y-98565900D01*
X164403329Y-98569751D01*
X164225465Y-98597922D01*
X164030776Y-98661181D01*
X163848386Y-98754115D01*
X163682786Y-98874428D01*
X163538028Y-99019186D01*
X163417715Y-99184786D01*
X163324781Y-99367176D01*
X163261522Y-99561865D01*
X163229500Y-99764048D01*
X162274500Y-99764048D01*
X162250722Y-99613919D01*
X162242477Y-99561865D01*
X162201359Y-99435317D01*
X162179220Y-99367181D01*
X162179218Y-99367178D01*
X162179218Y-99367176D01*
X162109670Y-99230682D01*
X162086287Y-99184790D01*
X162047265Y-99131080D01*
X161965971Y-99019186D01*
X161821213Y-98874428D01*
X161655613Y-98754115D01*
X161655612Y-98754114D01*
X161655610Y-98754113D01*
X161598653Y-98725091D01*
X161473223Y-98661181D01*
X161278534Y-98597922D01*
X161103995Y-98570278D01*
X161076352Y-98565900D01*
X160871648Y-98565900D01*
X160847329Y-98569751D01*
X160669465Y-98597922D01*
X160474776Y-98661181D01*
X160292386Y-98754115D01*
X160126786Y-98874428D01*
X159982028Y-99019186D01*
X159861715Y-99184786D01*
X159768781Y-99367176D01*
X159705522Y-99561865D01*
X159673500Y-99764048D01*
X158719500Y-99764048D01*
X158695722Y-99613919D01*
X158687477Y-99561865D01*
X158646359Y-99435317D01*
X158624220Y-99367181D01*
X158624218Y-99367178D01*
X158624218Y-99367176D01*
X158554670Y-99230682D01*
X158531287Y-99184790D01*
X158492265Y-99131080D01*
X158410971Y-99019186D01*
X158266213Y-98874428D01*
X158100613Y-98754115D01*
X158100612Y-98754114D01*
X158100610Y-98754113D01*
X158043653Y-98725091D01*
X157918223Y-98661181D01*
X157723534Y-98597922D01*
X157548995Y-98570278D01*
X157521352Y-98565900D01*
X157316648Y-98565900D01*
X157292329Y-98569751D01*
X157114465Y-98597922D01*
X156919776Y-98661181D01*
X156737386Y-98754115D01*
X156571786Y-98874428D01*
X156427028Y-99019186D01*
X156306715Y-99184786D01*
X156213781Y-99367176D01*
X156150522Y-99561865D01*
X156118500Y-99764048D01*
X148571844Y-99764048D01*
X148585878Y-99720858D01*
X148585878Y-99720857D01*
X148612990Y-99637417D01*
X148645000Y-99435317D01*
X148645000Y-99230682D01*
X148612990Y-99028582D01*
X148549755Y-98833968D01*
X148456859Y-98651650D01*
X148424474Y-98607077D01*
X148424474Y-98607076D01*
X147745000Y-99286551D01*
X147745000Y-99280339D01*
X147717741Y-99178606D01*
X147665080Y-99087394D01*
X147590606Y-99012920D01*
X147499394Y-98960259D01*
X147397661Y-98933000D01*
X147391446Y-98933000D01*
X148070922Y-98253524D01*
X148070921Y-98253523D01*
X148026359Y-98221147D01*
X148026350Y-98221141D01*
X147844031Y-98128244D01*
X147649417Y-98065009D01*
X147447317Y-98033000D01*
X147242683Y-98033000D01*
X147040582Y-98065009D01*
X146845968Y-98128244D01*
X146663644Y-98221143D01*
X146619077Y-98253523D01*
X146619077Y-98253524D01*
X147298554Y-98933000D01*
X147292339Y-98933000D01*
X147190606Y-98960259D01*
X147099394Y-99012920D01*
X147024920Y-99087394D01*
X146972259Y-99178606D01*
X146945000Y-99280339D01*
X146945000Y-99286553D01*
X146265524Y-98607077D01*
X146265523Y-98607077D01*
X146233143Y-98651644D01*
X146140244Y-98833968D01*
X146077009Y-99028582D01*
X146045000Y-99230682D01*
X143645500Y-99230682D01*
X143645500Y-99230648D01*
X143629730Y-99131080D01*
X143613477Y-99028465D01*
X143582458Y-98933000D01*
X143550220Y-98833781D01*
X143550218Y-98833778D01*
X143550218Y-98833776D01*
X143487561Y-98710806D01*
X143457287Y-98651390D01*
X143440181Y-98627845D01*
X143336971Y-98485786D01*
X143192213Y-98341028D01*
X143026613Y-98220715D01*
X143026612Y-98220714D01*
X143026610Y-98220713D01*
X142969653Y-98191691D01*
X142844223Y-98127781D01*
X142649534Y-98064522D01*
X142474995Y-98036878D01*
X142447352Y-98032500D01*
X142242648Y-98032500D01*
X142218329Y-98036351D01*
X142040465Y-98064522D01*
X141845776Y-98127781D01*
X141663386Y-98220715D01*
X141497786Y-98341028D01*
X141353032Y-98485782D01*
X141353028Y-98485787D01*
X141249818Y-98627845D01*
X141194488Y-98670511D01*
X141124875Y-98676490D01*
X141063080Y-98643885D01*
X141028723Y-98583046D01*
X141025500Y-98554960D01*
X141025500Y-95158039D01*
X141045185Y-95091000D01*
X141097989Y-95045245D01*
X141167147Y-95035301D01*
X141230703Y-95064326D01*
X141249816Y-95085151D01*
X141302772Y-95158039D01*
X141353034Y-95227219D01*
X141497786Y-95371971D01*
X141608345Y-95452295D01*
X141663390Y-95492287D01*
X141779607Y-95551503D01*
X141845776Y-95585218D01*
X141845778Y-95585218D01*
X141845781Y-95585220D01*
X141950137Y-95619127D01*
X142040465Y-95648477D01*
X142141557Y-95664488D01*
X142242648Y-95680500D01*
X142242649Y-95680500D01*
X142447351Y-95680500D01*
X142447352Y-95680500D01*
X142649534Y-95648477D01*
X142844219Y-95585220D01*
X143026610Y-95492287D01*
X143119590Y-95424732D01*
X143192213Y-95371971D01*
X143192215Y-95371968D01*
X143192219Y-95371966D01*
X143336966Y-95227219D01*
X143336968Y-95227215D01*
X143336971Y-95227213D01*
X143389732Y-95154590D01*
X143457287Y-95061610D01*
X143550220Y-94879219D01*
X143613477Y-94684534D01*
X143645500Y-94482352D01*
X143645500Y-94277682D01*
X146045000Y-94277682D01*
X146045000Y-94482317D01*
X146077009Y-94684417D01*
X146140244Y-94879031D01*
X146233141Y-95061350D01*
X146233147Y-95061359D01*
X146265523Y-95105921D01*
X146265524Y-95105922D01*
X146945000Y-94426446D01*
X146945000Y-94432661D01*
X146972259Y-94534394D01*
X147024920Y-94625606D01*
X147099394Y-94700080D01*
X147190606Y-94752741D01*
X147292339Y-94780000D01*
X147298553Y-94780000D01*
X146619076Y-95459474D01*
X146663650Y-95491859D01*
X146845968Y-95584755D01*
X147040582Y-95647990D01*
X147242683Y-95680000D01*
X147447317Y-95680000D01*
X147649417Y-95647990D01*
X147844031Y-95584755D01*
X148026349Y-95491859D01*
X148070921Y-95459474D01*
X147391447Y-94780000D01*
X147397661Y-94780000D01*
X147499394Y-94752741D01*
X147590606Y-94700080D01*
X147665080Y-94625606D01*
X147717741Y-94534394D01*
X147745000Y-94432661D01*
X147745000Y-94426448D01*
X148424474Y-95105922D01*
X148424474Y-95105921D01*
X148456859Y-95061349D01*
X148549755Y-94879031D01*
X148612990Y-94684417D01*
X148645000Y-94482317D01*
X148645000Y-94277682D01*
X148612990Y-94075582D01*
X148549755Y-93880968D01*
X148456859Y-93698650D01*
X148424474Y-93654077D01*
X148424474Y-93654076D01*
X147745000Y-94333551D01*
X147745000Y-94327339D01*
X147717741Y-94225606D01*
X147665080Y-94134394D01*
X147590606Y-94059920D01*
X147499394Y-94007259D01*
X147397661Y-93980000D01*
X147391446Y-93980000D01*
X148070922Y-93300524D01*
X148070921Y-93300523D01*
X148026359Y-93268147D01*
X148026350Y-93268141D01*
X147844031Y-93175244D01*
X147649417Y-93112009D01*
X147447317Y-93080000D01*
X147242683Y-93080000D01*
X147040582Y-93112009D01*
X146845968Y-93175244D01*
X146663644Y-93268143D01*
X146619077Y-93300523D01*
X146619077Y-93300524D01*
X147298554Y-93980000D01*
X147292339Y-93980000D01*
X147190606Y-94007259D01*
X147099394Y-94059920D01*
X147024920Y-94134394D01*
X146972259Y-94225606D01*
X146945000Y-94327339D01*
X146945000Y-94333553D01*
X146265524Y-93654077D01*
X146265523Y-93654077D01*
X146233143Y-93698644D01*
X146140244Y-93880968D01*
X146077009Y-94075582D01*
X146045000Y-94277682D01*
X143645500Y-94277682D01*
X143645500Y-94277648D01*
X143632115Y-94193139D01*
X143613477Y-94075465D01*
X143582458Y-93980000D01*
X143550220Y-93880781D01*
X143550218Y-93880778D01*
X143550218Y-93880776D01*
X143511852Y-93805480D01*
X143457287Y-93698390D01*
X143425092Y-93654077D01*
X143336971Y-93532786D01*
X143192213Y-93388028D01*
X143026613Y-93267715D01*
X143026612Y-93267714D01*
X143026610Y-93267713D01*
X142918667Y-93212713D01*
X142844223Y-93174781D01*
X142649534Y-93111522D01*
X142474995Y-93083878D01*
X142447352Y-93079500D01*
X142242648Y-93079500D01*
X142218329Y-93083351D01*
X142040465Y-93111522D01*
X141845776Y-93174781D01*
X141663386Y-93267715D01*
X141497786Y-93388028D01*
X141353032Y-93532782D01*
X141353028Y-93532787D01*
X141249818Y-93674845D01*
X141194488Y-93717511D01*
X141124875Y-93723490D01*
X141063080Y-93690885D01*
X141028723Y-93630046D01*
X141025500Y-93601960D01*
X141025500Y-86794350D01*
X141045185Y-86727311D01*
X141046398Y-86725459D01*
X141046809Y-86724843D01*
X141109394Y-86631179D01*
X141169737Y-86485497D01*
X141200500Y-86330842D01*
X141200500Y-86173158D01*
X141200500Y-86173155D01*
X141200499Y-86173153D01*
X141169738Y-86018510D01*
X141169737Y-86018503D01*
X141169735Y-86018498D01*
X141109397Y-85872827D01*
X141109390Y-85872814D01*
X141021789Y-85741711D01*
X141021786Y-85741707D01*
X140910292Y-85630213D01*
X140910288Y-85630210D01*
X140779185Y-85542609D01*
X140779172Y-85542602D01*
X140633501Y-85482264D01*
X140633489Y-85482261D01*
X140478846Y-85451500D01*
X140472782Y-85450903D01*
X140472985Y-85448833D01*
X140415028Y-85431815D01*
X140369273Y-85379011D01*
X140359329Y-85309853D01*
X140388354Y-85246297D01*
X140443749Y-85209569D01*
X140603380Y-85157702D01*
X140603383Y-85157701D01*
X140604294Y-85157237D01*
X140798257Y-85058407D01*
X140897601Y-84986229D01*
X140975193Y-84929857D01*
X140975195Y-84929854D01*
X140975199Y-84929852D01*
X141129852Y-84775199D01*
X141239683Y-84624028D01*
X141295011Y-84581364D01*
X141364624Y-84575385D01*
X141426420Y-84607990D01*
X141440313Y-84624023D01*
X141459499Y-84650430D01*
X141550148Y-84775199D01*
X141704806Y-84929857D01*
X141833935Y-85023673D01*
X141881743Y-85058407D01*
X142002060Y-85119712D01*
X142076616Y-85157701D01*
X142076619Y-85157702D01*
X142166025Y-85186751D01*
X142284625Y-85225286D01*
X142384672Y-85241132D01*
X142500639Y-85259500D01*
X142500644Y-85259500D01*
X142719361Y-85259500D01*
X142824082Y-85242912D01*
X142935375Y-85225286D01*
X143143383Y-85157701D01*
X143338257Y-85058407D01*
X143437601Y-84986229D01*
X143515193Y-84929857D01*
X143515195Y-84929854D01*
X143515199Y-84929852D01*
X143669852Y-84775199D01*
X143779991Y-84623603D01*
X143835320Y-84580939D01*
X143904933Y-84574960D01*
X143966729Y-84607565D01*
X143980627Y-84623605D01*
X144090524Y-84774866D01*
X144090528Y-84774871D01*
X144245128Y-84929471D01*
X144245133Y-84929475D01*
X144422001Y-85057976D01*
X144616808Y-85157237D01*
X144616811Y-85157238D01*
X144824739Y-85224797D01*
X144899999Y-85236717D01*
X144900000Y-85236717D01*
X144900000Y-84303012D01*
X144957007Y-84335925D01*
X145084174Y-84370000D01*
X145215826Y-84370000D01*
X145342993Y-84335925D01*
X145400000Y-84303012D01*
X145400000Y-85236717D01*
X145475258Y-85224797D01*
X145475261Y-85224797D01*
X145683188Y-85157238D01*
X145683191Y-85157237D01*
X145877998Y-85057976D01*
X146054866Y-84929475D01*
X146054871Y-84929471D01*
X146209469Y-84774873D01*
X146319371Y-84623605D01*
X146374701Y-84580939D01*
X146444314Y-84574960D01*
X146506110Y-84607565D01*
X146520008Y-84623605D01*
X146630142Y-84775192D01*
X146630146Y-84775197D01*
X146784806Y-84929857D01*
X146913935Y-85023673D01*
X146961743Y-85058407D01*
X147082060Y-85119712D01*
X147156616Y-85157701D01*
X147156619Y-85157702D01*
X147246025Y-85186751D01*
X147364625Y-85225286D01*
X147464672Y-85241132D01*
X147580639Y-85259500D01*
X147580644Y-85259500D01*
X147799361Y-85259500D01*
X147904082Y-85242912D01*
X148015375Y-85225286D01*
X148223383Y-85157701D01*
X148418257Y-85058407D01*
X148517601Y-84986229D01*
X148595193Y-84929857D01*
X148595195Y-84929854D01*
X148595199Y-84929852D01*
X148749852Y-84775199D01*
X148859683Y-84624028D01*
X148915011Y-84581364D01*
X148984624Y-84575385D01*
X149046420Y-84607990D01*
X149060313Y-84624023D01*
X149079499Y-84650430D01*
X149170148Y-84775199D01*
X149324806Y-84929857D01*
X149453935Y-85023673D01*
X149501743Y-85058407D01*
X149622060Y-85119712D01*
X149696616Y-85157701D01*
X149696619Y-85157702D01*
X149786025Y-85186751D01*
X149904625Y-85225286D01*
X150004672Y-85241132D01*
X150120639Y-85259500D01*
X150120644Y-85259500D01*
X150339361Y-85259500D01*
X150444082Y-85242912D01*
X150555375Y-85225286D01*
X150763383Y-85157701D01*
X150958257Y-85058407D01*
X151057601Y-84986229D01*
X151135193Y-84929857D01*
X151135195Y-84929854D01*
X151135199Y-84929852D01*
X151289852Y-84775199D01*
X151399683Y-84624028D01*
X151455011Y-84581364D01*
X151524624Y-84575385D01*
X151586420Y-84607990D01*
X151600313Y-84624023D01*
X151619499Y-84650430D01*
X151710148Y-84775199D01*
X151864806Y-84929857D01*
X151993935Y-85023673D01*
X152041743Y-85058407D01*
X152162060Y-85119712D01*
X152236616Y-85157701D01*
X152236619Y-85157702D01*
X152326025Y-85186751D01*
X152444625Y-85225286D01*
X152544672Y-85241132D01*
X152660639Y-85259500D01*
X152660644Y-85259500D01*
X152879361Y-85259500D01*
X152984082Y-85242912D01*
X153095375Y-85225286D01*
X153303383Y-85157701D01*
X153498257Y-85058407D01*
X153597601Y-84986229D01*
X153675193Y-84929857D01*
X153675195Y-84929854D01*
X153675199Y-84929852D01*
X153829852Y-84775199D01*
X153939683Y-84624028D01*
X153995011Y-84581364D01*
X154064624Y-84575385D01*
X154126420Y-84607990D01*
X154140313Y-84624023D01*
X154159499Y-84650430D01*
X154250148Y-84775199D01*
X154404806Y-84929857D01*
X154533935Y-85023673D01*
X154581743Y-85058407D01*
X154702060Y-85119712D01*
X154776616Y-85157701D01*
X154776619Y-85157702D01*
X154866025Y-85186751D01*
X154984625Y-85225286D01*
X155084672Y-85241132D01*
X155200639Y-85259500D01*
X155200644Y-85259500D01*
X155419361Y-85259500D01*
X155524082Y-85242912D01*
X155635375Y-85225286D01*
X155843383Y-85157701D01*
X156038257Y-85058407D01*
X156137601Y-84986229D01*
X156215193Y-84929857D01*
X156215195Y-84929854D01*
X156215199Y-84929852D01*
X156369852Y-84775199D01*
X156479683Y-84624028D01*
X156535011Y-84581364D01*
X156604624Y-84575385D01*
X156666420Y-84607990D01*
X156680313Y-84624023D01*
X156699499Y-84650430D01*
X156790148Y-84775199D01*
X156944806Y-84929857D01*
X157121738Y-85058404D01*
X157121740Y-85058405D01*
X157121743Y-85058407D01*
X157156794Y-85076266D01*
X157207590Y-85124239D01*
X157224500Y-85186751D01*
X157224500Y-88314589D01*
X157204815Y-88381628D01*
X157152011Y-88427383D01*
X157119904Y-88437061D01*
X157114467Y-88437922D01*
X157114465Y-88437922D01*
X156919776Y-88501181D01*
X156737386Y-88594115D01*
X156571786Y-88714428D01*
X156427028Y-88859186D01*
X156306715Y-89024786D01*
X156213781Y-89207176D01*
X156150522Y-89401865D01*
X156118500Y-89604048D01*
X156118500Y-89808751D01*
X156150522Y-90010934D01*
X156213781Y-90205623D01*
X156306715Y-90388013D01*
X156427028Y-90553613D01*
X156571786Y-90698371D01*
X156697243Y-90789519D01*
X156737390Y-90818687D01*
X156853607Y-90877903D01*
X156919776Y-90911618D01*
X156919778Y-90911618D01*
X156919781Y-90911620D01*
X156976460Y-90930036D01*
X157114465Y-90974877D01*
X157215557Y-90990888D01*
X157316648Y-91006900D01*
X157316649Y-91006900D01*
X157521351Y-91006900D01*
X157521352Y-91006900D01*
X157723534Y-90974877D01*
X157918219Y-90911620D01*
X158100610Y-90818687D01*
X158193590Y-90751132D01*
X158266213Y-90698371D01*
X158266215Y-90698368D01*
X158266219Y-90698366D01*
X158410966Y-90553619D01*
X158410968Y-90553615D01*
X158410971Y-90553613D01*
X158508052Y-90419990D01*
X158531287Y-90388010D01*
X158624220Y-90205619D01*
X158687477Y-90010934D01*
X158719500Y-89808752D01*
X158719500Y-89604048D01*
X158687477Y-89401866D01*
X158687476Y-89401864D01*
X158633109Y-89234538D01*
X158624220Y-89207181D01*
X158624218Y-89207178D01*
X158624218Y-89207176D01*
X158576077Y-89112696D01*
X158531287Y-89024790D01*
X158499181Y-88980599D01*
X158475702Y-88914792D01*
X158475500Y-88907715D01*
X158475500Y-85186751D01*
X158495185Y-85119712D01*
X158543205Y-85076266D01*
X158578257Y-85058407D01*
X158626065Y-85023673D01*
X158755193Y-84929857D01*
X158755195Y-84929854D01*
X158755199Y-84929852D01*
X158909852Y-84775199D01*
X159019683Y-84624028D01*
X159075011Y-84581364D01*
X159144624Y-84575385D01*
X159206420Y-84607990D01*
X159220313Y-84624023D01*
X159239499Y-84650430D01*
X159330148Y-84775199D01*
X159484806Y-84929857D01*
X159661738Y-85058404D01*
X159661740Y-85058405D01*
X159661743Y-85058407D01*
X159696794Y-85076266D01*
X159747590Y-85124239D01*
X159764500Y-85186751D01*
X159764500Y-89158606D01*
X159765807Y-89165178D01*
X159762119Y-89227680D01*
X159705523Y-89401861D01*
X159705523Y-89401864D01*
X159673500Y-89604048D01*
X159673500Y-89808751D01*
X159705522Y-90010934D01*
X159768781Y-90205623D01*
X159861715Y-90388013D01*
X159982028Y-90553613D01*
X160126786Y-90698371D01*
X160252243Y-90789519D01*
X160292390Y-90818687D01*
X160408607Y-90877903D01*
X160474776Y-90911618D01*
X160474778Y-90911618D01*
X160474781Y-90911620D01*
X160531460Y-90930036D01*
X160669465Y-90974877D01*
X160770557Y-90990888D01*
X160871648Y-91006900D01*
X160871649Y-91006900D01*
X161076351Y-91006900D01*
X161076352Y-91006900D01*
X161278534Y-90974877D01*
X161473219Y-90911620D01*
X161655610Y-90818687D01*
X161748590Y-90751132D01*
X161821213Y-90698371D01*
X161821215Y-90698368D01*
X161821219Y-90698366D01*
X161965966Y-90553619D01*
X161965968Y-90553615D01*
X161965971Y-90553613D01*
X162063052Y-90419990D01*
X162086287Y-90388010D01*
X162179220Y-90205619D01*
X162242477Y-90010934D01*
X162274500Y-89808752D01*
X162274500Y-89604048D01*
X162242477Y-89401866D01*
X162242476Y-89401864D01*
X162188109Y-89234538D01*
X162179220Y-89207181D01*
X162179218Y-89207178D01*
X162179218Y-89207176D01*
X162131303Y-89113139D01*
X162086287Y-89024790D01*
X162030500Y-88948005D01*
X161965971Y-88859186D01*
X161821213Y-88714428D01*
X161655613Y-88594115D01*
X161655612Y-88594114D01*
X161655610Y-88594113D01*
X161598653Y-88565091D01*
X161473223Y-88501181D01*
X161278534Y-88437922D01*
X161120102Y-88412829D01*
X161056967Y-88382900D01*
X161020036Y-88323588D01*
X161015500Y-88290356D01*
X161015500Y-85186751D01*
X161035185Y-85119712D01*
X161083205Y-85076266D01*
X161118257Y-85058407D01*
X161166065Y-85023673D01*
X161295193Y-84929857D01*
X161295195Y-84929854D01*
X161295199Y-84929852D01*
X161449852Y-84775199D01*
X161559683Y-84624028D01*
X161615011Y-84581364D01*
X161684624Y-84575385D01*
X161746420Y-84607990D01*
X161760313Y-84624023D01*
X161779499Y-84650430D01*
X161870148Y-84775199D01*
X162024806Y-84929857D01*
X162201738Y-85058404D01*
X162201740Y-85058405D01*
X162201743Y-85058407D01*
X162236794Y-85076266D01*
X162287590Y-85124239D01*
X162304500Y-85186751D01*
X162304500Y-88015611D01*
X162328535Y-88136444D01*
X162328540Y-88136461D01*
X162375685Y-88250281D01*
X162375688Y-88250286D01*
X162399756Y-88286305D01*
X162444142Y-88352733D01*
X162531267Y-88439858D01*
X162531269Y-88439859D01*
X162541675Y-88450265D01*
X163264625Y-89173215D01*
X163298110Y-89234538D01*
X163294875Y-89299213D01*
X163261523Y-89401862D01*
X163229500Y-89604048D01*
X163229500Y-89808751D01*
X163261522Y-90010934D01*
X163324781Y-90205623D01*
X163417715Y-90388013D01*
X163538028Y-90553613D01*
X163682786Y-90698371D01*
X163808243Y-90789519D01*
X163848390Y-90818687D01*
X163964607Y-90877903D01*
X164030776Y-90911618D01*
X164030778Y-90911618D01*
X164030781Y-90911620D01*
X164087460Y-90930036D01*
X164225465Y-90974877D01*
X164326557Y-90990888D01*
X164427648Y-91006900D01*
X164427649Y-91006900D01*
X164632351Y-91006900D01*
X164632352Y-91006900D01*
X164834534Y-90974877D01*
X165029219Y-90911620D01*
X165211610Y-90818687D01*
X165304590Y-90751132D01*
X165377213Y-90698371D01*
X165377215Y-90698368D01*
X165377219Y-90698366D01*
X165521966Y-90553619D01*
X165521968Y-90553615D01*
X165521971Y-90553613D01*
X165619052Y-90419990D01*
X165642287Y-90388010D01*
X165735220Y-90205619D01*
X165798477Y-90010934D01*
X165830500Y-89808752D01*
X165830500Y-89604048D01*
X165798477Y-89401866D01*
X165798476Y-89401864D01*
X165744109Y-89234538D01*
X165735220Y-89207181D01*
X165735218Y-89207178D01*
X165735218Y-89207176D01*
X165687303Y-89113139D01*
X165642287Y-89024790D01*
X165586500Y-88948005D01*
X165521971Y-88859186D01*
X165377213Y-88714428D01*
X165211613Y-88594115D01*
X165211612Y-88594114D01*
X165211610Y-88594113D01*
X165154653Y-88565091D01*
X165029223Y-88501181D01*
X164834534Y-88437922D01*
X164652530Y-88409096D01*
X164632352Y-88405900D01*
X164427648Y-88405900D01*
X164350927Y-88418051D01*
X164281634Y-88409096D01*
X164243849Y-88383259D01*
X163591819Y-87731228D01*
X163558334Y-87669905D01*
X163555500Y-87643547D01*
X163555500Y-85186751D01*
X163575185Y-85119712D01*
X163623205Y-85076266D01*
X163658257Y-85058407D01*
X163706065Y-85023673D01*
X163835193Y-84929857D01*
X163835195Y-84929854D01*
X163835199Y-84929852D01*
X163989852Y-84775199D01*
X163989854Y-84775195D01*
X163989857Y-84775193D01*
X164080501Y-84650430D01*
X164118407Y-84598257D01*
X164217701Y-84403383D01*
X164285286Y-84195375D01*
X164306253Y-84062993D01*
X164319500Y-83979361D01*
X164319500Y-83760638D01*
X164285304Y-83544741D01*
X164285286Y-83544625D01*
X164217701Y-83336617D01*
X164217701Y-83336616D01*
X164183315Y-83269132D01*
X164118407Y-83141743D01*
X164080500Y-83089568D01*
X163989857Y-82964806D01*
X163835199Y-82810148D01*
X163835191Y-82810142D01*
X163684028Y-82700316D01*
X163641364Y-82644989D01*
X163635385Y-82575376D01*
X163667990Y-82513580D01*
X163684023Y-82499686D01*
X163835199Y-82389852D01*
X163989852Y-82235199D01*
X164099683Y-82084028D01*
X164155011Y-82041364D01*
X164224624Y-82035385D01*
X164286420Y-82067990D01*
X164300313Y-82084023D01*
X164398640Y-82219359D01*
X164410148Y-82235199D01*
X164564806Y-82389857D01*
X164697492Y-82486257D01*
X164741743Y-82518407D01*
X164852940Y-82575065D01*
X164936616Y-82617701D01*
X164936619Y-82617702D01*
X165019645Y-82644678D01*
X165144625Y-82685286D01*
X165244672Y-82701132D01*
X165360639Y-82719500D01*
X165360644Y-82719500D01*
X165579361Y-82719500D01*
X165684082Y-82702912D01*
X165795375Y-82685286D01*
X166003383Y-82617701D01*
X166198257Y-82518407D01*
X166319494Y-82430324D01*
X166375193Y-82389857D01*
X166375195Y-82389854D01*
X166375199Y-82389852D01*
X166529852Y-82235199D01*
X166639683Y-82084028D01*
X166695011Y-82041364D01*
X166764624Y-82035385D01*
X166826420Y-82067990D01*
X166840313Y-82084023D01*
X166938640Y-82219359D01*
X166950148Y-82235199D01*
X167104806Y-82389857D01*
X167255969Y-82499682D01*
X167298635Y-82555011D01*
X167304614Y-82624625D01*
X167272009Y-82686420D01*
X167255969Y-82700318D01*
X167104806Y-82810142D01*
X166950142Y-82964806D01*
X166821595Y-83141739D01*
X166722298Y-83336616D01*
X166722297Y-83336619D01*
X166654714Y-83544623D01*
X166620500Y-83760638D01*
X166620500Y-83979361D01*
X166654714Y-84195376D01*
X166722297Y-84403380D01*
X166722298Y-84403383D01*
X166788250Y-84532818D01*
X166821461Y-84597998D01*
X166821595Y-84598260D01*
X166950142Y-84775193D01*
X167104806Y-84929857D01*
X167233935Y-85023673D01*
X167281743Y-85058407D01*
X167402060Y-85119712D01*
X167476616Y-85157701D01*
X167476619Y-85157702D01*
X167566025Y-85186751D01*
X167684625Y-85225286D01*
X167784672Y-85241132D01*
X167900639Y-85259500D01*
X167900644Y-85259500D01*
X168119361Y-85259500D01*
X168224082Y-85242912D01*
X168335375Y-85225286D01*
X168543383Y-85157701D01*
X168738257Y-85058407D01*
X168837601Y-84986229D01*
X168915193Y-84929857D01*
X168915195Y-84929854D01*
X168915199Y-84929852D01*
X169069852Y-84775199D01*
X169179683Y-84624028D01*
X169235011Y-84581364D01*
X169304624Y-84575385D01*
X169366420Y-84607990D01*
X169380313Y-84624023D01*
X169399499Y-84650430D01*
X169490148Y-84775199D01*
X169644806Y-84929857D01*
X169773935Y-85023673D01*
X169821743Y-85058407D01*
X169942060Y-85119712D01*
X170016616Y-85157701D01*
X170016619Y-85157702D01*
X170106025Y-85186751D01*
X170224625Y-85225286D01*
X170324672Y-85241132D01*
X170440639Y-85259500D01*
X170440644Y-85259500D01*
X170659361Y-85259500D01*
X170764082Y-85242912D01*
X170875375Y-85225286D01*
X171083383Y-85157701D01*
X171278257Y-85058407D01*
X171377601Y-84986229D01*
X171455193Y-84929857D01*
X171455195Y-84929854D01*
X171455199Y-84929852D01*
X171609852Y-84775199D01*
X171719683Y-84624028D01*
X171775011Y-84581364D01*
X171844624Y-84575385D01*
X171906420Y-84607990D01*
X171920313Y-84624023D01*
X171939499Y-84650430D01*
X172030148Y-84775199D01*
X172184806Y-84929857D01*
X172313935Y-85023673D01*
X172361743Y-85058407D01*
X172482060Y-85119712D01*
X172556616Y-85157701D01*
X172556619Y-85157702D01*
X172646025Y-85186751D01*
X172764625Y-85225286D01*
X172864672Y-85241132D01*
X172980639Y-85259500D01*
X172980644Y-85259500D01*
X173199361Y-85259500D01*
X173304082Y-85242912D01*
X173415375Y-85225286D01*
X173623383Y-85157701D01*
X173818257Y-85058407D01*
X173995199Y-84929852D01*
X174059312Y-84865738D01*
X174120631Y-84832256D01*
X174190323Y-84837240D01*
X174246257Y-84879111D01*
X174263172Y-84910088D01*
X174297203Y-85001330D01*
X174297206Y-85001335D01*
X174383452Y-85116544D01*
X174383455Y-85116547D01*
X174498664Y-85202793D01*
X174498671Y-85202797D01*
X174633517Y-85253091D01*
X174633516Y-85253091D01*
X174640444Y-85253835D01*
X174693127Y-85259500D01*
X176544992Y-85259499D01*
X176553677Y-85262049D01*
X176562639Y-85260761D01*
X176586679Y-85271739D01*
X176612031Y-85279184D01*
X176617958Y-85286024D01*
X176626195Y-85289786D01*
X176640482Y-85312018D01*
X176657786Y-85331987D01*
X176660073Y-85342502D01*
X176663969Y-85348564D01*
X176668992Y-85383499D01*
X176668992Y-85629567D01*
X176649307Y-85696606D01*
X176632673Y-85717248D01*
X176608213Y-85741707D01*
X176608210Y-85741711D01*
X176520609Y-85872814D01*
X176520602Y-85872827D01*
X176460264Y-86018498D01*
X176460261Y-86018510D01*
X176429500Y-86173153D01*
X176429500Y-86330846D01*
X176460261Y-86485489D01*
X176460264Y-86485501D01*
X176520602Y-86631172D01*
X176520609Y-86631185D01*
X176608210Y-86762288D01*
X176608213Y-86762292D01*
X176719707Y-86873786D01*
X176719711Y-86873789D01*
X176850814Y-86961390D01*
X176850827Y-86961397D01*
X176996498Y-87021735D01*
X176996503Y-87021737D01*
X177151153Y-87052499D01*
X177151156Y-87052500D01*
X177151158Y-87052500D01*
X177308844Y-87052500D01*
X177308845Y-87052499D01*
X177463497Y-87021737D01*
X177609179Y-86961394D01*
X177740289Y-86873789D01*
X177851789Y-86762289D01*
X177939394Y-86631179D01*
X177999737Y-86485497D01*
X178030500Y-86330842D01*
X178030500Y-86173158D01*
X178030500Y-86173155D01*
X178030499Y-86173153D01*
X177999738Y-86018510D01*
X177999737Y-86018503D01*
X177999735Y-86018498D01*
X177939395Y-85872823D01*
X177936524Y-85867452D01*
X177938220Y-85866545D01*
X177920011Y-85808364D01*
X177919992Y-85806169D01*
X177919992Y-84682730D01*
X177939677Y-84615691D01*
X177992481Y-84569936D01*
X178061639Y-84559992D01*
X178125195Y-84589017D01*
X178136448Y-84600099D01*
X178307967Y-84792029D01*
X178307973Y-84792035D01*
X178567175Y-85023673D01*
X178567181Y-85023677D01*
X178567182Y-85023678D01*
X178850701Y-85224845D01*
X179154960Y-85393003D01*
X179476135Y-85526038D01*
X179810185Y-85622277D01*
X180152910Y-85680508D01*
X180500000Y-85700000D01*
X180847090Y-85680508D01*
X181189815Y-85622277D01*
X181523865Y-85526038D01*
X181845040Y-85393003D01*
X182149299Y-85224845D01*
X182432818Y-85023678D01*
X182457825Y-85001331D01*
X182514455Y-84950722D01*
X182692031Y-84792031D01*
X182865430Y-84597998D01*
X182923673Y-84532824D01*
X182923674Y-84532822D01*
X182923678Y-84532818D01*
X183124845Y-84249299D01*
X183266972Y-83992138D01*
X183316629Y-83942986D01*
X183384977Y-83928483D01*
X183450316Y-83953233D01*
X183491901Y-84009379D01*
X183499500Y-84052120D01*
X183499500Y-104147879D01*
X183479815Y-104214918D01*
X183427011Y-104260673D01*
X183357853Y-104270617D01*
X183294297Y-104241592D01*
X183266972Y-104207860D01*
X183127249Y-103955051D01*
X183124845Y-103950701D01*
X182923678Y-103667182D01*
X182923677Y-103667181D01*
X182923673Y-103667175D01*
X182692032Y-103407970D01*
X182692029Y-103407967D01*
X182432824Y-103176326D01*
X182149299Y-102975155D01*
X181845038Y-102806996D01*
X181778519Y-102779443D01*
X181523865Y-102673962D01*
X181356840Y-102625842D01*
X181189819Y-102577724D01*
X181189811Y-102577722D01*
X180847097Y-102519493D01*
X180847085Y-102519491D01*
X180500000Y-102500000D01*
X180152914Y-102519491D01*
X180152902Y-102519493D01*
X179810188Y-102577722D01*
X179810180Y-102577724D01*
X179476138Y-102673961D01*
X179476135Y-102673962D01*
X179428452Y-102693713D01*
X179154961Y-102806996D01*
X178850700Y-102975155D01*
X178567175Y-103176326D01*
X178307970Y-103407967D01*
X178307967Y-103407970D01*
X178076326Y-103667175D01*
X177875155Y-103950700D01*
X177706996Y-104254961D01*
X177573961Y-104576138D01*
X177477724Y-104910180D01*
X177477722Y-104910188D01*
X177419493Y-105252902D01*
X177419491Y-105252914D01*
X177400000Y-105600000D01*
X177419491Y-105947085D01*
X177419493Y-105947097D01*
X177477722Y-106289811D01*
X177477724Y-106289819D01*
X177511347Y-106406526D01*
X177573962Y-106623865D01*
X177634481Y-106769970D01*
X177706996Y-106945038D01*
X177875155Y-107249299D01*
X178076326Y-107532824D01*
X178307967Y-107792029D01*
X178307970Y-107792032D01*
X178567175Y-108023673D01*
X178567181Y-108023677D01*
X178567182Y-108023678D01*
X178850701Y-108224845D01*
X179154960Y-108393003D01*
X179476135Y-108526038D01*
X179810185Y-108622277D01*
X180152910Y-108680508D01*
X180500000Y-108700000D01*
X180847090Y-108680508D01*
X181189815Y-108622277D01*
X181523865Y-108526038D01*
X181845040Y-108393003D01*
X182149299Y-108224845D01*
X182432818Y-108023678D01*
X182692031Y-107792031D01*
X182905232Y-107553459D01*
X182923673Y-107532824D01*
X182923674Y-107532822D01*
X182923678Y-107532818D01*
X183124845Y-107249299D01*
X183266972Y-106992138D01*
X183316629Y-106942986D01*
X183384977Y-106928483D01*
X183450316Y-106953233D01*
X183491901Y-107009379D01*
X183499500Y-107052120D01*
X183499500Y-121096249D01*
X183499274Y-121103736D01*
X183481728Y-121393794D01*
X183479923Y-121408659D01*
X183428219Y-121690797D01*
X183424635Y-121705335D01*
X183339304Y-121979174D01*
X183333994Y-121993176D01*
X183216277Y-122254730D01*
X183209319Y-122267987D01*
X183060928Y-122513458D01*
X183052422Y-122525782D01*
X182875525Y-122751573D01*
X182865595Y-122762781D01*
X182662781Y-122965595D01*
X182651573Y-122975525D01*
X182425782Y-123152422D01*
X182413458Y-123160928D01*
X182167987Y-123309319D01*
X182154730Y-123316277D01*
X181893176Y-123433994D01*
X181879174Y-123439304D01*
X181605335Y-123524635D01*
X181590797Y-123528219D01*
X181308659Y-123579923D01*
X181293794Y-123581728D01*
X181003736Y-123599274D01*
X180996249Y-123599500D01*
X122003751Y-123599500D01*
X121996264Y-123599274D01*
X121706205Y-123581728D01*
X121691340Y-123579923D01*
X121409202Y-123528219D01*
X121394664Y-123524635D01*
X121120825Y-123439304D01*
X121106827Y-123433995D01*
X120954096Y-123365256D01*
X120845269Y-123316277D01*
X120832012Y-123309319D01*
X120586541Y-123160928D01*
X120574217Y-123152422D01*
X120348426Y-122975525D01*
X120337218Y-122965595D01*
X120134404Y-122762781D01*
X120124474Y-122751573D01*
X119947573Y-122525776D01*
X119939071Y-122513458D01*
X119790680Y-122267987D01*
X119783722Y-122254730D01*
X119774042Y-122233222D01*
X119666000Y-121993163D01*
X119660698Y-121979182D01*
X119575363Y-121705334D01*
X119571780Y-121690797D01*
X119520076Y-121408659D01*
X119518271Y-121393794D01*
X119518054Y-121390214D01*
X119500726Y-121103736D01*
X119500500Y-121096249D01*
X119500500Y-120448711D01*
X125849500Y-120448711D01*
X125849500Y-120691288D01*
X125881161Y-120931785D01*
X125943947Y-121166104D01*
X125987798Y-121271969D01*
X126036776Y-121390212D01*
X126158064Y-121600289D01*
X126158066Y-121600292D01*
X126158067Y-121600293D01*
X126305733Y-121792736D01*
X126305739Y-121792743D01*
X126477256Y-121964260D01*
X126477263Y-121964266D01*
X126590321Y-122051018D01*
X126669711Y-122111936D01*
X126879788Y-122233224D01*
X127103900Y-122326054D01*
X127338211Y-122388838D01*
X127518586Y-122412584D01*
X127578711Y-122420500D01*
X127578712Y-122420500D01*
X127821289Y-122420500D01*
X127869388Y-122414167D01*
X128061789Y-122388838D01*
X128296100Y-122326054D01*
X128520212Y-122233224D01*
X128730289Y-122111936D01*
X128922738Y-121964265D01*
X129094265Y-121792738D01*
X129241936Y-121600289D01*
X129363224Y-121390212D01*
X129456054Y-121166100D01*
X129518838Y-120931789D01*
X129550500Y-120691288D01*
X129550500Y-120448712D01*
X129550500Y-120448711D01*
X137279500Y-120448711D01*
X137279500Y-120691288D01*
X137311161Y-120931785D01*
X137373947Y-121166104D01*
X137417798Y-121271969D01*
X137466776Y-121390212D01*
X137588064Y-121600289D01*
X137588066Y-121600292D01*
X137588067Y-121600293D01*
X137735733Y-121792736D01*
X137735739Y-121792743D01*
X137907256Y-121964260D01*
X137907263Y-121964266D01*
X138020321Y-122051018D01*
X138099711Y-122111936D01*
X138309788Y-122233224D01*
X138533900Y-122326054D01*
X138768211Y-122388838D01*
X138948586Y-122412584D01*
X139008711Y-122420500D01*
X139008712Y-122420500D01*
X139251289Y-122420500D01*
X139299388Y-122414167D01*
X139491789Y-122388838D01*
X139726100Y-122326054D01*
X139950212Y-122233224D01*
X140160289Y-122111936D01*
X140352738Y-121964265D01*
X140524265Y-121792738D01*
X140671936Y-121600289D01*
X140793224Y-121390212D01*
X140886054Y-121166100D01*
X140948838Y-120931789D01*
X140980500Y-120691288D01*
X140980500Y-120448712D01*
X140980500Y-120448711D01*
X162679500Y-120448711D01*
X162679500Y-120691288D01*
X162711161Y-120931785D01*
X162773947Y-121166104D01*
X162817798Y-121271969D01*
X162866776Y-121390212D01*
X162988064Y-121600289D01*
X162988066Y-121600292D01*
X162988067Y-121600293D01*
X163135733Y-121792736D01*
X163135739Y-121792743D01*
X163307256Y-121964260D01*
X163307263Y-121964266D01*
X163420321Y-122051018D01*
X163499711Y-122111936D01*
X163709788Y-122233224D01*
X163933900Y-122326054D01*
X164168211Y-122388838D01*
X164348586Y-122412584D01*
X164408711Y-122420500D01*
X164408712Y-122420500D01*
X164651289Y-122420500D01*
X164699388Y-122414167D01*
X164891789Y-122388838D01*
X165126100Y-122326054D01*
X165350212Y-122233224D01*
X165560289Y-122111936D01*
X165752738Y-121964265D01*
X165924265Y-121792738D01*
X166071936Y-121600289D01*
X166193224Y-121390212D01*
X166286054Y-121166100D01*
X166348838Y-120931789D01*
X166380500Y-120691288D01*
X166380500Y-120448712D01*
X166380500Y-120448711D01*
X174109500Y-120448711D01*
X174109500Y-120691288D01*
X174141161Y-120931785D01*
X174203947Y-121166104D01*
X174247798Y-121271969D01*
X174296776Y-121390212D01*
X174418064Y-121600289D01*
X174418066Y-121600292D01*
X174418067Y-121600293D01*
X174565733Y-121792736D01*
X174565739Y-121792743D01*
X174737256Y-121964260D01*
X174737263Y-121964266D01*
X174850321Y-122051018D01*
X174929711Y-122111936D01*
X175139788Y-122233224D01*
X175363900Y-122326054D01*
X175598211Y-122388838D01*
X175778586Y-122412584D01*
X175838711Y-122420500D01*
X175838712Y-122420500D01*
X176081289Y-122420500D01*
X176129388Y-122414167D01*
X176321789Y-122388838D01*
X176556100Y-122326054D01*
X176780212Y-122233224D01*
X176990289Y-122111936D01*
X177182738Y-121964265D01*
X177354265Y-121792738D01*
X177501936Y-121600289D01*
X177623224Y-121390212D01*
X177716054Y-121166100D01*
X177778838Y-120931789D01*
X177810500Y-120691288D01*
X177810500Y-120448712D01*
X177778838Y-120208211D01*
X177716054Y-119973900D01*
X177623224Y-119749788D01*
X177501936Y-119539711D01*
X177354265Y-119347262D01*
X177354260Y-119347256D01*
X177182743Y-119175739D01*
X177182736Y-119175733D01*
X176990293Y-119028067D01*
X176990292Y-119028066D01*
X176990289Y-119028064D01*
X176780212Y-118906776D01*
X176780205Y-118906773D01*
X176556104Y-118813947D01*
X176438944Y-118782554D01*
X176321789Y-118751162D01*
X176321788Y-118751161D01*
X176321785Y-118751161D01*
X176081289Y-118719500D01*
X176081288Y-118719500D01*
X175838712Y-118719500D01*
X175838711Y-118719500D01*
X175598214Y-118751161D01*
X175363895Y-118813947D01*
X175139794Y-118906773D01*
X175139785Y-118906777D01*
X174929706Y-119028067D01*
X174737263Y-119175733D01*
X174737256Y-119175739D01*
X174565739Y-119347256D01*
X174565733Y-119347263D01*
X174418067Y-119539706D01*
X174296777Y-119749785D01*
X174296773Y-119749794D01*
X174203947Y-119973895D01*
X174141161Y-120208214D01*
X174109500Y-120448711D01*
X166380500Y-120448711D01*
X166348838Y-120208211D01*
X166286054Y-119973900D01*
X166193224Y-119749788D01*
X166071936Y-119539711D01*
X165924265Y-119347262D01*
X165924260Y-119347256D01*
X165752743Y-119175739D01*
X165752736Y-119175733D01*
X165560293Y-119028067D01*
X165560292Y-119028066D01*
X165560289Y-119028064D01*
X165350212Y-118906776D01*
X165350205Y-118906773D01*
X165126104Y-118813947D01*
X165008944Y-118782554D01*
X164891789Y-118751162D01*
X164891788Y-118751161D01*
X164891785Y-118751161D01*
X164651289Y-118719500D01*
X164651288Y-118719500D01*
X164408712Y-118719500D01*
X164408711Y-118719500D01*
X164168214Y-118751161D01*
X163933895Y-118813947D01*
X163709794Y-118906773D01*
X163709785Y-118906777D01*
X163499706Y-119028067D01*
X163307263Y-119175733D01*
X163307256Y-119175739D01*
X163135739Y-119347256D01*
X163135733Y-119347263D01*
X162988067Y-119539706D01*
X162866777Y-119749785D01*
X162866773Y-119749794D01*
X162773947Y-119973895D01*
X162711161Y-120208214D01*
X162679500Y-120448711D01*
X140980500Y-120448711D01*
X140948838Y-120208211D01*
X140886054Y-119973900D01*
X140793224Y-119749788D01*
X140671936Y-119539711D01*
X140524265Y-119347262D01*
X140524260Y-119347256D01*
X140352743Y-119175739D01*
X140352736Y-119175733D01*
X140160293Y-119028067D01*
X140160292Y-119028066D01*
X140160289Y-119028064D01*
X139950212Y-118906776D01*
X139950205Y-118906773D01*
X139726104Y-118813947D01*
X139608944Y-118782554D01*
X139491789Y-118751162D01*
X139491788Y-118751161D01*
X139491785Y-118751161D01*
X139251289Y-118719500D01*
X139251288Y-118719500D01*
X139008712Y-118719500D01*
X139008711Y-118719500D01*
X138768214Y-118751161D01*
X138533895Y-118813947D01*
X138309794Y-118906773D01*
X138309785Y-118906777D01*
X138099706Y-119028067D01*
X137907263Y-119175733D01*
X137907256Y-119175739D01*
X137735739Y-119347256D01*
X137735733Y-119347263D01*
X137588067Y-119539706D01*
X137466777Y-119749785D01*
X137466773Y-119749794D01*
X137373947Y-119973895D01*
X137311161Y-120208214D01*
X137279500Y-120448711D01*
X129550500Y-120448711D01*
X129518838Y-120208211D01*
X129456054Y-119973900D01*
X129363224Y-119749788D01*
X129241936Y-119539711D01*
X129094265Y-119347262D01*
X129094260Y-119347256D01*
X128922743Y-119175739D01*
X128922736Y-119175733D01*
X128730293Y-119028067D01*
X128730292Y-119028066D01*
X128730289Y-119028064D01*
X128520212Y-118906776D01*
X128520205Y-118906773D01*
X128296104Y-118813947D01*
X128178944Y-118782554D01*
X128061789Y-118751162D01*
X128061788Y-118751161D01*
X128061785Y-118751161D01*
X127821289Y-118719500D01*
X127821288Y-118719500D01*
X127578712Y-118719500D01*
X127578711Y-118719500D01*
X127338214Y-118751161D01*
X127103895Y-118813947D01*
X126879794Y-118906773D01*
X126879785Y-118906777D01*
X126669706Y-119028067D01*
X126477263Y-119175733D01*
X126477256Y-119175739D01*
X126305739Y-119347256D01*
X126305733Y-119347263D01*
X126158067Y-119539706D01*
X126036777Y-119749785D01*
X126036773Y-119749794D01*
X125943947Y-119973895D01*
X125881161Y-120208214D01*
X125849500Y-120448711D01*
X119500500Y-120448711D01*
X119500500Y-107052120D01*
X119520185Y-106985081D01*
X119572989Y-106939326D01*
X119642147Y-106929382D01*
X119705703Y-106958407D01*
X119733027Y-106992137D01*
X119875155Y-107249299D01*
X120076326Y-107532824D01*
X120307967Y-107792029D01*
X120307970Y-107792032D01*
X120567175Y-108023673D01*
X120567181Y-108023677D01*
X120567182Y-108023678D01*
X120850701Y-108224845D01*
X121154960Y-108393003D01*
X121476135Y-108526038D01*
X121810185Y-108622277D01*
X122152910Y-108680508D01*
X122500000Y-108700000D01*
X122847090Y-108680508D01*
X123189815Y-108622277D01*
X123523865Y-108526038D01*
X123845040Y-108393003D01*
X124149299Y-108224845D01*
X124432818Y-108023678D01*
X124692031Y-107792031D01*
X124905232Y-107553459D01*
X124923673Y-107532824D01*
X124923674Y-107532822D01*
X124923678Y-107532818D01*
X125124845Y-107249299D01*
X125293003Y-106945040D01*
X125426038Y-106623865D01*
X125522277Y-106289815D01*
X125580508Y-105947090D01*
X125600000Y-105600000D01*
X125585960Y-105350000D01*
X128572769Y-105350000D01*
X129584314Y-105350000D01*
X129579920Y-105354394D01*
X129527259Y-105445606D01*
X129500000Y-105547339D01*
X129500000Y-105652661D01*
X129527259Y-105754394D01*
X129579920Y-105845606D01*
X129584314Y-105850000D01*
X128572769Y-105850000D01*
X128583242Y-105916126D01*
X128583242Y-105916129D01*
X128648904Y-106118217D01*
X128745379Y-106307557D01*
X128870272Y-106479459D01*
X128870276Y-106479464D01*
X129020535Y-106629723D01*
X129020540Y-106629727D01*
X129192442Y-106754620D01*
X129381782Y-106851095D01*
X129583871Y-106916757D01*
X129650000Y-106927231D01*
X129650000Y-105915686D01*
X129654394Y-105920080D01*
X129745606Y-105972741D01*
X129847339Y-106000000D01*
X129952661Y-106000000D01*
X130054394Y-105972741D01*
X130145606Y-105920080D01*
X130150000Y-105915686D01*
X130150000Y-106927230D01*
X130216126Y-106916757D01*
X130216129Y-106916757D01*
X130418217Y-106851095D01*
X130607557Y-106754620D01*
X130779459Y-106629727D01*
X130779464Y-106629723D01*
X130929723Y-106479464D01*
X130929727Y-106479459D01*
X131054620Y-106307557D01*
X131151095Y-106118217D01*
X131216757Y-105916129D01*
X131216757Y-105916126D01*
X131227231Y-105850000D01*
X130215686Y-105850000D01*
X130220080Y-105845606D01*
X130272741Y-105754394D01*
X130300000Y-105652661D01*
X130300000Y-105547339D01*
X130272741Y-105445606D01*
X130220080Y-105354394D01*
X130215686Y-105350000D01*
X131227231Y-105350000D01*
X131216757Y-105283873D01*
X131216757Y-105283870D01*
X131151095Y-105081782D01*
X131054620Y-104892442D01*
X130929727Y-104720540D01*
X130929723Y-104720535D01*
X130779464Y-104570276D01*
X130779459Y-104570272D01*
X130607553Y-104445376D01*
X130607552Y-104445375D01*
X130434658Y-104357280D01*
X130383862Y-104309306D01*
X130367067Y-104241485D01*
X130389605Y-104175350D01*
X130444320Y-104131899D01*
X130471545Y-104124325D01*
X130516243Y-104117246D01*
X130718412Y-104051557D01*
X130907816Y-103955051D01*
X130929789Y-103939086D01*
X131079786Y-103830109D01*
X131079788Y-103830106D01*
X131079792Y-103830104D01*
X131230104Y-103679792D01*
X131230106Y-103679788D01*
X131230109Y-103679786D01*
X131355048Y-103507820D01*
X131355047Y-103507820D01*
X131355051Y-103507816D01*
X131451557Y-103318412D01*
X131517246Y-103116243D01*
X131550500Y-102906287D01*
X131550500Y-102693713D01*
X131517246Y-102483757D01*
X131451557Y-102281588D01*
X131355051Y-102092184D01*
X131355049Y-102092181D01*
X131355048Y-102092179D01*
X131230109Y-101920213D01*
X131079786Y-101769890D01*
X130907820Y-101644951D01*
X130718414Y-101548444D01*
X130718413Y-101548443D01*
X130718412Y-101548443D01*
X130516243Y-101482754D01*
X130516241Y-101482753D01*
X130516240Y-101482753D01*
X130354957Y-101457208D01*
X130306287Y-101449500D01*
X130093713Y-101449500D01*
X130045042Y-101457208D01*
X129883760Y-101482753D01*
X129681585Y-101548444D01*
X129492179Y-101644951D01*
X129320213Y-101769890D01*
X129169890Y-101920213D01*
X129044951Y-102092179D01*
X128948444Y-102281585D01*
X128882753Y-102483760D01*
X128849500Y-102693713D01*
X128849500Y-102906286D01*
X128879364Y-103094844D01*
X128882754Y-103116243D01*
X128926052Y-103249501D01*
X128948444Y-103318414D01*
X129044951Y-103507820D01*
X129169890Y-103679786D01*
X129320213Y-103830109D01*
X129492179Y-103955048D01*
X129492181Y-103955049D01*
X129492184Y-103955051D01*
X129655366Y-104038196D01*
X129665259Y-104043237D01*
X129716055Y-104091212D01*
X129732850Y-104159033D01*
X129710313Y-104225167D01*
X129655598Y-104268619D01*
X129628363Y-104276195D01*
X129583871Y-104283242D01*
X129583869Y-104283242D01*
X129381782Y-104348904D01*
X129192442Y-104445379D01*
X129020540Y-104570272D01*
X129020535Y-104570276D01*
X128870276Y-104720535D01*
X128870272Y-104720540D01*
X128745379Y-104892442D01*
X128648904Y-105081782D01*
X128583242Y-105283870D01*
X128583242Y-105283873D01*
X128572769Y-105350000D01*
X125585960Y-105350000D01*
X125580508Y-105252910D01*
X125522277Y-104910185D01*
X125426038Y-104576135D01*
X125293003Y-104254960D01*
X125124845Y-103950701D01*
X124923678Y-103667182D01*
X124923677Y-103667181D01*
X124923673Y-103667175D01*
X124692032Y-103407970D01*
X124692029Y-103407967D01*
X124432824Y-103176326D01*
X124149299Y-102975155D01*
X123845038Y-102806996D01*
X123778519Y-102779443D01*
X123523865Y-102673962D01*
X123356840Y-102625842D01*
X123189819Y-102577724D01*
X123189811Y-102577722D01*
X122847097Y-102519493D01*
X122847085Y-102519491D01*
X122500000Y-102500000D01*
X122152914Y-102519491D01*
X122152902Y-102519493D01*
X121810188Y-102577722D01*
X121810180Y-102577724D01*
X121476138Y-102673961D01*
X121476135Y-102673962D01*
X121428452Y-102693713D01*
X121154961Y-102806996D01*
X120850700Y-102975155D01*
X120567175Y-103176326D01*
X120307970Y-103407967D01*
X120307967Y-103407970D01*
X120076326Y-103667175D01*
X119875155Y-103950700D01*
X119733028Y-104207860D01*
X119683371Y-104257013D01*
X119615023Y-104271516D01*
X119549684Y-104246766D01*
X119508099Y-104190619D01*
X119500500Y-104147879D01*
X119500500Y-82472070D01*
X120874500Y-82472070D01*
X120874500Y-82727929D01*
X120914526Y-82980640D01*
X120993588Y-83223972D01*
X120993589Y-83223975D01*
X121109750Y-83451950D01*
X121260132Y-83658935D01*
X121260136Y-83658940D01*
X121441059Y-83839863D01*
X121441064Y-83839867D01*
X121585824Y-83945040D01*
X121648053Y-83990252D01*
X121790815Y-84062993D01*
X121876024Y-84106410D01*
X121876027Y-84106411D01*
X121997693Y-84145942D01*
X122119361Y-84185474D01*
X122372070Y-84225500D01*
X122372071Y-84225500D01*
X122627929Y-84225500D01*
X122627930Y-84225500D01*
X122880639Y-84185474D01*
X123123975Y-84106410D01*
X123351947Y-83990252D01*
X123357443Y-83986258D01*
X123362454Y-83982619D01*
X123558935Y-83839867D01*
X123558933Y-83839867D01*
X123558942Y-83839862D01*
X123739862Y-83658942D01*
X123890252Y-83451947D01*
X124006410Y-83223975D01*
X124085474Y-82980639D01*
X124125500Y-82727930D01*
X124125500Y-82472070D01*
X124085474Y-82219361D01*
X124029551Y-82047245D01*
X124006411Y-81976027D01*
X124006410Y-81976024D01*
X123932006Y-81830000D01*
X123890252Y-81748053D01*
X123822918Y-81655375D01*
X123739867Y-81541064D01*
X123739863Y-81541059D01*
X123558940Y-81360136D01*
X123558935Y-81360132D01*
X123351950Y-81209750D01*
X123351949Y-81209749D01*
X123351947Y-81209748D01*
X123278910Y-81172533D01*
X123123975Y-81093589D01*
X123123972Y-81093588D01*
X122880640Y-81014526D01*
X122754284Y-80994513D01*
X122627930Y-80974500D01*
X122372070Y-80974500D01*
X122287833Y-80987842D01*
X122119359Y-81014526D01*
X121876027Y-81093588D01*
X121876024Y-81093589D01*
X121648049Y-81209750D01*
X121441064Y-81360132D01*
X121441059Y-81360136D01*
X121260136Y-81541059D01*
X121260132Y-81541064D01*
X121109750Y-81748049D01*
X120993589Y-81976024D01*
X120993588Y-81976027D01*
X120914526Y-82219359D01*
X120874500Y-82472070D01*
X119500500Y-82472070D01*
X119500500Y-82103750D01*
X119500726Y-82096263D01*
X119504047Y-82041364D01*
X119518271Y-81806201D01*
X119520076Y-81791340D01*
X119524893Y-81765058D01*
X119571780Y-81509198D01*
X119575364Y-81494664D01*
X119617284Y-81360138D01*
X119660699Y-81220812D01*
X119665997Y-81206842D01*
X119783727Y-80945258D01*
X119790680Y-80932012D01*
X119872527Y-80796619D01*
X119939075Y-80686534D01*
X119947567Y-80674230D01*
X120124481Y-80448417D01*
X120134396Y-80437226D01*
X120337226Y-80234396D01*
X120348417Y-80224481D01*
X120574230Y-80047567D01*
X120586534Y-80039075D01*
X120832012Y-79890680D01*
X120845258Y-79883727D01*
X121106842Y-79765997D01*
X121120812Y-79760699D01*
X121394668Y-79675362D01*
X121409198Y-79671780D01*
X121691344Y-79620075D01*
X121706201Y-79618271D01*
X121996264Y-79600726D01*
X122003751Y-79600500D01*
X122065892Y-79600500D01*
X179047879Y-79600500D01*
X179114918Y-79620185D01*
G37*
%TD.AperFunction*%
%TA.AperFunction,Conductor*%
G36*
X138824768Y-97531215D02*
G01*
X138878772Y-97526966D01*
X138947149Y-97541331D01*
X138996906Y-97590383D01*
X139012500Y-97650584D01*
X139012500Y-98549687D01*
X138992815Y-98616726D01*
X138940011Y-98662481D01*
X138870853Y-98672425D01*
X138807297Y-98643400D01*
X138788182Y-98622573D01*
X138783934Y-98616726D01*
X138735481Y-98550036D01*
X138594964Y-98409519D01*
X138434194Y-98292713D01*
X138277167Y-98212703D01*
X138226372Y-98164729D01*
X138209577Y-98096908D01*
X138232114Y-98030773D01*
X138277169Y-97991734D01*
X138433922Y-97911864D01*
X138471216Y-97884768D01*
X137901910Y-97315462D01*
X137965493Y-97298425D01*
X138079507Y-97232599D01*
X138172599Y-97139507D01*
X138238425Y-97025493D01*
X138255462Y-96961909D01*
X138824768Y-97531215D01*
G37*
%TD.AperFunction*%
%TA.AperFunction,Conductor*%
G36*
X138974920Y-95026387D02*
G01*
X139009277Y-95087226D01*
X139012500Y-95115312D01*
X139012500Y-96014415D01*
X138992815Y-96081454D01*
X138940011Y-96127209D01*
X138878772Y-96138033D01*
X138824768Y-96133783D01*
X138255462Y-96703089D01*
X138238425Y-96639507D01*
X138172599Y-96525493D01*
X138079507Y-96432401D01*
X137965493Y-96366575D01*
X137901909Y-96349537D01*
X138471216Y-95780231D01*
X138471215Y-95780230D01*
X138433932Y-95753141D01*
X138277168Y-95673265D01*
X138226372Y-95625290D01*
X138209577Y-95557469D01*
X138232115Y-95491334D01*
X138277167Y-95452296D01*
X138434194Y-95372287D01*
X138594964Y-95255481D01*
X138735481Y-95114964D01*
X138788182Y-95042426D01*
X138843512Y-94999761D01*
X138913125Y-94993782D01*
X138974920Y-95026387D01*
G37*
%TD.AperFunction*%
%TD*%
M02*
