%TF.GenerationSoftware,KiCad,Pcbnew,10.0.1-10.0.1~ubuntu24.04.1*%
%TF.CreationDate,1970-01-01T00:00:00+00:00*%
%TF.ProjectId,Esp32Tap,45737033-3254-4617-902e-6b696361645f,E*%
%TF.SameCoordinates,Original*%
%TF.FileFunction,Legend,Top*%
%TF.FilePolarity,Positive*%
%FSLAX46Y46*%
G04 Gerber Fmt 4.6, Leading zero omitted, Abs format (unit mm)*
G04 Created by KiCad (PCBNEW 10.0.1-10.0.1~ubuntu24.04.1) date 1970-01-01 00:00:00*
%MOMM*%
%LPD*%
G01*
G04 APERTURE LIST*
%ADD10C,0.200000*%
G04 APERTURE END LIST*
D10*
X111523809Y-130452219D02*
X111523809Y-129452219D01*
X112095237Y-130452219D02*
X111666666Y-129880790D01*
X112095237Y-129452219D02*
X111523809Y-130023647D01*
X113761904Y-130452219D02*
X113285714Y-130452219D01*
X113285714Y-130452219D02*
X113285714Y-129452219D01*
X114095238Y-129928409D02*
X114428571Y-129928409D01*
X114571428Y-130452219D02*
X114095238Y-130452219D01*
X114095238Y-130452219D02*
X114095238Y-129452219D01*
X114095238Y-129452219D02*
X114571428Y-129452219D01*
X115000000Y-130452219D02*
X115000000Y-129452219D01*
X115000000Y-129452219D02*
X115238095Y-129452219D01*
X115238095Y-129452219D02*
X115380952Y-129499838D01*
X115380952Y-129499838D02*
X115476190Y-129595076D01*
X115476190Y-129595076D02*
X115523809Y-129690314D01*
X115523809Y-129690314D02*
X115571428Y-129880790D01*
X115571428Y-129880790D02*
X115571428Y-130023647D01*
X115571428Y-130023647D02*
X115523809Y-130214123D01*
X115523809Y-130214123D02*
X115476190Y-130309361D01*
X115476190Y-130309361D02*
X115380952Y-130404600D01*
X115380952Y-130404600D02*
X115238095Y-130452219D01*
X115238095Y-130452219D02*
X115000000Y-130452219D01*
X115952381Y-129547457D02*
X116000000Y-129499838D01*
X116000000Y-129499838D02*
X116095238Y-129452219D01*
X116095238Y-129452219D02*
X116333333Y-129452219D01*
X116333333Y-129452219D02*
X116428571Y-129499838D01*
X116428571Y-129499838D02*
X116476190Y-129547457D01*
X116476190Y-129547457D02*
X116523809Y-129642695D01*
X116523809Y-129642695D02*
X116523809Y-129737933D01*
X116523809Y-129737933D02*
X116476190Y-129880790D01*
X116476190Y-129880790D02*
X115904762Y-130452219D01*
X115904762Y-130452219D02*
X116523809Y-130452219D01*
X120904762Y-119652219D02*
X120904762Y-118652219D01*
X121476190Y-119652219D02*
X121047619Y-119080790D01*
X121476190Y-118652219D02*
X120904762Y-119223647D01*
X122428571Y-119652219D02*
X121857143Y-119652219D01*
X122142857Y-119652219D02*
X122142857Y-118652219D01*
X122142857Y-118652219D02*
X122047619Y-118795076D01*
X122047619Y-118795076D02*
X121952381Y-118890314D01*
X121952381Y-118890314D02*
X121857143Y-118937933D01*
X123619048Y-119652219D02*
X123619048Y-118652219D01*
X123619048Y-118652219D02*
X124000000Y-118652219D01*
X124000000Y-118652219D02*
X124095238Y-118699838D01*
X124095238Y-118699838D02*
X124142857Y-118747457D01*
X124142857Y-118747457D02*
X124190476Y-118842695D01*
X124190476Y-118842695D02*
X124190476Y-118985552D01*
X124190476Y-118985552D02*
X124142857Y-119080790D01*
X124142857Y-119080790D02*
X124095238Y-119128409D01*
X124095238Y-119128409D02*
X124000000Y-119176028D01*
X124000000Y-119176028D02*
X123619048Y-119176028D01*
X125142857Y-119652219D02*
X124571429Y-119652219D01*
X124857143Y-119652219D02*
X124857143Y-118652219D01*
X124857143Y-118652219D02*
X124761905Y-118795076D01*
X124761905Y-118795076D02*
X124666667Y-118890314D01*
X124666667Y-118890314D02*
X124571429Y-118937933D01*
X126523809Y-136928409D02*
X126857142Y-136928409D01*
X126999999Y-137452219D02*
X126523809Y-137452219D01*
X126523809Y-137452219D02*
X126523809Y-136452219D01*
X126523809Y-136452219D02*
X126999999Y-136452219D01*
X127428571Y-137452219D02*
X127428571Y-136452219D01*
X127428571Y-136452219D02*
X127761904Y-137166504D01*
X127761904Y-137166504D02*
X128095237Y-136452219D01*
X128095237Y-136452219D02*
X128095237Y-137452219D01*
X128571428Y-136452219D02*
X128571428Y-137261742D01*
X128571428Y-137261742D02*
X128619047Y-137356980D01*
X128619047Y-137356980D02*
X128666666Y-137404600D01*
X128666666Y-137404600D02*
X128761904Y-137452219D01*
X128761904Y-137452219D02*
X128952380Y-137452219D01*
X128952380Y-137452219D02*
X129047618Y-137404600D01*
X129047618Y-137404600D02*
X129095237Y-137356980D01*
X129095237Y-137356980D02*
X129142856Y-137261742D01*
X129142856Y-137261742D02*
X129142856Y-136452219D01*
X130095237Y-137452219D02*
X129619047Y-137452219D01*
X129619047Y-137452219D02*
X129619047Y-136452219D01*
X130380952Y-137166504D02*
X130857142Y-137166504D01*
X130285714Y-137452219D02*
X130619047Y-136452219D01*
X130619047Y-136452219D02*
X130952380Y-137452219D01*
X131142857Y-136452219D02*
X131714285Y-136452219D01*
X131428571Y-137452219D02*
X131428571Y-136452219D01*
X132047619Y-136928409D02*
X132380952Y-136928409D01*
X132523809Y-137452219D02*
X132047619Y-137452219D01*
X132047619Y-137452219D02*
X132047619Y-136452219D01*
X132047619Y-136452219D02*
X132523809Y-136452219D01*
X133380952Y-148452219D02*
X133380952Y-147452219D01*
X133952380Y-148452219D02*
X133523809Y-147880790D01*
X133952380Y-147452219D02*
X133380952Y-148023647D01*
X135142857Y-148452219D02*
X135142857Y-147452219D01*
X135142857Y-147452219D02*
X135380952Y-147452219D01*
X135380952Y-147452219D02*
X135523809Y-147499838D01*
X135523809Y-147499838D02*
X135619047Y-147595076D01*
X135619047Y-147595076D02*
X135666666Y-147690314D01*
X135666666Y-147690314D02*
X135714285Y-147880790D01*
X135714285Y-147880790D02*
X135714285Y-148023647D01*
X135714285Y-148023647D02*
X135666666Y-148214123D01*
X135666666Y-148214123D02*
X135619047Y-148309361D01*
X135619047Y-148309361D02*
X135523809Y-148404600D01*
X135523809Y-148404600D02*
X135380952Y-148452219D01*
X135380952Y-148452219D02*
X135142857Y-148452219D01*
X136047619Y-147452219D02*
X136666666Y-147452219D01*
X136666666Y-147452219D02*
X136333333Y-147833171D01*
X136333333Y-147833171D02*
X136476190Y-147833171D01*
X136476190Y-147833171D02*
X136571428Y-147880790D01*
X136571428Y-147880790D02*
X136619047Y-147928409D01*
X136619047Y-147928409D02*
X136666666Y-148023647D01*
X136666666Y-148023647D02*
X136666666Y-148261742D01*
X136666666Y-148261742D02*
X136619047Y-148356980D01*
X136619047Y-148356980D02*
X136571428Y-148404600D01*
X136571428Y-148404600D02*
X136476190Y-148452219D01*
X136476190Y-148452219D02*
X136190476Y-148452219D01*
X136190476Y-148452219D02*
X136095238Y-148404600D01*
X136095238Y-148404600D02*
X136047619Y-148356980D01*
X135214286Y-110452219D02*
X135214286Y-109452219D01*
X135214286Y-109452219D02*
X135785714Y-110452219D01*
X135785714Y-110452219D02*
X135785714Y-109452219D01*
X136833333Y-110356980D02*
X136785714Y-110404600D01*
X136785714Y-110404600D02*
X136642857Y-110452219D01*
X136642857Y-110452219D02*
X136547619Y-110452219D01*
X136547619Y-110452219D02*
X136404762Y-110404600D01*
X136404762Y-110404600D02*
X136309524Y-110309361D01*
X136309524Y-110309361D02*
X136261905Y-110214123D01*
X136261905Y-110214123D02*
X136214286Y-110023647D01*
X136214286Y-110023647D02*
X136214286Y-109880790D01*
X136214286Y-109880790D02*
X136261905Y-109690314D01*
X136261905Y-109690314D02*
X136309524Y-109595076D01*
X136309524Y-109595076D02*
X136404762Y-109499838D01*
X136404762Y-109499838D02*
X136547619Y-109452219D01*
X136547619Y-109452219D02*
X136642857Y-109452219D01*
X136642857Y-109452219D02*
X136785714Y-109499838D01*
X136785714Y-109499838D02*
X136833333Y-109547457D01*
X139761904Y-109928409D02*
X139904761Y-109976028D01*
X139904761Y-109976028D02*
X139952380Y-110023647D01*
X139952380Y-110023647D02*
X139999999Y-110118885D01*
X139999999Y-110118885D02*
X139999999Y-110261742D01*
X139999999Y-110261742D02*
X139952380Y-110356980D01*
X139952380Y-110356980D02*
X139904761Y-110404600D01*
X139904761Y-110404600D02*
X139809523Y-110452219D01*
X139809523Y-110452219D02*
X139428571Y-110452219D01*
X139428571Y-110452219D02*
X139428571Y-109452219D01*
X139428571Y-109452219D02*
X139761904Y-109452219D01*
X139761904Y-109452219D02*
X139857142Y-109499838D01*
X139857142Y-109499838D02*
X139904761Y-109547457D01*
X139904761Y-109547457D02*
X139952380Y-109642695D01*
X139952380Y-109642695D02*
X139952380Y-109737933D01*
X139952380Y-109737933D02*
X139904761Y-109833171D01*
X139904761Y-109833171D02*
X139857142Y-109880790D01*
X139857142Y-109880790D02*
X139761904Y-109928409D01*
X139761904Y-109928409D02*
X139428571Y-109928409D01*
X140619047Y-109976028D02*
X140619047Y-110452219D01*
X140285714Y-109452219D02*
X140619047Y-109976028D01*
X140619047Y-109976028D02*
X140952380Y-109452219D01*
X141285714Y-110452219D02*
X141285714Y-109452219D01*
X141285714Y-109452219D02*
X141666666Y-109452219D01*
X141666666Y-109452219D02*
X141761904Y-109499838D01*
X141761904Y-109499838D02*
X141809523Y-109547457D01*
X141809523Y-109547457D02*
X141857142Y-109642695D01*
X141857142Y-109642695D02*
X141857142Y-109785552D01*
X141857142Y-109785552D02*
X141809523Y-109880790D01*
X141809523Y-109880790D02*
X141761904Y-109928409D01*
X141761904Y-109928409D02*
X141666666Y-109976028D01*
X141666666Y-109976028D02*
X141285714Y-109976028D01*
X142238095Y-110166504D02*
X142714285Y-110166504D01*
X142142857Y-110452219D02*
X142476190Y-109452219D01*
X142476190Y-109452219D02*
X142809523Y-110452219D01*
X143095238Y-110404600D02*
X143238095Y-110452219D01*
X143238095Y-110452219D02*
X143476190Y-110452219D01*
X143476190Y-110452219D02*
X143571428Y-110404600D01*
X143571428Y-110404600D02*
X143619047Y-110356980D01*
X143619047Y-110356980D02*
X143666666Y-110261742D01*
X143666666Y-110261742D02*
X143666666Y-110166504D01*
X143666666Y-110166504D02*
X143619047Y-110071266D01*
X143619047Y-110071266D02*
X143571428Y-110023647D01*
X143571428Y-110023647D02*
X143476190Y-109976028D01*
X143476190Y-109976028D02*
X143285714Y-109928409D01*
X143285714Y-109928409D02*
X143190476Y-109880790D01*
X143190476Y-109880790D02*
X143142857Y-109833171D01*
X143142857Y-109833171D02*
X143095238Y-109737933D01*
X143095238Y-109737933D02*
X143095238Y-109642695D01*
X143095238Y-109642695D02*
X143142857Y-109547457D01*
X143142857Y-109547457D02*
X143190476Y-109499838D01*
X143190476Y-109499838D02*
X143285714Y-109452219D01*
X143285714Y-109452219D02*
X143523809Y-109452219D01*
X143523809Y-109452219D02*
X143666666Y-109499838D01*
X144047619Y-110404600D02*
X144190476Y-110452219D01*
X144190476Y-110452219D02*
X144428571Y-110452219D01*
X144428571Y-110452219D02*
X144523809Y-110404600D01*
X144523809Y-110404600D02*
X144571428Y-110356980D01*
X144571428Y-110356980D02*
X144619047Y-110261742D01*
X144619047Y-110261742D02*
X144619047Y-110166504D01*
X144619047Y-110166504D02*
X144571428Y-110071266D01*
X144571428Y-110071266D02*
X144523809Y-110023647D01*
X144523809Y-110023647D02*
X144428571Y-109976028D01*
X144428571Y-109976028D02*
X144238095Y-109928409D01*
X144238095Y-109928409D02*
X144142857Y-109880790D01*
X144142857Y-109880790D02*
X144095238Y-109833171D01*
X144095238Y-109833171D02*
X144047619Y-109737933D01*
X144047619Y-109737933D02*
X144047619Y-109642695D01*
X144047619Y-109642695D02*
X144095238Y-109547457D01*
X144095238Y-109547457D02*
X144142857Y-109499838D01*
X144142857Y-109499838D02*
X144238095Y-109452219D01*
X144238095Y-109452219D02*
X144476190Y-109452219D01*
X144476190Y-109452219D02*
X144619047Y-109499838D01*
X141190476Y-135452219D02*
X141190476Y-134452219D01*
X141190476Y-134452219D02*
X141761904Y-135452219D01*
X141761904Y-135452219D02*
X141761904Y-134452219D01*
X142428571Y-134452219D02*
X142619047Y-134452219D01*
X142619047Y-134452219D02*
X142714285Y-134499838D01*
X142714285Y-134499838D02*
X142809523Y-134595076D01*
X142809523Y-134595076D02*
X142857142Y-134785552D01*
X142857142Y-134785552D02*
X142857142Y-135118885D01*
X142857142Y-135118885D02*
X142809523Y-135309361D01*
X142809523Y-135309361D02*
X142714285Y-135404600D01*
X142714285Y-135404600D02*
X142619047Y-135452219D01*
X142619047Y-135452219D02*
X142428571Y-135452219D01*
X142428571Y-135452219D02*
X142333333Y-135404600D01*
X142333333Y-135404600D02*
X142238095Y-135309361D01*
X142238095Y-135309361D02*
X142190476Y-135118885D01*
X142190476Y-135118885D02*
X142190476Y-134785552D01*
X142190476Y-134785552D02*
X142238095Y-134595076D01*
X142238095Y-134595076D02*
X142333333Y-134499838D01*
X142333333Y-134499838D02*
X142428571Y-134452219D01*
X144357142Y-107452219D02*
X144357142Y-108261742D01*
X144357142Y-108261742D02*
X144404761Y-108356980D01*
X144404761Y-108356980D02*
X144452380Y-108404600D01*
X144452380Y-108404600D02*
X144547618Y-108452219D01*
X144547618Y-108452219D02*
X144738094Y-108452219D01*
X144738094Y-108452219D02*
X144833332Y-108404600D01*
X144833332Y-108404600D02*
X144880951Y-108356980D01*
X144880951Y-108356980D02*
X144928570Y-108261742D01*
X144928570Y-108261742D02*
X144928570Y-107452219D01*
X145357142Y-108404600D02*
X145499999Y-108452219D01*
X145499999Y-108452219D02*
X145738094Y-108452219D01*
X145738094Y-108452219D02*
X145833332Y-108404600D01*
X145833332Y-108404600D02*
X145880951Y-108356980D01*
X145880951Y-108356980D02*
X145928570Y-108261742D01*
X145928570Y-108261742D02*
X145928570Y-108166504D01*
X145928570Y-108166504D02*
X145880951Y-108071266D01*
X145880951Y-108071266D02*
X145833332Y-108023647D01*
X145833332Y-108023647D02*
X145738094Y-107976028D01*
X145738094Y-107976028D02*
X145547618Y-107928409D01*
X145547618Y-107928409D02*
X145452380Y-107880790D01*
X145452380Y-107880790D02*
X145404761Y-107833171D01*
X145404761Y-107833171D02*
X145357142Y-107737933D01*
X145357142Y-107737933D02*
X145357142Y-107642695D01*
X145357142Y-107642695D02*
X145404761Y-107547457D01*
X145404761Y-107547457D02*
X145452380Y-107499838D01*
X145452380Y-107499838D02*
X145547618Y-107452219D01*
X145547618Y-107452219D02*
X145785713Y-107452219D01*
X145785713Y-107452219D02*
X145928570Y-107499838D01*
X146690475Y-107928409D02*
X146833332Y-107976028D01*
X146833332Y-107976028D02*
X146880951Y-108023647D01*
X146880951Y-108023647D02*
X146928570Y-108118885D01*
X146928570Y-108118885D02*
X146928570Y-108261742D01*
X146928570Y-108261742D02*
X146880951Y-108356980D01*
X146880951Y-108356980D02*
X146833332Y-108404600D01*
X146833332Y-108404600D02*
X146738094Y-108452219D01*
X146738094Y-108452219D02*
X146357142Y-108452219D01*
X146357142Y-108452219D02*
X146357142Y-107452219D01*
X146357142Y-107452219D02*
X146690475Y-107452219D01*
X146690475Y-107452219D02*
X146785713Y-107499838D01*
X146785713Y-107499838D02*
X146833332Y-107547457D01*
X146833332Y-107547457D02*
X146880951Y-107642695D01*
X146880951Y-107642695D02*
X146880951Y-107737933D01*
X146880951Y-107737933D02*
X146833332Y-107833171D01*
X146833332Y-107833171D02*
X146785713Y-107880790D01*
X146785713Y-107880790D02*
X146690475Y-107928409D01*
X146690475Y-107928409D02*
X146357142Y-107928409D01*
X148119047Y-108452219D02*
X148119047Y-107452219D01*
X148119047Y-107452219D02*
X148357142Y-107452219D01*
X148357142Y-107452219D02*
X148499999Y-107499838D01*
X148499999Y-107499838D02*
X148595237Y-107595076D01*
X148595237Y-107595076D02*
X148642856Y-107690314D01*
X148642856Y-107690314D02*
X148690475Y-107880790D01*
X148690475Y-107880790D02*
X148690475Y-108023647D01*
X148690475Y-108023647D02*
X148642856Y-108214123D01*
X148642856Y-108214123D02*
X148595237Y-108309361D01*
X148595237Y-108309361D02*
X148499999Y-108404600D01*
X148499999Y-108404600D02*
X148357142Y-108452219D01*
X148357142Y-108452219D02*
X148119047Y-108452219D01*
X149071428Y-108166504D02*
X149547618Y-108166504D01*
X148976190Y-108452219D02*
X149309523Y-107452219D01*
X149309523Y-107452219D02*
X149642856Y-108452219D01*
X149833333Y-107452219D02*
X150404761Y-107452219D01*
X150119047Y-108452219D02*
X150119047Y-107452219D01*
X150690476Y-108166504D02*
X151166666Y-108166504D01*
X150595238Y-108452219D02*
X150928571Y-107452219D01*
X150928571Y-107452219D02*
X151261904Y-108452219D01*
X152547619Y-107452219D02*
X152738095Y-107452219D01*
X152738095Y-107452219D02*
X152833333Y-107499838D01*
X152833333Y-107499838D02*
X152928571Y-107595076D01*
X152928571Y-107595076D02*
X152976190Y-107785552D01*
X152976190Y-107785552D02*
X152976190Y-108118885D01*
X152976190Y-108118885D02*
X152928571Y-108309361D01*
X152928571Y-108309361D02*
X152833333Y-108404600D01*
X152833333Y-108404600D02*
X152738095Y-108452219D01*
X152738095Y-108452219D02*
X152547619Y-108452219D01*
X152547619Y-108452219D02*
X152452381Y-108404600D01*
X152452381Y-108404600D02*
X152357143Y-108309361D01*
X152357143Y-108309361D02*
X152309524Y-108118885D01*
X152309524Y-108118885D02*
X152309524Y-107785552D01*
X152309524Y-107785552D02*
X152357143Y-107595076D01*
X152357143Y-107595076D02*
X152452381Y-107499838D01*
X152452381Y-107499838D02*
X152547619Y-107452219D01*
X153404762Y-108452219D02*
X153404762Y-107452219D01*
X153404762Y-107452219D02*
X153976190Y-108452219D01*
X153976190Y-108452219D02*
X153976190Y-107452219D01*
X154928571Y-108452219D02*
X154452381Y-108452219D01*
X154452381Y-108452219D02*
X154452381Y-107452219D01*
X155452381Y-107976028D02*
X155452381Y-108452219D01*
X155119048Y-107452219D02*
X155452381Y-107976028D01*
X155452381Y-107976028D02*
X155785714Y-107452219D01*
X187761905Y-128152219D02*
X187761905Y-127152219D01*
X187761905Y-127152219D02*
X188142857Y-127152219D01*
X188142857Y-127152219D02*
X188238095Y-127199838D01*
X188238095Y-127199838D02*
X188285714Y-127247457D01*
X188285714Y-127247457D02*
X188333333Y-127342695D01*
X188333333Y-127342695D02*
X188333333Y-127485552D01*
X188333333Y-127485552D02*
X188285714Y-127580790D01*
X188285714Y-127580790D02*
X188238095Y-127628409D01*
X188238095Y-127628409D02*
X188142857Y-127676028D01*
X188142857Y-127676028D02*
X187761905Y-127676028D01*
X189285714Y-128152219D02*
X188714286Y-128152219D01*
X189000000Y-128152219D02*
X189000000Y-127152219D01*
X189000000Y-127152219D02*
X188904762Y-127295076D01*
X188904762Y-127295076D02*
X188809524Y-127390314D01*
X188809524Y-127390314D02*
X188714286Y-127437933D01*
X188999999Y-121452219D02*
X188523809Y-121452219D01*
X188523809Y-121452219D02*
X188523809Y-120452219D01*
X189333333Y-120928409D02*
X189666666Y-120928409D01*
X189809523Y-121452219D02*
X189333333Y-121452219D01*
X189333333Y-121452219D02*
X189333333Y-120452219D01*
X189333333Y-120452219D02*
X189809523Y-120452219D01*
X190238095Y-121452219D02*
X190238095Y-120452219D01*
X190238095Y-120452219D02*
X190476190Y-120452219D01*
X190476190Y-120452219D02*
X190619047Y-120499838D01*
X190619047Y-120499838D02*
X190714285Y-120595076D01*
X190714285Y-120595076D02*
X190761904Y-120690314D01*
X190761904Y-120690314D02*
X190809523Y-120880790D01*
X190809523Y-120880790D02*
X190809523Y-121023647D01*
X190809523Y-121023647D02*
X190761904Y-121214123D01*
X190761904Y-121214123D02*
X190714285Y-121309361D01*
X190714285Y-121309361D02*
X190619047Y-121404600D01*
X190619047Y-121404600D02*
X190476190Y-121452219D01*
X190476190Y-121452219D02*
X190238095Y-121452219D01*
X191761904Y-121452219D02*
X191190476Y-121452219D01*
X191476190Y-121452219D02*
X191476190Y-120452219D01*
X191476190Y-120452219D02*
X191380952Y-120595076D01*
X191380952Y-120595076D02*
X191285714Y-120690314D01*
X191285714Y-120690314D02*
X191190476Y-120737933D01*
X192952381Y-121452219D02*
X192952381Y-120452219D01*
X193523809Y-121452219D02*
X193095238Y-120880790D01*
X193523809Y-120452219D02*
X192952381Y-121023647D01*
X123452219Y-109880951D02*
X122452219Y-109880951D01*
X122452219Y-109880951D02*
X122452219Y-109499999D01*
X122452219Y-109499999D02*
X122499838Y-109404761D01*
X122499838Y-109404761D02*
X122547457Y-109357142D01*
X122547457Y-109357142D02*
X122642695Y-109309523D01*
X122642695Y-109309523D02*
X122785552Y-109309523D01*
X122785552Y-109309523D02*
X122880790Y-109357142D01*
X122880790Y-109357142D02*
X122928409Y-109404761D01*
X122928409Y-109404761D02*
X122976028Y-109499999D01*
X122976028Y-109499999D02*
X122976028Y-109880951D01*
X123452219Y-108880951D02*
X122452219Y-108880951D01*
X123452219Y-108404761D02*
X122452219Y-108404761D01*
X122452219Y-108404761D02*
X123452219Y-107833333D01*
X123452219Y-107833333D02*
X122452219Y-107833333D01*
X123452219Y-106071428D02*
X123452219Y-106642856D01*
X123452219Y-106357142D02*
X122452219Y-106357142D01*
X122452219Y-106357142D02*
X122595076Y-106452380D01*
X122595076Y-106452380D02*
X122690314Y-106547618D01*
X122690314Y-106547618D02*
X122737933Y-106642856D01*
X123356980Y-117595238D02*
X123404600Y-117642857D01*
X123404600Y-117642857D02*
X123452219Y-117785714D01*
X123452219Y-117785714D02*
X123452219Y-117880952D01*
X123452219Y-117880952D02*
X123404600Y-118023809D01*
X123404600Y-118023809D02*
X123309361Y-118119047D01*
X123309361Y-118119047D02*
X123214123Y-118166666D01*
X123214123Y-118166666D02*
X123023647Y-118214285D01*
X123023647Y-118214285D02*
X122880790Y-118214285D01*
X122880790Y-118214285D02*
X122690314Y-118166666D01*
X122690314Y-118166666D02*
X122595076Y-118119047D01*
X122595076Y-118119047D02*
X122499838Y-118023809D01*
X122499838Y-118023809D02*
X122452219Y-117880952D01*
X122452219Y-117880952D02*
X122452219Y-117785714D01*
X122452219Y-117785714D02*
X122499838Y-117642857D01*
X122499838Y-117642857D02*
X122547457Y-117595238D01*
X122452219Y-116976190D02*
X122452219Y-116785714D01*
X122452219Y-116785714D02*
X122499838Y-116690476D01*
X122499838Y-116690476D02*
X122595076Y-116595238D01*
X122595076Y-116595238D02*
X122785552Y-116547619D01*
X122785552Y-116547619D02*
X123118885Y-116547619D01*
X123118885Y-116547619D02*
X123309361Y-116595238D01*
X123309361Y-116595238D02*
X123404600Y-116690476D01*
X123404600Y-116690476D02*
X123452219Y-116785714D01*
X123452219Y-116785714D02*
X123452219Y-116976190D01*
X123452219Y-116976190D02*
X123404600Y-117071428D01*
X123404600Y-117071428D02*
X123309361Y-117166666D01*
X123309361Y-117166666D02*
X123118885Y-117214285D01*
X123118885Y-117214285D02*
X122785552Y-117214285D01*
X122785552Y-117214285D02*
X122595076Y-117166666D01*
X122595076Y-117166666D02*
X122499838Y-117071428D01*
X122499838Y-117071428D02*
X122452219Y-116976190D01*
X123452219Y-116119047D02*
X122452219Y-116119047D01*
X122452219Y-116119047D02*
X123452219Y-115547619D01*
X123452219Y-115547619D02*
X122452219Y-115547619D01*
X123404600Y-115119047D02*
X123452219Y-114976190D01*
X123452219Y-114976190D02*
X123452219Y-114738095D01*
X123452219Y-114738095D02*
X123404600Y-114642857D01*
X123404600Y-114642857D02*
X123356980Y-114595238D01*
X123356980Y-114595238D02*
X123261742Y-114547619D01*
X123261742Y-114547619D02*
X123166504Y-114547619D01*
X123166504Y-114547619D02*
X123071266Y-114595238D01*
X123071266Y-114595238D02*
X123023647Y-114642857D01*
X123023647Y-114642857D02*
X122976028Y-114738095D01*
X122976028Y-114738095D02*
X122928409Y-114928571D01*
X122928409Y-114928571D02*
X122880790Y-115023809D01*
X122880790Y-115023809D02*
X122833171Y-115071428D01*
X122833171Y-115071428D02*
X122737933Y-115119047D01*
X122737933Y-115119047D02*
X122642695Y-115119047D01*
X122642695Y-115119047D02*
X122547457Y-115071428D01*
X122547457Y-115071428D02*
X122499838Y-115023809D01*
X122499838Y-115023809D02*
X122452219Y-114928571D01*
X122452219Y-114928571D02*
X122452219Y-114690476D01*
X122452219Y-114690476D02*
X122499838Y-114547619D01*
X122452219Y-113928571D02*
X122452219Y-113738095D01*
X122452219Y-113738095D02*
X122499838Y-113642857D01*
X122499838Y-113642857D02*
X122595076Y-113547619D01*
X122595076Y-113547619D02*
X122785552Y-113500000D01*
X122785552Y-113500000D02*
X123118885Y-113500000D01*
X123118885Y-113500000D02*
X123309361Y-113547619D01*
X123309361Y-113547619D02*
X123404600Y-113642857D01*
X123404600Y-113642857D02*
X123452219Y-113738095D01*
X123452219Y-113738095D02*
X123452219Y-113928571D01*
X123452219Y-113928571D02*
X123404600Y-114023809D01*
X123404600Y-114023809D02*
X123309361Y-114119047D01*
X123309361Y-114119047D02*
X123118885Y-114166666D01*
X123118885Y-114166666D02*
X122785552Y-114166666D01*
X122785552Y-114166666D02*
X122595076Y-114119047D01*
X122595076Y-114119047D02*
X122499838Y-114023809D01*
X122499838Y-114023809D02*
X122452219Y-113928571D01*
X123452219Y-112595238D02*
X123452219Y-113071428D01*
X123452219Y-113071428D02*
X122452219Y-113071428D01*
X122928409Y-112261904D02*
X122928409Y-111928571D01*
X123452219Y-111785714D02*
X123452219Y-112261904D01*
X123452219Y-112261904D02*
X122452219Y-112261904D01*
X122452219Y-112261904D02*
X122452219Y-111785714D01*
X126952219Y-149619047D02*
X125952219Y-149619047D01*
X125952219Y-149619047D02*
X125952219Y-149380952D01*
X125952219Y-149380952D02*
X125999838Y-149238095D01*
X125999838Y-149238095D02*
X126095076Y-149142857D01*
X126095076Y-149142857D02*
X126190314Y-149095238D01*
X126190314Y-149095238D02*
X126380790Y-149047619D01*
X126380790Y-149047619D02*
X126523647Y-149047619D01*
X126523647Y-149047619D02*
X126714123Y-149095238D01*
X126714123Y-149095238D02*
X126809361Y-149142857D01*
X126809361Y-149142857D02*
X126904600Y-149238095D01*
X126904600Y-149238095D02*
X126952219Y-149380952D01*
X126952219Y-149380952D02*
X126952219Y-149619047D01*
X126952219Y-148095238D02*
X126952219Y-148666666D01*
X126952219Y-148380952D02*
X125952219Y-148380952D01*
X125952219Y-148380952D02*
X126095076Y-148476190D01*
X126095076Y-148476190D02*
X126190314Y-148571428D01*
X126190314Y-148571428D02*
X126237933Y-148666666D01*
X126952219Y-146904761D02*
X125952219Y-146904761D01*
X126952219Y-146333333D02*
X126380790Y-146761904D01*
X125952219Y-146333333D02*
X126523647Y-146904761D01*
X173052219Y-142861904D02*
X172052219Y-142861904D01*
X172052219Y-142861904D02*
X172766504Y-142528571D01*
X172766504Y-142528571D02*
X172052219Y-142195238D01*
X172052219Y-142195238D02*
X173052219Y-142195238D01*
X172052219Y-141528571D02*
X172052219Y-141338095D01*
X172052219Y-141338095D02*
X172099838Y-141242857D01*
X172099838Y-141242857D02*
X172195076Y-141147619D01*
X172195076Y-141147619D02*
X172385552Y-141100000D01*
X172385552Y-141100000D02*
X172718885Y-141100000D01*
X172718885Y-141100000D02*
X172909361Y-141147619D01*
X172909361Y-141147619D02*
X173004600Y-141242857D01*
X173004600Y-141242857D02*
X173052219Y-141338095D01*
X173052219Y-141338095D02*
X173052219Y-141528571D01*
X173052219Y-141528571D02*
X173004600Y-141623809D01*
X173004600Y-141623809D02*
X172909361Y-141719047D01*
X172909361Y-141719047D02*
X172718885Y-141766666D01*
X172718885Y-141766666D02*
X172385552Y-141766666D01*
X172385552Y-141766666D02*
X172195076Y-141719047D01*
X172195076Y-141719047D02*
X172099838Y-141623809D01*
X172099838Y-141623809D02*
X172052219Y-141528571D01*
X172052219Y-140814285D02*
X172052219Y-140242857D01*
X173052219Y-140528571D02*
X172052219Y-140528571D01*
X172052219Y-139719047D02*
X172052219Y-139528571D01*
X172052219Y-139528571D02*
X172099838Y-139433333D01*
X172099838Y-139433333D02*
X172195076Y-139338095D01*
X172195076Y-139338095D02*
X172385552Y-139290476D01*
X172385552Y-139290476D02*
X172718885Y-139290476D01*
X172718885Y-139290476D02*
X172909361Y-139338095D01*
X172909361Y-139338095D02*
X173004600Y-139433333D01*
X173004600Y-139433333D02*
X173052219Y-139528571D01*
X173052219Y-139528571D02*
X173052219Y-139719047D01*
X173052219Y-139719047D02*
X173004600Y-139814285D01*
X173004600Y-139814285D02*
X172909361Y-139909523D01*
X172909361Y-139909523D02*
X172718885Y-139957142D01*
X172718885Y-139957142D02*
X172385552Y-139957142D01*
X172385552Y-139957142D02*
X172195076Y-139909523D01*
X172195076Y-139909523D02*
X172099838Y-139814285D01*
X172099838Y-139814285D02*
X172052219Y-139719047D01*
X173052219Y-138290476D02*
X172576028Y-138623809D01*
X173052219Y-138861904D02*
X172052219Y-138861904D01*
X172052219Y-138861904D02*
X172052219Y-138480952D01*
X172052219Y-138480952D02*
X172099838Y-138385714D01*
X172099838Y-138385714D02*
X172147457Y-138338095D01*
X172147457Y-138338095D02*
X172242695Y-138290476D01*
X172242695Y-138290476D02*
X172385552Y-138290476D01*
X172385552Y-138290476D02*
X172480790Y-138338095D01*
X172480790Y-138338095D02*
X172528409Y-138385714D01*
X172528409Y-138385714D02*
X172576028Y-138480952D01*
X172576028Y-138480952D02*
X172576028Y-138861904D01*
X151228572Y-102916171D02*
X151628572Y-102916171D01*
X151800000Y-103544742D02*
X151228572Y-103544742D01*
X151228572Y-103544742D02*
X151228572Y-102344742D01*
X151228572Y-102344742D02*
X151800000Y-102344742D01*
X152257143Y-103487600D02*
X152371429Y-103544742D01*
X152371429Y-103544742D02*
X152600000Y-103544742D01*
X152600000Y-103544742D02*
X152714286Y-103487600D01*
X152714286Y-103487600D02*
X152771429Y-103373314D01*
X152771429Y-103373314D02*
X152771429Y-103316171D01*
X152771429Y-103316171D02*
X152714286Y-103201885D01*
X152714286Y-103201885D02*
X152600000Y-103144742D01*
X152600000Y-103144742D02*
X152428572Y-103144742D01*
X152428572Y-103144742D02*
X152314286Y-103087600D01*
X152314286Y-103087600D02*
X152257143Y-102973314D01*
X152257143Y-102973314D02*
X152257143Y-102916171D01*
X152257143Y-102916171D02*
X152314286Y-102801885D01*
X152314286Y-102801885D02*
X152428572Y-102744742D01*
X152428572Y-102744742D02*
X152600000Y-102744742D01*
X152600000Y-102744742D02*
X152714286Y-102801885D01*
X153285715Y-102744742D02*
X153285715Y-103944742D01*
X153285715Y-102801885D02*
X153400001Y-102744742D01*
X153400001Y-102744742D02*
X153628572Y-102744742D01*
X153628572Y-102744742D02*
X153742858Y-102801885D01*
X153742858Y-102801885D02*
X153800001Y-102859028D01*
X153800001Y-102859028D02*
X153857143Y-102973314D01*
X153857143Y-102973314D02*
X153857143Y-103316171D01*
X153857143Y-103316171D02*
X153800001Y-103430457D01*
X153800001Y-103430457D02*
X153742858Y-103487600D01*
X153742858Y-103487600D02*
X153628572Y-103544742D01*
X153628572Y-103544742D02*
X153400001Y-103544742D01*
X153400001Y-103544742D02*
X153285715Y-103487600D01*
X154257143Y-102344742D02*
X155000000Y-102344742D01*
X155000000Y-102344742D02*
X154600000Y-102801885D01*
X154600000Y-102801885D02*
X154771429Y-102801885D01*
X154771429Y-102801885D02*
X154885715Y-102859028D01*
X154885715Y-102859028D02*
X154942857Y-102916171D01*
X154942857Y-102916171D02*
X155000000Y-103030457D01*
X155000000Y-103030457D02*
X155000000Y-103316171D01*
X155000000Y-103316171D02*
X154942857Y-103430457D01*
X154942857Y-103430457D02*
X154885715Y-103487600D01*
X154885715Y-103487600D02*
X154771429Y-103544742D01*
X154771429Y-103544742D02*
X154428572Y-103544742D01*
X154428572Y-103544742D02*
X154314286Y-103487600D01*
X154314286Y-103487600D02*
X154257143Y-103430457D01*
X155457143Y-102459028D02*
X155514286Y-102401885D01*
X155514286Y-102401885D02*
X155628572Y-102344742D01*
X155628572Y-102344742D02*
X155914286Y-102344742D01*
X155914286Y-102344742D02*
X156028572Y-102401885D01*
X156028572Y-102401885D02*
X156085714Y-102459028D01*
X156085714Y-102459028D02*
X156142857Y-102573314D01*
X156142857Y-102573314D02*
X156142857Y-102687600D01*
X156142857Y-102687600D02*
X156085714Y-102859028D01*
X156085714Y-102859028D02*
X155400000Y-103544742D01*
X155400000Y-103544742D02*
X156142857Y-103544742D01*
X156485714Y-102344742D02*
X157171429Y-102344742D01*
X156828571Y-103544742D02*
X156828571Y-102344742D01*
X158085715Y-103544742D02*
X158085715Y-102916171D01*
X158085715Y-102916171D02*
X158028572Y-102801885D01*
X158028572Y-102801885D02*
X157914286Y-102744742D01*
X157914286Y-102744742D02*
X157685715Y-102744742D01*
X157685715Y-102744742D02*
X157571429Y-102801885D01*
X158085715Y-103487600D02*
X157971429Y-103544742D01*
X157971429Y-103544742D02*
X157685715Y-103544742D01*
X157685715Y-103544742D02*
X157571429Y-103487600D01*
X157571429Y-103487600D02*
X157514286Y-103373314D01*
X157514286Y-103373314D02*
X157514286Y-103259028D01*
X157514286Y-103259028D02*
X157571429Y-103144742D01*
X157571429Y-103144742D02*
X157685715Y-103087600D01*
X157685715Y-103087600D02*
X157971429Y-103087600D01*
X157971429Y-103087600D02*
X158085715Y-103030457D01*
X158657143Y-102744742D02*
X158657143Y-103944742D01*
X158657143Y-102801885D02*
X158771429Y-102744742D01*
X158771429Y-102744742D02*
X159000000Y-102744742D01*
X159000000Y-102744742D02*
X159114286Y-102801885D01*
X159114286Y-102801885D02*
X159171429Y-102859028D01*
X159171429Y-102859028D02*
X159228571Y-102973314D01*
X159228571Y-102973314D02*
X159228571Y-103316171D01*
X159228571Y-103316171D02*
X159171429Y-103430457D01*
X159171429Y-103430457D02*
X159114286Y-103487600D01*
X159114286Y-103487600D02*
X159000000Y-103544742D01*
X159000000Y-103544742D02*
X158771429Y-103544742D01*
X158771429Y-103544742D02*
X158657143Y-103487600D01*
X160657143Y-103544742D02*
X160657143Y-102744742D01*
X160657143Y-102973314D02*
X160714286Y-102859028D01*
X160714286Y-102859028D02*
X160771429Y-102801885D01*
X160771429Y-102801885D02*
X160885714Y-102744742D01*
X160885714Y-102744742D02*
X161000000Y-102744742D01*
X161857143Y-103487600D02*
X161742857Y-103544742D01*
X161742857Y-103544742D02*
X161514286Y-103544742D01*
X161514286Y-103544742D02*
X161400000Y-103487600D01*
X161400000Y-103487600D02*
X161342857Y-103373314D01*
X161342857Y-103373314D02*
X161342857Y-102916171D01*
X161342857Y-102916171D02*
X161400000Y-102801885D01*
X161400000Y-102801885D02*
X161514286Y-102744742D01*
X161514286Y-102744742D02*
X161742857Y-102744742D01*
X161742857Y-102744742D02*
X161857143Y-102801885D01*
X161857143Y-102801885D02*
X161914286Y-102916171D01*
X161914286Y-102916171D02*
X161914286Y-103030457D01*
X161914286Y-103030457D02*
X161342857Y-103144742D01*
X162314285Y-102744742D02*
X162599999Y-103544742D01*
X162599999Y-103544742D02*
X162885714Y-102744742D01*
X164257143Y-102916171D02*
X164657143Y-102916171D01*
X164828571Y-103544742D02*
X164257143Y-103544742D01*
X164257143Y-103544742D02*
X164257143Y-102344742D01*
X164257143Y-102344742D02*
X164828571Y-102344742D01*
M02*
