%TF.GenerationSoftware,KiCad,Pcbnew,10.0.1-10.0.1~ubuntu24.04.1*%
%TF.CreationDate,1970-01-01T00:00:00+00:00*%
%TF.ProjectId,Esp32Tap,45737033-3254-4617-902e-6b696361645f,B*%
%TF.SameCoordinates,Original*%
%TF.FileFunction,Copper,L1,Top*%
%TF.FilePolarity,Positive*%
%FSLAX46Y46*%
G04 Gerber Fmt 4.6, Leading zero omitted, Abs format (unit mm)*
G04 Created by KiCad (PCBNEW 10.0.1-10.0.1~ubuntu24.04.1) date 1970-01-01 00:00:00*
%MOMM*%
%LPD*%
G01*
G04 APERTURE LIST*
G04 Aperture macros list*
%AMRoundRect*
0 Rectangle with rounded corners*
0 $1 Rounding radius*
0 $2 $3 $4 $5 $6 $7 $8 $9 X,Y pos of 4 corners*
0 Add a 4 corners polygon primitive as box body*
4,1,4,$2,$3,$4,$5,$6,$7,$8,$9,$2,$3,0*
0 Add four circle primitives for the rounded corners*
1,1,$1+$1,$2,$3*
1,1,$1+$1,$4,$5*
1,1,$1+$1,$6,$7*
1,1,$1+$1,$8,$9*
0 Add four rect primitives between the rounded corners*
20,1,$1+$1,$2,$3,$4,$5,0*
20,1,$1+$1,$4,$5,$6,$7,0*
20,1,$1+$1,$6,$7,$8,$9,0*
20,1,$1+$1,$8,$9,$2,$3,0*%
G04 Aperture macros list end*
%TA.AperFunction,SMDPad,CuDef*%
%ADD10R,1.500000X1.500000*%
%TD*%
%TA.AperFunction,SMDPad,CuDef*%
%ADD11RoundRect,0.250000X-0.325000X-1.100000X0.325000X-1.100000X0.325000X1.100000X-0.325000X1.100000X0*%
%TD*%
%TA.AperFunction,SMDPad,CuDef*%
%ADD12RoundRect,0.250000X-0.325000X-0.650000X0.325000X-0.650000X0.325000X0.650000X-0.325000X0.650000X0*%
%TD*%
%TA.AperFunction,SMDPad,CuDef*%
%ADD13RoundRect,0.250000X-1.000000X-0.900000X1.000000X-0.900000X1.000000X0.900000X-1.000000X0.900000X0*%
%TD*%
%TA.AperFunction,SMDPad,CuDef*%
%ADD14RoundRect,0.250000X1.000000X0.650000X-1.000000X0.650000X-1.000000X-0.650000X1.000000X-0.650000X0*%
%TD*%
%TA.AperFunction,SMDPad,CuDef*%
%ADD15RoundRect,0.200000X0.200000X0.275000X-0.200000X0.275000X-0.200000X-0.275000X0.200000X-0.275000X0*%
%TD*%
%TA.AperFunction,SMDPad,CuDef*%
%ADD16RoundRect,0.225000X-0.225000X-0.250000X0.225000X-0.250000X0.225000X0.250000X-0.225000X0.250000X0*%
%TD*%
%TA.AperFunction,ComponentPad*%
%ADD17R,1.500000X1.500000*%
%TD*%
%TA.AperFunction,ComponentPad*%
%ADD18C,1.500000*%
%TD*%
%TA.AperFunction,SMDPad,CuDef*%
%ADD19RoundRect,0.200000X0.275000X-0.200000X0.275000X0.200000X-0.275000X0.200000X-0.275000X-0.200000X0*%
%TD*%
%TA.AperFunction,SMDPad,CuDef*%
%ADD20RoundRect,0.112500X-0.112500X0.187500X-0.112500X-0.187500X0.112500X-0.187500X0.112500X0.187500X0*%
%TD*%
%TA.AperFunction,SMDPad,CuDef*%
%ADD21RoundRect,0.200000X-0.200000X-0.275000X0.200000X-0.275000X0.200000X0.275000X-0.200000X0.275000X0*%
%TD*%
%TA.AperFunction,SMDPad,CuDef*%
%ADD22R,1.500000X0.900000*%
%TD*%
%TA.AperFunction,SMDPad,CuDef*%
%ADD23R,0.900000X1.500000*%
%TD*%
%TA.AperFunction,HeatsinkPad*%
%ADD24C,0.600000*%
%TD*%
%TA.AperFunction,HeatsinkPad*%
%ADD25R,3.900000X3.900000*%
%TD*%
%TA.AperFunction,SMDPad,CuDef*%
%ADD26RoundRect,0.218750X-0.218750X-0.256250X0.218750X-0.256250X0.218750X0.256250X-0.218750X0.256250X0*%
%TD*%
%TA.AperFunction,SMDPad,CuDef*%
%ADD27RoundRect,0.150000X-0.512500X-0.150000X0.512500X-0.150000X0.512500X0.150000X-0.512500X0.150000X0*%
%TD*%
%TA.AperFunction,SMDPad,CuDef*%
%ADD28RoundRect,0.150000X0.512500X0.150000X-0.512500X0.150000X-0.512500X-0.150000X0.512500X-0.150000X0*%
%TD*%
%TA.AperFunction,SMDPad,CuDef*%
%ADD29RoundRect,0.150000X-0.587500X-0.150000X0.587500X-0.150000X0.587500X0.150000X-0.587500X0.150000X0*%
%TD*%
%TA.AperFunction,SMDPad,CuDef*%
%ADD30RoundRect,0.200000X-0.275000X0.200000X-0.275000X-0.200000X0.275000X-0.200000X0.275000X0.200000X0*%
%TD*%
%TA.AperFunction,SMDPad,CuDef*%
%ADD31RoundRect,0.250000X-1.500000X-0.550000X1.500000X-0.550000X1.500000X0.550000X-1.500000X0.550000X0*%
%TD*%
%TA.AperFunction,SMDPad,CuDef*%
%ADD32RoundRect,0.250000X-0.300000X-1.600000X0.300000X-1.600000X0.300000X1.600000X-0.300000X1.600000X0*%
%TD*%
%TA.AperFunction,SMDPad,CuDef*%
%ADD33RoundRect,0.250000X-0.312500X-1.450000X0.312500X-1.450000X0.312500X1.450000X-0.312500X1.450000X0*%
%TD*%
%TA.AperFunction,SMDPad,CuDef*%
%ADD34R,1.450000X0.600000*%
%TD*%
%TA.AperFunction,SMDPad,CuDef*%
%ADD35R,1.450000X0.300000*%
%TD*%
%TA.AperFunction,HeatsinkPad*%
%ADD36O,2.100000X1.000000*%
%TD*%
%TA.AperFunction,HeatsinkPad*%
%ADD37O,1.600000X1.000000*%
%TD*%
%TA.AperFunction,SMDPad,CuDef*%
%ADD38R,1.800000X0.800000*%
%TD*%
%TA.AperFunction,SMDPad,CuDef*%
%ADD39RoundRect,0.225000X-0.250000X0.225000X-0.250000X-0.225000X0.250000X-0.225000X0.250000X0.225000X0*%
%TD*%
%TA.AperFunction,SMDPad,CuDef*%
%ADD40RoundRect,0.250000X-1.000000X-0.650000X1.000000X-0.650000X1.000000X0.650000X-1.000000X0.650000X0*%
%TD*%
%TA.AperFunction,SMDPad,CuDef*%
%ADD41RoundRect,0.225000X0.250000X-0.225000X0.250000X0.225000X-0.250000X0.225000X-0.250000X-0.225000X0*%
%TD*%
%TA.AperFunction,SMDPad,CuDef*%
%ADD42RoundRect,0.218750X0.218750X0.256250X-0.218750X0.256250X-0.218750X-0.256250X0.218750X-0.256250X0*%
%TD*%
%TA.AperFunction,SMDPad,CuDef*%
%ADD43R,1.600000X0.300000*%
%TD*%
%TA.AperFunction,SMDPad,CuDef*%
%ADD44R,0.900000X1.000000*%
%TD*%
%TA.AperFunction,SMDPad,CuDef*%
%ADD45RoundRect,0.250000X0.475000X-0.250000X0.475000X0.250000X-0.475000X0.250000X-0.475000X-0.250000X0*%
%TD*%
%TA.AperFunction,ViaPad*%
%ADD46C,0.600000*%
%TD*%
%TA.AperFunction,Conductor*%
%ADD47C,0.300000*%
%TD*%
%TA.AperFunction,Conductor*%
%ADD48C,0.250000*%
%TD*%
%TA.AperFunction,Conductor*%
%ADD49C,0.800000*%
%TD*%
%TA.AperFunction,Conductor*%
%ADD50C,0.600000*%
%TD*%
%TA.AperFunction,Conductor*%
%ADD51C,0.200000*%
%TD*%
%TA.AperFunction,Conductor*%
%ADD52C,0.500000*%
%TD*%
%TA.AperFunction,Conductor*%
%ADD53C,0.290600*%
%TD*%
G04 APERTURE END LIST*
D10*
%TO.P,TP8,1*%
%TO.N,RELAY_GATE*%
X163600000Y-136000000D03*
%TD*%
D11*
%TO.P,C6,1*%
%TO.N,+3V3*%
X168525000Y-147000000D03*
%TO.P,C6,2*%
%TO.N,GND*%
X171475000Y-147000000D03*
%TD*%
D12*
%TO.P,C3,1*%
%TO.N,VIN*%
X162025000Y-143500000D03*
%TO.P,C3,2*%
%TO.N,GND*%
X164975000Y-143500000D03*
%TD*%
D13*
%TO.P,D3,1*%
%TO.N,VIN*%
X132850000Y-152000000D03*
%TO.P,D3,2*%
%TO.N,GND*%
X137150000Y-152000000D03*
%TD*%
D14*
%TO.P,D1,1*%
%TO.N,VIN*%
X129500000Y-152500000D03*
%TO.P,D1,2*%
%TO.N,+8V_F*%
X125500000Y-152500000D03*
%TD*%
D15*
%TO.P,R20,1*%
%TO.N,OV_SENSE*%
X141825000Y-142000000D03*
%TO.P,R20,2*%
%TO.N,GND*%
X140175000Y-142000000D03*
%TD*%
D16*
%TO.P,C19,1*%
%TO.N,OV_SENSE*%
X137225000Y-145000000D03*
%TO.P,C19,2*%
%TO.N,GND*%
X138775000Y-145000000D03*
%TD*%
D17*
%TO.P,J1,1*%
%TO.N,GND*%
X112500000Y-108000000D03*
D18*
%TO.P,J1,2*%
%TO.N,+8V_RAW*%
X115040000Y-109270000D03*
%TO.P,J1,3*%
%TO.N,PIN3*%
X112500000Y-110540000D03*
%TO.P,J1,4*%
%TO.N,PIN4_PASS*%
X115040000Y-111810000D03*
%TO.P,J1,5*%
%TO.N,PIN5_SAFETY*%
X112500000Y-113080000D03*
%TO.P,J1,6*%
%TO.N,CONS6*%
X115040000Y-114350000D03*
%TO.P,J1,7*%
%TO.N,GND*%
X112500000Y-115620000D03*
%TO.P,J1,8*%
%TO.N,+8V_RAW*%
X115040000Y-116890000D03*
%TD*%
D19*
%TO.P,R5,1*%
%TO.N,CC2*%
X194000000Y-129825000D03*
%TO.P,R5,2*%
%TO.N,GND*%
X194000000Y-128175000D03*
%TD*%
D20*
%TO.P,D7,1*%
%TO.N,PIN3*%
X119000000Y-136950000D03*
%TO.P,D7,2*%
%TO.N,GND*%
X119000000Y-139050000D03*
%TD*%
D21*
%TO.P,R24,1*%
%TO.N,RELAY_GATE*%
X146175000Y-130000000D03*
%TO.P,R24,2*%
%TO.N,GND*%
X147825000Y-130000000D03*
%TD*%
%TO.P,R29,1*%
%TO.N,VBUS*%
X179175000Y-148000000D03*
%TO.P,R29,2*%
%TO.N,GND*%
X180825000Y-148000000D03*
%TD*%
D19*
%TO.P,R9,1*%
%TO.N,RELAY_GATE*%
X138500000Y-119825000D03*
%TO.P,R9,2*%
%TO.N,Q1_B*%
X138500000Y-118175000D03*
%TD*%
D10*
%TO.P,TP6,1*%
%TO.N,+5V_RLY*%
X157200000Y-136000000D03*
%TD*%
D22*
%TO.P,U1,1*%
%TO.N,GND*%
X169250000Y-101190000D03*
%TO.P,U1,2*%
%TO.N,+3V3*%
X169250000Y-102460000D03*
%TO.P,U1,3*%
%TO.N,EN*%
X169250000Y-103730000D03*
%TO.P,U1,4*%
%TO.N,K1_NC_FB*%
X169250000Y-105000000D03*
%TO.P,U1,5*%
%TO.N,K1_NO_FB*%
X169250000Y-106270000D03*
%TO.P,U1,6*%
%TO.N,TREAD_OK*%
X169250000Y-107540000D03*
%TO.P,U1,7*%
%TO.N,VBUS_PRESENT_N*%
X169250000Y-108810000D03*
%TO.P,U1,8*%
%TO.N,TX_ENABLE*%
X169250000Y-110080000D03*
%TO.P,U1,9*%
%TO.N,PIN3_RX*%
X169250000Y-111350000D03*
%TO.P,U1,10*%
%TO.N,ESP_TX*%
X169250000Y-112620000D03*
%TO.P,U1,11*%
%TO.N,CONS_RX*%
X169250000Y-113890000D03*
%TO.P,U1,12*%
%TO.N,unconnected-(U1-IO8-Pad12)*%
X169250000Y-115160000D03*
%TO.P,U1,13*%
%TO.N,USB_DN_R*%
X169250000Y-116430000D03*
%TO.P,U1,14*%
%TO.N,USB_DP_R*%
X169250000Y-117700000D03*
D23*
%TO.P,U1,15*%
%TO.N,unconnected-(U1-IO3-Pad15)*%
X171015000Y-118950000D03*
%TO.P,U1,16*%
%TO.N,unconnected-(U1-IO46-Pad16)*%
X172285000Y-118950000D03*
%TO.P,U1,17*%
%TO.N,unconnected-(U1-IO9-Pad17)*%
X173555000Y-118950000D03*
%TO.P,U1,18*%
%TO.N,unconnected-(U1-IO10-Pad18)*%
X174825000Y-118950000D03*
%TO.P,U1,19*%
%TO.N,unconnected-(U1-IO11-Pad19)*%
X176095000Y-118950000D03*
%TO.P,U1,20*%
%TO.N,unconnected-(U1-IO12-Pad20)*%
X177365000Y-118950000D03*
%TO.P,U1,21*%
%TO.N,unconnected-(U1-IO13-Pad21)*%
X178635000Y-118950000D03*
%TO.P,U1,22*%
%TO.N,unconnected-(U1-IO14-Pad22)*%
X179905000Y-118950000D03*
%TO.P,U1,23*%
%TO.N,RELAY_CMD*%
X181175000Y-118950000D03*
%TO.P,U1,24*%
%TO.N,unconnected-(U1-IO47-Pad24)*%
X182445000Y-118950000D03*
%TO.P,U1,25*%
%TO.N,unconnected-(U1-IO48-Pad25)*%
X183715000Y-118950000D03*
%TO.P,U1,26*%
%TO.N,unconnected-(U1-IO45-Pad26)*%
X184985000Y-118950000D03*
D22*
%TO.P,U1,27*%
%TO.N,IO0*%
X186750000Y-117700000D03*
%TO.P,U1,28*%
%TO.N,unconnected-(U1-IO35-Pad28)*%
X186750000Y-116430000D03*
%TO.P,U1,29*%
%TO.N,unconnected-(U1-IO36-Pad29)*%
X186750000Y-115160000D03*
%TO.P,U1,30*%
%TO.N,unconnected-(U1-IO37-Pad30)*%
X186750000Y-113890000D03*
%TO.P,U1,31*%
%TO.N,STATUS_LED*%
X186750000Y-112620000D03*
%TO.P,U1,32*%
%TO.N,unconnected-(U1-IO39-Pad32)*%
X186750000Y-111350000D03*
%TO.P,U1,33*%
%TO.N,unconnected-(U1-IO40-Pad33)*%
X186750000Y-110080000D03*
%TO.P,U1,34*%
%TO.N,unconnected-(U1-IO41-Pad34)*%
X186750000Y-108810000D03*
%TO.P,U1,35*%
%TO.N,unconnected-(U1-IO42-Pad35)*%
X186750000Y-107540000D03*
%TO.P,U1,36*%
%TO.N,U0RXD*%
X186750000Y-106270000D03*
%TO.P,U1,37*%
%TO.N,U0TXD*%
X186750000Y-105000000D03*
%TO.P,U1,38*%
%TO.N,unconnected-(U1-IO2-Pad38)*%
X186750000Y-103730000D03*
%TO.P,U1,39*%
%TO.N,unconnected-(U1-IO1-Pad39)*%
X186750000Y-102460000D03*
%TO.P,U1,40*%
%TO.N,GND*%
X186750000Y-101190000D03*
D24*
%TO.P,U1,41*%
X175100000Y-108210000D03*
X175100000Y-109610000D03*
X175800000Y-107510000D03*
X175800000Y-108910000D03*
X175800000Y-110310000D03*
X176500000Y-108210000D03*
D25*
X176500000Y-108910000D03*
D24*
X176500000Y-109610000D03*
X177200000Y-107510000D03*
X177200000Y-108910000D03*
X177200000Y-110310000D03*
X177900000Y-108210000D03*
X177900000Y-109610000D03*
%TD*%
D26*
%TO.P,LED2,1*%
%TO.N,GND*%
X176212500Y-150000000D03*
%TO.P,LED2,2*%
%TO.N,LED2_A*%
X177787500Y-150000000D03*
%TD*%
D27*
%TO.P,U4,1*%
%TO.N,TREAD_OK*%
X133862500Y-141050000D03*
%TO.P,U4,2*%
%TO.N,GND*%
X133862500Y-142000000D03*
%TO.P,U4,3*%
%TO.N,UV_SENSE*%
X133862500Y-142950000D03*
%TO.P,U4,4*%
%TO.N,OV_SENSE*%
X136137500Y-142950000D03*
%TO.P,U4,5*%
%TO.N,VIN*%
X136137500Y-142000000D03*
%TO.P,U4,6*%
%TO.N,TREAD_OK*%
X136137500Y-141050000D03*
%TD*%
D21*
%TO.P,R17,1*%
%TO.N,VIN*%
X128175000Y-139000000D03*
%TO.P,R17,2*%
%TO.N,UV_SENSE*%
X129825000Y-139000000D03*
%TD*%
D28*
%TO.P,U3,1*%
%TO.N,USB_DN*%
X188137500Y-135950000D03*
%TO.P,U3,2*%
%TO.N,GND*%
X188137500Y-135000000D03*
%TO.P,U3,3*%
%TO.N,USB_DP*%
X188137500Y-134050000D03*
%TO.P,U3,4*%
%TO.N,USB_DP_MCU*%
X185862500Y-134050000D03*
%TO.P,U3,5*%
%TO.N,VBUS*%
X185862500Y-135000000D03*
%TO.P,U3,6*%
%TO.N,USB_DN_MCU*%
X185862500Y-135950000D03*
%TD*%
D21*
%TO.P,R8,1*%
%TO.N,PIN3*%
X163175000Y-110500000D03*
%TO.P,R8,2*%
%TO.N,PIN3_RX*%
X164825000Y-110500000D03*
%TD*%
D10*
%TO.P,TP7,1*%
%TO.N,TREAD_OK*%
X160400000Y-136000000D03*
%TD*%
D21*
%TO.P,R19,1*%
%TO.N,VIN*%
X140175000Y-139000000D03*
%TO.P,R19,2*%
%TO.N,OV_SENSE*%
X141825000Y-139000000D03*
%TD*%
%TO.P,R10,1*%
%TO.N,Q1_B*%
X141175000Y-118500000D03*
%TO.P,R10,2*%
%TO.N,GND*%
X142825000Y-118500000D03*
%TD*%
D29*
%TO.P,Q2,1*%
%TO.N,VBUS*%
X183062500Y-145550000D03*
%TO.P,Q2,2*%
%TO.N,GND*%
X183062500Y-147450000D03*
%TO.P,Q2,3*%
%TO.N,VBUS_PRESENT_N*%
X184937500Y-146500000D03*
%TD*%
D10*
%TO.P,TP11,1*%
%TO.N,TX_DRV*%
X173200000Y-136000000D03*
%TD*%
D21*
%TO.P,R11,1*%
%TO.N,STATUS_LED*%
X189175000Y-110000000D03*
%TO.P,R11,2*%
%TO.N,LED1_A*%
X190825000Y-110000000D03*
%TD*%
D30*
%TO.P,R4,1*%
%TO.N,CC1*%
X194000000Y-142675000D03*
%TO.P,R4,2*%
%TO.N,GND*%
X194000000Y-144325000D03*
%TD*%
D19*
%TO.P,R25,1*%
%TO.N,+3V3*%
X133500000Y-129825000D03*
%TO.P,R25,2*%
%TO.N,K1_NC_FB*%
X133500000Y-128175000D03*
%TD*%
D16*
%TO.P,C17,1*%
%TO.N,VIN*%
X134225000Y-138500000D03*
%TO.P,C17,2*%
%TO.N,GND*%
X135775000Y-138500000D03*
%TD*%
%TO.P,C20,1*%
%TO.N,+3V3*%
X147225000Y-119500000D03*
%TO.P,C20,2*%
%TO.N,GND*%
X148775000Y-119500000D03*
%TD*%
D31*
%TO.P,C1,1*%
%TO.N,VIN*%
X140800000Y-149500000D03*
%TO.P,C1,2*%
%TO.N,GND*%
X146200000Y-149500000D03*
%TD*%
D10*
%TO.P,TP2,1*%
%TO.N,U0RXD*%
X192000000Y-108000000D03*
%TD*%
D27*
%TO.P,U5,1*%
%TO.N,VIN*%
X135862500Y-124050000D03*
%TO.P,U5,2*%
%TO.N,GND*%
X135862500Y-125000000D03*
%TO.P,U5,3*%
%TO.N,RELAY_GATE*%
X135862500Y-125950000D03*
%TO.P,U5,4*%
%TO.N,unconnected-(U5-NC-Pad4)*%
X138137500Y-125950000D03*
%TO.P,U5,5*%
%TO.N,+5V_RLY*%
X138137500Y-124050000D03*
%TD*%
D10*
%TO.P,TP12,1*%
%TO.N,K1_NC_FB*%
X176400000Y-136000000D03*
%TD*%
D16*
%TO.P,C18,1*%
%TO.N,UV_SENSE*%
X131225000Y-145000000D03*
%TO.P,C18,2*%
%TO.N,GND*%
X132775000Y-145000000D03*
%TD*%
D21*
%TO.P,R3,1*%
%TO.N,VIN*%
X149175000Y-145000000D03*
%TO.P,R3,2*%
%TO.N,BUCK_EN*%
X150825000Y-145000000D03*
%TD*%
D16*
%TO.P,C15,1*%
%TO.N,VIN*%
X136225000Y-121500000D03*
%TO.P,C15,2*%
%TO.N,GND*%
X137775000Y-121500000D03*
%TD*%
D32*
%TO.P,L1,1*%
%TO.N,SW_NODE*%
X163500000Y-148500000D03*
%TO.P,L1,2*%
%TO.N,+3V3*%
X166500000Y-148500000D03*
%TD*%
D19*
%TO.P,R13,1*%
%TO.N,+3V3*%
X160000000Y-112825000D03*
%TO.P,R13,2*%
%TO.N,EN*%
X160000000Y-111175000D03*
%TD*%
D33*
%TO.P,F1,1*%
%TO.N,+8V_RAW*%
X118362500Y-152500000D03*
%TO.P,F1,2*%
%TO.N,+8V_F*%
X122637500Y-152500000D03*
%TD*%
D17*
%TO.P,J2,1*%
%TO.N,GND*%
X112500000Y-137000000D03*
D18*
%TO.P,J2,2*%
%TO.N,+8V_RAW*%
X115040000Y-138270000D03*
%TO.P,J2,3*%
%TO.N,PIN3*%
X112500000Y-139540000D03*
%TO.P,J2,4*%
%TO.N,PIN4_PASS*%
X115040000Y-140810000D03*
%TO.P,J2,5*%
%TO.N,PIN5_SAFETY*%
X112500000Y-142080000D03*
%TO.P,J2,6*%
%TO.N,MOT6*%
X115040000Y-143350000D03*
%TO.P,J2,7*%
%TO.N,GND*%
X112500000Y-144620000D03*
%TO.P,J2,8*%
%TO.N,+8V_RAW*%
X115040000Y-145890000D03*
%TD*%
D34*
%TO.P,J3,A1*%
%TO.N,GND*%
X192155000Y-139750000D03*
%TO.P,J3,A4*%
%TO.N,VBUS*%
X192155000Y-138950000D03*
D35*
%TO.P,J3,A5*%
%TO.N,CC1*%
X192155000Y-137750000D03*
%TO.P,J3,A6*%
%TO.N,USB_DP*%
X192155000Y-136750000D03*
%TO.P,J3,A7*%
%TO.N,USB_DN*%
X192155000Y-136250000D03*
%TO.P,J3,A8*%
%TO.N,unconnected-(J3-SBU1-PadA8)*%
X192155000Y-135250000D03*
D34*
%TO.P,J3,A9*%
%TO.N,VBUS*%
X192155000Y-134050000D03*
%TO.P,J3,A12*%
%TO.N,GND*%
X192155000Y-133250000D03*
%TO.P,J3,B1*%
X192155000Y-133250000D03*
%TO.P,J3,B4*%
%TO.N,VBUS*%
X192155000Y-134050000D03*
D35*
%TO.P,J3,B5*%
%TO.N,CC2*%
X192155000Y-134750000D03*
%TO.P,J3,B6*%
%TO.N,USB_DP*%
X192155000Y-135750000D03*
%TO.P,J3,B7*%
%TO.N,USB_DN*%
X192155000Y-137250000D03*
%TO.P,J3,B8*%
%TO.N,unconnected-(J3-SBU2-PadB8)*%
X192155000Y-138250000D03*
D34*
%TO.P,J3,B9*%
%TO.N,VBUS*%
X192155000Y-138950000D03*
%TO.P,J3,B12*%
%TO.N,GND*%
X192155000Y-139750000D03*
D36*
%TO.P,J3,S1*%
X193070000Y-140820000D03*
D37*
X197250000Y-140820000D03*
D36*
X193070000Y-132180000D03*
D37*
X197250000Y-132180000D03*
%TD*%
D20*
%TO.P,D6,1*%
%TO.N,MOT6*%
X120000000Y-141950000D03*
%TO.P,D6,2*%
%TO.N,GND*%
X120000000Y-144050000D03*
%TD*%
D11*
%TO.P,C7,1*%
%TO.N,+3V3*%
X168525000Y-152000000D03*
%TO.P,C7,2*%
%TO.N,GND*%
X171475000Y-152000000D03*
%TD*%
D38*
%TO.P,K1,1*%
%TO.N,+5V_RLY*%
X123500000Y-122200000D03*
%TO.P,K1,2*%
%TO.N,CONS6*%
X123500000Y-125400000D03*
%TO.P,K1,3*%
%TO.N,MOT6*%
X123500000Y-127600000D03*
%TO.P,K1,4*%
%TO.N,TX_DRV*%
X123500000Y-129800000D03*
%TO.P,K1,5*%
%TO.N,K1_NO_FB*%
X130500000Y-129800000D03*
%TO.P,K1,6*%
%TO.N,GND*%
X130500000Y-127600000D03*
%TO.P,K1,7*%
%TO.N,K1_NC_FB*%
X130500000Y-125400000D03*
%TO.P,K1,8*%
%TO.N,RELAY_SW*%
X130500000Y-122200000D03*
%TD*%
D21*
%TO.P,R12,1*%
%TO.N,+3V3*%
X173175000Y-150000000D03*
%TO.P,R12,2*%
%TO.N,LED2_A*%
X174825000Y-150000000D03*
%TD*%
D16*
%TO.P,C5,1*%
%TO.N,BST*%
X160325000Y-151100000D03*
%TO.P,C5,2*%
%TO.N,SW_NODE*%
X161875000Y-151100000D03*
%TD*%
D39*
%TO.P,C14,1*%
%TO.N,USB_DP_R*%
X167300000Y-119225000D03*
%TO.P,C14,2*%
%TO.N,GND*%
X167300000Y-120775000D03*
%TD*%
D10*
%TO.P,TP13,1*%
%TO.N,K1_NO_FB*%
X179600000Y-136000000D03*
%TD*%
%TO.P,TP4,1*%
%TO.N,GND*%
X177000000Y-143000000D03*
%TD*%
D16*
%TO.P,C21,1*%
%TO.N,+3V3*%
X157225000Y-121500000D03*
%TO.P,C21,2*%
%TO.N,GND*%
X158775000Y-121500000D03*
%TD*%
D21*
%TO.P,R21,1*%
%TO.N,+3V3*%
X144175000Y-139000000D03*
%TO.P,R21,2*%
%TO.N,TREAD_OK*%
X145825000Y-139000000D03*
%TD*%
D10*
%TO.P,TP5,1*%
%TO.N,VIN*%
X154000000Y-136000000D03*
%TD*%
D15*
%TO.P,R18,1*%
%TO.N,UV_SENSE*%
X129825000Y-142000000D03*
%TO.P,R18,2*%
%TO.N,GND*%
X128175000Y-142000000D03*
%TD*%
D16*
%TO.P,C12,1*%
%TO.N,+3V3*%
X156225000Y-143000000D03*
%TO.P,C12,2*%
%TO.N,FB*%
X157775000Y-143000000D03*
%TD*%
D21*
%TO.P,R23,1*%
%TO.N,RELAY_CMD*%
X146175000Y-127000000D03*
%TO.P,R23,2*%
%TO.N,GND*%
X147825000Y-127000000D03*
%TD*%
D19*
%TO.P,R31,1*%
%TO.N,+3V3*%
X190000000Y-115825000D03*
%TO.P,R31,2*%
%TO.N,IO0*%
X190000000Y-114175000D03*
%TD*%
D16*
%TO.P,C11,1*%
%TO.N,VBUS*%
X186225000Y-143000000D03*
%TO.P,C11,2*%
%TO.N,GND*%
X187775000Y-143000000D03*
%TD*%
D21*
%TO.P,R1,1*%
%TO.N,+3V3*%
X156175000Y-145000000D03*
%TO.P,R1,2*%
%TO.N,FB*%
X157825000Y-145000000D03*
%TD*%
%TO.P,R7,1*%
%TO.N,CONS6*%
X163175000Y-113000000D03*
%TO.P,R7,2*%
%TO.N,CONS_RX*%
X164825000Y-113000000D03*
%TD*%
D12*
%TO.P,C2,1*%
%TO.N,VIN*%
X148525000Y-152000000D03*
%TO.P,C2,2*%
%TO.N,GND*%
X151475000Y-152000000D03*
%TD*%
D40*
%TO.P,D4,1*%
%TO.N,+5V_RLY*%
X125000000Y-117500000D03*
%TO.P,D4,2*%
%TO.N,RELAY_SW*%
X129000000Y-117500000D03*
%TD*%
D41*
%TO.P,C10,1*%
%TO.N,EN*%
X160000000Y-108775000D03*
%TO.P,C10,2*%
%TO.N,GND*%
X160000000Y-107225000D03*
%TD*%
D21*
%TO.P,R28,1*%
%TO.N,TX_GATE*%
X151175000Y-130000000D03*
%TO.P,R28,2*%
%TO.N,GND*%
X152825000Y-130000000D03*
%TD*%
D42*
%TO.P,LED1,1*%
%TO.N,GND*%
X193787500Y-110000000D03*
%TO.P,LED1,2*%
%TO.N,LED1_A*%
X192212500Y-110000000D03*
%TD*%
D43*
%TO.P,U6,1*%
%TO.N,RELAY_CMD*%
X146300000Y-121025000D03*
%TO.P,U6,2*%
%TO.N,TREAD_OK*%
X146300000Y-121675000D03*
%TO.P,U6,3*%
%TO.N,TX_GATE*%
X146300000Y-122325000D03*
%TO.P,U6,4*%
%TO.N,GND*%
X146300000Y-122975000D03*
%TO.P,U6,5*%
%TO.N,TX_ENABLE*%
X149700000Y-122975000D03*
%TO.P,U6,6*%
%TO.N,TREAD_OK*%
X149700000Y-122325000D03*
%TO.P,U6,7*%
%TO.N,RELAY_GATE*%
X149700000Y-121675000D03*
%TO.P,U6,8*%
%TO.N,+3V3*%
X149700000Y-121025000D03*
%TD*%
D21*
%TO.P,R16,1*%
%TO.N,USB_DP_MCU*%
X165675000Y-117500000D03*
%TO.P,R16,2*%
%TO.N,USB_DP_R*%
X167325000Y-117500000D03*
%TD*%
%TO.P,R27,1*%
%TO.N,TX_ENABLE*%
X151175000Y-127000000D03*
%TO.P,R27,2*%
%TO.N,GND*%
X152825000Y-127000000D03*
%TD*%
D44*
%TO.P,SW2,1*%
%TO.N,IO0*%
X191950000Y-116200000D03*
X196050000Y-116200000D03*
%TO.P,SW2,2*%
%TO.N,GND*%
X191950000Y-117800000D03*
X196050000Y-117800000D03*
%TD*%
D21*
%TO.P,R15,1*%
%TO.N,USB_DN_MCU*%
X165675000Y-115500000D03*
%TO.P,R15,2*%
%TO.N,USB_DN_R*%
X167325000Y-115500000D03*
%TD*%
D28*
%TO.P,U2,1*%
%TO.N,GND*%
X161137500Y-149450000D03*
%TO.P,U2,2*%
%TO.N,SW_NODE*%
X161137500Y-148500000D03*
%TO.P,U2,3*%
%TO.N,VIN*%
X161137500Y-147550000D03*
%TO.P,U2,4*%
%TO.N,FB*%
X158862500Y-147550000D03*
%TO.P,U2,5*%
%TO.N,BUCK_EN*%
X158862500Y-148500000D03*
%TO.P,U2,6*%
%TO.N,BST*%
X158862500Y-149450000D03*
%TD*%
D41*
%TO.P,C13,1*%
%TO.N,USB_DN_R*%
X167300000Y-113575000D03*
%TO.P,C13,2*%
%TO.N,GND*%
X167300000Y-112025000D03*
%TD*%
D20*
%TO.P,D5,1*%
%TO.N,CONS6*%
X120000000Y-113950000D03*
%TO.P,D5,2*%
%TO.N,GND*%
X120000000Y-116050000D03*
%TD*%
D15*
%TO.P,R2,1*%
%TO.N,FB*%
X155825000Y-147500000D03*
%TO.P,R2,2*%
%TO.N,GND*%
X154175000Y-147500000D03*
%TD*%
D45*
%TO.P,C8,1*%
%TO.N,+3V3*%
X166500000Y-107450000D03*
%TO.P,C8,2*%
%TO.N,GND*%
X166500000Y-105550000D03*
%TD*%
D29*
%TO.P,Q1,1*%
%TO.N,Q1_B*%
X134062500Y-118050000D03*
%TO.P,Q1,2*%
%TO.N,GND*%
X134062500Y-119950000D03*
%TO.P,Q1,3*%
%TO.N,RELAY_SW*%
X135937500Y-119000000D03*
%TD*%
D10*
%TO.P,TP10,1*%
%TO.N,TX_GATE*%
X170000000Y-136000000D03*
%TD*%
D21*
%TO.P,R22,1*%
%TO.N,TREAD_OK*%
X144175000Y-142000000D03*
%TO.P,R22,2*%
%TO.N,GND*%
X145825000Y-142000000D03*
%TD*%
D10*
%TO.P,TP1,1*%
%TO.N,U0TXD*%
X192000000Y-105000000D03*
%TD*%
D45*
%TO.P,C16,1*%
%TO.N,+5V_RLY*%
X141000000Y-125950000D03*
%TO.P,C16,2*%
%TO.N,GND*%
X141000000Y-124050000D03*
%TD*%
D19*
%TO.P,R26,1*%
%TO.N,+3V3*%
X133500000Y-133825000D03*
%TO.P,R26,2*%
%TO.N,K1_NO_FB*%
X133500000Y-132175000D03*
%TD*%
D27*
%TO.P,U7,1*%
%TO.N,TX_GATE*%
X156862500Y-123050000D03*
%TO.P,U7,2*%
%TO.N,ESP_TX*%
X156862500Y-124000000D03*
%TO.P,U7,3*%
%TO.N,GND*%
X156862500Y-124950000D03*
%TO.P,U7,4*%
%TO.N,TX_BUF*%
X159137500Y-124950000D03*
%TO.P,U7,5*%
%TO.N,+3V3*%
X159137500Y-123050000D03*
%TD*%
D21*
%TO.P,R6,1*%
%TO.N,TX_BUF*%
X138175000Y-114000000D03*
%TO.P,R6,2*%
%TO.N,TX_DRV*%
X139825000Y-114000000D03*
%TD*%
D10*
%TO.P,TP9,1*%
%TO.N,RELAY_SW*%
X166800000Y-136000000D03*
%TD*%
D44*
%TO.P,SW1,1*%
%TO.N,EN*%
X152950000Y-103200000D03*
X157050000Y-103200000D03*
%TO.P,SW1,2*%
%TO.N,GND*%
X152950000Y-104800000D03*
X157050000Y-104800000D03*
%TD*%
D21*
%TO.P,R30,1*%
%TO.N,+3V3*%
X179175000Y-145000000D03*
%TO.P,R30,2*%
%TO.N,VBUS_PRESENT_N*%
X180825000Y-145000000D03*
%TD*%
D10*
%TO.P,TP3,1*%
%TO.N,+3V3*%
X174000000Y-143000000D03*
%TD*%
D16*
%TO.P,C4,1*%
%TO.N,VIN*%
X161225000Y-145500000D03*
%TO.P,C4,2*%
%TO.N,GND*%
X162775000Y-145500000D03*
%TD*%
D41*
%TO.P,C9,1*%
%TO.N,+3V3*%
X166500000Y-102775000D03*
%TO.P,C9,2*%
%TO.N,GND*%
X166500000Y-101225000D03*
%TD*%
D21*
%TO.P,R14,1*%
%TO.N,GND*%
X149175000Y-148000000D03*
%TO.P,R14,2*%
%TO.N,BUCK_EN*%
X150825000Y-148000000D03*
%TD*%
D46*
%TO.N,GND*%
X134000000Y-121200000D03*
X152800000Y-152000000D03*
X188137500Y-135000000D03*
X190800000Y-117600000D03*
X150000000Y-119600000D03*
X149200000Y-130000000D03*
X147200000Y-142000000D03*
X144000000Y-123200000D03*
X158400000Y-104800000D03*
X160000000Y-121600000D03*
X136800000Y-138400000D03*
X151600000Y-104800000D03*
X165200000Y-101200000D03*
X172800000Y-152000000D03*
X140000000Y-144800000D03*
X167200000Y-122000000D03*
X126800000Y-142000000D03*
X154000000Y-127200000D03*
X120000000Y-145200000D03*
X144000000Y-118400000D03*
X161600000Y-149600000D03*
X152800000Y-147600000D03*
X138800000Y-121600000D03*
X188800000Y-143200000D03*
X166000000Y-143600000D03*
X134000000Y-144800000D03*
X149200000Y-127200000D03*
X188800000Y-101200000D03*
X194000000Y-145600000D03*
X160000000Y-106000000D03*
X119200000Y-140400000D03*
X183200000Y-148800000D03*
X166400000Y-104400000D03*
X176000000Y-150000000D03*
X167600000Y-101200000D03*
X164000000Y-145600000D03*
X147200000Y-149600000D03*
X138400000Y-152000000D03*
X197200000Y-117600000D03*
X194000000Y-126800000D03*
X178400000Y-143200000D03*
X134400000Y-124800000D03*
X148000000Y-148000000D03*
X194800000Y-110000000D03*
X182000000Y-148000000D03*
X120000000Y-117200000D03*
X132800000Y-142000000D03*
X172800000Y-147200000D03*
X140800000Y-122800000D03*
X154000000Y-130000000D03*
X138800000Y-142000000D03*
X176400000Y-110400000D03*
X155600000Y-124800000D03*
X167200000Y-110800000D03*
X131600000Y-127600000D03*
%TO.N,+8V_RAW*%
X115200000Y-118400000D03*
X116400000Y-109200000D03*
X115200000Y-147200000D03*
X116400000Y-138400000D03*
X117200000Y-152400000D03*
%TO.N,VIN*%
X148000000Y-144800000D03*
X130800000Y-152400000D03*
X161600000Y-146400000D03*
X134800000Y-124000000D03*
X137200000Y-142000000D03*
X154000000Y-132800000D03*
X147200000Y-152000000D03*
X138800000Y-138400000D03*
X160000000Y-145600000D03*
X139600000Y-149600000D03*
X132800000Y-138400000D03*
X135200000Y-121600000D03*
X126800000Y-139200000D03*
X131600000Y-152000000D03*
X160800000Y-143600000D03*
%TO.N,BUCK_EN*%
X152400000Y-144800000D03*
X152000000Y-148000000D03*
X157600000Y-148400000D03*
%TO.N,+3V3*%
X155200000Y-143200000D03*
X167200000Y-151200000D03*
X167200000Y-147200000D03*
X167600000Y-102400000D03*
X166800000Y-152000000D03*
X166400000Y-108800000D03*
X154800000Y-144800000D03*
X175200000Y-143200000D03*
X133600000Y-131199999D03*
X142800000Y-139200000D03*
X160400000Y-123200000D03*
X156000000Y-121600000D03*
X172000000Y-150000000D03*
X166400000Y-103600000D03*
X151200000Y-120800000D03*
X133600000Y-135200000D03*
X160000000Y-114000000D03*
X178000000Y-144800000D03*
X146000000Y-119600000D03*
X190000000Y-117200000D03*
%TO.N,VBUS*%
X190400000Y-133199999D03*
X185200000Y-135000000D03*
X181800000Y-145550000D03*
X190400000Y-139600000D03*
X184800000Y-143000000D03*
X178000000Y-148000000D03*
%TO.N,CC1*%
X190500000Y-138200000D03*
X192400000Y-142675000D03*
%TO.N,CC2*%
X192400000Y-129824999D03*
X193400000Y-134750000D03*
%TO.N,CONS6*%
X122400000Y-125600000D03*
X162000000Y-112000000D03*
X115200000Y-115200000D03*
X120000000Y-112800000D03*
%TO.N,MOT6*%
X120000000Y-140800000D03*
X122400000Y-127600000D03*
X115600000Y-144000000D03*
%TO.N,TX_DRV*%
X144400000Y-140000000D03*
X173200000Y-133600000D03*
X155600000Y-139200000D03*
X138000000Y-140000000D03*
X152400000Y-139200000D03*
X141200000Y-114000000D03*
X123600000Y-131199999D03*
%TO.N,TX_BUF*%
X136800000Y-114000000D03*
X160400000Y-124800000D03*
X154400000Y-120800000D03*
%TO.N,ESP_TX*%
X161200000Y-119200000D03*
X156800000Y-124000000D03*
X168400000Y-112800000D03*
%TO.N,CONS_RX*%
X168400000Y-114000000D03*
X165600000Y-112000000D03*
%TO.N,PIN3*%
X160400000Y-105200000D03*
X112400000Y-140400000D03*
X119200000Y-135600000D03*
X162000000Y-110800000D03*
X110800000Y-135600000D03*
X111200000Y-110400000D03*
%TO.N,PIN3_RX*%
X168400000Y-111200000D03*
X164400000Y-109200000D03*
%TO.N,PIN4_PASS*%
X117200000Y-112000000D03*
X114800000Y-142000000D03*
X117200000Y-139200000D03*
%TO.N,PIN5_SAFETY*%
X112400000Y-143200000D03*
X112400000Y-114000000D03*
%TO.N,TREAD_OK*%
X138000000Y-141200000D03*
X147200000Y-139200000D03*
X153600000Y-122400000D03*
X168000000Y-107600000D03*
X150800000Y-128800000D03*
X160400000Y-133600000D03*
X132400000Y-141200000D03*
X143600000Y-140800000D03*
X147600000Y-124800000D03*
X148000000Y-122400000D03*
X155600000Y-130000000D03*
%TO.N,RELAY_CMD*%
X144800000Y-120800000D03*
X181200000Y-120000000D03*
X153600000Y-120000000D03*
X144000000Y-127200000D03*
%TO.N,RELAY_GATE*%
X144800000Y-130000000D03*
X138800000Y-120800000D03*
X163600000Y-132800000D03*
X152000000Y-121600000D03*
X134400000Y-126000000D03*
%TO.N,+5V_RLY*%
X148400000Y-132400000D03*
X140800000Y-127200000D03*
X145600000Y-132400000D03*
X124000000Y-117600000D03*
X145600000Y-126000000D03*
X153200000Y-125600000D03*
X139200000Y-124000000D03*
X123600000Y-121200000D03*
X158000000Y-129600000D03*
%TO.N,RELAY_SW*%
X145600000Y-125200000D03*
X130400000Y-117600000D03*
X137200000Y-119200000D03*
X148000000Y-138400000D03*
X155600000Y-138400000D03*
X166800000Y-133600000D03*
X152400000Y-138400000D03*
X146400000Y-133199999D03*
X130400000Y-121200000D03*
%TO.N,Q1_B*%
X138400000Y-116800000D03*
X134000000Y-116800000D03*
X140000000Y-118400000D03*
%TO.N,K1_NC_FB*%
X133600000Y-126800000D03*
X170000000Y-119200000D03*
X176400000Y-132800000D03*
X168000000Y-104800000D03*
X136000000Y-128000000D03*
X148000000Y-128000000D03*
X168800000Y-132000000D03*
X131600000Y-125600000D03*
X151600000Y-128000000D03*
%TO.N,K1_NO_FB*%
X132400000Y-131199999D03*
X130400000Y-131199999D03*
X179600000Y-132800000D03*
X169600000Y-106400000D03*
X148000000Y-131600000D03*
X136000000Y-131600000D03*
X152400000Y-126000000D03*
%TO.N,TX_ENABLE*%
X168000000Y-110000000D03*
X152000000Y-123200000D03*
X150000000Y-126800000D03*
%TO.N,TX_GATE*%
X155200000Y-123200000D03*
X170000000Y-132800000D03*
X150000000Y-129600000D03*
X144800000Y-122000000D03*
%TO.N,VBUS_PRESENT_N*%
X181600000Y-144000000D03*
X186000000Y-146400000D03*
X171600000Y-116400000D03*
X186000000Y-136800000D03*
X168000000Y-108400000D03*
%TO.N,STATUS_LED*%
X188000000Y-110000000D03*
X188000000Y-112800000D03*
%TO.N,LED1_A*%
X192000000Y-110000000D03*
X190800000Y-110000000D03*
%TO.N,LED2_A*%
X178800000Y-150000000D03*
X175200000Y-148800000D03*
%TO.N,EN*%
X183600000Y-120400000D03*
X161200000Y-111200000D03*
X170800000Y-104400000D03*
X156000000Y-112800000D03*
X163200000Y-120800000D03*
X156000000Y-120800000D03*
X151600000Y-103200000D03*
X158400000Y-103200000D03*
%TO.N,IO0*%
X190000000Y-112800000D03*
X197200000Y-116400000D03*
X186800000Y-118800000D03*
X190800000Y-116800000D03*
%TO.N,U0TXD*%
X188000000Y-104800000D03*
X193200000Y-104800000D03*
%TO.N,U0RXD*%
X193200000Y-108000000D03*
X188000000Y-106400000D03*
%TD*%
%TO.N,GND*%
D47*
X130500000Y-127600000D02*
X131600000Y-127600000D01*
X147200000Y-149500000D02*
X147200000Y-149600000D01*
X167300000Y-122000000D02*
X167200000Y-122000000D01*
X191950000Y-117800000D02*
X190800000Y-117800000D01*
X119000000Y-140400000D02*
X119200000Y-140400000D01*
X144000000Y-118500000D02*
X144000000Y-118400000D01*
X183062500Y-147450000D02*
X183062500Y-148800000D01*
X192155000Y-139750000D02*
X193070000Y-140820000D01*
X146200000Y-149500000D02*
X147200000Y-149500000D01*
X152825000Y-130000000D02*
X154000000Y-130000000D01*
X134400000Y-125000000D02*
X134400000Y-124800000D01*
X154000000Y-127000000D02*
X154000000Y-127200000D01*
X154175000Y-147500000D02*
X152800000Y-147500000D01*
X176500000Y-110400000D02*
X176400000Y-110400000D01*
X140175000Y-142000000D02*
X138800000Y-142000000D01*
X120000000Y-116050000D02*
X120000000Y-117200000D01*
X196050000Y-117800000D02*
X197200000Y-117800000D01*
X138800000Y-121500000D02*
X138800000Y-121600000D01*
X167600000Y-101190000D02*
X167600000Y-101200000D01*
X119000000Y-139050000D02*
X119000000Y-140400000D01*
X120000000Y-144050000D02*
X120000000Y-145200000D01*
X167300000Y-110800000D02*
X167200000Y-110800000D01*
X183062500Y-148800000D02*
X183200000Y-148800000D01*
X142825000Y-118500000D02*
X144000000Y-118500000D01*
X135862500Y-125000000D02*
X134400000Y-125000000D01*
X157050000Y-104800000D02*
X158400000Y-104800000D01*
X156862500Y-124950000D02*
X155600000Y-124950000D01*
X194000000Y-144325000D02*
X194000000Y-145600000D01*
X155600000Y-124950000D02*
X155600000Y-124800000D01*
X192155000Y-133250000D02*
X193070000Y-132180000D01*
X180825000Y-148000000D02*
X182000000Y-148000000D01*
X177000000Y-143000000D02*
X178400000Y-143000000D01*
X151475000Y-152000000D02*
X152800000Y-152000000D01*
X164000000Y-145500000D02*
X164000000Y-145600000D01*
X147825000Y-127000000D02*
X149200000Y-127000000D01*
X146300000Y-122975000D02*
X144000000Y-122975000D01*
X197200000Y-117800000D02*
X197200000Y-117600000D01*
X160000000Y-121500000D02*
X160000000Y-121600000D01*
X141000000Y-124050000D02*
X141000000Y-122800000D01*
X166500000Y-104400000D02*
X166400000Y-104400000D01*
X149175000Y-148000000D02*
X148000000Y-148000000D01*
X135775000Y-138500000D02*
X136800000Y-138500000D01*
X193787500Y-110000000D02*
X194800000Y-110000000D01*
X161600000Y-149450000D02*
X161600000Y-149600000D01*
X150000000Y-119500000D02*
X150000000Y-119600000D01*
X172800000Y-147000000D02*
X172800000Y-147200000D01*
X128175000Y-142000000D02*
X126800000Y-142000000D01*
X187775000Y-143000000D02*
X188800000Y-143000000D01*
X167300000Y-112025000D02*
X167300000Y-110800000D01*
X190800000Y-117800000D02*
X190800000Y-117600000D01*
X166500000Y-101225000D02*
X165200000Y-101200000D01*
X171475000Y-147000000D02*
X172800000Y-147000000D01*
X186750000Y-101190000D02*
X188800000Y-101190000D01*
X192155000Y-139750000D02*
X193070000Y-140820000D01*
X164975000Y-143500000D02*
X166000000Y-143500000D01*
X134000000Y-145000000D02*
X134000000Y-144800000D01*
X136800000Y-138500000D02*
X136800000Y-138400000D01*
X166500000Y-105550000D02*
X166500000Y-104400000D01*
X152800000Y-147500000D02*
X152800000Y-147600000D01*
X140000000Y-145000000D02*
X140000000Y-144800000D01*
X137150000Y-152000000D02*
X138400000Y-152000000D01*
X166000000Y-143500000D02*
X166000000Y-143600000D01*
X194000000Y-128175000D02*
X194000000Y-126800000D01*
X141000000Y-122800000D02*
X140800000Y-122800000D01*
X161137500Y-149450000D02*
X161600000Y-149450000D01*
X169250000Y-101190000D02*
X167600000Y-101190000D01*
X192155000Y-133250000D02*
X193070000Y-132180000D01*
X152950000Y-104800000D02*
X151600000Y-104800000D01*
X137775000Y-121500000D02*
X138800000Y-121500000D01*
X145825000Y-142000000D02*
X147200000Y-142000000D01*
X171475000Y-152000000D02*
X172800000Y-152000000D01*
X134062500Y-121200000D02*
X134000000Y-121200000D01*
X188800000Y-101190000D02*
X188800000Y-101200000D01*
X167300000Y-120775000D02*
X167300000Y-122000000D01*
X149200000Y-127000000D02*
X149200000Y-127200000D01*
X138775000Y-145000000D02*
X140000000Y-145000000D01*
X148775000Y-119500000D02*
X150000000Y-119500000D01*
X144000000Y-122975000D02*
X144000000Y-123200000D01*
X176212500Y-150000000D02*
X176000000Y-150000000D01*
X152825000Y-127000000D02*
X154000000Y-127000000D01*
X160000000Y-107225000D02*
X160000000Y-106000000D01*
X133862500Y-142000000D02*
X132800000Y-142000000D01*
X132775000Y-145000000D02*
X134000000Y-145000000D01*
X178400000Y-143000000D02*
X178400000Y-143200000D01*
X147825000Y-130000000D02*
X149200000Y-130000000D01*
X162775000Y-145500000D02*
X164000000Y-145500000D01*
X188800000Y-143000000D02*
X188800000Y-143200000D01*
X134062500Y-119950000D02*
X134062500Y-121200000D01*
X158775000Y-121500000D02*
X160000000Y-121500000D01*
X176500000Y-108910000D02*
X176500000Y-110400000D01*
%TO.N,+8V_RAW*%
D48*
X118362500Y-152500000D02*
X117200000Y-152500000D01*
X115040000Y-116890000D02*
X115200000Y-118400000D01*
X115040000Y-138270000D02*
X116400000Y-138270000D01*
X115040000Y-145890000D02*
X115040000Y-147200000D01*
X116400000Y-138270000D02*
X116400000Y-138400000D01*
X116400000Y-109270000D02*
X116400000Y-109200000D01*
X115040000Y-147200000D02*
X115200000Y-147200000D01*
X115040000Y-109270000D02*
X116400000Y-109270000D01*
X117200000Y-152500000D02*
X117200000Y-152400000D01*
%TO.N,+8V_F*%
D49*
X122637500Y-152500000D02*
X125500000Y-152500000D01*
%TO.N,VIN*%
D48*
X136137500Y-142000000D02*
X137200000Y-142000000D01*
X154000000Y-136000000D02*
X154000000Y-132800000D01*
X160000000Y-145500000D02*
X160000000Y-145600000D01*
X134225000Y-138500000D02*
X132800000Y-138500000D01*
X139600000Y-149500000D02*
X139600000Y-149600000D01*
X162025000Y-143500000D02*
X160800000Y-143500000D01*
X134800000Y-124050000D02*
X134800000Y-124000000D01*
X128175000Y-139000000D02*
X126800000Y-139000000D01*
X161137500Y-146400000D02*
X161600000Y-146400000D01*
X135862500Y-124050000D02*
X134800000Y-124050000D01*
X136225000Y-121500000D02*
X135200000Y-121500000D01*
X140800000Y-149500000D02*
X139600000Y-149500000D01*
X148000000Y-145000000D02*
X148000000Y-144800000D01*
X160800000Y-143500000D02*
X160800000Y-143600000D01*
X126800000Y-139000000D02*
X126800000Y-139200000D01*
X135200000Y-121500000D02*
X135200000Y-121600000D01*
X130800000Y-152500000D02*
X130800000Y-152400000D01*
D50*
X161225000Y-145500000D02*
X162025000Y-143500000D01*
X161137500Y-147550000D02*
X161225000Y-145500000D01*
D48*
X161225000Y-145500000D02*
X160000000Y-145500000D01*
X132850000Y-152000000D02*
X131600000Y-152000000D01*
X132800000Y-138500000D02*
X132800000Y-138400000D01*
X148525000Y-152000000D02*
X147200000Y-152000000D01*
X149175000Y-145000000D02*
X148000000Y-145000000D01*
X161137500Y-147550000D02*
X161137500Y-146400000D01*
X140175000Y-139000000D02*
X138800000Y-139000000D01*
X138800000Y-139000000D02*
X138800000Y-138400000D01*
X129500000Y-152500000D02*
X130800000Y-152500000D01*
%TO.N,BUCK_EN*%
D51*
X150825000Y-145000000D02*
X152400000Y-145000000D01*
X152400000Y-145000000D02*
X152400000Y-144800000D01*
X150825000Y-148000000D02*
X152000000Y-148000000D01*
X158862500Y-148500000D02*
X157600000Y-148500000D01*
X157600000Y-148500000D02*
X157600000Y-148400000D01*
%TO.N,SW_NODE*%
D47*
X162400000Y-148500000D02*
X161137500Y-148500000D01*
X161875000Y-151100000D02*
X162400000Y-151100000D01*
D52*
X161137500Y-148500000D02*
X163500000Y-148500000D01*
D47*
X162400000Y-151100000D02*
X162400000Y-148500000D01*
%TO.N,BST*%
D48*
X158862500Y-149450000D02*
X160325000Y-151100000D01*
%TO.N,+3V3*%
X144175000Y-139000000D02*
X142800000Y-139000000D01*
X156225000Y-143000000D02*
X155200000Y-143000000D01*
X155200000Y-143000000D02*
X155200000Y-143200000D01*
X133500000Y-133824999D02*
X133500000Y-135200000D01*
X160000000Y-112825000D02*
X160000000Y-114000000D01*
X168525000Y-152000000D02*
X166800000Y-152000000D01*
X133500000Y-129824999D02*
X133500000Y-131199999D01*
X147225000Y-119500000D02*
X146000000Y-119500000D01*
X178000000Y-145000000D02*
X178000000Y-144800000D01*
X151200000Y-121025000D02*
X151200000Y-120800000D01*
X133500000Y-131199999D02*
X133600000Y-131199999D01*
X174000000Y-143000000D02*
X175200000Y-143000000D01*
X166500000Y-108800000D02*
X166400000Y-108800000D01*
X156175000Y-145000000D02*
X154800000Y-145000000D01*
X133500000Y-135200000D02*
X133600000Y-135200000D01*
X146000000Y-119500000D02*
X146000000Y-119600000D01*
X156000000Y-121500000D02*
X156000000Y-121600000D01*
X167600000Y-102460000D02*
X167600000Y-102400000D01*
X166500000Y-107450000D02*
X166500000Y-108800000D01*
X166500000Y-103600000D02*
X166400000Y-103600000D01*
X173175000Y-150000000D02*
X172000000Y-150000000D01*
X157225000Y-121500000D02*
X156000000Y-121500000D01*
X168525000Y-147000000D02*
X167200000Y-147000000D01*
X166500000Y-148500000D02*
X167200000Y-151200000D01*
X160400000Y-123050000D02*
X160400000Y-123200000D01*
X166500000Y-102775000D02*
X166500000Y-103600000D01*
X167200000Y-147000000D02*
X167200000Y-147200000D01*
X175200000Y-143000000D02*
X175200000Y-143200000D01*
X159137500Y-123050000D02*
X160400000Y-123050000D01*
X154800000Y-145000000D02*
X154800000Y-144800000D01*
X142800000Y-139000000D02*
X142800000Y-139200000D01*
X179175000Y-145000000D02*
X178000000Y-145000000D01*
X169250000Y-102460000D02*
X167600000Y-102460000D01*
X149700000Y-121025000D02*
X151200000Y-121025000D01*
X190000000Y-115825000D02*
X190000000Y-117200000D01*
%TO.N,FB*%
D51*
X157400000Y-145800000D02*
X155825000Y-147500000D01*
X157400000Y-145800000D02*
X157825000Y-145000000D01*
X157400000Y-145800000D02*
X157775000Y-143000000D01*
X157400000Y-147550000D02*
X157400000Y-145800000D01*
X158862500Y-147550000D02*
X157400000Y-147550000D01*
%TO.N,VBUS*%
D48*
X183062500Y-145550000D02*
X181800000Y-145550000D01*
D47*
X192155000Y-134050000D02*
X190400000Y-134050000D01*
X190400000Y-138950000D02*
X190400000Y-139600000D01*
X185862500Y-135000000D02*
X185200000Y-135000000D01*
X190400000Y-134050000D02*
X190400000Y-133199999D01*
X192155000Y-138950000D02*
X190400000Y-138950000D01*
D48*
X179175000Y-148000000D02*
X178000000Y-148000000D01*
X186225000Y-143000000D02*
X184800000Y-143000000D01*
%TO.N,USB_DN*%
D51*
X192155000Y-136250000D02*
X193400000Y-136250000D01*
D53*
X193400000Y-136250000D02*
X193400000Y-137250000D01*
X189800000Y-137250000D02*
X189800000Y-135950000D01*
D51*
X192155000Y-137250000D02*
X193400000Y-137250000D01*
D53*
X189800000Y-135950000D02*
X188137500Y-135950000D01*
X193400000Y-137250000D02*
X189800000Y-137250000D01*
%TO.N,USB_DP*%
X189600000Y-134600000D02*
X189600000Y-134050000D01*
X190900000Y-136750000D02*
X190900000Y-135750000D01*
X190900000Y-135750000D02*
X190400000Y-135750000D01*
D51*
X192155000Y-135750000D02*
X190900000Y-135750000D01*
X192155000Y-136750000D02*
X190900000Y-136750000D01*
D53*
X190400000Y-135750000D02*
X190400000Y-134600000D01*
X189600000Y-134050000D02*
X188137500Y-134050000D01*
X190400000Y-134600000D02*
X189600000Y-134600000D01*
%TO.N,USB_DN_MCU*%
X161990000Y-124490600D02*
X161990000Y-115500000D01*
X183200000Y-124490600D02*
X169500000Y-124490600D01*
X185862500Y-135950000D02*
X183200000Y-135950000D01*
X169500000Y-124490600D02*
X161990000Y-124490600D01*
X161990000Y-115500000D02*
X165675000Y-115500000D01*
X183200000Y-135950000D02*
X183200000Y-124490600D01*
%TO.N,USB_DP_MCU*%
X183690600Y-124000000D02*
X169990600Y-124000000D01*
X171670000Y-122000000D02*
X171670000Y-124000000D01*
X185862500Y-134050000D02*
X183690600Y-134050000D01*
X162483742Y-124000000D02*
X162483742Y-117500000D01*
X169990600Y-124000000D02*
X169990600Y-122000000D01*
X171670000Y-124000000D02*
X162483742Y-124000000D01*
X169990600Y-122000000D02*
X171670000Y-122000000D01*
X183690600Y-134050000D02*
X183690600Y-124000000D01*
X162483742Y-117500000D02*
X165675000Y-117500000D01*
%TO.N,USB_DN_R*%
X167325000Y-115500000D02*
X169250000Y-116430000D01*
X167300000Y-115500000D02*
X167325000Y-115500000D01*
X167300000Y-113575000D02*
X167300000Y-115500000D01*
%TO.N,USB_DP_R*%
X167325000Y-117500000D02*
X169250000Y-117700000D01*
X167300000Y-117500000D02*
X167325000Y-117500000D01*
X167300000Y-119225000D02*
X167300000Y-117500000D01*
%TO.N,CC1*%
D51*
X194000000Y-142675000D02*
X192400000Y-142675000D01*
X192155000Y-137750000D02*
X190500000Y-137750000D01*
X190500000Y-137750000D02*
X190500000Y-138200000D01*
%TO.N,CC2*%
X194000000Y-129824999D02*
X192400000Y-129824999D01*
X192155000Y-134750000D02*
X193400000Y-134750000D01*
%TO.N,CONS6*%
X115040000Y-115200000D02*
X115200000Y-115200000D01*
X123500000Y-125400000D02*
X122400000Y-125400000D01*
X162000000Y-113000000D02*
X162000000Y-112000000D01*
X122400000Y-125400000D02*
X122400000Y-125600000D01*
X163175000Y-113000000D02*
X162000000Y-113000000D01*
X120000000Y-113950000D02*
X120000000Y-112800000D01*
X115040000Y-114350000D02*
X115040000Y-115200000D01*
%TO.N,MOT6*%
X123500000Y-127600000D02*
X122400000Y-127600000D01*
X115040000Y-143350000D02*
X115040000Y-144000000D01*
X120000000Y-141950000D02*
X120000000Y-140800000D01*
X115040000Y-144000000D02*
X115600000Y-144000000D01*
%TO.N,TX_DRV*%
X123500000Y-131199999D02*
X123600000Y-131199999D01*
X123500000Y-129800000D02*
X123500000Y-131199999D01*
X173200000Y-136000000D02*
X173200000Y-133600000D01*
X139825000Y-114000000D02*
X141200000Y-114000000D01*
%TO.N,TX_BUF*%
X138175000Y-114000000D02*
X136800000Y-114000000D01*
X159137500Y-124950000D02*
X160400000Y-124950000D01*
X160400000Y-124950000D02*
X160400000Y-124800000D01*
%TO.N,ESP_TX*%
X156862500Y-124000000D02*
X156800000Y-124000000D01*
X168400000Y-112620000D02*
X168400000Y-112800000D01*
X169250000Y-112620000D02*
X168400000Y-112620000D01*
%TO.N,CONS_RX*%
X164825000Y-112000000D02*
X165600000Y-112000000D01*
X168400000Y-113890000D02*
X168400000Y-114000000D01*
X164825000Y-113000000D02*
X164825000Y-112000000D01*
X169250000Y-113890000D02*
X168400000Y-113890000D01*
%TO.N,PIN3*%
X112500000Y-110540000D02*
X111200000Y-110400000D01*
X112500000Y-139540000D02*
X112500000Y-140400000D01*
X112500000Y-140400000D02*
X112400000Y-140400000D01*
X163175000Y-110500000D02*
X162000000Y-110500000D01*
X119000000Y-135600000D02*
X119200000Y-135600000D01*
X119000000Y-136950000D02*
X119000000Y-135600000D01*
X162000000Y-110500000D02*
X162000000Y-110800000D01*
%TO.N,PIN3_RX*%
X164825000Y-110500000D02*
X164400000Y-109200000D01*
X169250000Y-111350000D02*
X168400000Y-111350000D01*
X168400000Y-111350000D02*
X168400000Y-111200000D01*
%TO.N,PIN4_PASS*%
X115040000Y-142000000D02*
X114800000Y-142000000D01*
X115040000Y-140810000D02*
X115040000Y-142000000D01*
X115040000Y-111810000D02*
X117200000Y-112000000D01*
%TO.N,PIN5_SAFETY*%
X112500000Y-113080000D02*
X112500000Y-114000000D01*
X112500000Y-114000000D02*
X112400000Y-114000000D01*
X112500000Y-143200000D02*
X112400000Y-143200000D01*
X112500000Y-142080000D02*
X112500000Y-143200000D01*
%TO.N,UV_SENSE*%
X131225000Y-143400000D02*
X131225000Y-145000000D01*
X131225000Y-143400000D02*
X133000000Y-143400000D01*
X129824999Y-142000000D02*
X129824999Y-143400000D01*
X129824999Y-139000000D02*
X129824999Y-142000000D01*
X129824999Y-143400000D02*
X131225000Y-143400000D01*
X133000000Y-143400000D02*
X133862500Y-142950000D01*
%TO.N,OV_SENSE*%
X137000000Y-143400000D02*
X136137500Y-142950000D01*
X137225000Y-143400000D02*
X137225000Y-145000000D01*
X141825000Y-139000000D02*
X141825000Y-142000000D01*
X141825000Y-142000000D02*
X141825000Y-143400000D01*
X138500000Y-143400000D02*
X137000000Y-143400000D01*
X138500000Y-143400000D02*
X137225000Y-143400000D01*
X141825000Y-143400000D02*
X138500000Y-143400000D01*
%TO.N,TREAD_OK*%
X132400000Y-141050000D02*
X132400000Y-141200000D01*
X147600000Y-121675000D02*
X147600000Y-124800000D01*
X136137500Y-141050000D02*
X138000000Y-141050000D01*
X169250000Y-107540000D02*
X168000000Y-107540000D01*
X145825000Y-139000000D02*
X147200000Y-139000000D01*
X144175000Y-142000000D02*
X143600000Y-140800000D01*
X147200000Y-139000000D02*
X147200000Y-139200000D01*
X149700000Y-122325000D02*
X153600000Y-122325000D01*
X153600000Y-122325000D02*
X153600000Y-122400000D01*
X146300000Y-121675000D02*
X147600000Y-121675000D01*
X133862500Y-141050000D02*
X132400000Y-141050000D01*
X168000000Y-107540000D02*
X168000000Y-107600000D01*
X138000000Y-141050000D02*
X138000000Y-141200000D01*
X160400000Y-136000000D02*
X160400000Y-133600000D01*
%TO.N,RELAY_CMD*%
X146175000Y-127000000D02*
X144000000Y-127000000D01*
X144000000Y-127000000D02*
X144000000Y-127200000D01*
X181175000Y-118950000D02*
X181175000Y-120000000D01*
X144800000Y-121025000D02*
X144800000Y-120800000D01*
X146300000Y-121025000D02*
X144800000Y-121025000D01*
X181175000Y-120000000D02*
X181200000Y-120000000D01*
%TO.N,RELAY_GATE*%
X138800000Y-119825000D02*
X138800000Y-120800000D01*
X138500000Y-119825000D02*
X138800000Y-119825000D01*
X146175000Y-130000000D02*
X144800000Y-130000000D01*
X134400000Y-125950000D02*
X134400000Y-126000000D01*
X163600000Y-136000000D02*
X163600000Y-132800000D01*
X135862500Y-125950000D02*
X134400000Y-125950000D01*
X149700000Y-121675000D02*
X152000000Y-121675000D01*
X152000000Y-121675000D02*
X152000000Y-121600000D01*
%TO.N,+5V_RLY*%
D48*
X124000000Y-117500000D02*
X124000000Y-117600000D01*
X157200000Y-129600000D02*
X158000000Y-129600000D01*
X138137500Y-124050000D02*
X139200000Y-124050000D01*
X139200000Y-124050000D02*
X139200000Y-124000000D01*
X157200000Y-136000000D02*
X157200000Y-129600000D01*
X123500000Y-121200000D02*
X123600000Y-121200000D01*
X141000000Y-127200000D02*
X140800000Y-127200000D01*
X125000000Y-117500000D02*
X124000000Y-117500000D01*
X123500000Y-122200000D02*
X123500000Y-121200000D01*
X141000000Y-125950000D02*
X141000000Y-127200000D01*
%TO.N,RELAY_SW*%
X130400000Y-117500000D02*
X130400000Y-117600000D01*
X130500000Y-121200000D02*
X130400000Y-121200000D01*
X130500000Y-122200000D02*
X130500000Y-121200000D01*
X137200000Y-119000000D02*
X137200000Y-119200000D01*
X129000000Y-117500000D02*
X130400000Y-117500000D01*
X135937500Y-119000000D02*
X137200000Y-119000000D01*
X166800000Y-136000000D02*
X166800000Y-133600000D01*
%TO.N,Q1_B*%
D51*
X134062500Y-118050000D02*
X134062500Y-116800000D01*
X140000000Y-118500000D02*
X140000000Y-118400000D01*
X138500000Y-118175000D02*
X138500000Y-116800000D01*
X138500000Y-116800000D02*
X138400000Y-116800000D01*
X134062500Y-116800000D02*
X134000000Y-116800000D01*
X141175000Y-118500000D02*
X140000000Y-118500000D01*
%TO.N,K1_NC_FB*%
X130500000Y-125400000D02*
X131600000Y-125400000D01*
X131600000Y-125400000D02*
X131600000Y-125600000D01*
X169250000Y-105000000D02*
X168000000Y-105000000D01*
X133500000Y-126800000D02*
X133600000Y-126800000D01*
X176400000Y-136000000D02*
X176400000Y-132800000D01*
X133500000Y-128175000D02*
X133500000Y-126800000D01*
X168000000Y-105000000D02*
X168000000Y-104800000D01*
%TO.N,K1_NO_FB*%
X130500000Y-131199999D02*
X130400000Y-131199999D01*
X130500000Y-129800000D02*
X130500000Y-131199999D01*
X169250000Y-106270000D02*
X169600000Y-106270000D01*
X133500000Y-132175000D02*
X132400000Y-131199999D01*
X179600000Y-136000000D02*
X179600000Y-132800000D01*
X169600000Y-106270000D02*
X169600000Y-106400000D01*
%TO.N,TX_ENABLE*%
X149700000Y-122975000D02*
X152000000Y-122975000D01*
X150000000Y-127000000D02*
X150000000Y-126800000D01*
X151175000Y-127000000D02*
X150000000Y-127000000D01*
X168000000Y-110080000D02*
X168000000Y-110000000D01*
X152000000Y-122975000D02*
X152000000Y-123200000D01*
X169250000Y-110080000D02*
X168000000Y-110080000D01*
%TO.N,TX_GATE*%
X144800000Y-122325000D02*
X144800000Y-122000000D01*
X150000000Y-130000000D02*
X150000000Y-129600000D01*
X151175000Y-130000000D02*
X150000000Y-130000000D01*
X156862500Y-123050000D02*
X155200000Y-123050000D01*
X170000000Y-136000000D02*
X170000000Y-132800000D01*
X155200000Y-123050000D02*
X155200000Y-123200000D01*
X146300000Y-122325000D02*
X144800000Y-122325000D01*
%TO.N,VBUS_PRESENT_N*%
X184937500Y-146500000D02*
X186000000Y-146500000D01*
X169250000Y-108810000D02*
X168000000Y-108810000D01*
X180825000Y-145000000D02*
X181600000Y-144000000D01*
X186000000Y-146500000D02*
X186000000Y-146400000D01*
X168000000Y-108810000D02*
X168000000Y-108400000D01*
%TO.N,STATUS_LED*%
X189175000Y-110000000D02*
X188000000Y-110000000D01*
X188000000Y-112620000D02*
X188000000Y-112800000D01*
X186750000Y-112620000D02*
X188000000Y-112620000D01*
%TO.N,LED1_A*%
X192212500Y-110000000D02*
X190800000Y-110000000D01*
X190825000Y-110000000D02*
X192000000Y-110000000D01*
%TO.N,LED2_A*%
X174825000Y-150000000D02*
X175200000Y-148800000D01*
X177787500Y-150000000D02*
X178800000Y-150000000D01*
%TO.N,EN*%
X160000000Y-108775000D02*
X161200000Y-111200000D01*
X160000000Y-111175000D02*
X161200000Y-111200000D01*
X170800000Y-103730000D02*
X170800000Y-104400000D01*
X152950000Y-103200000D02*
X151600000Y-103200000D01*
X157050000Y-103200000D02*
X158400000Y-103200000D01*
X169250000Y-103730000D02*
X170800000Y-103730000D01*
%TO.N,IO0*%
X197200000Y-116200000D02*
X197200000Y-116400000D01*
X190800000Y-116200000D02*
X190800000Y-116800000D01*
X191950000Y-116200000D02*
X190800000Y-116200000D01*
X186750000Y-118800000D02*
X186800000Y-118800000D01*
X196050000Y-116200000D02*
X197200000Y-116200000D01*
X186750000Y-117700000D02*
X186750000Y-118800000D01*
X190000000Y-114175000D02*
X190000000Y-112800000D01*
%TO.N,U0TXD*%
X192000000Y-105000000D02*
X193200000Y-105000000D01*
X186750000Y-105000000D02*
X188000000Y-105000000D01*
X193200000Y-105000000D02*
X193200000Y-104800000D01*
X188000000Y-105000000D02*
X188000000Y-104800000D01*
%TO.N,U0RXD*%
X186750000Y-106270000D02*
X188000000Y-106270000D01*
X192000000Y-108000000D02*
X193200000Y-108000000D01*
X188000000Y-106270000D02*
X188000000Y-106400000D01*
%TD*%
M02*
