%TF.GenerationSoftware,KiCad,Pcbnew,10.0.1-10.0.1~ubuntu24.04.1*%
%TF.CreationDate,1970-01-01T00:00:00+00:00*%
%TF.ProjectId,Esp32Tap,45737033-3254-4617-902e-6b696361645f,D*%
%TF.SameCoordinates,Original*%
%TF.FileFunction,Copper,L3,Inr*%
%TF.FilePolarity,Positive*%
%FSLAX46Y46*%
G04 Gerber Fmt 4.6, Leading zero omitted, Abs format (unit mm)*
G04 Created by KiCad (PCBNEW 10.0.1-10.0.1~ubuntu24.04.1) date 1970-01-01 00:00:00*
%MOMM*%
%LPD*%
G01*
G04 APERTURE LIST*
%TA.AperFunction,HeatsinkPad*%
%ADD10O,2.100000X1.000000*%
%TD*%
%TA.AperFunction,HeatsinkPad*%
%ADD11O,1.600000X1.000000*%
%TD*%
%TA.AperFunction,HeatsinkPad*%
%ADD12C,0.600000*%
%TD*%
%TA.AperFunction,ViaPad*%
%ADD13C,0.600000*%
%TD*%
%TA.AperFunction,ViaPad*%
%ADD14C,1.400000*%
%TD*%
%TA.AperFunction,ViaPad*%
%ADD15C,0.800000*%
%TD*%
%TA.AperFunction,Conductor*%
%ADD16C,0.600000*%
%TD*%
%TA.AperFunction,Conductor*%
%ADD17C,0.200000*%
%TD*%
%TA.AperFunction,Conductor*%
%ADD18C,0.300000*%
%TD*%
%TA.AperFunction,Conductor*%
%ADD19C,0.500000*%
%TD*%
%TA.AperFunction,Conductor*%
%ADD20C,0.400000*%
%TD*%
G04 APERTURE END LIST*
D10*
%TO.N,GND*%
%TO.C,J3*%
X188070000Y-140820000D03*
D11*
X192250000Y-140820000D03*
D10*
X188070000Y-132180000D03*
D11*
X192250000Y-132180000D03*
%TD*%
D12*
%TO.N,GND*%
%TO.C,U1*%
X175100000Y-114810000D03*
X175100000Y-116210000D03*
X175800000Y-114110000D03*
X175800000Y-115510000D03*
X175800000Y-116910000D03*
X176500000Y-114810000D03*
X176500000Y-116210000D03*
X177200000Y-114110000D03*
X177200000Y-115510000D03*
X177200000Y-116910000D03*
X177900000Y-114810000D03*
X177900000Y-116210000D03*
%TD*%
D13*
%TO.N,GND*%
X188800000Y-143600000D03*
X194000000Y-145600000D03*
X132800000Y-142000000D03*
X149200000Y-127200000D03*
X194000000Y-118000000D03*
X128800000Y-149200000D03*
D14*
X108850000Y-133829999D03*
D13*
X194000000Y-116000000D03*
X127200000Y-116400000D03*
X154000000Y-127200000D03*
X194000000Y-126800000D03*
X138800000Y-121600000D03*
X134400000Y-124800000D03*
X134400000Y-124000000D03*
D14*
X110350000Y-133829999D03*
D13*
X160000000Y-121600000D03*
X161600000Y-149600000D03*
X145200000Y-102800000D03*
X167200000Y-128400000D03*
X140800000Y-122800000D03*
X176400000Y-116800000D03*
X165200000Y-107600000D03*
D14*
X107350000Y-111830000D03*
X110350000Y-141450000D03*
D13*
X166000000Y-143600000D03*
X136800000Y-138400000D03*
X154000000Y-130000000D03*
X167600000Y-107600000D03*
X144000000Y-118000000D03*
X134000000Y-144800000D03*
X183137500Y-135000000D03*
X183200000Y-148800000D03*
X164000000Y-145600000D03*
X152800000Y-147600000D03*
X178400000Y-143600000D03*
X140000000Y-144800000D03*
D14*
X108850000Y-119450000D03*
D13*
X182000000Y-148000000D03*
X172800000Y-147200000D03*
D14*
X108850000Y-141450000D03*
D13*
X144000000Y-123200000D03*
D14*
X107350000Y-119450000D03*
X107350000Y-133829999D03*
D13*
X172800000Y-152000000D03*
X150000000Y-119600000D03*
X167200000Y-117600000D03*
X126800000Y-142000000D03*
X134000000Y-117200000D03*
X160000000Y-112800000D03*
X152800000Y-152000000D03*
X176000000Y-150000000D03*
D14*
X110350000Y-119450000D03*
D13*
X145200000Y-105200000D03*
X166400000Y-110800000D03*
X146000000Y-149600000D03*
X147200000Y-142000000D03*
X149200000Y-130000000D03*
X194000000Y-110000000D03*
X138000000Y-140400000D03*
X138400000Y-152000000D03*
D14*
X108850000Y-111830000D03*
D13*
X155600000Y-124800000D03*
D14*
X107350000Y-141450000D03*
D13*
X138800000Y-142000000D03*
D14*
X110350000Y-111830000D03*
D13*
X188800000Y-107600000D03*
X148000000Y-148000000D03*
D15*
%TO.N,+8V_RAW*%
X118400000Y-150000000D03*
X104000000Y-110550000D03*
X105000000Y-118180000D03*
X105000000Y-140180000D03*
X106000000Y-140180000D03*
X104000000Y-132550000D03*
X106000000Y-110550000D03*
X104000000Y-140180000D03*
X119400000Y-150000000D03*
X106000000Y-132550000D03*
X106000000Y-118180000D03*
X117400000Y-150000000D03*
X105000000Y-132550000D03*
X104000000Y-118180000D03*
X105000000Y-110550000D03*
D13*
%TO.N,VIN*%
X130800000Y-152400000D03*
X160800000Y-143600000D03*
X160000000Y-145600000D03*
X140800000Y-149600000D03*
X160400000Y-146400000D03*
X147600000Y-131199999D03*
X139200000Y-132800000D03*
X139600000Y-120000000D03*
X135600000Y-142000000D03*
X147200000Y-152000000D03*
X131600000Y-152000000D03*
X148000000Y-144800000D03*
X134400000Y-121200000D03*
X139200000Y-136800000D03*
X132800000Y-138400000D03*
X126800000Y-139200000D03*
%TO.N,BUCK_EN*%
X152000000Y-148000000D03*
X157600000Y-148400000D03*
X152000000Y-144800000D03*
%TO.N,+3V3*%
X160400000Y-123200000D03*
X158800000Y-114400000D03*
X133600000Y-133600000D03*
X148000000Y-128400000D03*
X160800000Y-121200000D03*
X133600000Y-131199999D03*
X190000000Y-115200000D03*
X148000000Y-123200000D03*
X138000000Y-131600000D03*
X167200000Y-151200000D03*
X154800000Y-144800000D03*
X178000000Y-144800000D03*
X167200000Y-147200000D03*
X167600000Y-109200000D03*
X146400000Y-119600000D03*
X166800000Y-152000000D03*
X172000000Y-150000000D03*
X138000000Y-130000000D03*
X166400000Y-115200000D03*
X166400000Y-110000000D03*
X142400000Y-131600000D03*
X142800000Y-137600000D03*
X155200000Y-143200000D03*
X156000000Y-121600000D03*
X151200000Y-120800000D03*
X136000000Y-136800000D03*
X175200000Y-143200000D03*
%TO.N,VBUS*%
X184800000Y-143000000D03*
X185400000Y-139600000D03*
X185400000Y-133199999D03*
X180200000Y-135000000D03*
X178000000Y-148000000D03*
X181800000Y-145550000D03*
%TO.N,CC1*%
X185500000Y-138200000D03*
X192400000Y-142675000D03*
%TO.N,CC2*%
X192400000Y-129824999D03*
X188400000Y-134750000D03*
%TO.N,CONS6*%
X162000000Y-119600000D03*
X108000000Y-113100000D03*
X127200000Y-113200000D03*
X125600000Y-122400000D03*
%TO.N,MOT6*%
X128800000Y-144800000D03*
X125600000Y-124400000D03*
X106800000Y-135200000D03*
%TO.N,TX_DRV*%
X141200000Y-114000000D03*
X126800000Y-128000000D03*
X168000000Y-132800000D03*
%TO.N,TX_BUF*%
X160400000Y-124800000D03*
X136800000Y-113200000D03*
%TO.N,ESP_TX*%
X169600000Y-119200000D03*
X154800000Y-121600000D03*
%TO.N,CONS_RX*%
X166000000Y-119600000D03*
X169600000Y-120400000D03*
%TO.N,PIN3*%
X162000000Y-117600000D03*
X106800000Y-138800000D03*
X109200000Y-116400000D03*
X136000000Y-117600000D03*
X138000000Y-135600000D03*
%TO.N,PIN3_RX*%
X164400000Y-114800000D03*
X169600000Y-118000000D03*
%TO.N,PIN4_PASS*%
X112400000Y-125200000D03*
X106800000Y-115600000D03*
X107600000Y-137600000D03*
%TO.N,PIN5_SAFETY*%
X106800000Y-114400000D03*
X107600000Y-136800000D03*
%TO.N,TREAD_OK*%
X143600000Y-140400000D03*
X147200000Y-139200000D03*
X151200000Y-122400000D03*
X137200000Y-140800000D03*
X155200000Y-132000000D03*
X132400000Y-141200000D03*
X154800000Y-129600000D03*
X144000000Y-121600000D03*
%TO.N,TREAD_OK_MCU*%
X168000000Y-114000000D03*
X158400000Y-130000000D03*
%TO.N,RELAY_CMD*%
X144800000Y-127200000D03*
X144800000Y-120800000D03*
X181200000Y-126800000D03*
%TO.N,RELAY_GATE*%
X138800000Y-120800000D03*
X158400000Y-132000000D03*
X144800000Y-130000000D03*
X135200000Y-126000000D03*
X152000000Y-121600000D03*
%TO.N,+5V_RLY*%
X129600000Y-114800000D03*
X152000000Y-128800000D03*
X138400000Y-124000000D03*
X140800000Y-127200000D03*
X142800000Y-115200000D03*
X139600000Y-115200000D03*
X126800000Y-111600000D03*
X155600000Y-126400000D03*
X150800000Y-120000000D03*
X126000000Y-118000000D03*
%TO.N,RELAY_SW*%
X133199999Y-115600000D03*
X133199999Y-111600000D03*
X162000000Y-133600000D03*
X137200000Y-115600000D03*
X133600000Y-118800000D03*
%TO.N,Q1_B*%
X135200000Y-119200000D03*
X140000000Y-119200000D03*
X134000000Y-113200000D03*
X136400000Y-116400000D03*
%TO.N,K1_NC_FB*%
X170800000Y-138400000D03*
X168000000Y-111600000D03*
X160400000Y-138400000D03*
X133600000Y-128800000D03*
X171200000Y-132800000D03*
X134400000Y-122400000D03*
%TO.N,K1_NO_FB*%
X135200000Y-139600000D03*
X170800000Y-139200000D03*
X135200000Y-132800000D03*
X152000000Y-124800000D03*
X171600000Y-124000000D03*
X153600000Y-123200000D03*
X142400000Y-130800000D03*
X132800000Y-128000000D03*
X174400000Y-132800000D03*
%TO.N,TX_ENABLE*%
X150000000Y-123200000D03*
X168000000Y-116800000D03*
X150000000Y-126800000D03*
%TO.N,TX_GATE*%
X163200000Y-139200000D03*
X155600000Y-123200000D03*
X154400000Y-126400000D03*
X150000000Y-129600000D03*
X143200000Y-124800000D03*
%TO.N,VBUS_PRESENT_N*%
X186000000Y-146400000D03*
X181600000Y-144000000D03*
X170800000Y-115600000D03*
%TO.N,STATUS_LED*%
X188800000Y-110000000D03*
X188000000Y-119200000D03*
%TO.N,LED1_A*%
X192000000Y-110000000D03*
X191200000Y-109600000D03*
%TO.N,LED2_A*%
X178800000Y-150000000D03*
X175200000Y-148400000D03*
%TO.N,EN*%
X167600000Y-110400000D03*
X160000000Y-116000000D03*
X138800000Y-102800000D03*
X138800000Y-105200000D03*
%TO.N,IO0*%
X190000000Y-111200000D03*
X186800000Y-125600000D03*
X188800000Y-118000000D03*
X188800000Y-116000000D03*
%TO.N,U0TXD*%
X136000000Y-103200000D03*
X187200000Y-111600000D03*
%TO.N,U0RXD*%
X142800000Y-113600000D03*
X139600000Y-111200000D03*
X135200000Y-106000000D03*
X136800000Y-111200000D03*
X187200000Y-112800000D03*
%TD*%
%TO.N,VIN*%
D16*
X143200000Y-131199999D02*
X143200000Y-132400000D01*
X130800000Y-152400000D02*
X130800000Y-152000000D01*
X130800000Y-152000000D02*
X131600000Y-152000000D01*
X160000000Y-146400000D02*
X160000000Y-145600000D01*
X160800000Y-143600000D02*
X160000000Y-143600000D01*
X134400000Y-121600000D02*
X132800000Y-121600000D01*
X148000000Y-144800000D02*
X147200000Y-144800000D01*
X132800000Y-127200000D02*
X132000000Y-127200000D01*
X134400000Y-120000000D02*
X134400000Y-121600000D01*
X160400000Y-146400000D02*
X160000000Y-146400000D01*
X160000000Y-143600000D02*
X160000000Y-145600000D01*
X132800000Y-121600000D02*
X132800000Y-127200000D01*
X132000000Y-127200000D02*
X132000000Y-138400000D01*
X143200000Y-132400000D02*
X139200000Y-132400000D01*
X139600000Y-120000000D02*
X134400000Y-120000000D01*
X147200000Y-152000000D02*
X140800000Y-152000000D01*
X147200000Y-144800000D02*
X147200000Y-152000000D01*
X126800000Y-138400000D02*
X126800000Y-139200000D01*
X147600000Y-131199999D02*
X143200000Y-131199999D01*
X139200000Y-136800000D02*
X139200000Y-132800000D01*
X139200000Y-132400000D02*
X139200000Y-132800000D01*
X140800000Y-152000000D02*
X140800000Y-149600000D01*
X132800000Y-138400000D02*
X126800000Y-138400000D01*
%TO.N,BUCK_EN*%
D17*
X152000000Y-148000000D02*
X152000000Y-144800000D01*
X152000000Y-148400000D02*
X152000000Y-148000000D01*
X157600000Y-148400000D02*
X152000000Y-148400000D01*
%TO.N,+3V3*%
D16*
X165600000Y-110800000D02*
X160000000Y-110800000D01*
X166400000Y-118800000D02*
X165200000Y-118800000D01*
X160000000Y-112000000D02*
X159200000Y-112000000D01*
X175200000Y-143200000D02*
X172000000Y-143200000D01*
X165600000Y-110000000D02*
X165600000Y-110800000D01*
X142400000Y-131600000D02*
X138000000Y-131600000D01*
X138000000Y-136800000D02*
X136000000Y-136800000D01*
X142800000Y-137600000D02*
X138000000Y-137600000D01*
X166400000Y-115200000D02*
X166400000Y-118800000D01*
X155200000Y-147200000D02*
X155200000Y-144800000D01*
X172000000Y-143200000D02*
X172000000Y-150000000D01*
X167600000Y-109200000D02*
X167600000Y-109600000D01*
X167200000Y-147200000D02*
X155200000Y-147200000D01*
X178000000Y-144800000D02*
X175200000Y-144800000D01*
X155600000Y-120800000D02*
X151200000Y-120800000D01*
X138000000Y-130000000D02*
X133600000Y-130000000D01*
X138000000Y-137600000D02*
X138000000Y-136800000D01*
X160000000Y-110800000D02*
X160000000Y-112000000D01*
X166400000Y-110000000D02*
X165600000Y-110000000D01*
X175200000Y-144800000D02*
X175200000Y-143200000D01*
X163600000Y-121200000D02*
X160800000Y-121200000D01*
X159200000Y-114400000D02*
X158800000Y-114400000D01*
X156000000Y-121600000D02*
X155600000Y-121600000D01*
X166400000Y-109600000D02*
X166400000Y-110000000D01*
X136000000Y-136800000D02*
X136000000Y-131600000D01*
X167600000Y-109600000D02*
X166400000Y-109600000D01*
X155200000Y-144800000D02*
X154800000Y-144800000D01*
X136000000Y-131600000D02*
X138000000Y-131600000D01*
X163600000Y-119600000D02*
X163600000Y-121200000D01*
X165200000Y-119600000D02*
X163600000Y-119600000D01*
X166800000Y-152000000D02*
X166800000Y-151200000D01*
X172000000Y-150000000D02*
X167200000Y-150000000D01*
X148000000Y-123200000D02*
X148000000Y-128400000D01*
X133600000Y-130000000D02*
X133600000Y-131199999D01*
X155600000Y-121600000D02*
X155600000Y-120800000D01*
X167200000Y-151200000D02*
X167200000Y-147200000D01*
X159200000Y-112000000D02*
X159200000Y-114400000D01*
X165200000Y-118800000D02*
X165200000Y-119600000D01*
X166800000Y-151200000D02*
X167200000Y-151200000D01*
%TO.N,VBUS*%
D18*
X185400000Y-133199999D02*
X180200000Y-135000000D01*
X180200000Y-135000000D02*
X185400000Y-139600000D01*
%TO.N,CONS6*%
D17*
X127200000Y-113200000D02*
X131199999Y-118000000D01*
X120000000Y-116000000D02*
X131199999Y-118000000D01*
X108000000Y-113100000D02*
X120000000Y-116000000D01*
X125600000Y-122400000D02*
X131199999Y-118000000D01*
X131199999Y-118000000D02*
X162000000Y-119600000D01*
%TO.N,MOT6*%
X111200000Y-135200000D02*
X106800000Y-135200000D01*
X111600000Y-134800000D02*
X111200000Y-134800000D01*
X111600000Y-124400000D02*
X111600000Y-134800000D01*
X111200000Y-134800000D02*
X111200000Y-135200000D01*
X125600000Y-144800000D02*
X125600000Y-124400000D01*
X125600000Y-124400000D02*
X111600000Y-124400000D01*
X128800000Y-144800000D02*
X125600000Y-144800000D01*
%TO.N,PIN3*%
X144800000Y-117600000D02*
X144800000Y-117200000D01*
X136000000Y-117200000D02*
X136000000Y-117600000D01*
X162000000Y-117600000D02*
X144800000Y-117600000D01*
X144800000Y-117200000D02*
X136000000Y-117200000D01*
%TO.N,PIN4_PASS*%
X112400000Y-135600000D02*
X112400000Y-125200000D01*
X108400000Y-136000000D02*
X112000000Y-136000000D01*
X107600000Y-137600000D02*
X108400000Y-137600000D01*
X112000000Y-136000000D02*
X112000000Y-135600000D01*
X112000000Y-135600000D02*
X112400000Y-135600000D01*
X108400000Y-137600000D02*
X108400000Y-136000000D01*
%TO.N,PIN5_SAFETY*%
X103200000Y-133199999D02*
X102800000Y-133199999D01*
X106000000Y-136000000D02*
X106000000Y-133600000D01*
X102800000Y-133199999D02*
X102800000Y-114400000D01*
X106800000Y-136800000D02*
X106800000Y-136000000D01*
X106000000Y-133600000D02*
X103200000Y-133600000D01*
X103200000Y-133600000D02*
X103200000Y-133199999D01*
X106800000Y-136000000D02*
X106000000Y-136000000D01*
X102800000Y-114400000D02*
X106800000Y-114400000D01*
X107600000Y-136800000D02*
X106800000Y-136800000D01*
%TO.N,TREAD_OK*%
X151200000Y-122400000D02*
X151200000Y-132000000D01*
X155200000Y-132000000D02*
X147200000Y-132000000D01*
X145600000Y-122400000D02*
X151200000Y-122400000D01*
X144000000Y-121600000D02*
X145600000Y-121600000D01*
X143600000Y-140400000D02*
X138800000Y-140400000D01*
X137200000Y-140800000D02*
X132400000Y-140800000D01*
X147200000Y-139200000D02*
X143600000Y-139200000D01*
X132400000Y-140800000D02*
X132400000Y-141200000D01*
X143600000Y-139200000D02*
X143600000Y-140400000D01*
X147200000Y-132000000D02*
X147200000Y-139200000D01*
X154800000Y-129600000D02*
X154800000Y-132000000D01*
X145600000Y-121600000D02*
X145600000Y-122400000D01*
X137200000Y-141200000D02*
X137200000Y-140800000D01*
X138800000Y-140400000D02*
X138800000Y-141200000D01*
X138800000Y-141200000D02*
X137200000Y-141200000D01*
%TO.N,TREAD_OK_MCU*%
X162800000Y-114000000D02*
X162800000Y-120400000D01*
X162800000Y-120400000D02*
X158400000Y-120400000D01*
X158400000Y-120400000D02*
X158400000Y-130000000D01*
X168000000Y-114000000D02*
X162800000Y-114000000D01*
%TO.N,RELAY_CMD*%
X144800000Y-127200000D02*
X144800000Y-124000000D01*
X143200000Y-124000000D02*
X143200000Y-120800000D01*
X144800000Y-124000000D02*
X143200000Y-124000000D01*
X143200000Y-120800000D02*
X144800000Y-120800000D01*
%TO.N,RELAY_GATE*%
X138800000Y-130000000D02*
X138800000Y-126000000D01*
X142400000Y-120800000D02*
X138800000Y-120800000D01*
X138800000Y-120800000D02*
X135200000Y-120800000D01*
X146400000Y-120800000D02*
X145600000Y-120800000D01*
X146400000Y-121600000D02*
X146400000Y-120800000D01*
X145600000Y-120800000D02*
X145600000Y-120000000D01*
X144800000Y-130000000D02*
X138800000Y-130000000D01*
X145600000Y-120000000D02*
X142400000Y-120000000D01*
X135200000Y-120800000D02*
X135200000Y-126000000D01*
X142400000Y-120000000D02*
X142400000Y-120800000D01*
X138800000Y-126000000D02*
X135200000Y-126000000D01*
X152000000Y-121600000D02*
X146400000Y-121600000D01*
%TO.N,+5V_RLY*%
D19*
X140800000Y-127200000D02*
X139600000Y-127200000D01*
X156800000Y-120800000D02*
X156400000Y-120800000D01*
X128400000Y-113200000D02*
X128000000Y-113200000D01*
X128400000Y-113600000D02*
X128400000Y-113200000D01*
X156400000Y-120000000D02*
X150800000Y-120000000D01*
X129600000Y-114400000D02*
X129199999Y-114400000D01*
X128800000Y-113600000D02*
X128400000Y-113600000D01*
X129199999Y-114400000D02*
X129199999Y-114000000D01*
X156400000Y-120800000D02*
X156400000Y-120000000D01*
X155600000Y-125600000D02*
X156400000Y-125600000D01*
X128000000Y-112400000D02*
X126800000Y-112400000D01*
X139600000Y-127200000D02*
X139600000Y-125200000D01*
X126800000Y-112400000D02*
X126800000Y-111600000D01*
X129199999Y-114000000D02*
X128800000Y-114000000D01*
X156800000Y-122400000D02*
X156800000Y-120800000D01*
X156400000Y-122400000D02*
X156800000Y-122400000D01*
X129600000Y-114800000D02*
X129600000Y-114400000D01*
X139600000Y-125200000D02*
X138400000Y-125200000D01*
X155600000Y-126400000D02*
X155600000Y-125600000D01*
X128000000Y-113200000D02*
X128000000Y-112400000D01*
X142800000Y-115200000D02*
X139600000Y-115200000D01*
X128800000Y-114000000D02*
X128800000Y-113600000D01*
X156400000Y-125600000D02*
X156400000Y-122400000D01*
X138400000Y-125200000D02*
X138400000Y-124000000D01*
%TO.N,RELAY_SW*%
D20*
X133199999Y-115600000D02*
X133199999Y-111600000D01*
X137200000Y-115600000D02*
X133199999Y-115600000D01*
%TO.N,Q1_B*%
D17*
X138000000Y-116400000D02*
X138000000Y-114800000D01*
X138000000Y-114800000D02*
X134000000Y-114800000D01*
X140000000Y-119200000D02*
X135200000Y-119200000D01*
X134000000Y-114800000D02*
X134000000Y-113200000D01*
X136400000Y-116400000D02*
X138000000Y-116400000D01*
%TO.N,K1_NC_FB*%
X168000000Y-111600000D02*
X168000000Y-113200000D01*
X168000000Y-113200000D02*
X168800000Y-113200000D01*
X168800000Y-122400000D02*
X161200000Y-122400000D01*
X161200000Y-122400000D02*
X161200000Y-125600000D01*
X168800000Y-113200000D02*
X168800000Y-122400000D01*
X160400000Y-125600000D02*
X160400000Y-138400000D01*
X171200000Y-132800000D02*
X171200000Y-133600000D01*
X161200000Y-125600000D02*
X160400000Y-125600000D01*
X171200000Y-133600000D02*
X170800000Y-133600000D01*
X134400000Y-122400000D02*
X133600000Y-122400000D01*
X170800000Y-133600000D02*
X170800000Y-138400000D01*
X133600000Y-122400000D02*
X133600000Y-128800000D01*
%TO.N,K1_NO_FB*%
X153600000Y-124800000D02*
X152000000Y-124800000D01*
X172000000Y-134400000D02*
X171600000Y-134400000D01*
X142400000Y-130800000D02*
X135200000Y-130800000D01*
X171600000Y-134400000D02*
X171600000Y-139200000D01*
X135200000Y-132800000D02*
X132800000Y-132800000D01*
X132800000Y-132800000D02*
X132800000Y-128000000D01*
X174400000Y-132800000D02*
X172000000Y-132800000D01*
X172000000Y-132800000D02*
X172000000Y-134400000D01*
X153600000Y-123200000D02*
X153600000Y-124800000D01*
X135200000Y-130800000D02*
X135200000Y-132800000D01*
X135200000Y-139600000D02*
X135200000Y-132800000D01*
X171600000Y-139200000D02*
X170800000Y-139200000D01*
%TO.N,TX_ENABLE*%
X150000000Y-126800000D02*
X150000000Y-123200000D01*
%TO.N,TX_GATE*%
X154800000Y-128800000D02*
X154800000Y-126400000D01*
X155600000Y-131199999D02*
X155600000Y-128800000D01*
X150000000Y-129199999D02*
X143200000Y-129199999D01*
X155600000Y-123200000D02*
X154400000Y-123200000D01*
X150000000Y-129600000D02*
X150000000Y-129199999D01*
X156000000Y-139200000D02*
X156000000Y-131199999D01*
X155600000Y-128800000D02*
X154800000Y-128800000D01*
X154800000Y-126400000D02*
X154400000Y-126400000D01*
X156000000Y-131199999D02*
X155600000Y-131199999D01*
X154400000Y-123200000D02*
X154400000Y-126400000D01*
X143200000Y-129199999D02*
X143200000Y-124800000D01*
X163200000Y-139200000D02*
X156000000Y-139200000D01*
%TO.N,VBUS_PRESENT_N*%
X170000000Y-140000000D02*
X181600000Y-144000000D01*
X170800000Y-115600000D02*
X170000000Y-140000000D01*
X181600000Y-144000000D02*
X186000000Y-146400000D01*
%TO.N,STATUS_LED*%
X188800000Y-110000000D02*
X188800000Y-111200000D01*
X188000000Y-111200000D02*
X188000000Y-119200000D01*
X188800000Y-111200000D02*
X188000000Y-111200000D01*
%TO.N,LED1_A*%
X192000000Y-110000000D02*
X191200000Y-110000000D01*
X191200000Y-110000000D02*
X191200000Y-109600000D01*
%TO.N,LED2_A*%
X176800000Y-149200000D02*
X175200000Y-149200000D01*
X176800000Y-150000000D02*
X176800000Y-149200000D01*
X178800000Y-150000000D02*
X176800000Y-150000000D01*
X175200000Y-149200000D02*
X175200000Y-148400000D01*
%TO.N,EN*%
X160000000Y-116000000D02*
X138800000Y-116000000D01*
X160000000Y-113600000D02*
X160000000Y-116000000D01*
X167600000Y-110400000D02*
X167200000Y-110400000D01*
X167200000Y-110400000D02*
X167200000Y-111600000D01*
X138800000Y-105200000D02*
X138800000Y-102800000D01*
X160800000Y-113600000D02*
X160000000Y-113600000D01*
X138800000Y-116000000D02*
X138800000Y-105200000D01*
X160800000Y-111600000D02*
X160800000Y-113600000D01*
X167200000Y-111600000D02*
X160800000Y-111600000D01*
%TO.N,IO0*%
X188800000Y-120000000D02*
X186800000Y-120000000D01*
X189600000Y-112000000D02*
X188800000Y-112000000D01*
X190000000Y-111200000D02*
X189600000Y-111200000D01*
X188800000Y-112000000D02*
X188800000Y-116000000D01*
X186800000Y-120000000D02*
X186800000Y-125600000D01*
X188800000Y-116000000D02*
X188800000Y-118000000D01*
X188800000Y-118000000D02*
X188800000Y-120000000D01*
X189600000Y-111200000D02*
X189600000Y-112000000D01*
%TO.N,U0RXD*%
X142800000Y-113600000D02*
X142000000Y-113600000D01*
X135200000Y-111200000D02*
X135200000Y-106000000D01*
X142000000Y-113600000D02*
X142000000Y-113200000D01*
X142000000Y-113200000D02*
X139600000Y-113200000D01*
X136800000Y-111200000D02*
X135200000Y-111200000D01*
X139600000Y-113200000D02*
X139600000Y-111200000D01*
%TD*%
M02*
