%TF.GenerationSoftware,KiCad,Pcbnew,10.0.1-10.0.1~ubuntu24.04.1*%
%TF.CreationDate,1970-01-01T00:00:00+00:00*%
%TF.ProjectId,Esp32Tap,45737033-3254-4617-902e-6b696361645f,E*%
%TF.SameCoordinates,Original*%
%TF.FileFunction,Copper,L1,Top*%
%TF.FilePolarity,Positive*%
%FSLAX46Y46*%
G04 Gerber Fmt 4.6, Leading zero omitted, Abs format (unit mm)*
G04 Created by KiCad (PCBNEW 10.0.1-10.0.1~ubuntu24.04.1) date 1970-01-01 00:00:00*
%MOMM*%
%LPD*%
G01*
G04 APERTURE LIST*
G04 Aperture macros list*
%AMRoundRect*
0 Rectangle with rounded corners*
0 $1 Rounding radius*
0 $2 $3 $4 $5 $6 $7 $8 $9 X,Y pos of 4 corners*
0 Add a 4 corners polygon primitive as box body*
4,1,4,$2,$3,$4,$5,$6,$7,$8,$9,$2,$3,0*
0 Add four circle primitives for the rounded corners*
1,1,$1+$1,$2,$3*
1,1,$1+$1,$4,$5*
1,1,$1+$1,$6,$7*
1,1,$1+$1,$8,$9*
0 Add four rect primitives between the rounded corners*
20,1,$1+$1,$2,$3,$4,$5,0*
20,1,$1+$1,$4,$5,$6,$7,0*
20,1,$1+$1,$6,$7,$8,$9,0*
20,1,$1+$1,$8,$9,$2,$3,0*%
G04 Aperture macros list end*
%TA.AperFunction,SMDPad,CuDef*%
%ADD10RoundRect,0.225000X0.250000X-0.225000X0.250000X0.225000X-0.250000X0.225000X-0.250000X-0.225000X0*%
%TD*%
%TA.AperFunction,SMDPad,CuDef*%
%ADD11R,1.500000X1.500000*%
%TD*%
%TA.AperFunction,SMDPad,CuDef*%
%ADD12RoundRect,0.200000X-0.200000X-0.275000X0.200000X-0.275000X0.200000X0.275000X-0.200000X0.275000X0*%
%TD*%
%TA.AperFunction,SMDPad,CuDef*%
%ADD13RoundRect,0.200000X0.275000X-0.200000X0.275000X0.200000X-0.275000X0.200000X-0.275000X-0.200000X0*%
%TD*%
%TA.AperFunction,SMDPad,CuDef*%
%ADD14RoundRect,0.250000X-0.300000X-1.600000X0.300000X-1.600000X0.300000X1.600000X-0.300000X1.600000X0*%
%TD*%
%TA.AperFunction,SMDPad,CuDef*%
%ADD15R,0.600000X1.450000*%
%TD*%
%TA.AperFunction,SMDPad,CuDef*%
%ADD16R,0.300000X1.450000*%
%TD*%
%TA.AperFunction,HeatsinkPad*%
%ADD17O,1.000000X2.100000*%
%TD*%
%TA.AperFunction,HeatsinkPad*%
%ADD18O,1.000000X1.600000*%
%TD*%
%TA.AperFunction,SMDPad,CuDef*%
%ADD19RoundRect,0.150000X0.150000X-0.587500X0.150000X0.587500X-0.150000X0.587500X-0.150000X-0.587500X0*%
%TD*%
%TA.AperFunction,SMDPad,CuDef*%
%ADD20RoundRect,0.250000X-0.325000X-0.650000X0.325000X-0.650000X0.325000X0.650000X-0.325000X0.650000X0*%
%TD*%
%TA.AperFunction,SMDPad,CuDef*%
%ADD21RoundRect,0.150000X0.512500X0.150000X-0.512500X0.150000X-0.512500X-0.150000X0.512500X-0.150000X0*%
%TD*%
%TA.AperFunction,SMDPad,CuDef*%
%ADD22RoundRect,0.225000X-0.225000X-0.250000X0.225000X-0.250000X0.225000X0.250000X-0.225000X0.250000X0*%
%TD*%
%TA.AperFunction,SMDPad,CuDef*%
%ADD23RoundRect,0.218750X0.218750X0.256250X-0.218750X0.256250X-0.218750X-0.256250X0.218750X-0.256250X0*%
%TD*%
%TA.AperFunction,SMDPad,CuDef*%
%ADD24RoundRect,0.250000X-1.000000X-0.900000X1.000000X-0.900000X1.000000X0.900000X-1.000000X0.900000X0*%
%TD*%
%TA.AperFunction,SMDPad,CuDef*%
%ADD25RoundRect,0.250000X-0.325000X-1.100000X0.325000X-1.100000X0.325000X1.100000X-0.325000X1.100000X0*%
%TD*%
%TA.AperFunction,SMDPad,CuDef*%
%ADD26RoundRect,0.225000X-0.250000X0.225000X-0.250000X-0.225000X0.250000X-0.225000X0.250000X0.225000X0*%
%TD*%
%TA.AperFunction,SMDPad,CuDef*%
%ADD27R,1.050000X0.650000*%
%TD*%
%TA.AperFunction,SMDPad,CuDef*%
%ADD28R,2.540000X0.640000*%
%TD*%
%TA.AperFunction,SMDPad,CuDef*%
%ADD29R,5.210000X2.540000*%
%TD*%
%TA.AperFunction,SMDPad,CuDef*%
%ADD30RoundRect,0.150000X-0.512500X-0.150000X0.512500X-0.150000X0.512500X0.150000X-0.512500X0.150000X0*%
%TD*%
%TA.AperFunction,SMDPad,CuDef*%
%ADD31RoundRect,0.200000X0.200000X0.275000X-0.200000X0.275000X-0.200000X-0.275000X0.200000X-0.275000X0*%
%TD*%
%TA.AperFunction,SMDPad,CuDef*%
%ADD32RoundRect,0.112500X-0.112500X0.187500X-0.112500X-0.187500X0.112500X-0.187500X0.112500X0.187500X0*%
%TD*%
%TA.AperFunction,SMDPad,CuDef*%
%ADD33RoundRect,0.250000X0.475000X-0.250000X0.475000X0.250000X-0.475000X0.250000X-0.475000X-0.250000X0*%
%TD*%
%TA.AperFunction,SMDPad,CuDef*%
%ADD34R,1.500000X0.900000*%
%TD*%
%TA.AperFunction,SMDPad,CuDef*%
%ADD35R,0.900000X1.500000*%
%TD*%
%TA.AperFunction,HeatsinkPad*%
%ADD36C,0.600000*%
%TD*%
%TA.AperFunction,HeatsinkPad*%
%ADD37R,3.900000X3.900000*%
%TD*%
%TA.AperFunction,SMDPad,CuDef*%
%ADD38R,1.600000X0.300000*%
%TD*%
%TA.AperFunction,SMDPad,CuDef*%
%ADD39RoundRect,0.218750X-0.218750X-0.256250X0.218750X-0.256250X0.218750X0.256250X-0.218750X0.256250X0*%
%TD*%
%TA.AperFunction,SMDPad,CuDef*%
%ADD40RoundRect,0.250000X-0.312500X-1.450000X0.312500X-1.450000X0.312500X1.450000X-0.312500X1.450000X0*%
%TD*%
%TA.AperFunction,SMDPad,CuDef*%
%ADD41RoundRect,0.250000X1.000000X0.650000X-1.000000X0.650000X-1.000000X-0.650000X1.000000X-0.650000X0*%
%TD*%
%TA.AperFunction,SMDPad,CuDef*%
%ADD42RoundRect,0.250000X-1.000000X-0.650000X1.000000X-0.650000X1.000000X0.650000X-1.000000X0.650000X0*%
%TD*%
%TA.AperFunction,SMDPad,CuDef*%
%ADD43R,1.800000X0.800000*%
%TD*%
%TA.AperFunction,SMDPad,CuDef*%
%ADD44RoundRect,0.150000X-0.587500X-0.150000X0.587500X-0.150000X0.587500X0.150000X-0.587500X0.150000X0*%
%TD*%
%TA.AperFunction,ViaPad*%
%ADD45C,0.600000*%
%TD*%
%TA.AperFunction,ViaPad*%
%ADD46C,1.400000*%
%TD*%
%TA.AperFunction,ViaPad*%
%ADD47C,0.800000*%
%TD*%
%TA.AperFunction,Conductor*%
%ADD48C,0.300000*%
%TD*%
%TA.AperFunction,Conductor*%
%ADD49C,1.400000*%
%TD*%
%TA.AperFunction,Conductor*%
%ADD50C,1.000000*%
%TD*%
%TA.AperFunction,Conductor*%
%ADD51C,2.000000*%
%TD*%
%TA.AperFunction,Conductor*%
%ADD52C,1.200000*%
%TD*%
%TA.AperFunction,Conductor*%
%ADD53C,0.800000*%
%TD*%
%TA.AperFunction,Conductor*%
%ADD54C,0.250000*%
%TD*%
%TA.AperFunction,Conductor*%
%ADD55C,0.600000*%
%TD*%
%TA.AperFunction,Conductor*%
%ADD56C,0.200000*%
%TD*%
%TA.AperFunction,Conductor*%
%ADD57C,0.500000*%
%TD*%
%TA.AperFunction,Conductor*%
%ADD58C,0.290600*%
%TD*%
G04 APERTURE END LIST*
D10*
%TO.P,C11,1*%
%TO.N,VBUS*%
X190200000Y-147175000D03*
%TO.P,C11,2*%
%TO.N,GND*%
X190200000Y-145625000D03*
%TD*%
D11*
%TO.P,TP6,1*%
%TO.N,+5V_RLY*%
X152200000Y-136000000D03*
%TD*%
D12*
%TO.P,R24,1*%
%TO.N,RELAY_GATE*%
X146175000Y-130000000D03*
%TO.P,R24,2*%
%TO.N,GND*%
X147825000Y-130000000D03*
%TD*%
D13*
%TO.P,R31,1*%
%TO.N,+3V3*%
X190000000Y-113825000D03*
%TO.P,R31,2*%
%TO.N,IO0*%
X190000000Y-112175000D03*
%TD*%
D12*
%TO.P,R7,1*%
%TO.N,CONS6*%
X163175000Y-119600000D03*
%TO.P,R7,2*%
%TO.N,CONS_RX*%
X164825000Y-119600000D03*
%TD*%
D14*
%TO.P,L1,1*%
%TO.N,SW_NODE*%
X163500000Y-148500000D03*
%TO.P,L1,2*%
%TO.N,+3V3*%
X166500000Y-148500000D03*
%TD*%
D15*
%TO.P,J3,A1*%
%TO.N,GND*%
X180350000Y-147155000D03*
%TO.P,J3,A4*%
%TO.N,VBUS*%
X181150000Y-147155000D03*
D16*
%TO.P,J3,A5*%
%TO.N,CC1*%
X182350000Y-147155000D03*
%TO.P,J3,A6*%
%TO.N,USB_DP*%
X183350000Y-147155000D03*
%TO.P,J3,A7*%
%TO.N,USB_DN*%
X183850000Y-147155000D03*
%TO.P,J3,A8*%
%TO.N,unconnected-(J3-SBU1-PadA8)*%
X184850000Y-147155000D03*
D15*
%TO.P,J3,A9*%
%TO.N,VBUS*%
X186050000Y-147155000D03*
%TO.P,J3,A12*%
%TO.N,GND*%
X186850000Y-147155000D03*
%TO.P,J3,B1*%
X186850000Y-147155000D03*
%TO.P,J3,B4*%
%TO.N,VBUS*%
X186050000Y-147155000D03*
D16*
%TO.P,J3,B5*%
%TO.N,CC2*%
X185350000Y-147155000D03*
%TO.P,J3,B6*%
%TO.N,USB_DP*%
X184350000Y-147155000D03*
%TO.P,J3,B7*%
%TO.N,USB_DN*%
X182850000Y-147155000D03*
%TO.P,J3,B8*%
%TO.N,unconnected-(J3-SBU2-PadB8)*%
X181850000Y-147155000D03*
D15*
%TO.P,J3,B9*%
%TO.N,VBUS*%
X181150000Y-147155000D03*
%TO.P,J3,B12*%
%TO.N,GND*%
X180350000Y-147155000D03*
D17*
%TO.P,J3,S1*%
X179280000Y-148070000D03*
D18*
X179280000Y-152250000D03*
D17*
X187920000Y-148070000D03*
D18*
X187920000Y-152250000D03*
%TD*%
D12*
%TO.P,R11,1*%
%TO.N,STATUS_LED*%
X189175000Y-110000000D03*
%TO.P,R11,2*%
%TO.N,LED1_A*%
X190825000Y-110000000D03*
%TD*%
%TO.P,R25,1*%
%TO.N,+3V3*%
X125775000Y-133000000D03*
%TO.P,R25,2*%
%TO.N,K1_NC_FB*%
X127425000Y-133000000D03*
%TD*%
D19*
%TO.P,Q2,1*%
%TO.N,VBUS*%
X175450000Y-152137500D03*
%TO.P,Q2,2*%
%TO.N,GND*%
X177350000Y-152137500D03*
%TO.P,Q2,3*%
%TO.N,VBUS_PRESENT_N*%
X176400000Y-150262500D03*
%TD*%
D20*
%TO.P,C3,1*%
%TO.N,VIN*%
X162025000Y-143500000D03*
%TO.P,C3,2*%
%TO.N,GND*%
X164975000Y-143500000D03*
%TD*%
D12*
%TO.P,R15,1*%
%TO.N,USB_DN_MCU*%
X165675000Y-122100000D03*
%TO.P,R15,2*%
%TO.N,USB_DN_R*%
X167325000Y-122100000D03*
%TD*%
D10*
%TO.P,C13,1*%
%TO.N,USB_DN_R*%
X167300000Y-120175000D03*
%TO.P,C13,2*%
%TO.N,GND*%
X167300000Y-118625000D03*
%TD*%
D12*
%TO.P,R17,1*%
%TO.N,VIN*%
X128175000Y-139000000D03*
%TO.P,R17,2*%
%TO.N,UV_SENSE*%
X129825000Y-139000000D03*
%TD*%
D21*
%TO.P,U3,1*%
%TO.N,USB_DN*%
X177137500Y-148250000D03*
%TO.P,U3,2*%
%TO.N,GND*%
X177137500Y-147300000D03*
%TO.P,U3,3*%
%TO.N,USB_DP*%
X177137500Y-146350000D03*
%TO.P,U3,4*%
%TO.N,USB_DP_MCU*%
X174862500Y-146350000D03*
%TO.P,U3,5*%
%TO.N,VBUS*%
X174862500Y-147300000D03*
%TO.P,U3,6*%
%TO.N,USB_DN_MCU*%
X174862500Y-148250000D03*
%TD*%
D12*
%TO.P,R19,1*%
%TO.N,VIN*%
X140175000Y-139000000D03*
%TO.P,R19,2*%
%TO.N,OV_SENSE*%
X141825000Y-139000000D03*
%TD*%
%TO.P,R1,1*%
%TO.N,+3V3*%
X156175000Y-145000000D03*
%TO.P,R1,2*%
%TO.N,FB*%
X157825000Y-145000000D03*
%TD*%
D11*
%TO.P,TP3,1*%
%TO.N,+3V3*%
X122000000Y-144000000D03*
%TD*%
D22*
%TO.P,C19,1*%
%TO.N,OV_SENSE*%
X137225000Y-145000000D03*
%TO.P,C19,2*%
%TO.N,GND*%
X138775000Y-145000000D03*
%TD*%
D23*
%TO.P,LED1,1*%
%TO.N,GND*%
X193787500Y-110000000D03*
%TO.P,LED1,2*%
%TO.N,LED1_A*%
X192212500Y-110000000D03*
%TD*%
D11*
%TO.P,TP9,1*%
%TO.N,RELAY_SW*%
X161800000Y-136000000D03*
%TD*%
D12*
%TO.P,R21,1*%
%TO.N,+3V3*%
X144175000Y-139000000D03*
%TO.P,R21,2*%
%TO.N,TREAD_OK*%
X145825000Y-139000000D03*
%TD*%
D24*
%TO.P,D3,1*%
%TO.N,VIN*%
X132850000Y-152000000D03*
%TO.P,D3,2*%
%TO.N,GND*%
X137150000Y-152000000D03*
%TD*%
D25*
%TO.P,C1,1*%
%TO.N,VIN*%
X142025000Y-149500000D03*
%TO.P,C1,2*%
%TO.N,GND*%
X144975000Y-149500000D03*
%TD*%
D26*
%TO.P,C14,1*%
%TO.N,USB_DP_R*%
X167300000Y-125825000D03*
%TO.P,C14,2*%
%TO.N,GND*%
X167300000Y-127375000D03*
%TD*%
D11*
%TO.P,TP12,1*%
%TO.N,K1_NC_FB*%
X170960000Y-136000000D03*
%TD*%
D22*
%TO.P,C21,1*%
%TO.N,+3V3*%
X157225000Y-121500000D03*
%TO.P,C21,2*%
%TO.N,GND*%
X158775000Y-121500000D03*
%TD*%
D27*
%TO.P,SW2,1*%
%TO.N,IO0*%
X188925000Y-115925000D03*
X188925000Y-118075000D03*
%TO.P,SW2,2*%
%TO.N,GND*%
X193075000Y-115925000D03*
X193075000Y-118075000D03*
%TD*%
D28*
%TO.P,J1,1*%
%TO.N,GND*%
X117800000Y-132550000D03*
%TO.P,J1,2*%
%TO.N,+8V_RAW*%
X117800000Y-133820000D03*
%TO.P,J1,3*%
%TO.N,PIN3*%
X117800000Y-135090000D03*
%TO.P,J1,4*%
%TO.N,PIN4_PASS*%
X117800000Y-136360000D03*
%TO.P,J1,5*%
%TO.N,PIN5_SAFETY*%
X117800000Y-137630000D03*
%TO.P,J1,6*%
%TO.N,CONS6*%
X117800000Y-138900000D03*
%TO.P,J1,7*%
%TO.N,GND*%
X117800000Y-140170000D03*
%TO.P,J1,8*%
%TO.N,+8V_RAW*%
X117800000Y-141450000D03*
D29*
%TO.P,J1,9*%
%TO.N,unconnected-(J1-NC-Pad9)*%
X106000000Y-143350000D03*
%TO.P,J1,10*%
%TO.N,unconnected-(J1-NC-Pad10)*%
X106000000Y-130650000D03*
%TD*%
D22*
%TO.P,C20,1*%
%TO.N,+3V3*%
X147225000Y-119500000D03*
%TO.P,C20,2*%
%TO.N,GND*%
X148775000Y-119500000D03*
%TD*%
D11*
%TO.P,TP1,1*%
%TO.N,U0TXD*%
X192000000Y-124400000D03*
%TD*%
D13*
%TO.P,R9,1*%
%TO.N,RELAY_GATE*%
X138500000Y-119825000D03*
%TO.P,R9,2*%
%TO.N,Q1_B*%
X138500000Y-118175000D03*
%TD*%
D22*
%TO.P,C5,1*%
%TO.N,BST*%
X160325000Y-151100000D03*
%TO.P,C5,2*%
%TO.N,SW_NODE*%
X161875000Y-151100000D03*
%TD*%
D11*
%TO.P,TP13,1*%
%TO.N,K1_NO_FB*%
X173920000Y-136000000D03*
%TD*%
D12*
%TO.P,R30,1*%
%TO.N,+3V3*%
X168975000Y-149500000D03*
%TO.P,R30,2*%
%TO.N,VBUS_PRESENT_N*%
X170625000Y-149500000D03*
%TD*%
D10*
%TO.P,C9,1*%
%TO.N,+3V3*%
X166500000Y-109375000D03*
%TO.P,C9,2*%
%TO.N,GND*%
X166500000Y-107825000D03*
%TD*%
D12*
%TO.P,R8,1*%
%TO.N,PIN3*%
X163175000Y-117100000D03*
%TO.P,R8,2*%
%TO.N,PIN3_RX*%
X164825000Y-117100000D03*
%TD*%
%TO.P,R12,1*%
%TO.N,+3V3*%
X143575000Y-152400000D03*
%TO.P,R12,2*%
%TO.N,LED2_A*%
X145225000Y-152400000D03*
%TD*%
D27*
%TO.P,SW1,1*%
%TO.N,EN*%
X139925000Y-102925000D03*
X139925000Y-105075000D03*
%TO.P,SW1,2*%
%TO.N,GND*%
X144075000Y-102925000D03*
X144075000Y-105075000D03*
%TD*%
D10*
%TO.P,C10,1*%
%TO.N,EN*%
X160000000Y-115375000D03*
%TO.P,C10,2*%
%TO.N,GND*%
X160000000Y-113825000D03*
%TD*%
D28*
%TO.P,J2,1*%
%TO.N,GND*%
X177200000Y-141450000D03*
%TO.P,J2,2*%
%TO.N,+8V_RAW*%
X177200000Y-140180000D03*
%TO.P,J2,3*%
%TO.N,PIN3*%
X177200000Y-138910000D03*
%TO.P,J2,4*%
%TO.N,PIN4_PASS*%
X177200000Y-137640000D03*
%TO.P,J2,5*%
%TO.N,PIN5_SAFETY*%
X177200000Y-136370000D03*
%TO.P,J2,6*%
%TO.N,MOT6*%
X177200000Y-135100000D03*
%TO.P,J2,7*%
%TO.N,GND*%
X177200000Y-133830000D03*
%TO.P,J2,8*%
%TO.N,+8V_RAW*%
X177200000Y-132550000D03*
D29*
%TO.P,J2,9*%
%TO.N,unconnected-(J2-NC-Pad9)*%
X189000000Y-130650000D03*
%TO.P,J2,10*%
%TO.N,unconnected-(J2-NC-Pad10)*%
X189000000Y-143350000D03*
%TD*%
D30*
%TO.P,U7,1*%
%TO.N,TX_GATE*%
X156862500Y-123050000D03*
%TO.P,U7,2*%
%TO.N,ESP_TX*%
X156862500Y-124000000D03*
%TO.P,U7,3*%
%TO.N,GND*%
X156862500Y-124950000D03*
%TO.P,U7,4*%
%TO.N,TX_BUF*%
X159137500Y-124950000D03*
%TO.P,U7,5*%
%TO.N,+3V3*%
X159137500Y-123050000D03*
%TD*%
D12*
%TO.P,R14,1*%
%TO.N,GND*%
X149175000Y-148000000D03*
%TO.P,R14,2*%
%TO.N,BUCK_EN*%
X150825000Y-148000000D03*
%TD*%
D13*
%TO.P,R13,1*%
%TO.N,+3V3*%
X160000000Y-119425000D03*
%TO.P,R13,2*%
%TO.N,EN*%
X160000000Y-117775000D03*
%TD*%
D11*
%TO.P,TP10,1*%
%TO.N,TX_GATE*%
X165000000Y-136000000D03*
%TD*%
D22*
%TO.P,C17,1*%
%TO.N,VIN*%
X134225000Y-139400000D03*
%TO.P,C17,2*%
%TO.N,GND*%
X135775000Y-139400000D03*
%TD*%
D12*
%TO.P,R28,1*%
%TO.N,TX_GATE*%
X151175000Y-130000000D03*
%TO.P,R28,2*%
%TO.N,GND*%
X152825000Y-130000000D03*
%TD*%
D31*
%TO.P,R20,1*%
%TO.N,OV_SENSE*%
X141825000Y-142000000D03*
%TO.P,R20,2*%
%TO.N,GND*%
X140175000Y-142000000D03*
%TD*%
D22*
%TO.P,C18,1*%
%TO.N,UV_SENSE*%
X131225000Y-145000000D03*
%TO.P,C18,2*%
%TO.N,GND*%
X132775000Y-145000000D03*
%TD*%
D25*
%TO.P,C6,1*%
%TO.N,+3V3*%
X168325000Y-147000000D03*
%TO.P,C6,2*%
%TO.N,GND*%
X171275000Y-147000000D03*
%TD*%
D11*
%TO.P,TP8,1*%
%TO.N,RELAY_GATE*%
X158600000Y-136000000D03*
%TD*%
D22*
%TO.P,C4,1*%
%TO.N,VIN*%
X161225000Y-145500000D03*
%TO.P,C4,2*%
%TO.N,GND*%
X162775000Y-145500000D03*
%TD*%
D13*
%TO.P,R4,1*%
%TO.N,CC1*%
X192000000Y-147625000D03*
%TO.P,R4,2*%
%TO.N,GND*%
X192000000Y-145975000D03*
%TD*%
%TO.P,R26,1*%
%TO.N,+3V3*%
X135200000Y-135825000D03*
%TO.P,R26,2*%
%TO.N,K1_NO_FB*%
X135200000Y-134175000D03*
%TD*%
D12*
%TO.P,R3,1*%
%TO.N,VIN*%
X149175000Y-145000000D03*
%TO.P,R3,2*%
%TO.N,BUCK_EN*%
X150825000Y-145000000D03*
%TD*%
D22*
%TO.P,C15,1*%
%TO.N,VIN*%
X136225000Y-121500000D03*
%TO.P,C15,2*%
%TO.N,GND*%
X137775000Y-121500000D03*
%TD*%
D12*
%TO.P,R23,1*%
%TO.N,RELAY_CMD*%
X146175000Y-127000000D03*
%TO.P,R23,2*%
%TO.N,GND*%
X147825000Y-127000000D03*
%TD*%
D32*
%TO.P,D7,1*%
%TO.N,PIN3*%
X138000000Y-136950000D03*
%TO.P,D7,2*%
%TO.N,GND*%
X138000000Y-139050000D03*
%TD*%
D30*
%TO.P,U5,1*%
%TO.N,VIN*%
X135862500Y-124050000D03*
%TO.P,U5,2*%
%TO.N,GND*%
X135862500Y-125000000D03*
%TO.P,U5,3*%
%TO.N,RELAY_GATE*%
X135862500Y-125950000D03*
%TO.P,U5,4*%
%TO.N,unconnected-(U5-NC-Pad4)*%
X138137500Y-125950000D03*
%TO.P,U5,5*%
%TO.N,+5V_RLY*%
X138137500Y-124050000D03*
%TD*%
D31*
%TO.P,R18,1*%
%TO.N,UV_SENSE*%
X129825000Y-142000000D03*
%TO.P,R18,2*%
%TO.N,GND*%
X128175000Y-142000000D03*
%TD*%
D11*
%TO.P,TP5,1*%
%TO.N,VIN*%
X149000000Y-136000000D03*
%TD*%
D32*
%TO.P,D6,1*%
%TO.N,MOT6*%
X129000000Y-145950000D03*
%TO.P,D6,2*%
%TO.N,GND*%
X129000000Y-148050000D03*
%TD*%
D12*
%TO.P,R16,1*%
%TO.N,USB_DP_MCU*%
X165675000Y-124100000D03*
%TO.P,R16,2*%
%TO.N,USB_DP_R*%
X167325000Y-124100000D03*
%TD*%
D30*
%TO.P,U4,1*%
%TO.N,TREAD_OK*%
X133862500Y-141050000D03*
%TO.P,U4,2*%
%TO.N,GND*%
X133862500Y-142000000D03*
%TO.P,U4,3*%
%TO.N,UV_SENSE*%
X133862500Y-142950000D03*
%TO.P,U4,4*%
%TO.N,OV_SENSE*%
X136137500Y-142950000D03*
%TO.P,U4,5*%
%TO.N,VIN*%
X136137500Y-142000000D03*
%TO.P,U4,6*%
%TO.N,TREAD_OK*%
X136137500Y-141050000D03*
%TD*%
D33*
%TO.P,C16,1*%
%TO.N,+5V_RLY*%
X141000000Y-125950000D03*
%TO.P,C16,2*%
%TO.N,GND*%
X141000000Y-124050000D03*
%TD*%
D11*
%TO.P,TP4,1*%
%TO.N,GND*%
X122000000Y-147600000D03*
%TD*%
D34*
%TO.P,U1,1*%
%TO.N,GND*%
X169250000Y-107790000D03*
%TO.P,U1,2*%
%TO.N,+3V3*%
X169250000Y-109060000D03*
%TO.P,U1,3*%
%TO.N,EN*%
X169250000Y-110330000D03*
%TO.P,U1,4*%
%TO.N,K1_NC_FB*%
X169250000Y-111600000D03*
%TO.P,U1,5*%
%TO.N,K1_NO_FB*%
X169250000Y-112870000D03*
%TO.P,U1,6*%
%TO.N,TREAD_OK_MCU*%
X169250000Y-114140000D03*
%TO.P,U1,7*%
%TO.N,VBUS_PRESENT_N*%
X169250000Y-115410000D03*
%TO.P,U1,8*%
%TO.N,TX_ENABLE*%
X169250000Y-116680000D03*
%TO.P,U1,9*%
%TO.N,PIN3_RX*%
X169250000Y-117950000D03*
%TO.P,U1,10*%
%TO.N,ESP_TX*%
X169250000Y-119220000D03*
%TO.P,U1,11*%
%TO.N,CONS_RX*%
X169250000Y-120490000D03*
%TO.P,U1,12*%
%TO.N,unconnected-(U1-IO8-Pad12)*%
X169250000Y-121760000D03*
%TO.P,U1,13*%
%TO.N,USB_DN_R*%
X169250000Y-123030000D03*
%TO.P,U1,14*%
%TO.N,USB_DP_R*%
X169250000Y-124300000D03*
D35*
%TO.P,U1,15*%
%TO.N,unconnected-(U1-IO3-Pad15)*%
X171015000Y-125550000D03*
%TO.P,U1,16*%
%TO.N,unconnected-(U1-IO46-Pad16)*%
X172285000Y-125550000D03*
%TO.P,U1,17*%
%TO.N,unconnected-(U1-IO9-Pad17)*%
X173555000Y-125550000D03*
%TO.P,U1,18*%
%TO.N,unconnected-(U1-IO10-Pad18)*%
X174825000Y-125550000D03*
%TO.P,U1,19*%
%TO.N,unconnected-(U1-IO11-Pad19)*%
X176095000Y-125550000D03*
%TO.P,U1,20*%
%TO.N,unconnected-(U1-IO12-Pad20)*%
X177365000Y-125550000D03*
%TO.P,U1,21*%
%TO.N,unconnected-(U1-IO13-Pad21)*%
X178635000Y-125550000D03*
%TO.P,U1,22*%
%TO.N,unconnected-(U1-IO14-Pad22)*%
X179905000Y-125550000D03*
%TO.P,U1,23*%
%TO.N,RELAY_CMD*%
X181175000Y-125550000D03*
%TO.P,U1,24*%
%TO.N,unconnected-(U1-IO47-Pad24)*%
X182445000Y-125550000D03*
%TO.P,U1,25*%
%TO.N,unconnected-(U1-IO48-Pad25)*%
X183715000Y-125550000D03*
%TO.P,U1,26*%
%TO.N,unconnected-(U1-IO45-Pad26)*%
X184985000Y-125550000D03*
D34*
%TO.P,U1,27*%
%TO.N,IO0*%
X186750000Y-124300000D03*
%TO.P,U1,28*%
%TO.N,unconnected-(U1-IO35-Pad28)*%
X186750000Y-123030000D03*
%TO.P,U1,29*%
%TO.N,unconnected-(U1-IO36-Pad29)*%
X186750000Y-121760000D03*
%TO.P,U1,30*%
%TO.N,unconnected-(U1-IO37-Pad30)*%
X186750000Y-120490000D03*
%TO.P,U1,31*%
%TO.N,STATUS_LED*%
X186750000Y-119220000D03*
%TO.P,U1,32*%
%TO.N,unconnected-(U1-IO39-Pad32)*%
X186750000Y-117950000D03*
%TO.P,U1,33*%
%TO.N,unconnected-(U1-IO40-Pad33)*%
X186750000Y-116680000D03*
%TO.P,U1,34*%
%TO.N,unconnected-(U1-IO41-Pad34)*%
X186750000Y-115410000D03*
%TO.P,U1,35*%
%TO.N,unconnected-(U1-IO42-Pad35)*%
X186750000Y-114140000D03*
%TO.P,U1,36*%
%TO.N,U0RXD*%
X186750000Y-112870000D03*
%TO.P,U1,37*%
%TO.N,U0TXD*%
X186750000Y-111600000D03*
%TO.P,U1,38*%
%TO.N,unconnected-(U1-IO2-Pad38)*%
X186750000Y-110330000D03*
%TO.P,U1,39*%
%TO.N,unconnected-(U1-IO1-Pad39)*%
X186750000Y-109060000D03*
%TO.P,U1,40*%
%TO.N,GND*%
X186750000Y-107790000D03*
D36*
%TO.P,U1,41*%
X175100000Y-114810000D03*
X175100000Y-116210000D03*
X175800000Y-114110000D03*
X175800000Y-115510000D03*
X175800000Y-116910000D03*
X176500000Y-114810000D03*
D37*
X176500000Y-115510000D03*
D36*
X176500000Y-116210000D03*
X177200000Y-114110000D03*
X177200000Y-115510000D03*
X177200000Y-116910000D03*
X177900000Y-114810000D03*
X177900000Y-116210000D03*
%TD*%
D21*
%TO.P,U2,1*%
%TO.N,GND*%
X161137500Y-149450000D03*
%TO.P,U2,2*%
%TO.N,SW_NODE*%
X161137500Y-148500000D03*
%TO.P,U2,3*%
%TO.N,VIN*%
X161137500Y-147550000D03*
%TO.P,U2,4*%
%TO.N,FB*%
X158862500Y-147550000D03*
%TO.P,U2,5*%
%TO.N,BUCK_EN*%
X158862500Y-148500000D03*
%TO.P,U2,6*%
%TO.N,BST*%
X158862500Y-149450000D03*
%TD*%
D11*
%TO.P,TP11,1*%
%TO.N,TX_DRV*%
X168200000Y-136000000D03*
%TD*%
D12*
%TO.P,R10,1*%
%TO.N,Q1_B*%
X141175000Y-118500000D03*
%TO.P,R10,2*%
%TO.N,GND*%
X142825000Y-118500000D03*
%TD*%
D33*
%TO.P,C8,1*%
%TO.N,+3V3*%
X166500000Y-114050000D03*
%TO.P,C8,2*%
%TO.N,GND*%
X166500000Y-112150000D03*
%TD*%
D32*
%TO.P,D5,1*%
%TO.N,CONS6*%
X127000000Y-113950000D03*
%TO.P,D5,2*%
%TO.N,GND*%
X127000000Y-116050000D03*
%TD*%
D38*
%TO.P,U6,1*%
%TO.N,RELAY_CMD*%
X146300000Y-121025000D03*
%TO.P,U6,2*%
%TO.N,TREAD_OK*%
X146300000Y-121675000D03*
%TO.P,U6,3*%
%TO.N,TX_GATE*%
X146300000Y-122325000D03*
%TO.P,U6,4*%
%TO.N,GND*%
X146300000Y-122975000D03*
%TO.P,U6,5*%
%TO.N,TX_ENABLE*%
X149700000Y-122975000D03*
%TO.P,U6,6*%
%TO.N,TREAD_OK*%
X149700000Y-122325000D03*
%TO.P,U6,7*%
%TO.N,RELAY_GATE*%
X149700000Y-121675000D03*
%TO.P,U6,8*%
%TO.N,+3V3*%
X149700000Y-121025000D03*
%TD*%
D39*
%TO.P,LED2,1*%
%TO.N,GND*%
X140412500Y-152400000D03*
%TO.P,LED2,2*%
%TO.N,LED2_A*%
X141987500Y-152400000D03*
%TD*%
D40*
%TO.P,F1,1*%
%TO.N,+8V_RAW*%
X118362500Y-152500000D03*
%TO.P,F1,2*%
%TO.N,+8V_F*%
X122637500Y-152500000D03*
%TD*%
D31*
%TO.P,R2,1*%
%TO.N,FB*%
X155825000Y-147500000D03*
%TO.P,R2,2*%
%TO.N,GND*%
X154175000Y-147500000D03*
%TD*%
D12*
%TO.P,R22,1*%
%TO.N,TREAD_OK*%
X144175000Y-142000000D03*
%TO.P,R22,2*%
%TO.N,GND*%
X145825000Y-142000000D03*
%TD*%
D11*
%TO.P,TP7,1*%
%TO.N,TREAD_OK*%
X155400000Y-136000000D03*
%TD*%
D12*
%TO.P,R5,1*%
%TO.N,CC2*%
X173775000Y-154000000D03*
%TO.P,R5,2*%
%TO.N,GND*%
X175425000Y-154000000D03*
%TD*%
D22*
%TO.P,C12,1*%
%TO.N,+3V3*%
X156225000Y-143000000D03*
%TO.P,C12,2*%
%TO.N,FB*%
X157775000Y-143000000D03*
%TD*%
D20*
%TO.P,C2,1*%
%TO.N,VIN*%
X148525000Y-152000000D03*
%TO.P,C2,2*%
%TO.N,GND*%
X151475000Y-152000000D03*
%TD*%
D41*
%TO.P,D1,1*%
%TO.N,VIN*%
X129500000Y-152500000D03*
%TO.P,D1,2*%
%TO.N,+8V_F*%
X125500000Y-152500000D03*
%TD*%
D12*
%TO.P,R27,1*%
%TO.N,TX_ENABLE*%
X151175000Y-127000000D03*
%TO.P,R27,2*%
%TO.N,GND*%
X152825000Y-127000000D03*
%TD*%
%TO.P,R32,1*%
%TO.N,TREAD_OK*%
X155675000Y-130000000D03*
%TO.P,R32,2*%
%TO.N,TREAD_OK_MCU*%
X157325000Y-130000000D03*
%TD*%
D42*
%TO.P,D4,1*%
%TO.N,+5V_RLY*%
X128000000Y-111500000D03*
%TO.P,D4,2*%
%TO.N,RELAY_SW*%
X132000000Y-111500000D03*
%TD*%
D12*
%TO.P,R29,1*%
%TO.N,VBUS*%
X168975000Y-144400000D03*
%TO.P,R29,2*%
%TO.N,GND*%
X170625000Y-144400000D03*
%TD*%
%TO.P,R6,1*%
%TO.N,TX_BUF*%
X138175000Y-114000000D03*
%TO.P,R6,2*%
%TO.N,TX_DRV*%
X139825000Y-114000000D03*
%TD*%
D11*
%TO.P,TP2,1*%
%TO.N,U0RXD*%
X192000000Y-127200000D03*
%TD*%
D43*
%TO.P,K1,1*%
%TO.N,+5V_RLY*%
X126699999Y-119200000D03*
%TO.P,K1,2*%
%TO.N,CONS6*%
X126699999Y-122400000D03*
%TO.P,K1,3*%
%TO.N,MOT6*%
X126699999Y-124600000D03*
%TO.P,K1,4*%
%TO.N,TX_DRV*%
X126699999Y-126800000D03*
%TO.P,K1,5*%
%TO.N,K1_NO_FB*%
X133699999Y-126800000D03*
%TO.P,K1,6*%
%TO.N,GND*%
X133699999Y-124600000D03*
%TO.P,K1,7*%
%TO.N,K1_NC_FB*%
X133699999Y-122400000D03*
%TO.P,K1,8*%
%TO.N,RELAY_SW*%
X133699999Y-119200000D03*
%TD*%
D25*
%TO.P,C7,1*%
%TO.N,+3V3*%
X168525000Y-152000000D03*
%TO.P,C7,2*%
%TO.N,GND*%
X171475000Y-152000000D03*
%TD*%
D44*
%TO.P,Q1,1*%
%TO.N,Q1_B*%
X134062500Y-114550000D03*
%TO.P,Q1,2*%
%TO.N,GND*%
X134062500Y-116450000D03*
%TO.P,Q1,3*%
%TO.N,RELAY_SW*%
X135937500Y-115500000D03*
%TD*%
D45*
%TO.N,GND*%
X194000000Y-116000000D03*
X138800000Y-121600000D03*
D46*
X109900000Y-140170000D03*
X182100000Y-133829999D03*
D45*
X144000000Y-118800000D03*
X177200000Y-153200000D03*
X164000000Y-145600000D03*
X160000000Y-112800000D03*
D46*
X182100000Y-141450000D03*
D45*
X176400000Y-116800000D03*
X166000000Y-144400000D03*
D46*
X183600000Y-141450000D03*
D45*
X165200000Y-107600000D03*
X172800000Y-152000000D03*
X190000000Y-145200000D03*
X126800000Y-140800000D03*
X134000000Y-117200000D03*
X149200000Y-132400000D03*
X138400000Y-138400000D03*
X155600000Y-124800000D03*
X145200000Y-105200000D03*
X147200000Y-140800000D03*
X134400000Y-124000000D03*
D46*
X183600000Y-133829999D03*
D45*
X132400000Y-140800000D03*
X150000000Y-119200000D03*
D46*
X111400000Y-132550000D03*
X112900000Y-132550000D03*
D45*
X138400000Y-152000000D03*
D46*
X112900000Y-140170000D03*
X185100000Y-133829999D03*
D45*
X171200000Y-147200000D03*
X166800000Y-106800000D03*
X145200000Y-102800000D03*
D46*
X185100000Y-141450000D03*
X111400000Y-140170000D03*
D45*
X134400000Y-124800000D03*
X136800000Y-139200000D03*
X177137500Y-147300000D03*
X192400000Y-144800000D03*
X154000000Y-132400000D03*
X161600000Y-149600000D03*
X140000000Y-144800000D03*
X194000000Y-110000000D03*
X128800000Y-149200000D03*
X134000000Y-146000000D03*
X152800000Y-147600000D03*
X123200000Y-147600000D03*
X160000000Y-121600000D03*
X178400000Y-152000000D03*
X149200000Y-127200000D03*
X146000000Y-149600000D03*
X194000000Y-118000000D03*
X152800000Y-152000000D03*
X144000000Y-123200000D03*
X189200000Y-107600000D03*
X166400000Y-110800000D03*
X140800000Y-122800000D03*
X148000000Y-148000000D03*
X154000000Y-127200000D03*
X171200000Y-144400000D03*
X127200000Y-116400000D03*
X166000000Y-118000000D03*
D46*
X109900000Y-132550000D03*
D45*
X167200000Y-127200000D03*
X138400000Y-140800000D03*
X139200000Y-152400000D03*
D47*
%TO.N,+8V_RAW*%
X178250000Y-140180000D03*
X118400000Y-150000000D03*
X180250000Y-140180000D03*
X180250000Y-132550000D03*
X114750000Y-133820000D03*
X114750000Y-141450000D03*
X116750000Y-133820000D03*
X115750000Y-141450000D03*
X115750000Y-133820000D03*
X119400000Y-150000000D03*
X178250000Y-132550000D03*
X179250000Y-132550000D03*
X116750000Y-141450000D03*
X179550000Y-131000000D03*
X179250000Y-140180000D03*
X143000000Y-129900000D03*
X117400000Y-150000000D03*
D45*
%TO.N,VIN*%
X149200000Y-138400000D03*
X147200000Y-152000000D03*
X136000000Y-146400000D03*
X137600000Y-142800000D03*
X128400000Y-118400000D03*
X140800000Y-149600000D03*
X148000000Y-145600000D03*
X160000000Y-145600000D03*
X134000000Y-139200000D03*
X127600000Y-152000000D03*
X131600000Y-152000000D03*
X139200000Y-138800000D03*
X130800000Y-152400000D03*
X160400000Y-146400000D03*
X136000000Y-124000000D03*
X136000000Y-121600000D03*
X160800000Y-144800000D03*
X117200000Y-147200000D03*
X143600000Y-149600000D03*
X126800000Y-138400000D03*
X109600000Y-144800000D03*
X109200000Y-123600000D03*
%TO.N,BUCK_EN*%
X157600000Y-148400000D03*
X152000000Y-146400000D03*
X152000000Y-148000000D03*
%TO.N,+3V3*%
X154800000Y-144800000D03*
X142800000Y-141200000D03*
X151200000Y-120800000D03*
X123200000Y-144800000D03*
X160400000Y-122400000D03*
X146000000Y-119200000D03*
X167200000Y-109200000D03*
X167200000Y-151200000D03*
X165600000Y-110800000D03*
X119200000Y-147200000D03*
X165200000Y-114000000D03*
X108000000Y-124400000D03*
X154000000Y-144800000D03*
X132400000Y-139200000D03*
X161600000Y-114000000D03*
X156400000Y-121600000D03*
X167600000Y-149600000D03*
X153200000Y-120000000D03*
X167200000Y-147200000D03*
X187200000Y-126400000D03*
X143200000Y-152400000D03*
X190000000Y-115200000D03*
X121600000Y-133600000D03*
X157600000Y-121600000D03*
X166800000Y-115600000D03*
%TO.N,VBUS*%
X176400000Y-152900000D03*
X190200000Y-147900000D03*
X181150000Y-146050000D03*
X167800000Y-144900000D03*
X173800000Y-147300000D03*
X186050000Y-145300000D03*
%TO.N,CC1*%
X191600000Y-147900000D03*
X182100000Y-149000000D03*
%TO.N,CC2*%
X185350000Y-146000000D03*
X174400000Y-154000000D03*
%TO.N,CONS6*%
X125600000Y-122400000D03*
X162400000Y-118400000D03*
X127200000Y-113200000D03*
X113200000Y-138900000D03*
%TO.N,MOT6*%
X128800000Y-144800000D03*
X183200000Y-137200000D03*
X142400000Y-126800000D03*
X125600000Y-124400000D03*
%TO.N,TX_DRV*%
X168000000Y-132800000D03*
X141200000Y-114000000D03*
X126800000Y-126000000D03*
%TO.N,TX_BUF*%
X136800000Y-113200000D03*
X160400000Y-124800000D03*
%TO.N,ESP_TX*%
X154800000Y-122000000D03*
X168400000Y-119200000D03*
X162400000Y-120800000D03*
%TO.N,CONS_RX*%
X166000000Y-119600000D03*
X168400000Y-120400000D03*
%TO.N,PIN3*%
X152400000Y-119200000D03*
X122000000Y-145600000D03*
X130800000Y-139200000D03*
X181200000Y-138800000D03*
X121600000Y-135200000D03*
X139200000Y-138000000D03*
X161600000Y-119200000D03*
X107600000Y-141200000D03*
%TO.N,PIN3_RX*%
X168000000Y-117600000D03*
X166000000Y-115600000D03*
X164400000Y-114800000D03*
%TO.N,PIN4_PASS*%
X181600000Y-138000000D03*
X187200000Y-141200000D03*
X120800000Y-136400000D03*
X181200000Y-151600000D03*
X120000000Y-147200000D03*
%TO.N,PIN5_SAFETY*%
X182400000Y-137600000D03*
X120800000Y-137200000D03*
X186000000Y-150800000D03*
X182400000Y-139600000D03*
X187200000Y-145200000D03*
%TO.N,TREAD_OK*%
X144000000Y-121600000D03*
X151200000Y-122400000D03*
X143600000Y-140400000D03*
X133199999Y-139200000D03*
X154800000Y-132400000D03*
X147600000Y-138800000D03*
%TO.N,TREAD_OK_MCU*%
X158400000Y-132400000D03*
X168000000Y-114800000D03*
X158400000Y-124000000D03*
%TO.N,RELAY_CMD*%
X144800000Y-120800000D03*
X148000000Y-123200000D03*
X181200000Y-126400000D03*
X144800000Y-127200000D03*
X146800000Y-125600000D03*
X146800000Y-127200000D03*
%TO.N,RELAY_GATE*%
X159200000Y-132800000D03*
X138800000Y-120800000D03*
X152000000Y-121600000D03*
X156400000Y-132800000D03*
X145200000Y-132400000D03*
X135200000Y-126000000D03*
%TO.N,+5V_RLY*%
X139200000Y-124000000D03*
X124400000Y-118000000D03*
X152000000Y-132400000D03*
X138400000Y-115200000D03*
X126800000Y-110800000D03*
X140800000Y-126000000D03*
%TO.N,RELAY_SW*%
X162000000Y-132800000D03*
X152800000Y-124800000D03*
X133199999Y-111600000D03*
X133600000Y-118800000D03*
X137600000Y-115200000D03*
X133199999Y-115600000D03*
%TO.N,Q1_B*%
X140000000Y-118800000D03*
X139200000Y-116800000D03*
X134000000Y-113200000D03*
%TO.N,K1_NC_FB*%
X112800000Y-128400000D03*
X170400000Y-132800000D03*
X128000000Y-132800000D03*
X144400000Y-140400000D03*
X113600000Y-141600000D03*
X168000000Y-112000000D03*
X134400000Y-122400000D03*
%TO.N,K1_NO_FB*%
X126000000Y-120800000D03*
X135200000Y-132800000D03*
X108000000Y-126000000D03*
X128400000Y-119200000D03*
X133600000Y-126000000D03*
X171600000Y-124000000D03*
X177200000Y-145200000D03*
X174400000Y-132800000D03*
%TO.N,TX_ENABLE*%
X150000000Y-123200000D03*
X150800000Y-116800000D03*
X168000000Y-116400000D03*
X150000000Y-127200000D03*
%TO.N,TX_GATE*%
X150000000Y-132400000D03*
X148400000Y-138400000D03*
X155600000Y-123200000D03*
X163200000Y-139200000D03*
X143600000Y-122400000D03*
X141200000Y-132800000D03*
%TO.N,VBUS_PRESENT_N*%
X172000000Y-149500000D03*
X170800000Y-115600000D03*
X176400000Y-149200000D03*
%TO.N,STATUS_LED*%
X188000000Y-119200000D03*
X189200000Y-110000000D03*
%TO.N,LED1_A*%
X191200000Y-110000000D03*
X192000000Y-110000000D03*
%TO.N,LED2_A*%
X142000000Y-152400000D03*
X146400000Y-154000000D03*
%TO.N,EN*%
X138800000Y-102800000D03*
X160000000Y-116000000D03*
X138800000Y-105200000D03*
X167200000Y-110800000D03*
%TO.N,IO0*%
X188800000Y-118000000D03*
X188800000Y-116000000D03*
X186800000Y-125600000D03*
X190000000Y-111200000D03*
%TO.N,U0TXD*%
X187200000Y-111600000D03*
X193200000Y-124400000D03*
%TO.N,U0RXD*%
X186400000Y-112800000D03*
X193200000Y-127200000D03*
%TD*%
%TO.N,GND*%
D48*
X134062500Y-117200000D02*
X134000000Y-117200000D01*
X134062500Y-116450000D02*
X134062500Y-117200000D01*
X180350000Y-147155000D02*
X179280000Y-148070000D01*
X166000000Y-143500000D02*
X166000000Y-144400000D01*
D49*
X111400000Y-132550000D02*
X109900000Y-132550000D01*
D48*
X129000000Y-149200000D02*
X128800000Y-149200000D01*
X158775000Y-121500000D02*
X160000000Y-121500000D01*
D50*
X117800000Y-132550000D02*
X109900000Y-132550000D01*
D48*
X180350000Y-147155000D02*
X179280000Y-148070000D01*
X171275000Y-147200000D02*
X171200000Y-147200000D01*
X151475000Y-152000000D02*
X152800000Y-152000000D01*
X140000000Y-145000000D02*
X140000000Y-144800000D01*
X162775000Y-145500000D02*
X164000000Y-145500000D01*
X176500000Y-115510000D02*
X176500000Y-116800000D01*
X144000000Y-122975000D02*
X144000000Y-123200000D01*
X152800000Y-147500000D02*
X152800000Y-147600000D01*
X140175000Y-142000000D02*
X138400000Y-142000000D01*
X152825000Y-127000000D02*
X154000000Y-127000000D01*
X166000000Y-118625000D02*
X166000000Y-118000000D01*
X140412500Y-152400000D02*
X139200000Y-152400000D01*
X152825000Y-130000000D02*
X152825000Y-132400000D01*
X147825000Y-130000000D02*
X147825000Y-132400000D01*
X189200000Y-107790000D02*
X189200000Y-107600000D01*
X138800000Y-121500000D02*
X138800000Y-121600000D01*
X192000000Y-145975000D02*
X192000000Y-144800000D01*
X144975000Y-149500000D02*
X146000000Y-149500000D01*
X129000000Y-148050000D02*
X129000000Y-149200000D01*
X147200000Y-142000000D02*
X147200000Y-140800000D01*
D49*
X112900000Y-140170000D02*
X111400000Y-140170000D01*
D48*
X150000000Y-119500000D02*
X150000000Y-119200000D01*
X160000000Y-121500000D02*
X160000000Y-121600000D01*
X145200000Y-105075000D02*
X145200000Y-105200000D01*
D50*
X112900000Y-140170000D02*
X111400000Y-140170000D01*
D48*
X167300000Y-127200000D02*
X167200000Y-127200000D01*
X171275000Y-147000000D02*
X171275000Y-147200000D01*
X161137500Y-149450000D02*
X161600000Y-149450000D01*
X141000000Y-124050000D02*
X141000000Y-122800000D01*
X134400000Y-124600000D02*
X134400000Y-124000000D01*
X136800000Y-139400000D02*
X136800000Y-139200000D01*
D50*
X182100000Y-141450000D02*
X183600000Y-141450000D01*
D48*
X149200000Y-127000000D02*
X149200000Y-127200000D01*
D51*
X109900000Y-132550000D02*
X109900000Y-137000000D01*
D48*
X146000000Y-149500000D02*
X146000000Y-149600000D01*
X144075000Y-105075000D02*
X145200000Y-105075000D01*
X186850000Y-147155000D02*
X187920000Y-148070000D01*
X154175000Y-147500000D02*
X152800000Y-147500000D01*
X175425000Y-154000000D02*
X177200000Y-154000000D01*
X138775000Y-145000000D02*
X140000000Y-145000000D01*
X190200000Y-145200000D02*
X190000000Y-145200000D01*
X128175000Y-142000000D02*
X126800000Y-142000000D01*
X155600000Y-124950000D02*
X155600000Y-124800000D01*
X156862500Y-124950000D02*
X155600000Y-124950000D01*
D49*
X182100000Y-133829999D02*
X183600000Y-133829999D01*
D50*
X183600000Y-141450000D02*
X185100000Y-141450000D01*
D48*
X194000000Y-115925000D02*
X194000000Y-116000000D01*
D49*
X182100000Y-141450000D02*
X183600000Y-141450000D01*
D48*
X141000000Y-122800000D02*
X140800000Y-122800000D01*
X134000000Y-145000000D02*
X134000000Y-146000000D01*
X138000000Y-138400000D02*
X138400000Y-138400000D01*
X161600000Y-149450000D02*
X161600000Y-149600000D01*
X142825000Y-118500000D02*
X144000000Y-118500000D01*
D51*
X109900000Y-140170000D02*
X109900000Y-137000000D01*
D50*
X177200000Y-141450000D02*
X185100000Y-141450000D01*
D48*
X167300000Y-118625000D02*
X166000000Y-118625000D01*
X137775000Y-121500000D02*
X138800000Y-121500000D01*
X147825000Y-132400000D02*
X149200000Y-132400000D01*
X178400000Y-152137500D02*
X178400000Y-152000000D01*
X149175000Y-148000000D02*
X148000000Y-148000000D01*
X133862500Y-142000000D02*
X132400000Y-142000000D01*
X127000000Y-116400000D02*
X127200000Y-116400000D01*
X167300000Y-127375000D02*
X167300000Y-127200000D01*
X122000000Y-147600000D02*
X123200000Y-147600000D01*
X126800000Y-142000000D02*
X126800000Y-140800000D01*
D50*
X182100000Y-133829999D02*
X183600000Y-133829999D01*
D48*
X135862500Y-125000000D02*
X134400000Y-125000000D01*
X146300000Y-122975000D02*
X144000000Y-122975000D01*
X193075000Y-118075000D02*
X194000000Y-118075000D01*
D50*
X177200000Y-133829999D02*
X185100000Y-133829999D01*
D51*
X185100000Y-141450000D02*
X185100000Y-137000000D01*
D50*
X111400000Y-140170000D02*
X109900000Y-140170000D01*
D48*
X154000000Y-127000000D02*
X154000000Y-127200000D01*
X138400000Y-142000000D02*
X138400000Y-140800000D01*
X177350000Y-152137500D02*
X178400000Y-152137500D01*
X145825000Y-142000000D02*
X147200000Y-142000000D01*
X135775000Y-139400000D02*
X136800000Y-139400000D01*
X193787500Y-110000000D02*
X194000000Y-110000000D01*
X134400000Y-125000000D02*
X134400000Y-124800000D01*
X132775000Y-145000000D02*
X134000000Y-145000000D01*
X192000000Y-144800000D02*
X192400000Y-144800000D01*
X190200000Y-145625000D02*
X190200000Y-145200000D01*
X171475000Y-152000000D02*
X172800000Y-152000000D01*
X133699998Y-124600000D02*
X134400000Y-124600000D01*
X176500000Y-116800000D02*
X176400000Y-116800000D01*
X148775000Y-119500000D02*
X150000000Y-119500000D01*
X144075000Y-102925000D02*
X145200000Y-102925000D01*
X169250000Y-107790000D02*
X166800000Y-106800000D01*
X145200000Y-102925000D02*
X145200000Y-102800000D01*
X166500000Y-110800000D02*
X166400000Y-110800000D01*
X137150000Y-152000000D02*
X138400000Y-152000000D01*
D49*
X112900000Y-132550000D02*
X111400000Y-132550000D01*
D48*
X144000000Y-118500000D02*
X144000000Y-118800000D01*
X138000000Y-139050000D02*
X138000000Y-138400000D01*
X170625000Y-144400000D02*
X171200000Y-144400000D01*
D50*
X183600000Y-133829999D02*
X185100000Y-133829999D01*
X112900000Y-132550000D02*
X111400000Y-132550000D01*
D48*
X186750000Y-107790000D02*
X189200000Y-107790000D01*
D50*
X111400000Y-132550000D02*
X109900000Y-132550000D01*
D48*
X152825000Y-132400000D02*
X154000000Y-132400000D01*
X186850000Y-147155000D02*
X187920000Y-148070000D01*
X160000000Y-113825000D02*
X160000000Y-112800000D01*
X166500000Y-107825000D02*
X165200000Y-107600000D01*
X147825000Y-127000000D02*
X149200000Y-127000000D01*
D49*
X183600000Y-133829999D02*
X185100000Y-133829999D01*
D48*
X164000000Y-145500000D02*
X164000000Y-145600000D01*
X166500000Y-112150000D02*
X166500000Y-110800000D01*
X177200000Y-154000000D02*
X177200000Y-153200000D01*
D49*
X183600000Y-141450000D02*
X185100000Y-141450000D01*
D48*
X132400000Y-142000000D02*
X132400000Y-140800000D01*
X127000000Y-116050000D02*
X127000000Y-116400000D01*
X193075000Y-115925000D02*
X194000000Y-115925000D01*
D51*
X185100000Y-133829999D02*
X185100000Y-137000000D01*
D48*
X194000000Y-118075000D02*
X194000000Y-118000000D01*
D50*
X117800000Y-140170000D02*
X109900000Y-140170000D01*
D49*
X111400000Y-140170000D02*
X109900000Y-140170000D01*
D48*
X164975000Y-143500000D02*
X166000000Y-143500000D01*
%TO.N,+8V_RAW*%
D50*
X116750000Y-141450000D02*
X115750000Y-141450000D01*
X116750000Y-133820000D02*
X115750000Y-133820000D01*
X177200000Y-140180000D02*
X179250000Y-140180000D01*
D52*
X118400000Y-150000000D02*
X119400000Y-150000000D01*
D50*
X179250000Y-132550000D02*
X180250000Y-132550000D01*
X178250000Y-132550000D02*
X179250000Y-132550000D01*
X179250000Y-140180000D02*
X180250000Y-140180000D01*
D52*
X117400000Y-150000000D02*
X118400000Y-150000000D01*
D50*
X117800000Y-141450000D02*
X115750000Y-141450000D01*
X177200000Y-132550000D02*
X179250000Y-132550000D01*
X178250000Y-140180000D02*
X179250000Y-140180000D01*
D52*
X118362500Y-152500000D02*
X118400000Y-150000000D01*
D50*
X115750000Y-141450000D02*
X114750000Y-141450000D01*
X115750000Y-133820000D02*
X114750000Y-133820000D01*
X117800000Y-133820000D02*
X115750000Y-133820000D01*
%TO.N,+8V_F*%
D53*
X122637500Y-152500000D02*
X125500000Y-152500000D01*
%TO.N,VIN*%
D54*
X149000000Y-136000000D02*
X149200000Y-136000000D01*
X134225000Y-139400000D02*
X134000000Y-139400000D01*
X149175000Y-145000000D02*
X148000000Y-145000000D01*
X148000000Y-145000000D02*
X148000000Y-145600000D01*
X140800000Y-149500000D02*
X140800000Y-149600000D01*
X136137500Y-142000000D02*
X137600000Y-142000000D01*
X130800000Y-152500000D02*
X130800000Y-152400000D01*
D55*
X161225000Y-145500000D02*
X162025000Y-143500000D01*
D54*
X136225000Y-121500000D02*
X136000000Y-121500000D01*
X161137500Y-147550000D02*
X161137500Y-146400000D01*
X139200000Y-139000000D02*
X139200000Y-138800000D01*
X160000000Y-145500000D02*
X160000000Y-145600000D01*
X148525000Y-152000000D02*
X147200000Y-152000000D01*
X161137500Y-146400000D02*
X160400000Y-146400000D01*
X135862500Y-124050000D02*
X136000000Y-124050000D01*
X162025000Y-143500000D02*
X160800000Y-143500000D01*
X140175000Y-139000000D02*
X139200000Y-139000000D01*
X137600000Y-142000000D02*
X137600000Y-142800000D01*
X142025000Y-149500000D02*
X140800000Y-149500000D01*
X132850000Y-152000000D02*
X131600000Y-152000000D01*
X136000000Y-121500000D02*
X136000000Y-121600000D01*
X134000000Y-139400000D02*
X134000000Y-139200000D01*
X129500000Y-152500000D02*
X130800000Y-152500000D01*
D55*
X161137500Y-147550000D02*
X161225000Y-145500000D01*
D54*
X149200000Y-136000000D02*
X149200000Y-138400000D01*
X136000000Y-124050000D02*
X136000000Y-124000000D01*
X160800000Y-143500000D02*
X160800000Y-144800000D01*
X161225000Y-145500000D02*
X160000000Y-145500000D01*
X126800000Y-139000000D02*
X126800000Y-138400000D01*
X128175000Y-139000000D02*
X126800000Y-139000000D01*
%TO.N,BUCK_EN*%
D56*
X157600000Y-148500000D02*
X157600000Y-148400000D01*
X150825000Y-146400000D02*
X152000000Y-146400000D01*
X158862500Y-148500000D02*
X157600000Y-148500000D01*
X150825000Y-148000000D02*
X152000000Y-148000000D01*
X150825000Y-145000000D02*
X150825000Y-146400000D01*
%TO.N,SW_NODE*%
D48*
X162400000Y-151100000D02*
X162400000Y-148500000D01*
X162400000Y-148500000D02*
X161137500Y-148500000D01*
X161875000Y-151100000D02*
X162400000Y-151100000D01*
D57*
X161137500Y-148500000D02*
X163500000Y-148500000D01*
%TO.N,BST*%
D54*
X158862500Y-149450000D02*
X160325000Y-151100000D01*
%TO.N,+3V3*%
X168325000Y-147000000D02*
X167200000Y-147000000D01*
X157600000Y-119425000D02*
X157600000Y-121600000D01*
X166800000Y-114050000D02*
X166800000Y-115600000D01*
X125775000Y-133000000D02*
X121600000Y-133000000D01*
X168525000Y-152000000D02*
X167200000Y-152000000D01*
X147225000Y-119500000D02*
X146000000Y-119500000D01*
X167200000Y-152000000D02*
X167200000Y-151200000D01*
X167200000Y-109060000D02*
X167200000Y-109200000D01*
X149700000Y-121025000D02*
X151200000Y-121025000D01*
X121600000Y-133000000D02*
X121600000Y-133600000D01*
X143575000Y-152400000D02*
X143200000Y-152400000D01*
X154000000Y-143000000D02*
X154000000Y-144800000D01*
X154800000Y-145000000D02*
X154800000Y-144800000D01*
X169250000Y-109060000D02*
X167200000Y-109060000D01*
X157225000Y-121500000D02*
X156400000Y-121500000D01*
X156175000Y-145000000D02*
X154800000Y-145000000D01*
X135200000Y-135825000D02*
X132400000Y-135825000D01*
X160400000Y-123050000D02*
X160400000Y-122400000D01*
X142800000Y-139000000D02*
X142800000Y-141200000D01*
X122000000Y-144000000D02*
X123200000Y-144000000D01*
X160000000Y-119425000D02*
X157600000Y-119425000D01*
X167600000Y-149500000D02*
X167600000Y-149600000D01*
X166500000Y-114050000D02*
X166800000Y-114050000D01*
X132400000Y-135825000D02*
X132400000Y-139200000D01*
X167200000Y-147000000D02*
X167200000Y-147200000D01*
X190000000Y-113825000D02*
X190000000Y-115200000D01*
X165600000Y-109375000D02*
X165600000Y-110800000D01*
X156400000Y-121500000D02*
X156400000Y-121600000D01*
X168975000Y-149500000D02*
X167600000Y-149500000D01*
X123200000Y-144000000D02*
X123200000Y-144800000D01*
X146000000Y-119500000D02*
X146000000Y-119200000D01*
X144175000Y-139000000D02*
X142800000Y-139000000D01*
X166500000Y-148500000D02*
X167200000Y-151200000D01*
X159137500Y-123050000D02*
X160400000Y-123050000D01*
X166500000Y-109375000D02*
X165600000Y-109375000D01*
X156225000Y-143000000D02*
X154000000Y-143000000D01*
X151200000Y-121025000D02*
X151200000Y-120800000D01*
%TO.N,FB*%
D56*
X157400000Y-145800000D02*
X157825000Y-145000000D01*
X157400000Y-145800000D02*
X155825000Y-147500000D01*
X158862500Y-147550000D02*
X157400000Y-147550000D01*
X157400000Y-145800000D02*
X157775000Y-143000000D01*
X157400000Y-147550000D02*
X157400000Y-145800000D01*
%TO.N,VBUS*%
D48*
X186050000Y-147155000D02*
X186050000Y-145300000D01*
D54*
X175450000Y-152137500D02*
X175450000Y-152900000D01*
X167800000Y-144400000D02*
X167800000Y-144900000D01*
D48*
X174862500Y-147300000D02*
X173800000Y-147300000D01*
D54*
X175450000Y-152900000D02*
X176400000Y-152900000D01*
X190200000Y-147175000D02*
X190200000Y-147900000D01*
D48*
X181150000Y-147155000D02*
X181150000Y-146050000D01*
D54*
X168975000Y-144400000D02*
X167800000Y-144400000D01*
%TO.N,USB_DN*%
D58*
X178200000Y-149900000D02*
X178200000Y-148250000D01*
X178200000Y-148250000D02*
X177137500Y-148250000D01*
X182850000Y-148900000D02*
X182850000Y-149900000D01*
D56*
X183850000Y-147155000D02*
X183850000Y-148900000D01*
D58*
X182850000Y-149900000D02*
X178200000Y-149900000D01*
D56*
X182850000Y-147155000D02*
X182850000Y-148900000D01*
D58*
X182850000Y-148900000D02*
X183850000Y-148900000D01*
%TO.N,USB_DP*%
X179400000Y-145400000D02*
X179400000Y-146350000D01*
X179400000Y-146350000D02*
X177137500Y-146350000D01*
D56*
X183350000Y-147155000D02*
X183350000Y-146000000D01*
D58*
X184350000Y-146000000D02*
X183350000Y-146000000D01*
X184350000Y-145400000D02*
X179400000Y-145400000D01*
D56*
X184350000Y-147155000D02*
X184350000Y-146000000D01*
D58*
X184350000Y-146000000D02*
X184350000Y-145400000D01*
%TO.N,USB_DN_MCU*%
X165000000Y-131090600D02*
X161990000Y-131090600D01*
X172204700Y-148250000D02*
X172204700Y-145000000D01*
X161990000Y-131090600D02*
X161990000Y-122100000D01*
X172204700Y-131090600D02*
X169500000Y-131090600D01*
X161990000Y-122100000D02*
X165675000Y-122100000D01*
X172204700Y-142400000D02*
X172204700Y-139200000D01*
X169500000Y-131090600D02*
X168400000Y-131090600D01*
X172204700Y-139200000D02*
X172204700Y-131090600D01*
X174862500Y-148250000D02*
X172204700Y-148250000D01*
X168400000Y-131090600D02*
X165000000Y-131090600D01*
X172204700Y-145000000D02*
X172204700Y-142400000D01*
%TO.N,USB_DP_MCU*%
X170800000Y-128900000D02*
X170800000Y-129800000D01*
X172695300Y-145000000D02*
X172695300Y-142400000D01*
X172695300Y-139200000D02*
X172695300Y-130600000D01*
X168400000Y-129800000D02*
X168400000Y-130600000D01*
X172695300Y-130600000D02*
X171600000Y-130600000D01*
X172695300Y-146350000D02*
X172695300Y-145000000D01*
X168400000Y-130600000D02*
X165000000Y-130600000D01*
X165000000Y-130600000D02*
X162483742Y-130600000D01*
X171600000Y-128900000D02*
X170800000Y-128900000D01*
X171600000Y-130600000D02*
X171600000Y-128900000D01*
X169200000Y-129800000D02*
X168400000Y-129800000D01*
X162483742Y-130600000D02*
X162483742Y-124100000D01*
X172695300Y-142400000D02*
X172695300Y-139200000D01*
X174862500Y-146350000D02*
X172695300Y-146350000D01*
X170000000Y-128900000D02*
X169200000Y-128900000D01*
X170800000Y-129800000D02*
X170000000Y-129800000D01*
X170000000Y-129800000D02*
X170000000Y-128900000D01*
X162483742Y-124100000D02*
X165675000Y-124100000D01*
X169200000Y-128900000D02*
X169200000Y-129800000D01*
%TO.N,USB_DN_R*%
X167325000Y-122100000D02*
X169250000Y-123030000D01*
X167300000Y-122100000D02*
X167325000Y-122100000D01*
X167300000Y-120175000D02*
X167300000Y-122100000D01*
%TO.N,USB_DP_R*%
X167300000Y-125825000D02*
X167300000Y-124100000D01*
X167300000Y-124100000D02*
X167325000Y-124100000D01*
X167325000Y-124100000D02*
X169250000Y-124300000D01*
%TO.N,CC1*%
D56*
X182350000Y-147155000D02*
X182350000Y-148700000D01*
X182350000Y-148700000D02*
X182100000Y-149000000D01*
X192000000Y-147625000D02*
X192000000Y-147900000D01*
X192000000Y-147900000D02*
X191600000Y-147900000D01*
%TO.N,CC2*%
X185350000Y-147155000D02*
X185350000Y-146000000D01*
X173775000Y-154000000D02*
X174400000Y-154000000D01*
%TO.N,CONS6*%
X127000000Y-113950000D02*
X127200000Y-113200000D01*
X117800000Y-138900000D02*
X113200000Y-138900000D01*
X126699999Y-122400000D02*
X125600000Y-122400000D01*
X163175000Y-119600000D02*
X162400000Y-118400000D01*
%TO.N,MOT6*%
X177200000Y-135100000D02*
X183200000Y-135100000D01*
X129000000Y-145950000D02*
X129000000Y-144800000D01*
X183200000Y-135100000D02*
X183200000Y-137200000D01*
X129000000Y-144800000D02*
X128800000Y-144800000D01*
X126699999Y-124600000D02*
X125600000Y-124600000D01*
X125600000Y-124600000D02*
X125600000Y-124400000D01*
%TO.N,TX_DRV*%
X139825000Y-114000000D02*
X141200000Y-114000000D01*
X168200000Y-132800000D02*
X168000000Y-132800000D01*
X126699999Y-126000000D02*
X126800000Y-126000000D01*
X168200000Y-136000000D02*
X168200000Y-132800000D01*
X126699999Y-126800000D02*
X126699999Y-126000000D01*
%TO.N,TX_BUF*%
X159137500Y-124950000D02*
X160400000Y-124950000D01*
X138175000Y-114000000D02*
X136800000Y-114000000D01*
X160400000Y-124950000D02*
X160400000Y-124800000D01*
X136800000Y-114000000D02*
X136800000Y-113200000D01*
%TO.N,ESP_TX*%
X154800000Y-124000000D02*
X154800000Y-122000000D01*
X156862500Y-124000000D02*
X154800000Y-124000000D01*
X169250000Y-119220000D02*
X168400000Y-119220000D01*
X168400000Y-119220000D02*
X168400000Y-119200000D01*
%TO.N,CONS_RX*%
X168400000Y-120490000D02*
X168400000Y-120400000D01*
X164825000Y-119600000D02*
X166000000Y-119600000D01*
X169250000Y-120490000D02*
X168400000Y-120490000D01*
%TO.N,PIN3*%
X117800000Y-135090000D02*
X121600000Y-135090000D01*
X177200000Y-138910000D02*
X181200000Y-138910000D01*
X181200000Y-138910000D02*
X181200000Y-138800000D01*
X138000000Y-136950000D02*
X139200000Y-136950000D01*
X139200000Y-136950000D02*
X139200000Y-138000000D01*
X121600000Y-135090000D02*
X121600000Y-135200000D01*
X161600000Y-117100000D02*
X161600000Y-119200000D01*
X163175000Y-117100000D02*
X161600000Y-117100000D01*
%TO.N,PIN3_RX*%
X164825000Y-117100000D02*
X164400000Y-114800000D01*
X169250000Y-117950000D02*
X169250000Y-117600000D01*
X169250000Y-117600000D02*
X168000000Y-117600000D01*
%TO.N,PIN4_PASS*%
X177200000Y-137640000D02*
X181600000Y-137640000D01*
X120800000Y-136360000D02*
X120800000Y-136400000D01*
X117800000Y-136360000D02*
X120800000Y-136360000D01*
X181600000Y-137640000D02*
X181600000Y-138000000D01*
%TO.N,PIN5_SAFETY*%
X120800000Y-137630000D02*
X120800000Y-137200000D01*
X117800000Y-137630000D02*
X120800000Y-137630000D01*
X182400000Y-136370000D02*
X182400000Y-137600000D01*
X177200000Y-136370000D02*
X182400000Y-136370000D01*
%TO.N,UV_SENSE*%
X129824999Y-139000000D02*
X129824999Y-142000000D01*
X131225000Y-143400000D02*
X131225000Y-145000000D01*
X129824999Y-142000000D02*
X129824999Y-143400000D01*
X131225000Y-143400000D02*
X133000000Y-143400000D01*
X133000000Y-143400000D02*
X133862500Y-142950000D01*
X129824999Y-143400000D02*
X131225000Y-143400000D01*
%TO.N,OV_SENSE*%
X141825000Y-142000000D02*
X141825000Y-143400000D01*
X141825000Y-143400000D02*
X138500000Y-143400000D01*
X138500000Y-143400000D02*
X137000000Y-143400000D01*
X138500000Y-143400000D02*
X137225000Y-143400000D01*
X141825000Y-139000000D02*
X141825000Y-142000000D01*
X137000000Y-143400000D02*
X136137500Y-142950000D01*
X137225000Y-143400000D02*
X137225000Y-145000000D01*
%TO.N,TREAD_OK*%
X145825000Y-139000000D02*
X147600000Y-139000000D01*
X151200000Y-122325000D02*
X151200000Y-122400000D01*
X133199999Y-141050000D02*
X133199999Y-139200000D01*
X147600000Y-139000000D02*
X147600000Y-138800000D01*
X146300000Y-121675000D02*
X144000000Y-121675000D01*
X155675000Y-130000000D02*
X155675000Y-132400000D01*
X136137500Y-141050000D02*
X133199999Y-141050000D01*
X149700000Y-122325000D02*
X151200000Y-122325000D01*
X155675000Y-132400000D02*
X154800000Y-132400000D01*
X144175000Y-142000000D02*
X143600000Y-140400000D01*
X133199999Y-141050000D02*
X133199999Y-139200000D01*
X133862500Y-141050000D02*
X133199999Y-141050000D01*
X155400000Y-136000000D02*
X155400000Y-132400000D01*
X144000000Y-121675000D02*
X144000000Y-121600000D01*
X155400000Y-132400000D02*
X154800000Y-132400000D01*
%TO.N,TREAD_OK_MCU*%
X157325000Y-130000000D02*
X157325000Y-132400000D01*
X157325000Y-132400000D02*
X158400000Y-132400000D01*
X168000000Y-114140000D02*
X168000000Y-114800000D01*
X169250000Y-114140000D02*
X168000000Y-114140000D01*
%TO.N,RELAY_CMD*%
X146300000Y-121025000D02*
X144800000Y-121025000D01*
X181175000Y-126400000D02*
X181200000Y-126400000D01*
X144800000Y-121025000D02*
X144800000Y-120800000D01*
X146175000Y-127000000D02*
X144800000Y-127000000D01*
X181175000Y-125550000D02*
X181175000Y-126400000D01*
X144800000Y-127000000D02*
X144800000Y-127200000D01*
%TO.N,RELAY_GATE*%
X149700000Y-121675000D02*
X152000000Y-121675000D01*
X152000000Y-121675000D02*
X152000000Y-121600000D01*
X138500000Y-119825000D02*
X138800000Y-119825000D01*
X138800000Y-119825000D02*
X138800000Y-120800000D01*
X159200000Y-136000000D02*
X159200000Y-132800000D01*
X146175000Y-130000000D02*
X146175000Y-132400000D01*
X146175000Y-132400000D02*
X145200000Y-132400000D01*
X158600000Y-136000000D02*
X159200000Y-136000000D01*
X135200000Y-125950000D02*
X135200000Y-126000000D01*
X135862500Y-125950000D02*
X135200000Y-125950000D01*
%TO.N,+5V_RLY*%
D54*
X140800000Y-125950000D02*
X140800000Y-126000000D01*
X126699999Y-119200000D02*
X124400000Y-119200000D01*
X139200000Y-124050000D02*
X139200000Y-124000000D01*
X126800000Y-111500000D02*
X126800000Y-110800000D01*
X152200000Y-132400000D02*
X152000000Y-132400000D01*
X152200000Y-136000000D02*
X152200000Y-132400000D01*
X128000000Y-111500000D02*
X126800000Y-111500000D01*
X141000000Y-125950000D02*
X140800000Y-125950000D01*
X138137500Y-124050000D02*
X139200000Y-124050000D01*
X124400000Y-119200000D02*
X124400000Y-118000000D01*
%TO.N,RELAY_SW*%
X133699998Y-119200000D02*
X133699998Y-118800000D01*
X133199999Y-111500000D02*
X133199999Y-111600000D01*
X132000000Y-111500000D02*
X133199999Y-111500000D01*
X161800000Y-136000000D02*
X161800000Y-132800000D01*
X137600000Y-115500000D02*
X137600000Y-115200000D01*
X161800000Y-132800000D02*
X162000000Y-132800000D01*
X133699998Y-118800000D02*
X133600000Y-118800000D01*
X135937500Y-115500000D02*
X137600000Y-115500000D01*
%TO.N,Q1_B*%
D56*
X138500000Y-118175000D02*
X138500000Y-116800000D01*
X138500000Y-116800000D02*
X139200000Y-116800000D01*
X134062500Y-113200000D02*
X134000000Y-113200000D01*
X134062500Y-114550000D02*
X134062500Y-113200000D01*
X140000000Y-118500000D02*
X140000000Y-118800000D01*
X141175000Y-118500000D02*
X140000000Y-118500000D01*
%TO.N,K1_NC_FB*%
X170960000Y-136000000D02*
X170960000Y-132800000D01*
X169250000Y-111600000D02*
X168000000Y-111600000D01*
X168000000Y-111600000D02*
X168000000Y-112000000D01*
X127425000Y-133000000D02*
X128000000Y-133000000D01*
X133699998Y-122400000D02*
X134400000Y-122400000D01*
X170960000Y-132800000D02*
X170400000Y-132800000D01*
X128000000Y-133000000D02*
X128000000Y-132800000D01*
%TO.N,K1_NO_FB*%
X173920000Y-132800000D02*
X174400000Y-132800000D01*
X169250000Y-112870000D02*
X171600000Y-112870000D01*
X171600000Y-112870000D02*
X171600000Y-124000000D01*
X133699998Y-126800000D02*
X133699998Y-126000000D01*
X135200000Y-134175000D02*
X135200000Y-132800000D01*
X133699998Y-126000000D02*
X133600000Y-126000000D01*
X173920000Y-136000000D02*
X173920000Y-132800000D01*
%TO.N,TX_ENABLE*%
X169250000Y-116680000D02*
X168000000Y-116680000D01*
X150000000Y-122975000D02*
X150000000Y-123200000D01*
X149700000Y-122975000D02*
X150000000Y-122975000D01*
X150000000Y-127000000D02*
X150000000Y-127200000D01*
X168000000Y-116680000D02*
X168000000Y-116400000D01*
X151175000Y-127000000D02*
X150000000Y-127000000D01*
%TO.N,TX_GATE*%
X151175000Y-130000000D02*
X151175000Y-132400000D01*
X155600000Y-123050000D02*
X155600000Y-123200000D01*
X146300000Y-122325000D02*
X143600000Y-122325000D01*
X165000000Y-136000000D02*
X163200000Y-139200000D01*
X151175000Y-132400000D02*
X150000000Y-132400000D01*
X143600000Y-122325000D02*
X143600000Y-122400000D01*
X156862500Y-123050000D02*
X155600000Y-123050000D01*
%TO.N,VBUS_PRESENT_N*%
X176400000Y-150262500D02*
X176400000Y-149200000D01*
X170625000Y-149500000D02*
X172000000Y-149500000D01*
X169250000Y-115410000D02*
X170800000Y-115410000D01*
X170800000Y-115410000D02*
X170800000Y-115600000D01*
%TO.N,STATUS_LED*%
X189175000Y-110000000D02*
X189200000Y-110000000D01*
X186750000Y-119220000D02*
X188000000Y-119220000D01*
X188000000Y-119220000D02*
X188000000Y-119200000D01*
%TO.N,LED1_A*%
X190825000Y-110000000D02*
X192000000Y-110000000D01*
X192212500Y-110000000D02*
X191200000Y-110000000D01*
%TO.N,LED2_A*%
X145225000Y-152400000D02*
X145225000Y-154000000D01*
X141987500Y-152400000D02*
X142000000Y-152400000D01*
X145225000Y-154000000D02*
X146400000Y-154000000D01*
%TO.N,EN*%
X167200000Y-110330000D02*
X167200000Y-110800000D01*
X139925000Y-105075000D02*
X138800000Y-105075000D01*
X160000000Y-117775000D02*
X160000000Y-116000000D01*
X138800000Y-102925000D02*
X138800000Y-102800000D01*
X160000000Y-115375000D02*
X160000000Y-116000000D01*
X169250000Y-110330000D02*
X167200000Y-110330000D01*
X138800000Y-105075000D02*
X138800000Y-105200000D01*
X139925000Y-102925000D02*
X138800000Y-102925000D01*
%TO.N,IO0*%
X188800000Y-118075000D02*
X188800000Y-118000000D01*
X190000000Y-112175000D02*
X190000000Y-111200000D01*
X186750000Y-124300000D02*
X186750000Y-125600000D01*
X188925000Y-115925000D02*
X188800000Y-115925000D01*
X188925000Y-118075000D02*
X188800000Y-118075000D01*
X186750000Y-125600000D02*
X186800000Y-125600000D01*
X188800000Y-115925000D02*
X188800000Y-116000000D01*
%TO.N,U0TXD*%
X186750000Y-111600000D02*
X187200000Y-111600000D01*
X192000000Y-124400000D02*
X193200000Y-124400000D01*
%TO.N,U0RXD*%
X186400000Y-112870000D02*
X186400000Y-112800000D01*
X186750000Y-112870000D02*
X186400000Y-112870000D01*
X192000000Y-127200000D02*
X193200000Y-127200000D01*
%TD*%
M02*
