M48
; DRILL file KiCad 10.0.1-10.0.1~ubuntu24.04.1 date 2026-07-24T01:42:05
; FORMAT={-:-/ absolute / metric / decimal}
; #@! TF.CreationDate,2026-07-24T01:42:05-07:00
; #@! TF.GenerationSoftware,Kicad,Pcbnew,10.0.1-10.0.1~ubuntu24.04.1
; #@! TF.FileFunction,MixedPlating,1,4
FMAT,2
METRIC
; #@! TA.AperFunction,Plated,PTH,ComponentDrill
T1C0.200
; #@! TA.AperFunction,Plated,PTH,ViaDrill
T2C0.300
; #@! TA.AperFunction,Plated,PTH,ComponentDrill
T3C0.600
; #@! TA.AperFunction,Plated,PTH,ComponentDrill
T4C0.760
; #@! TA.AperFunction,NonPlated,NPTH,ComponentDrill
T5C0.650
; #@! TA.AperFunction,NonPlated,NPTH,ComponentDrill
T6C2.700
; #@! TA.AperFunction,NonPlated,NPTH,ComponentDrill
T7C3.200
%
G90
G05
T1
X175.1Y-108.21
X175.1Y-109.61
X175.8Y-107.51
X175.8Y-108.91
X175.8Y-110.31
X176.5Y-108.21
X176.5Y-109.61
X177.2Y-107.51
X177.2Y-108.91
X177.2Y-110.31
X177.9Y-108.21
X177.9Y-109.61
T2
X110.8Y-118.8
X110.8Y-135.6
X112.4Y-111.6
X112.4Y-114.0
X112.4Y-140.4
X112.4Y-143.2
X114.4Y-112.8
X114.8Y-142.0
X115.2Y-115.2
X115.2Y-118.0
X115.2Y-147.2
X115.6Y-144.0
X116.4Y-109.2
X116.4Y-138.4
X117.2Y-112.0
X117.2Y-136.4
X117.2Y-152.4
X119.2Y-135.6
X119.2Y-140.4
X120.0Y-112.8
X120.0Y-117.2
X120.0Y-140.8
X120.0Y-145.2
X122.4Y-125.6
X122.4Y-127.6
X123.6Y-121.2
X123.6Y-131.2
X124.0Y-117.6
X126.8Y-139.2
X126.8Y-142.0
X130.4Y-117.6
X130.4Y-121.2
X130.4Y-131.2
X130.8Y-152.4
X131.6Y-125.6
X131.6Y-127.6
X131.6Y-152.0
X132.4Y-141.2
X132.8Y-130.8
X132.8Y-138.4
X132.8Y-142.0
X133.6Y-126.8
X133.6Y-131.2
X133.6Y-135.2
X134.0Y-116.8
X134.0Y-121.2
X134.0Y-144.8
X134.4Y-124.8
X134.4Y-126.0
X134.8Y-124.0
X135.2Y-121.6
X136.0Y-128.8
X136.8Y-114.0
X136.8Y-128.0
X136.8Y-138.4
X137.2Y-119.2
X137.2Y-142.0
X138.0Y-140.0
X138.0Y-141.2
X138.4Y-116.8
X138.4Y-152.0
X138.8Y-120.8
X138.8Y-121.6
X138.8Y-138.4
X138.8Y-142.0
X139.2Y-124.0
X139.6Y-149.6
X140.0Y-118.4
X140.0Y-144.8
X140.8Y-113.6
X140.8Y-122.8
X140.8Y-127.2
X141.2Y-114.4
X142.8Y-139.2
X143.6Y-142.0
X144.0Y-118.4
X144.0Y-123.2
X144.0Y-127.2
X144.8Y-120.8
X144.8Y-122.0
X144.8Y-130.0
X145.6Y-125.2
X145.6Y-126.0
X145.6Y-131.2
X146.0Y-119.6
X146.4Y-132.4
X147.2Y-133.6
X147.2Y-139.2
X147.2Y-142.0
X147.2Y-149.6
X147.2Y-152.0
X147.6Y-124.8
X148.0Y-122.4
X148.0Y-128.0
X148.0Y-128.8
X148.0Y-131.6
X148.0Y-144.8
X148.0Y-148.0
X149.2Y-127.2
X149.2Y-130.0
X150.0Y-119.6
X150.0Y-126.8
X150.0Y-129.6
X150.8Y-128.8
X151.2Y-120.8
X151.6Y-103.2
X151.6Y-104.8
X151.6Y-128.0
X152.0Y-121.6
X152.0Y-123.2
X152.0Y-144.8
X152.0Y-148.0
X152.4Y-126.0
X152.4Y-152.0
X152.8Y-147.6
X153.2Y-152.0
X153.6Y-113.6
X153.6Y-120.0
X153.6Y-122.4
X154.0Y-127.2
X154.0Y-130.0
X154.0Y-132.8
X154.0Y-142.4
X154.4Y-120.8
X154.8Y-144.8
X155.2Y-123.2
X155.2Y-143.2
X155.6Y-124.8
X155.6Y-138.4
X155.6Y-139.2
X156.0Y-112.8
X156.0Y-120.8
X156.0Y-121.6
X156.8Y-124.0
X157.6Y-148.4
X157.6Y-152.0
X158.0Y-129.6
X158.0Y-146.0
X158.4Y-103.2
X158.4Y-104.8
X160.0Y-106.0
X160.0Y-110.8
X160.0Y-114.0
X160.0Y-121.6
X160.4Y-123.2
X160.4Y-124.8
X160.4Y-133.6
X161.2Y-119.2
X161.6Y-149.6
X162.0Y-110.8
X162.0Y-112.0
X162.0Y-145.6
X162.4Y-146.4
X163.2Y-120.8
X163.6Y-132.8
X164.8Y-109.2
X164.8Y-112.0
X165.6Y-110.8
X166.4Y-100.8
X166.4Y-103.6
X166.4Y-104.4
X166.4Y-108.8
X166.8Y-133.6
X167.2Y-110.8
X167.2Y-122.0
X167.2Y-147.2
X167.2Y-152.0
X167.6Y-101.2
X167.6Y-102.4
X167.6Y-148.4
X168.0Y-104.8
X168.0Y-107.6
X168.0Y-108.4
X168.0Y-110.0
X168.4Y-111.2
X168.4Y-112.8
X168.4Y-114.0
X168.8Y-132.0
X169.6Y-106.4
X170.0Y-119.2
X170.0Y-132.8
X170.8Y-104.4
X171.6Y-116.4
X172.0Y-150.0
X172.8Y-147.2
X172.8Y-152.0
X173.2Y-133.6
X175.2Y-143.2
X175.2Y-149.6
X176.0Y-150.0
X176.4Y-110.4
X176.4Y-132.8
X178.0Y-144.8
X178.0Y-148.0
X178.4Y-143.2
X178.8Y-150.0
X179.6Y-132.8
X181.2Y-120.0
X181.8Y-145.55
X182.0Y-144.4
X182.0Y-148.0
X183.2Y-148.8
X183.6Y-120.4
X184.8Y-143.0
X185.2Y-135.0
X186.0Y-136.8
X186.0Y-146.4
X186.8Y-118.8
X188.0Y-104.8
X188.0Y-106.4
X188.0Y-110.0
X188.0Y-112.8
X188.137Y-135.0
X188.8Y-101.2
X188.8Y-143.2
X190.0Y-112.8
X190.0Y-117.2
X190.4Y-133.2
X190.4Y-139.6
X190.5Y-138.2
X190.8Y-110.0
X190.8Y-116.8
X190.8Y-117.6
X192.0Y-110.0
X192.4Y-129.825
X192.4Y-142.675
X193.2Y-104.8
X193.2Y-108.0
X193.4Y-134.75
X194.0Y-126.8
X194.0Y-145.6
X194.8Y-110.0
X197.2Y-116.4
X197.2Y-117.6
T4
X112.5Y-108.0
X112.5Y-110.54
X112.5Y-113.08
X112.5Y-115.62
X112.5Y-137.0
X112.5Y-139.54
X112.5Y-142.08
X112.5Y-144.62
X115.04Y-109.27
X115.04Y-111.81
X115.04Y-114.35
X115.04Y-116.89
X115.04Y-138.27
X115.04Y-140.81
X115.04Y-143.35
X115.04Y-145.89
T5
X193.6Y-133.61
X193.6Y-139.39
T6
X102.9Y-126.5
X197.0Y-103.0
X197.0Y-152.0
T7
X106.15Y-106.73
X106.15Y-118.16
X106.15Y-135.73
X106.15Y-147.16
T3
G00X192.52Y-132.18
M15
G01X193.62Y-132.18
M16
G05
G00X192.52Y-140.82
M15
G01X193.62Y-140.82
M16
G05
G00X196.95Y-132.18
M15
G01X197.55Y-132.18
M16
G05
G00X196.95Y-140.82
M15
G01X197.55Y-140.82
M16
G05
M30
