%TF.GenerationSoftware,KiCad,Pcbnew,10.0.1-10.0.1~ubuntu24.04.1*%
%TF.CreationDate,1970-01-01T00:00:00+00:00*%
%TF.ProjectId,Esp32Tap,45737033-3254-4617-902e-6b696361645f,B*%
%TF.SameCoordinates,Original*%
%TF.FileFunction,Legend,Top*%
%TF.FilePolarity,Positive*%
%FSLAX46Y46*%
G04 Gerber Fmt 4.6, Leading zero omitted, Abs format (unit mm)*
G04 Created by KiCad (PCBNEW 10.0.1-10.0.1~ubuntu24.04.1) date 1970-01-01 00:00:00*
%MOMM*%
%LPD*%
G01*
G04 APERTURE LIST*
%ADD10C,0.200000*%
G04 APERTURE END LIST*
D10*
X103904761Y-122856980D02*
X103857142Y-122904600D01*
X103857142Y-122904600D02*
X103714285Y-122952219D01*
X103714285Y-122952219D02*
X103619047Y-122952219D01*
X103619047Y-122952219D02*
X103476190Y-122904600D01*
X103476190Y-122904600D02*
X103380952Y-122809361D01*
X103380952Y-122809361D02*
X103333333Y-122714123D01*
X103333333Y-122714123D02*
X103285714Y-122523647D01*
X103285714Y-122523647D02*
X103285714Y-122380790D01*
X103285714Y-122380790D02*
X103333333Y-122190314D01*
X103333333Y-122190314D02*
X103380952Y-122095076D01*
X103380952Y-122095076D02*
X103476190Y-121999838D01*
X103476190Y-121999838D02*
X103619047Y-121952219D01*
X103619047Y-121952219D02*
X103714285Y-121952219D01*
X103714285Y-121952219D02*
X103857142Y-121999838D01*
X103857142Y-121999838D02*
X103904761Y-122047457D01*
X104523809Y-121952219D02*
X104714285Y-121952219D01*
X104714285Y-121952219D02*
X104809523Y-121999838D01*
X104809523Y-121999838D02*
X104904761Y-122095076D01*
X104904761Y-122095076D02*
X104952380Y-122285552D01*
X104952380Y-122285552D02*
X104952380Y-122618885D01*
X104952380Y-122618885D02*
X104904761Y-122809361D01*
X104904761Y-122809361D02*
X104809523Y-122904600D01*
X104809523Y-122904600D02*
X104714285Y-122952219D01*
X104714285Y-122952219D02*
X104523809Y-122952219D01*
X104523809Y-122952219D02*
X104428571Y-122904600D01*
X104428571Y-122904600D02*
X104333333Y-122809361D01*
X104333333Y-122809361D02*
X104285714Y-122618885D01*
X104285714Y-122618885D02*
X104285714Y-122285552D01*
X104285714Y-122285552D02*
X104333333Y-122095076D01*
X104333333Y-122095076D02*
X104428571Y-121999838D01*
X104428571Y-121999838D02*
X104523809Y-121952219D01*
X105380952Y-122952219D02*
X105380952Y-121952219D01*
X105380952Y-121952219D02*
X105952380Y-122952219D01*
X105952380Y-122952219D02*
X105952380Y-121952219D01*
X106380952Y-122904600D02*
X106523809Y-122952219D01*
X106523809Y-122952219D02*
X106761904Y-122952219D01*
X106761904Y-122952219D02*
X106857142Y-122904600D01*
X106857142Y-122904600D02*
X106904761Y-122856980D01*
X106904761Y-122856980D02*
X106952380Y-122761742D01*
X106952380Y-122761742D02*
X106952380Y-122666504D01*
X106952380Y-122666504D02*
X106904761Y-122571266D01*
X106904761Y-122571266D02*
X106857142Y-122523647D01*
X106857142Y-122523647D02*
X106761904Y-122476028D01*
X106761904Y-122476028D02*
X106571428Y-122428409D01*
X106571428Y-122428409D02*
X106476190Y-122380790D01*
X106476190Y-122380790D02*
X106428571Y-122333171D01*
X106428571Y-122333171D02*
X106380952Y-122237933D01*
X106380952Y-122237933D02*
X106380952Y-122142695D01*
X106380952Y-122142695D02*
X106428571Y-122047457D01*
X106428571Y-122047457D02*
X106476190Y-121999838D01*
X106476190Y-121999838D02*
X106571428Y-121952219D01*
X106571428Y-121952219D02*
X106809523Y-121952219D01*
X106809523Y-121952219D02*
X106952380Y-121999838D01*
X107571428Y-121952219D02*
X107761904Y-121952219D01*
X107761904Y-121952219D02*
X107857142Y-121999838D01*
X107857142Y-121999838D02*
X107952380Y-122095076D01*
X107952380Y-122095076D02*
X107999999Y-122285552D01*
X107999999Y-122285552D02*
X107999999Y-122618885D01*
X107999999Y-122618885D02*
X107952380Y-122809361D01*
X107952380Y-122809361D02*
X107857142Y-122904600D01*
X107857142Y-122904600D02*
X107761904Y-122952219D01*
X107761904Y-122952219D02*
X107571428Y-122952219D01*
X107571428Y-122952219D02*
X107476190Y-122904600D01*
X107476190Y-122904600D02*
X107380952Y-122809361D01*
X107380952Y-122809361D02*
X107333333Y-122618885D01*
X107333333Y-122618885D02*
X107333333Y-122285552D01*
X107333333Y-122285552D02*
X107380952Y-122095076D01*
X107380952Y-122095076D02*
X107476190Y-121999838D01*
X107476190Y-121999838D02*
X107571428Y-121952219D01*
X108904761Y-122952219D02*
X108428571Y-122952219D01*
X108428571Y-122952219D02*
X108428571Y-121952219D01*
X109238095Y-122428409D02*
X109571428Y-122428409D01*
X109714285Y-122952219D02*
X109238095Y-122952219D01*
X109238095Y-122952219D02*
X109238095Y-121952219D01*
X109238095Y-121952219D02*
X109714285Y-121952219D01*
X104238095Y-131452219D02*
X104238095Y-130452219D01*
X104238095Y-130452219D02*
X104571428Y-131166504D01*
X104571428Y-131166504D02*
X104904761Y-130452219D01*
X104904761Y-130452219D02*
X104904761Y-131452219D01*
X105571428Y-130452219D02*
X105761904Y-130452219D01*
X105761904Y-130452219D02*
X105857142Y-130499838D01*
X105857142Y-130499838D02*
X105952380Y-130595076D01*
X105952380Y-130595076D02*
X105999999Y-130785552D01*
X105999999Y-130785552D02*
X105999999Y-131118885D01*
X105999999Y-131118885D02*
X105952380Y-131309361D01*
X105952380Y-131309361D02*
X105857142Y-131404600D01*
X105857142Y-131404600D02*
X105761904Y-131452219D01*
X105761904Y-131452219D02*
X105571428Y-131452219D01*
X105571428Y-131452219D02*
X105476190Y-131404600D01*
X105476190Y-131404600D02*
X105380952Y-131309361D01*
X105380952Y-131309361D02*
X105333333Y-131118885D01*
X105333333Y-131118885D02*
X105333333Y-130785552D01*
X105333333Y-130785552D02*
X105380952Y-130595076D01*
X105380952Y-130595076D02*
X105476190Y-130499838D01*
X105476190Y-130499838D02*
X105571428Y-130452219D01*
X106285714Y-130452219D02*
X106857142Y-130452219D01*
X106571428Y-131452219D02*
X106571428Y-130452219D01*
X107380952Y-130452219D02*
X107571428Y-130452219D01*
X107571428Y-130452219D02*
X107666666Y-130499838D01*
X107666666Y-130499838D02*
X107761904Y-130595076D01*
X107761904Y-130595076D02*
X107809523Y-130785552D01*
X107809523Y-130785552D02*
X107809523Y-131118885D01*
X107809523Y-131118885D02*
X107761904Y-131309361D01*
X107761904Y-131309361D02*
X107666666Y-131404600D01*
X107666666Y-131404600D02*
X107571428Y-131452219D01*
X107571428Y-131452219D02*
X107380952Y-131452219D01*
X107380952Y-131452219D02*
X107285714Y-131404600D01*
X107285714Y-131404600D02*
X107190476Y-131309361D01*
X107190476Y-131309361D02*
X107142857Y-131118885D01*
X107142857Y-131118885D02*
X107142857Y-130785552D01*
X107142857Y-130785552D02*
X107190476Y-130595076D01*
X107190476Y-130595076D02*
X107285714Y-130499838D01*
X107285714Y-130499838D02*
X107380952Y-130452219D01*
X108809523Y-131452219D02*
X108476190Y-130976028D01*
X108238095Y-131452219D02*
X108238095Y-130452219D01*
X108238095Y-130452219D02*
X108619047Y-130452219D01*
X108619047Y-130452219D02*
X108714285Y-130499838D01*
X108714285Y-130499838D02*
X108761904Y-130547457D01*
X108761904Y-130547457D02*
X108809523Y-130642695D01*
X108809523Y-130642695D02*
X108809523Y-130785552D01*
X108809523Y-130785552D02*
X108761904Y-130880790D01*
X108761904Y-130880790D02*
X108714285Y-130928409D01*
X108714285Y-130928409D02*
X108619047Y-130976028D01*
X108619047Y-130976028D02*
X108238095Y-130976028D01*
X105619048Y-103452219D02*
X105619048Y-102452219D01*
X105619048Y-102452219D02*
X106000000Y-102452219D01*
X106000000Y-102452219D02*
X106095238Y-102499838D01*
X106095238Y-102499838D02*
X106142857Y-102547457D01*
X106142857Y-102547457D02*
X106190476Y-102642695D01*
X106190476Y-102642695D02*
X106190476Y-102785552D01*
X106190476Y-102785552D02*
X106142857Y-102880790D01*
X106142857Y-102880790D02*
X106095238Y-102928409D01*
X106095238Y-102928409D02*
X106000000Y-102976028D01*
X106000000Y-102976028D02*
X105619048Y-102976028D01*
X106619048Y-103452219D02*
X106619048Y-102452219D01*
X107095238Y-103452219D02*
X107095238Y-102452219D01*
X107095238Y-102452219D02*
X107666666Y-103452219D01*
X107666666Y-103452219D02*
X107666666Y-102452219D01*
X109428571Y-103452219D02*
X108857143Y-103452219D01*
X109142857Y-103452219D02*
X109142857Y-102452219D01*
X109142857Y-102452219D02*
X109047619Y-102595076D01*
X109047619Y-102595076D02*
X108952381Y-102690314D01*
X108952381Y-102690314D02*
X108857143Y-102737933D01*
X116904762Y-122652219D02*
X116904762Y-121652219D01*
X117476190Y-122652219D02*
X117047619Y-122080790D01*
X117476190Y-121652219D02*
X116904762Y-122223647D01*
X118428571Y-122652219D02*
X117857143Y-122652219D01*
X118142857Y-122652219D02*
X118142857Y-121652219D01*
X118142857Y-121652219D02*
X118047619Y-121795076D01*
X118047619Y-121795076D02*
X117952381Y-121890314D01*
X117952381Y-121890314D02*
X117857143Y-121937933D01*
X119619048Y-122652219D02*
X119619048Y-121652219D01*
X119619048Y-121652219D02*
X120000000Y-121652219D01*
X120000000Y-121652219D02*
X120095238Y-121699838D01*
X120095238Y-121699838D02*
X120142857Y-121747457D01*
X120142857Y-121747457D02*
X120190476Y-121842695D01*
X120190476Y-121842695D02*
X120190476Y-121985552D01*
X120190476Y-121985552D02*
X120142857Y-122080790D01*
X120142857Y-122080790D02*
X120095238Y-122128409D01*
X120095238Y-122128409D02*
X120000000Y-122176028D01*
X120000000Y-122176028D02*
X119619048Y-122176028D01*
X121142857Y-122652219D02*
X120571429Y-122652219D01*
X120857143Y-122652219D02*
X120857143Y-121652219D01*
X120857143Y-121652219D02*
X120761905Y-121795076D01*
X120761905Y-121795076D02*
X120666667Y-121890314D01*
X120666667Y-121890314D02*
X120571429Y-121937933D01*
X121761904Y-111928409D02*
X121904761Y-111976028D01*
X121904761Y-111976028D02*
X121952380Y-112023647D01*
X121952380Y-112023647D02*
X121999999Y-112118885D01*
X121999999Y-112118885D02*
X121999999Y-112261742D01*
X121999999Y-112261742D02*
X121952380Y-112356980D01*
X121952380Y-112356980D02*
X121904761Y-112404600D01*
X121904761Y-112404600D02*
X121809523Y-112452219D01*
X121809523Y-112452219D02*
X121428571Y-112452219D01*
X121428571Y-112452219D02*
X121428571Y-111452219D01*
X121428571Y-111452219D02*
X121761904Y-111452219D01*
X121761904Y-111452219D02*
X121857142Y-111499838D01*
X121857142Y-111499838D02*
X121904761Y-111547457D01*
X121904761Y-111547457D02*
X121952380Y-111642695D01*
X121952380Y-111642695D02*
X121952380Y-111737933D01*
X121952380Y-111737933D02*
X121904761Y-111833171D01*
X121904761Y-111833171D02*
X121857142Y-111880790D01*
X121857142Y-111880790D02*
X121761904Y-111928409D01*
X121761904Y-111928409D02*
X121428571Y-111928409D01*
X122619047Y-111976028D02*
X122619047Y-112452219D01*
X122285714Y-111452219D02*
X122619047Y-111976028D01*
X122619047Y-111976028D02*
X122952380Y-111452219D01*
X123285714Y-112452219D02*
X123285714Y-111452219D01*
X123285714Y-111452219D02*
X123666666Y-111452219D01*
X123666666Y-111452219D02*
X123761904Y-111499838D01*
X123761904Y-111499838D02*
X123809523Y-111547457D01*
X123809523Y-111547457D02*
X123857142Y-111642695D01*
X123857142Y-111642695D02*
X123857142Y-111785552D01*
X123857142Y-111785552D02*
X123809523Y-111880790D01*
X123809523Y-111880790D02*
X123761904Y-111928409D01*
X123761904Y-111928409D02*
X123666666Y-111976028D01*
X123666666Y-111976028D02*
X123285714Y-111976028D01*
X124238095Y-112166504D02*
X124714285Y-112166504D01*
X124142857Y-112452219D02*
X124476190Y-111452219D01*
X124476190Y-111452219D02*
X124809523Y-112452219D01*
X125095238Y-112404600D02*
X125238095Y-112452219D01*
X125238095Y-112452219D02*
X125476190Y-112452219D01*
X125476190Y-112452219D02*
X125571428Y-112404600D01*
X125571428Y-112404600D02*
X125619047Y-112356980D01*
X125619047Y-112356980D02*
X125666666Y-112261742D01*
X125666666Y-112261742D02*
X125666666Y-112166504D01*
X125666666Y-112166504D02*
X125619047Y-112071266D01*
X125619047Y-112071266D02*
X125571428Y-112023647D01*
X125571428Y-112023647D02*
X125476190Y-111976028D01*
X125476190Y-111976028D02*
X125285714Y-111928409D01*
X125285714Y-111928409D02*
X125190476Y-111880790D01*
X125190476Y-111880790D02*
X125142857Y-111833171D01*
X125142857Y-111833171D02*
X125095238Y-111737933D01*
X125095238Y-111737933D02*
X125095238Y-111642695D01*
X125095238Y-111642695D02*
X125142857Y-111547457D01*
X125142857Y-111547457D02*
X125190476Y-111499838D01*
X125190476Y-111499838D02*
X125285714Y-111452219D01*
X125285714Y-111452219D02*
X125523809Y-111452219D01*
X125523809Y-111452219D02*
X125666666Y-111499838D01*
X126047619Y-112404600D02*
X126190476Y-112452219D01*
X126190476Y-112452219D02*
X126428571Y-112452219D01*
X126428571Y-112452219D02*
X126523809Y-112404600D01*
X126523809Y-112404600D02*
X126571428Y-112356980D01*
X126571428Y-112356980D02*
X126619047Y-112261742D01*
X126619047Y-112261742D02*
X126619047Y-112166504D01*
X126619047Y-112166504D02*
X126571428Y-112071266D01*
X126571428Y-112071266D02*
X126523809Y-112023647D01*
X126523809Y-112023647D02*
X126428571Y-111976028D01*
X126428571Y-111976028D02*
X126238095Y-111928409D01*
X126238095Y-111928409D02*
X126142857Y-111880790D01*
X126142857Y-111880790D02*
X126095238Y-111833171D01*
X126095238Y-111833171D02*
X126047619Y-111737933D01*
X126047619Y-111737933D02*
X126047619Y-111642695D01*
X126047619Y-111642695D02*
X126095238Y-111547457D01*
X126095238Y-111547457D02*
X126142857Y-111499838D01*
X126142857Y-111499838D02*
X126238095Y-111452219D01*
X126238095Y-111452219D02*
X126476190Y-111452219D01*
X126476190Y-111452219D02*
X126619047Y-111499838D01*
X124380952Y-148452219D02*
X124380952Y-147452219D01*
X124380952Y-147452219D02*
X124619047Y-147452219D01*
X124619047Y-147452219D02*
X124761904Y-147499838D01*
X124761904Y-147499838D02*
X124857142Y-147595076D01*
X124857142Y-147595076D02*
X124904761Y-147690314D01*
X124904761Y-147690314D02*
X124952380Y-147880790D01*
X124952380Y-147880790D02*
X124952380Y-148023647D01*
X124952380Y-148023647D02*
X124904761Y-148214123D01*
X124904761Y-148214123D02*
X124857142Y-148309361D01*
X124857142Y-148309361D02*
X124761904Y-148404600D01*
X124761904Y-148404600D02*
X124619047Y-148452219D01*
X124619047Y-148452219D02*
X124380952Y-148452219D01*
X125904761Y-148452219D02*
X125333333Y-148452219D01*
X125619047Y-148452219D02*
X125619047Y-147452219D01*
X125619047Y-147452219D02*
X125523809Y-147595076D01*
X125523809Y-147595076D02*
X125428571Y-147690314D01*
X125428571Y-147690314D02*
X125333333Y-147737933D01*
X127095238Y-148452219D02*
X127095238Y-147452219D01*
X127666666Y-148452219D02*
X127238095Y-147880790D01*
X127666666Y-147452219D02*
X127095238Y-148023647D01*
X125023809Y-134928409D02*
X125357142Y-134928409D01*
X125499999Y-135452219D02*
X125023809Y-135452219D01*
X125023809Y-135452219D02*
X125023809Y-134452219D01*
X125023809Y-134452219D02*
X125499999Y-134452219D01*
X125928571Y-135452219D02*
X125928571Y-134452219D01*
X125928571Y-134452219D02*
X126261904Y-135166504D01*
X126261904Y-135166504D02*
X126595237Y-134452219D01*
X126595237Y-134452219D02*
X126595237Y-135452219D01*
X127071428Y-134452219D02*
X127071428Y-135261742D01*
X127071428Y-135261742D02*
X127119047Y-135356980D01*
X127119047Y-135356980D02*
X127166666Y-135404600D01*
X127166666Y-135404600D02*
X127261904Y-135452219D01*
X127261904Y-135452219D02*
X127452380Y-135452219D01*
X127452380Y-135452219D02*
X127547618Y-135404600D01*
X127547618Y-135404600D02*
X127595237Y-135356980D01*
X127595237Y-135356980D02*
X127642856Y-135261742D01*
X127642856Y-135261742D02*
X127642856Y-134452219D01*
X128595237Y-135452219D02*
X128119047Y-135452219D01*
X128119047Y-135452219D02*
X128119047Y-134452219D01*
X128880952Y-135166504D02*
X129357142Y-135166504D01*
X128785714Y-135452219D02*
X129119047Y-134452219D01*
X129119047Y-134452219D02*
X129452380Y-135452219D01*
X129642857Y-134452219D02*
X130214285Y-134452219D01*
X129928571Y-135452219D02*
X129928571Y-134452219D01*
X130547619Y-134928409D02*
X130880952Y-134928409D01*
X131023809Y-135452219D02*
X130547619Y-135452219D01*
X130547619Y-135452219D02*
X130547619Y-134452219D01*
X130547619Y-134452219D02*
X131023809Y-134452219D01*
X129214286Y-113452219D02*
X129214286Y-112452219D01*
X129214286Y-112452219D02*
X129785714Y-113452219D01*
X129785714Y-113452219D02*
X129785714Y-112452219D01*
X130833333Y-113356980D02*
X130785714Y-113404600D01*
X130785714Y-113404600D02*
X130642857Y-113452219D01*
X130642857Y-113452219D02*
X130547619Y-113452219D01*
X130547619Y-113452219D02*
X130404762Y-113404600D01*
X130404762Y-113404600D02*
X130309524Y-113309361D01*
X130309524Y-113309361D02*
X130261905Y-113214123D01*
X130261905Y-113214123D02*
X130214286Y-113023647D01*
X130214286Y-113023647D02*
X130214286Y-112880790D01*
X130214286Y-112880790D02*
X130261905Y-112690314D01*
X130261905Y-112690314D02*
X130309524Y-112595076D01*
X130309524Y-112595076D02*
X130404762Y-112499838D01*
X130404762Y-112499838D02*
X130547619Y-112452219D01*
X130547619Y-112452219D02*
X130642857Y-112452219D01*
X130642857Y-112452219D02*
X130785714Y-112499838D01*
X130785714Y-112499838D02*
X130833333Y-112547457D01*
X133190476Y-136952219D02*
X133190476Y-135952219D01*
X133190476Y-135952219D02*
X133761904Y-136952219D01*
X133761904Y-136952219D02*
X133761904Y-135952219D01*
X134428571Y-135952219D02*
X134619047Y-135952219D01*
X134619047Y-135952219D02*
X134714285Y-135999838D01*
X134714285Y-135999838D02*
X134809523Y-136095076D01*
X134809523Y-136095076D02*
X134857142Y-136285552D01*
X134857142Y-136285552D02*
X134857142Y-136618885D01*
X134857142Y-136618885D02*
X134809523Y-136809361D01*
X134809523Y-136809361D02*
X134714285Y-136904600D01*
X134714285Y-136904600D02*
X134619047Y-136952219D01*
X134619047Y-136952219D02*
X134428571Y-136952219D01*
X134428571Y-136952219D02*
X134333333Y-136904600D01*
X134333333Y-136904600D02*
X134238095Y-136809361D01*
X134238095Y-136809361D02*
X134190476Y-136618885D01*
X134190476Y-136618885D02*
X134190476Y-136285552D01*
X134190476Y-136285552D02*
X134238095Y-136095076D01*
X134238095Y-136095076D02*
X134333333Y-135999838D01*
X134333333Y-135999838D02*
X134428571Y-135952219D01*
X133380952Y-148452219D02*
X133380952Y-147452219D01*
X133952380Y-148452219D02*
X133523809Y-147880790D01*
X133952380Y-147452219D02*
X133380952Y-148023647D01*
X135142857Y-148452219D02*
X135142857Y-147452219D01*
X135142857Y-147452219D02*
X135380952Y-147452219D01*
X135380952Y-147452219D02*
X135523809Y-147499838D01*
X135523809Y-147499838D02*
X135619047Y-147595076D01*
X135619047Y-147595076D02*
X135666666Y-147690314D01*
X135666666Y-147690314D02*
X135714285Y-147880790D01*
X135714285Y-147880790D02*
X135714285Y-148023647D01*
X135714285Y-148023647D02*
X135666666Y-148214123D01*
X135666666Y-148214123D02*
X135619047Y-148309361D01*
X135619047Y-148309361D02*
X135523809Y-148404600D01*
X135523809Y-148404600D02*
X135380952Y-148452219D01*
X135380952Y-148452219D02*
X135142857Y-148452219D01*
X136047619Y-147452219D02*
X136666666Y-147452219D01*
X136666666Y-147452219D02*
X136333333Y-147833171D01*
X136333333Y-147833171D02*
X136476190Y-147833171D01*
X136476190Y-147833171D02*
X136571428Y-147880790D01*
X136571428Y-147880790D02*
X136619047Y-147928409D01*
X136619047Y-147928409D02*
X136666666Y-148023647D01*
X136666666Y-148023647D02*
X136666666Y-148261742D01*
X136666666Y-148261742D02*
X136619047Y-148356980D01*
X136619047Y-148356980D02*
X136571428Y-148404600D01*
X136571428Y-148404600D02*
X136476190Y-148452219D01*
X136476190Y-148452219D02*
X136190476Y-148452219D01*
X136190476Y-148452219D02*
X136095238Y-148404600D01*
X136095238Y-148404600D02*
X136047619Y-148356980D01*
X141261905Y-144471266D02*
X142023810Y-144471266D01*
X141642857Y-144852219D02*
X141642857Y-144090314D01*
X143833333Y-144756980D02*
X143785714Y-144804600D01*
X143785714Y-144804600D02*
X143642857Y-144852219D01*
X143642857Y-144852219D02*
X143547619Y-144852219D01*
X143547619Y-144852219D02*
X143404762Y-144804600D01*
X143404762Y-144804600D02*
X143309524Y-144709361D01*
X143309524Y-144709361D02*
X143261905Y-144614123D01*
X143261905Y-144614123D02*
X143214286Y-144423647D01*
X143214286Y-144423647D02*
X143214286Y-144280790D01*
X143214286Y-144280790D02*
X143261905Y-144090314D01*
X143261905Y-144090314D02*
X143309524Y-143995076D01*
X143309524Y-143995076D02*
X143404762Y-143899838D01*
X143404762Y-143899838D02*
X143547619Y-143852219D01*
X143547619Y-143852219D02*
X143642857Y-143852219D01*
X143642857Y-143852219D02*
X143785714Y-143899838D01*
X143785714Y-143899838D02*
X143833333Y-143947457D01*
X144785714Y-144852219D02*
X144214286Y-144852219D01*
X144500000Y-144852219D02*
X144500000Y-143852219D01*
X144500000Y-143852219D02*
X144404762Y-143995076D01*
X144404762Y-143995076D02*
X144309524Y-144090314D01*
X144309524Y-144090314D02*
X144214286Y-144137933D01*
X174523809Y-153452219D02*
X174523809Y-152452219D01*
X175095237Y-153452219D02*
X174666666Y-152880790D01*
X175095237Y-152452219D02*
X174523809Y-153023647D01*
X176761904Y-153452219D02*
X176285714Y-153452219D01*
X176285714Y-153452219D02*
X176285714Y-152452219D01*
X177095238Y-152928409D02*
X177428571Y-152928409D01*
X177571428Y-153452219D02*
X177095238Y-153452219D01*
X177095238Y-153452219D02*
X177095238Y-152452219D01*
X177095238Y-152452219D02*
X177571428Y-152452219D01*
X178000000Y-153452219D02*
X178000000Y-152452219D01*
X178000000Y-152452219D02*
X178238095Y-152452219D01*
X178238095Y-152452219D02*
X178380952Y-152499838D01*
X178380952Y-152499838D02*
X178476190Y-152595076D01*
X178476190Y-152595076D02*
X178523809Y-152690314D01*
X178523809Y-152690314D02*
X178571428Y-152880790D01*
X178571428Y-152880790D02*
X178571428Y-153023647D01*
X178571428Y-153023647D02*
X178523809Y-153214123D01*
X178523809Y-153214123D02*
X178476190Y-153309361D01*
X178476190Y-153309361D02*
X178380952Y-153404600D01*
X178380952Y-153404600D02*
X178238095Y-153452219D01*
X178238095Y-153452219D02*
X178000000Y-153452219D01*
X178952381Y-152547457D02*
X179000000Y-152499838D01*
X179000000Y-152499838D02*
X179095238Y-152452219D01*
X179095238Y-152452219D02*
X179333333Y-152452219D01*
X179333333Y-152452219D02*
X179428571Y-152499838D01*
X179428571Y-152499838D02*
X179476190Y-152547457D01*
X179476190Y-152547457D02*
X179523809Y-152642695D01*
X179523809Y-152642695D02*
X179523809Y-152737933D01*
X179523809Y-152737933D02*
X179476190Y-152880790D01*
X179476190Y-152880790D02*
X178904762Y-153452219D01*
X178904762Y-153452219D02*
X179523809Y-153452219D01*
X191499999Y-112452219D02*
X191023809Y-112452219D01*
X191023809Y-112452219D02*
X191023809Y-111452219D01*
X191833333Y-111928409D02*
X192166666Y-111928409D01*
X192309523Y-112452219D02*
X191833333Y-112452219D01*
X191833333Y-112452219D02*
X191833333Y-111452219D01*
X191833333Y-111452219D02*
X192309523Y-111452219D01*
X192738095Y-112452219D02*
X192738095Y-111452219D01*
X192738095Y-111452219D02*
X192976190Y-111452219D01*
X192976190Y-111452219D02*
X193119047Y-111499838D01*
X193119047Y-111499838D02*
X193214285Y-111595076D01*
X193214285Y-111595076D02*
X193261904Y-111690314D01*
X193261904Y-111690314D02*
X193309523Y-111880790D01*
X193309523Y-111880790D02*
X193309523Y-112023647D01*
X193309523Y-112023647D02*
X193261904Y-112214123D01*
X193261904Y-112214123D02*
X193214285Y-112309361D01*
X193214285Y-112309361D02*
X193119047Y-112404600D01*
X193119047Y-112404600D02*
X192976190Y-112452219D01*
X192976190Y-112452219D02*
X192738095Y-112452219D01*
X194261904Y-112452219D02*
X193690476Y-112452219D01*
X193976190Y-112452219D02*
X193976190Y-111452219D01*
X193976190Y-111452219D02*
X193880952Y-111595076D01*
X193880952Y-111595076D02*
X193785714Y-111690314D01*
X193785714Y-111690314D02*
X193690476Y-111737933D01*
X195452381Y-112452219D02*
X195452381Y-111452219D01*
X196023809Y-112452219D02*
X195595238Y-111880790D01*
X196023809Y-111452219D02*
X195452381Y-112023647D01*
X189452219Y-153442857D02*
X190261742Y-153442857D01*
X190261742Y-153442857D02*
X190356980Y-153395238D01*
X190356980Y-153395238D02*
X190404600Y-153347619D01*
X190404600Y-153347619D02*
X190452219Y-153252381D01*
X190452219Y-153252381D02*
X190452219Y-153061905D01*
X190452219Y-153061905D02*
X190404600Y-152966667D01*
X190404600Y-152966667D02*
X190356980Y-152919048D01*
X190356980Y-152919048D02*
X190261742Y-152871429D01*
X190261742Y-152871429D02*
X189452219Y-152871429D01*
X190404600Y-152442857D02*
X190452219Y-152300000D01*
X190452219Y-152300000D02*
X190452219Y-152061905D01*
X190452219Y-152061905D02*
X190404600Y-151966667D01*
X190404600Y-151966667D02*
X190356980Y-151919048D01*
X190356980Y-151919048D02*
X190261742Y-151871429D01*
X190261742Y-151871429D02*
X190166504Y-151871429D01*
X190166504Y-151871429D02*
X190071266Y-151919048D01*
X190071266Y-151919048D02*
X190023647Y-151966667D01*
X190023647Y-151966667D02*
X189976028Y-152061905D01*
X189976028Y-152061905D02*
X189928409Y-152252381D01*
X189928409Y-152252381D02*
X189880790Y-152347619D01*
X189880790Y-152347619D02*
X189833171Y-152395238D01*
X189833171Y-152395238D02*
X189737933Y-152442857D01*
X189737933Y-152442857D02*
X189642695Y-152442857D01*
X189642695Y-152442857D02*
X189547457Y-152395238D01*
X189547457Y-152395238D02*
X189499838Y-152347619D01*
X189499838Y-152347619D02*
X189452219Y-152252381D01*
X189452219Y-152252381D02*
X189452219Y-152014286D01*
X189452219Y-152014286D02*
X189499838Y-151871429D01*
X189928409Y-151109524D02*
X189976028Y-150966667D01*
X189976028Y-150966667D02*
X190023647Y-150919048D01*
X190023647Y-150919048D02*
X190118885Y-150871429D01*
X190118885Y-150871429D02*
X190261742Y-150871429D01*
X190261742Y-150871429D02*
X190356980Y-150919048D01*
X190356980Y-150919048D02*
X190404600Y-150966667D01*
X190404600Y-150966667D02*
X190452219Y-151061905D01*
X190452219Y-151061905D02*
X190452219Y-151442857D01*
X190452219Y-151442857D02*
X189452219Y-151442857D01*
X189452219Y-151442857D02*
X189452219Y-151109524D01*
X189452219Y-151109524D02*
X189499838Y-151014286D01*
X189499838Y-151014286D02*
X189547457Y-150966667D01*
X189547457Y-150966667D02*
X189642695Y-150919048D01*
X189642695Y-150919048D02*
X189737933Y-150919048D01*
X189737933Y-150919048D02*
X189833171Y-150966667D01*
X189833171Y-150966667D02*
X189880790Y-151014286D01*
X189880790Y-151014286D02*
X189928409Y-151109524D01*
X189928409Y-151109524D02*
X189928409Y-151442857D01*
X190452219Y-149680952D02*
X189452219Y-149680952D01*
X189452219Y-149680952D02*
X189452219Y-149442857D01*
X189452219Y-149442857D02*
X189499838Y-149300000D01*
X189499838Y-149300000D02*
X189595076Y-149204762D01*
X189595076Y-149204762D02*
X189690314Y-149157143D01*
X189690314Y-149157143D02*
X189880790Y-149109524D01*
X189880790Y-149109524D02*
X190023647Y-149109524D01*
X190023647Y-149109524D02*
X190214123Y-149157143D01*
X190214123Y-149157143D02*
X190309361Y-149204762D01*
X190309361Y-149204762D02*
X190404600Y-149300000D01*
X190404600Y-149300000D02*
X190452219Y-149442857D01*
X190452219Y-149442857D02*
X190452219Y-149680952D01*
X190166504Y-148728571D02*
X190166504Y-148252381D01*
X190452219Y-148823809D02*
X189452219Y-148490476D01*
X189452219Y-148490476D02*
X190452219Y-148157143D01*
X189452219Y-147966666D02*
X189452219Y-147395238D01*
X190452219Y-147680952D02*
X189452219Y-147680952D01*
X190166504Y-147109523D02*
X190166504Y-146633333D01*
X190452219Y-147204761D02*
X189452219Y-146871428D01*
X189452219Y-146871428D02*
X190452219Y-146538095D01*
X189452219Y-145252380D02*
X189452219Y-145061904D01*
X189452219Y-145061904D02*
X189499838Y-144966666D01*
X189499838Y-144966666D02*
X189595076Y-144871428D01*
X189595076Y-144871428D02*
X189785552Y-144823809D01*
X189785552Y-144823809D02*
X190118885Y-144823809D01*
X190118885Y-144823809D02*
X190309361Y-144871428D01*
X190309361Y-144871428D02*
X190404600Y-144966666D01*
X190404600Y-144966666D02*
X190452219Y-145061904D01*
X190452219Y-145061904D02*
X190452219Y-145252380D01*
X190452219Y-145252380D02*
X190404600Y-145347618D01*
X190404600Y-145347618D02*
X190309361Y-145442856D01*
X190309361Y-145442856D02*
X190118885Y-145490475D01*
X190118885Y-145490475D02*
X189785552Y-145490475D01*
X189785552Y-145490475D02*
X189595076Y-145442856D01*
X189595076Y-145442856D02*
X189499838Y-145347618D01*
X189499838Y-145347618D02*
X189452219Y-145252380D01*
X190452219Y-144395237D02*
X189452219Y-144395237D01*
X189452219Y-144395237D02*
X190452219Y-143823809D01*
X190452219Y-143823809D02*
X189452219Y-143823809D01*
X190452219Y-142871428D02*
X190452219Y-143347618D01*
X190452219Y-143347618D02*
X189452219Y-143347618D01*
X189976028Y-142347618D02*
X190452219Y-142347618D01*
X189452219Y-142680951D02*
X189976028Y-142347618D01*
X189976028Y-142347618D02*
X189452219Y-142014285D01*
X138171429Y-101916171D02*
X138571429Y-101916171D01*
X138742857Y-102544742D02*
X138171429Y-102544742D01*
X138171429Y-102544742D02*
X138171429Y-101344742D01*
X138171429Y-101344742D02*
X138742857Y-101344742D01*
X139200000Y-102487600D02*
X139314286Y-102544742D01*
X139314286Y-102544742D02*
X139542857Y-102544742D01*
X139542857Y-102544742D02*
X139657143Y-102487600D01*
X139657143Y-102487600D02*
X139714286Y-102373314D01*
X139714286Y-102373314D02*
X139714286Y-102316171D01*
X139714286Y-102316171D02*
X139657143Y-102201885D01*
X139657143Y-102201885D02*
X139542857Y-102144742D01*
X139542857Y-102144742D02*
X139371429Y-102144742D01*
X139371429Y-102144742D02*
X139257143Y-102087600D01*
X139257143Y-102087600D02*
X139200000Y-101973314D01*
X139200000Y-101973314D02*
X139200000Y-101916171D01*
X139200000Y-101916171D02*
X139257143Y-101801885D01*
X139257143Y-101801885D02*
X139371429Y-101744742D01*
X139371429Y-101744742D02*
X139542857Y-101744742D01*
X139542857Y-101744742D02*
X139657143Y-101801885D01*
X140228572Y-101744742D02*
X140228572Y-102944742D01*
X140228572Y-101801885D02*
X140342858Y-101744742D01*
X140342858Y-101744742D02*
X140571429Y-101744742D01*
X140571429Y-101744742D02*
X140685715Y-101801885D01*
X140685715Y-101801885D02*
X140742858Y-101859028D01*
X140742858Y-101859028D02*
X140800000Y-101973314D01*
X140800000Y-101973314D02*
X140800000Y-102316171D01*
X140800000Y-102316171D02*
X140742858Y-102430457D01*
X140742858Y-102430457D02*
X140685715Y-102487600D01*
X140685715Y-102487600D02*
X140571429Y-102544742D01*
X140571429Y-102544742D02*
X140342858Y-102544742D01*
X140342858Y-102544742D02*
X140228572Y-102487600D01*
X141200000Y-101344742D02*
X141942857Y-101344742D01*
X141942857Y-101344742D02*
X141542857Y-101801885D01*
X141542857Y-101801885D02*
X141714286Y-101801885D01*
X141714286Y-101801885D02*
X141828572Y-101859028D01*
X141828572Y-101859028D02*
X141885714Y-101916171D01*
X141885714Y-101916171D02*
X141942857Y-102030457D01*
X141942857Y-102030457D02*
X141942857Y-102316171D01*
X141942857Y-102316171D02*
X141885714Y-102430457D01*
X141885714Y-102430457D02*
X141828572Y-102487600D01*
X141828572Y-102487600D02*
X141714286Y-102544742D01*
X141714286Y-102544742D02*
X141371429Y-102544742D01*
X141371429Y-102544742D02*
X141257143Y-102487600D01*
X141257143Y-102487600D02*
X141200000Y-102430457D01*
X142400000Y-101459028D02*
X142457143Y-101401885D01*
X142457143Y-101401885D02*
X142571429Y-101344742D01*
X142571429Y-101344742D02*
X142857143Y-101344742D01*
X142857143Y-101344742D02*
X142971429Y-101401885D01*
X142971429Y-101401885D02*
X143028571Y-101459028D01*
X143028571Y-101459028D02*
X143085714Y-101573314D01*
X143085714Y-101573314D02*
X143085714Y-101687600D01*
X143085714Y-101687600D02*
X143028571Y-101859028D01*
X143028571Y-101859028D02*
X142342857Y-102544742D01*
X142342857Y-102544742D02*
X143085714Y-102544742D01*
X143428571Y-101344742D02*
X144114286Y-101344742D01*
X143771428Y-102544742D02*
X143771428Y-101344742D01*
X145028572Y-102544742D02*
X145028572Y-101916171D01*
X145028572Y-101916171D02*
X144971429Y-101801885D01*
X144971429Y-101801885D02*
X144857143Y-101744742D01*
X144857143Y-101744742D02*
X144628572Y-101744742D01*
X144628572Y-101744742D02*
X144514286Y-101801885D01*
X145028572Y-102487600D02*
X144914286Y-102544742D01*
X144914286Y-102544742D02*
X144628572Y-102544742D01*
X144628572Y-102544742D02*
X144514286Y-102487600D01*
X144514286Y-102487600D02*
X144457143Y-102373314D01*
X144457143Y-102373314D02*
X144457143Y-102259028D01*
X144457143Y-102259028D02*
X144514286Y-102144742D01*
X144514286Y-102144742D02*
X144628572Y-102087600D01*
X144628572Y-102087600D02*
X144914286Y-102087600D01*
X144914286Y-102087600D02*
X145028572Y-102030457D01*
X145600000Y-101744742D02*
X145600000Y-102944742D01*
X145600000Y-101801885D02*
X145714286Y-101744742D01*
X145714286Y-101744742D02*
X145942857Y-101744742D01*
X145942857Y-101744742D02*
X146057143Y-101801885D01*
X146057143Y-101801885D02*
X146114286Y-101859028D01*
X146114286Y-101859028D02*
X146171428Y-101973314D01*
X146171428Y-101973314D02*
X146171428Y-102316171D01*
X146171428Y-102316171D02*
X146114286Y-102430457D01*
X146114286Y-102430457D02*
X146057143Y-102487600D01*
X146057143Y-102487600D02*
X145942857Y-102544742D01*
X145942857Y-102544742D02*
X145714286Y-102544742D01*
X145714286Y-102544742D02*
X145600000Y-102487600D01*
X147600000Y-102544742D02*
X147600000Y-101744742D01*
X147600000Y-101973314D02*
X147657143Y-101859028D01*
X147657143Y-101859028D02*
X147714286Y-101801885D01*
X147714286Y-101801885D02*
X147828571Y-101744742D01*
X147828571Y-101744742D02*
X147942857Y-101744742D01*
X148800000Y-102487600D02*
X148685714Y-102544742D01*
X148685714Y-102544742D02*
X148457143Y-102544742D01*
X148457143Y-102544742D02*
X148342857Y-102487600D01*
X148342857Y-102487600D02*
X148285714Y-102373314D01*
X148285714Y-102373314D02*
X148285714Y-101916171D01*
X148285714Y-101916171D02*
X148342857Y-101801885D01*
X148342857Y-101801885D02*
X148457143Y-101744742D01*
X148457143Y-101744742D02*
X148685714Y-101744742D01*
X148685714Y-101744742D02*
X148800000Y-101801885D01*
X148800000Y-101801885D02*
X148857143Y-101916171D01*
X148857143Y-101916171D02*
X148857143Y-102030457D01*
X148857143Y-102030457D02*
X148285714Y-102144742D01*
X149257142Y-101744742D02*
X149542856Y-102544742D01*
X149542856Y-102544742D02*
X149828571Y-101744742D01*
X151600000Y-101916171D02*
X151771428Y-101973314D01*
X151771428Y-101973314D02*
X151828571Y-102030457D01*
X151828571Y-102030457D02*
X151885714Y-102144742D01*
X151885714Y-102144742D02*
X151885714Y-102316171D01*
X151885714Y-102316171D02*
X151828571Y-102430457D01*
X151828571Y-102430457D02*
X151771428Y-102487600D01*
X151771428Y-102487600D02*
X151657143Y-102544742D01*
X151657143Y-102544742D02*
X151200000Y-102544742D01*
X151200000Y-102544742D02*
X151200000Y-101344742D01*
X151200000Y-101344742D02*
X151600000Y-101344742D01*
X151600000Y-101344742D02*
X151714286Y-101401885D01*
X151714286Y-101401885D02*
X151771428Y-101459028D01*
X151771428Y-101459028D02*
X151828571Y-101573314D01*
X151828571Y-101573314D02*
X151828571Y-101687600D01*
X151828571Y-101687600D02*
X151771428Y-101801885D01*
X151771428Y-101801885D02*
X151714286Y-101859028D01*
X151714286Y-101859028D02*
X151600000Y-101916171D01*
X151600000Y-101916171D02*
X151200000Y-101916171D01*
M02*
