M48
; DRILL file KiCad 10.0.1-10.0.1~ubuntu24.04.1 date 1970-01-01T00:00:00
; FORMAT={-:-/ absolute / metric / decimal}
; #@! TF.CreationDate,1970-01-01T00:00:00+00:00
; #@! TF.GenerationSoftware,Kicad,Pcbnew,10.0.1-10.0.1~ubuntu24.04.1
; #@! TF.FileFunction,MixedPlating,1,4
FMAT,2
METRIC
; #@! TA.AperFunction,Plated,PTH,ComponentDrill
T1C0.200
; #@! TA.AperFunction,Plated,PTH,ViaDrill
T2C0.300
; #@! TA.AperFunction,Plated,PTH,ViaDrill
T3C0.400
; #@! TA.AperFunction,Plated,PTH,ComponentDrill
T4C0.600
; #@! TA.AperFunction,Plated,PTH,ViaDrill
T5C1.000
; #@! TA.AperFunction,NonPlated,NPTH,ComponentDrill
T6C0.650
; #@! TA.AperFunction,NonPlated,NPTH,ComponentDrill
T7C2.700
%
G90
G05
T1
X175.1Y-114.81
X175.1Y-116.21
X175.8Y-114.11
X175.8Y-115.51
X175.8Y-116.91
X176.5Y-114.81
X176.5Y-116.21
X177.2Y-114.11
X177.2Y-115.51
X177.2Y-116.91
X177.9Y-114.81
X177.9Y-116.21
T2
X108.8Y-135.2
X110.0Y-104.8
X110.0Y-129.6
X110.0Y-132.8
X114.8Y-116.4
X114.8Y-144.0
X116.0Y-112.4
X116.4Y-111.2
X125.6Y-122.4
X125.6Y-124.4
X126.0Y-118.0
X126.8Y-111.6
X126.8Y-128.0
X126.8Y-139.2
X126.8Y-142.0
X127.2Y-113.2
X127.2Y-116.4
X128.8Y-144.8
X128.8Y-149.2
X129.6Y-114.8
X130.8Y-152.4
X131.6Y-152.0
X132.4Y-113.2
X132.4Y-115.6
X132.4Y-141.2
X132.8Y-128.0
X132.8Y-138.4
X132.8Y-142.0
X133.2Y-111.6
X133.2Y-115.6
X133.6Y-118.8
X133.6Y-128.8
X133.6Y-131.2
X133.6Y-133.6
X134.0Y-113.2
X134.0Y-117.2
X134.0Y-144.8
X134.4Y-121.2
X134.4Y-122.4
X134.4Y-124.0
X134.4Y-124.8
X135.2Y-106.0
X135.2Y-119.2
X135.2Y-126.0
X135.2Y-132.8
X135.2Y-139.6
X135.6Y-142.0
X136.0Y-103.2
X136.0Y-117.6
X136.0Y-136.8
X136.8Y-111.2
X136.8Y-113.2
X136.8Y-138.4
X137.2Y-115.6
X137.2Y-140.8
X138.0Y-110.4
X138.0Y-115.2
X138.0Y-122.8
X138.0Y-130.0
X138.0Y-131.6
X138.0Y-135.6
X138.0Y-140.4
X138.4Y-152.0
X138.8Y-102.8
X138.8Y-105.2
X138.8Y-120.8
X138.8Y-121.6
X138.8Y-132.4
X138.8Y-136.8
X138.8Y-142.0
X139.6Y-111.2
X139.6Y-115.2
X139.6Y-120.0
X139.6Y-124.0
X139.6Y-149.6
X140.0Y-119.2
X140.0Y-144.8
X140.8Y-122.8
X140.8Y-127.2
X141.2Y-114.0
X142.4Y-130.8
X142.4Y-131.6
X142.8Y-113.6
X142.8Y-137.6
X143.2Y-124.8
X143.6Y-140.4
X144.0Y-118.0
X144.0Y-121.6
X144.0Y-123.2
X144.8Y-120.8
X144.8Y-127.2
X144.8Y-130.0
X145.2Y-102.8
X145.2Y-105.2
X146.4Y-119.6
X147.2Y-139.2
X147.2Y-142.0
X147.2Y-149.6
X147.2Y-152.0
X147.6Y-131.2
X148.0Y-123.2
X148.0Y-128.4
X148.0Y-144.8
X148.0Y-148.0
X149.2Y-127.2
X149.2Y-130.0
X150.0Y-119.6
X150.0Y-123.2
X150.0Y-126.8
X150.0Y-129.6
X151.2Y-120.8
X151.2Y-122.4
X152.0Y-121.6
X152.0Y-124.8
X152.0Y-128.8
X152.0Y-144.8
X152.0Y-148.0
X152.8Y-147.6
X152.8Y-152.0
X153.6Y-120.8
X153.6Y-123.2
X154.0Y-127.2
X154.0Y-130.0
X154.4Y-126.4
X154.8Y-144.8
X155.2Y-132.0
X155.2Y-143.2
X155.6Y-123.2
X155.6Y-124.8
X156.0Y-121.6
X157.6Y-148.4
X158.0Y-126.4
X158.4Y-132.0
X158.8Y-114.4
X160.0Y-112.8
X160.0Y-116.0
X160.0Y-118.8
X160.0Y-121.6
X160.0Y-145.6
X160.4Y-122.4
X160.4Y-123.2
X160.4Y-124.8
X160.4Y-138.4
X160.4Y-146.4
X160.8Y-143.6
X161.2Y-126.4
X161.6Y-121.2
X161.6Y-149.6
X162.0Y-117.6
X162.0Y-119.6
X162.0Y-133.6
X162.8Y-123.2
X163.2Y-139.2
X164.0Y-145.6
X164.4Y-114.8
X165.2Y-107.6
X166.0Y-119.6
X166.0Y-143.6
X166.4Y-110.0
X166.4Y-110.8
X166.4Y-115.2
X166.8Y-152.0
X167.2Y-117.6
X167.2Y-128.4
X167.2Y-147.2
X167.2Y-151.2
X167.6Y-107.6
X167.6Y-109.2
X167.6Y-110.4
X168.0Y-111.6
X168.0Y-114.0
X168.0Y-116.8
X168.0Y-132.8
X169.6Y-118.0
X169.6Y-119.2
X169.6Y-120.4
X170.8Y-115.6
X170.8Y-138.4
X170.8Y-139.2
X171.2Y-132.8
X171.6Y-124.0
X172.0Y-150.0
X172.8Y-147.2
X172.8Y-152.0
X174.4Y-132.8
X175.2Y-143.2
X175.2Y-148.4
X176.0Y-150.0
X176.4Y-116.8
X178.0Y-144.8
X178.0Y-148.0
X178.4Y-143.6
X178.8Y-150.0
X180.2Y-135.0
X181.2Y-126.8
X181.6Y-144.0
X181.8Y-145.55
X182.0Y-148.0
X183.137Y-135.0
X183.2Y-148.8
X184.8Y-143.0
X185.4Y-133.2
X185.4Y-139.6
X185.5Y-138.2
X186.0Y-146.4
X186.8Y-125.6
X187.2Y-111.6
X187.2Y-112.8
X188.0Y-119.2
X188.4Y-134.75
X188.8Y-107.6
X188.8Y-110.0
X188.8Y-116.0
X188.8Y-118.0
X188.8Y-143.6
X190.0Y-111.2
X190.0Y-115.2
X191.2Y-109.6
X192.0Y-110.0
X192.4Y-129.825
X192.4Y-142.675
X194.0Y-110.0
X194.0Y-116.0
X194.0Y-118.0
X194.0Y-126.8
X194.0Y-145.6
T3
X107.4Y-112.5
X107.4Y-140.0
X108.4Y-112.5
X108.4Y-140.0
X109.4Y-112.5
X109.4Y-140.0
X115.6Y-106.5
X115.6Y-137.0
X116.6Y-106.5
X116.6Y-137.0
X117.4Y-150.0
X117.6Y-106.5
X117.6Y-137.0
X118.4Y-150.0
X119.4Y-150.0
T5
X108.5Y-115.5
X108.5Y-143.0
X110.0Y-115.5
X110.0Y-143.0
X111.5Y-115.5
X111.5Y-143.0
X115.1Y-109.5
X115.1Y-140.0
X116.6Y-109.5
X116.6Y-140.0
X118.1Y-109.5
X118.1Y-140.0
T6
X188.6Y-133.61
X188.6Y-139.39
T7
X120.0Y-103.0
X148.0Y-103.0
X192.0Y-152.0
T4
G00X187.52Y-132.18
M15
G01X188.62Y-132.18
M16
G05
G00X187.52Y-140.82
M15
G01X188.62Y-140.82
M16
G05
G00X191.95Y-132.18
M15
G01X192.55Y-132.18
M16
G05
G00X191.95Y-140.82
M15
G01X192.55Y-140.82
M16
G05
M30
