M48
; DRILL file KiCad 10.0.1-10.0.1~ubuntu24.04.1 date 1970-01-01T00:00:00
; FORMAT={-:-/ absolute / metric / decimal}
; #@! TF.CreationDate,1970-01-01T00:00:00+00:00
; #@! TF.GenerationSoftware,Kicad,Pcbnew,10.0.1-10.0.1~ubuntu24.04.1
; #@! TF.FileFunction,MixedPlating,1,4
FMAT,2
METRIC
; #@! TA.AperFunction,Plated,PTH,ComponentDrill
T1C0.200
; #@! TA.AperFunction,Plated,PTH,ViaDrill
T2C0.300
; #@! TA.AperFunction,Plated,PTH,ViaDrill
T3C0.400
; #@! TA.AperFunction,Plated,PTH,ComponentDrill
T4C0.600
; #@! TA.AperFunction,Plated,PTH,ViaDrill
T5C1.000
; #@! TA.AperFunction,NonPlated,NPTH,ComponentDrill
T6C0.650
; #@! TA.AperFunction,NonPlated,NPTH,ComponentDrill
T7C2.700
%
G90
G05
T1
X175.1Y-114.81
X175.1Y-116.21
X175.8Y-114.11
X175.8Y-115.51
X175.8Y-116.91
X176.5Y-114.81
X176.5Y-116.21
X177.2Y-114.11
X177.2Y-115.51
X177.2Y-116.91
X177.9Y-114.81
X177.9Y-116.21
T2
X101.2Y-124.4
X103.6Y-133.6
X103.6Y-138.0
X106.8Y-113.1
X106.8Y-114.4
X106.8Y-115.6
X106.8Y-133.6
X106.8Y-134.4
X107.2Y-116.8
X107.2Y-117.6
X112.4Y-112.4
X113.2Y-111.6
X114.0Y-111.6
X114.0Y-116.8
X114.0Y-117.6
X114.8Y-116.8
X116.4Y-112.4
X123.2Y-144.8
X123.2Y-147.6
X124.4Y-138.0
X124.8Y-125.2
X125.6Y-122.4
X125.6Y-124.4
X126.0Y-118.0
X126.8Y-111.6
X126.8Y-126.0
X126.8Y-139.2
X126.8Y-140.8
X127.2Y-113.2
X127.2Y-116.4
X128.0Y-132.8
X128.0Y-144.8
X128.8Y-116.8
X128.8Y-144.8
X128.8Y-149.2
X129.6Y-114.8
X130.4Y-116.0
X130.4Y-120.0
X130.8Y-152.4
X131.6Y-152.0
X132.4Y-140.8
X132.8Y-138.0
X133.2Y-111.6
X133.2Y-115.6
X133.2Y-139.2
X133.6Y-118.8
X133.6Y-126.0
X133.6Y-138.0
X134.0Y-113.2
X134.0Y-117.2
X134.0Y-139.2
X134.0Y-146.0
X134.4Y-122.4
X134.4Y-124.0
X134.4Y-124.8
X134.8Y-110.8
X135.2Y-126.0
X135.2Y-132.8
X136.0Y-121.6
X136.0Y-124.0
X136.8Y-113.2
X136.8Y-122.8
X136.8Y-139.2
X137.6Y-115.2
X137.6Y-142.8
X138.4Y-116.8
X138.4Y-138.4
X138.4Y-140.8
X138.4Y-152.0
X138.8Y-102.8
X138.8Y-105.2
X138.8Y-107.2
X138.8Y-120.8
X138.8Y-121.6
X139.2Y-124.0
X139.2Y-138.0
X139.2Y-152.4
X139.6Y-117.2
X139.6Y-118.8
X140.0Y-138.0
X140.0Y-144.8
X140.4Y-118.8
X140.8Y-122.8
X140.8Y-126.0
X140.8Y-149.6
X141.2Y-114.0
X141.2Y-132.8
X142.4Y-126.8
X142.4Y-153.2
X142.8Y-114.0
X142.8Y-144.8
X143.2Y-152.4
X143.6Y-114.8
X143.6Y-122.4
X143.6Y-140.4
X144.0Y-118.8
X144.0Y-121.6
X144.0Y-123.2
X144.4Y-140.4
X144.8Y-120.8
X144.8Y-127.2
X145.2Y-102.8
X145.2Y-105.2
X145.2Y-132.4
X146.0Y-119.2
X146.0Y-149.6
X146.4Y-152.4
X146.8Y-125.6
X146.8Y-127.2
X147.2Y-140.8
X147.2Y-152.0
X147.6Y-138.8
X148.0Y-123.2
X148.0Y-145.6
X148.0Y-148.0
X148.4Y-138.4
X149.2Y-127.2
X149.2Y-132.4
X149.2Y-138.4
X150.0Y-119.2
X150.0Y-123.2
X150.0Y-127.2
X150.0Y-132.4
X150.8Y-113.2
X150.8Y-116.8
X151.2Y-120.8
X151.2Y-122.4
X151.6Y-109.2
X152.0Y-121.6
X152.0Y-132.4
X152.0Y-146.4
X152.0Y-148.0
X152.4Y-115.2
X152.4Y-119.2
X152.8Y-124.8
X152.8Y-147.6
X152.8Y-152.0
X153.2Y-113.2
X153.2Y-114.8
X153.2Y-120.0
X154.0Y-127.2
X154.0Y-132.4
X154.0Y-144.8
X154.8Y-122.0
X154.8Y-132.4
X154.8Y-144.8
X155.6Y-123.2
X155.6Y-124.8
X156.4Y-121.6
X156.4Y-132.8
X157.6Y-121.6
X157.6Y-148.4
X158.4Y-124.0
X158.4Y-132.4
X159.2Y-132.8
X160.0Y-112.8
X160.0Y-116.0
X160.0Y-121.6
X160.0Y-145.6
X160.4Y-122.4
X160.4Y-124.8
X160.4Y-146.4
X160.8Y-144.8
X161.2Y-114.8
X161.2Y-120.0
X161.6Y-119.2
X161.6Y-149.6
X162.0Y-132.8
X162.4Y-118.4
X163.2Y-139.2
X164.0Y-145.6
X164.4Y-114.8
X165.2Y-107.6
X165.2Y-113.2
X165.6Y-110.8
X166.0Y-115.6
X166.0Y-118.0
X166.0Y-119.6
X166.0Y-144.4
X166.4Y-110.8
X166.8Y-115.6
X167.2Y-127.2
X167.2Y-147.2
X167.2Y-151.2
X167.2Y-152.0
X167.6Y-107.6
X167.6Y-109.2
X167.6Y-149.6
X167.8Y-144.9
X168.0Y-112.0
X168.0Y-114.8
X168.0Y-116.4
X168.0Y-117.6
X168.0Y-132.8
X168.4Y-119.2
X168.4Y-120.4
X170.0Y-125.6
X170.4Y-132.8
X170.8Y-112.0
X170.8Y-115.6
X171.2Y-144.4
X171.2Y-147.2
X171.6Y-124.0
X172.0Y-149.5
X172.4Y-123.6
X172.8Y-152.0
X173.8Y-147.3
X174.4Y-132.8
X174.4Y-154.0
X175.2Y-132.8
X176.4Y-116.8
X176.4Y-127.2
X176.4Y-149.2
X176.4Y-152.9
X177.137Y-147.3
X177.2Y-153.2
X178.4Y-152.0
X181.15Y-146.05
X181.2Y-126.8
X182.1Y-149.0
X182.4Y-134.4
X185.2Y-112.0
X185.35Y-146.0
X186.05Y-144.9
X186.8Y-125.6
X187.2Y-112.8
X188.0Y-119.2
X188.0Y-135.2
X188.0Y-136.4
X188.0Y-137.6
X188.0Y-138.8
X188.8Y-107.6
X188.8Y-116.0
X188.8Y-118.0
X189.6Y-110.0
X190.0Y-115.2
X190.0Y-144.8
X190.2Y-147.9
X190.4Y-111.2
X191.2Y-110.0
X191.6Y-147.9
X192.0Y-110.0
X192.0Y-144.4
X193.2Y-124.4
X193.2Y-127.2
X194.0Y-110.0
X194.0Y-116.0
X194.0Y-118.0
T3
X104.0Y-110.55
X104.0Y-118.18
X105.0Y-110.55
X105.0Y-118.18
X106.0Y-110.55
X106.0Y-118.18
X117.4Y-150.0
X118.4Y-150.0
X119.4Y-150.0
X143.0Y-129.9
X184.4Y-129.9
X189.0Y-133.82
X189.0Y-141.45
X190.0Y-133.82
X190.0Y-141.45
X191.0Y-133.82
X191.0Y-141.45
T5
X107.35Y-111.83
X107.35Y-119.45
X108.85Y-111.83
X108.85Y-119.45
X110.35Y-111.83
X110.35Y-119.45
X120.8Y-136.4
X184.65Y-132.55
X184.65Y-140.17
X186.15Y-132.55
X186.15Y-140.17
X187.65Y-132.55
X187.65Y-140.17
T6
X180.71Y-148.6
X186.49Y-148.6
T7
X120.0Y-103.0
X148.0Y-103.0
X192.0Y-152.0
T4
G00X179.28Y-147.52
M15
G01X179.28Y-148.62
M16
G05
G00X179.28Y-151.95
M15
G01X179.28Y-152.55
M16
G05
G00X187.92Y-147.52
M15
G01X187.92Y-148.62
M16
G05
G00X187.92Y-151.95
M15
G01X187.92Y-152.55
M16
G05
M30
