M48
; DRILL file KiCad 10.0.1-10.0.1~ubuntu24.04.1 date 2026-07-23T12:13:45
; FORMAT={-:-/ absolute / metric / decimal}
; #@! TF.CreationDate,2026-07-23T12:13:45-07:00
; #@! TF.GenerationSoftware,Kicad,Pcbnew,10.0.1-10.0.1~ubuntu24.04.1
; #@! TF.FileFunction,MixedPlating,1,2
FMAT,2
METRIC
; #@! TA.AperFunction,Plated,PTH,ViaDrill
T1C0.300
; #@! TA.AperFunction,Plated,PTH,ComponentDrill
T2C0.300
; #@! TA.AperFunction,Plated,PTH,ComponentDrill
T3C0.600
; #@! TA.AperFunction,Plated,PTH,ComponentDrill
T4C0.760
; #@! TA.AperFunction,NonPlated,NPTH,ComponentDrill
T5C0.650
; #@! TA.AperFunction,NonPlated,NPTH,ComponentDrill
T6C2.700
; #@! TA.AperFunction,NonPlated,NPTH,ComponentDrill
T7C3.200
%
G90
G05
T1
X107.8Y-152.5
X110.1Y-110.54
X110.1Y-139.54
X110.9Y-113.08
X110.9Y-142.08
X116.6Y-109.27
X116.6Y-138.27
X117.4Y-116.89
X117.4Y-138.27
X117.4Y-145.89
X118.2Y-111.81
X118.2Y-140.81
X119.3Y-147.35
X119.5Y-127.6
X119.5Y-143.35
X121.0Y-118.55
X122.5Y-111.7
X122.5Y-136.0
X122.8Y-142.05
X124.0Y-112.97
X124.0Y-129.8
X127.5Y-147.3
X128.0Y-120.5
X128.2Y-146.55
X130.412Y-144.5
X131.375Y-115.6
X131.5Y-148.225
X137.562Y-119.75
X138.0Y-145.75
X138.05Y-107.2
X140.5Y-145.75
X142.8Y-149.5
X144.0Y-100.95
X145.225Y-107.4
X146.425Y-102.81
X148.25Y-107.8
X148.7Y-153.775
X150.5Y-102.81
X151.3Y-106.5
X151.562Y-148.55
X151.95Y-101.54
X154.2Y-153.775
X154.9Y-115.5
X155.4Y-118.05
X156.08Y-146.375
X160.0Y-154.125
X165.1Y-150.45
X172.05Y-101.54
X173.3Y-152.0
X180.05Y-119.6
X181.087Y-112.97
X182.8Y-135.55
X183.5Y-137.45
X184.5Y-136.5
X186.425Y-141.0
X187.137Y-136.5
X190.9Y-134.05
X190.9Y-138.95
X190.9Y-141.0
X190.9Y-144.5
X193.5Y-135.75
X193.5Y-136.75
X194.5Y-126.175
X194.5Y-145.825
T2
X159.1Y-108.56
X159.1Y-109.96
X159.8Y-107.86
X159.8Y-109.26
X159.8Y-110.66
X160.5Y-108.56
X160.5Y-109.96
X161.2Y-107.86
X161.2Y-109.26
X161.2Y-110.66
X161.9Y-108.56
X161.9Y-109.96
T4
X112.5Y-108.0
X112.5Y-110.54
X112.5Y-113.08
X112.5Y-115.62
X112.5Y-137.0
X112.5Y-139.54
X112.5Y-142.08
X112.5Y-144.62
X115.04Y-109.27
X115.04Y-111.81
X115.04Y-114.35
X115.04Y-116.89
X115.04Y-138.27
X115.04Y-140.81
X115.04Y-143.35
X115.04Y-145.89
T5
X193.6Y-133.61
X193.6Y-139.39
T6
X102.9Y-126.5
X197.0Y-103.0
X197.0Y-152.0
T7
X106.15Y-106.73
X106.15Y-118.16
X106.15Y-135.73
X106.15Y-147.16
T3
X192.52Y-132.18G85X193.62Y-132.18
G05
X192.52Y-140.82G85X193.62Y-140.82
G05
X196.95Y-132.18G85X197.55Y-132.18
G05
X196.95Y-140.82G85X197.55Y-140.82
G05
M30
