M48
; DRILL file KiCad 10.0.1-10.0.1~ubuntu24.04.1 date 1970-01-01T00:00:00
; FORMAT={-:-/ absolute / metric / decimal}
; #@! TF.CreationDate,1970-01-01T00:00:00+00:00
; #@! TF.GenerationSoftware,Kicad,Pcbnew,10.0.1-10.0.1~ubuntu24.04.1
; #@! TF.FileFunction,MixedPlating,1,4
FMAT,2
METRIC
; #@! TA.AperFunction,Plated,PTH,ComponentDrill
T1C0.200
; #@! TA.AperFunction,Plated,PTH,ViaDrill
T2C0.300
; #@! TA.AperFunction,Plated,PTH,ComponentDrill
T3C0.600
; #@! TA.AperFunction,NonPlated,NPTH,ComponentDrill
T4C0.650
; #@! TA.AperFunction,NonPlated,NPTH,ComponentDrill
T5C2.700
%
G90
G05
T1
X175.1Y-108.21
X175.1Y-109.61
X175.8Y-107.51
X175.8Y-108.91
X175.8Y-110.31
X176.5Y-108.21
X176.5Y-109.61
X177.2Y-107.51
X177.2Y-108.91
X177.2Y-110.31
X177.9Y-108.21
X177.9Y-109.61
T2
X108.8Y-109.6
X108.8Y-112.4
X108.8Y-136.8
X109.2Y-129.6
X110.0Y-105.2
X110.0Y-116.8
X110.0Y-132.8
X114.0Y-125.2
X114.8Y-105.2
X114.8Y-117.6
X114.8Y-129.6
X114.8Y-132.8
X114.8Y-141.2
X114.8Y-144.0
X116.0Y-109.6
X116.0Y-136.0
X116.4Y-112.4
X117.2Y-152.4
X125.6Y-122.4
X125.6Y-124.4
X126.8Y-111.6
X126.8Y-118.0
X126.8Y-128.0
X126.8Y-139.2
X126.8Y-142.0
X127.2Y-113.2
X127.2Y-117.2
X128.8Y-144.8
X128.8Y-149.2
X130.8Y-152.4
X131.6Y-152.0
X132.4Y-141.2
X132.8Y-142.0
X133.2Y-111.2
X133.2Y-118.0
X133.2Y-138.4
X133.6Y-128.8
X133.6Y-133.2
X134.0Y-114.0
X134.0Y-117.6
X134.0Y-125.6
X134.0Y-128.0
X134.0Y-144.8
X134.4Y-122.4
X134.4Y-124.0
X134.4Y-124.8
X135.2Y-121.6
X135.2Y-124.0
X135.2Y-133.6
X135.2Y-137.2
X136.0Y-128.8
X136.8Y-114.0
X136.8Y-128.0
X136.8Y-138.4
X137.2Y-142.0
X137.6Y-115.6
X138.0Y-135.6
X138.0Y-140.4
X138.0Y-141.2
X138.4Y-116.8
X138.4Y-152.0
X138.8Y-111.2
X138.8Y-120.8
X138.8Y-121.6
X138.8Y-138.4
X138.8Y-142.0
X139.2Y-124.0
X139.6Y-119.2
X139.6Y-149.6
X140.0Y-118.4
X140.0Y-144.8
X140.8Y-122.8
X140.8Y-127.2
X141.2Y-114.0
X142.8Y-139.2
X143.6Y-140.8
X144.0Y-118.4
X144.0Y-123.2
X144.0Y-127.2
X144.8Y-120.8
X144.8Y-122.0
X144.8Y-130.0
X144.8Y-140.8
X145.6Y-125.2
X145.6Y-126.0
X145.6Y-131.2
X146.0Y-119.6
X146.0Y-132.8
X146.0Y-140.0
X147.2Y-142.0
X147.2Y-149.6
X147.2Y-152.0
X147.6Y-124.8
X147.6Y-139.2
X148.0Y-122.4
X148.0Y-140.0
X148.0Y-144.8
X148.0Y-148.0
X148.4Y-128.0
X148.4Y-128.8
X148.8Y-132.8
X148.8Y-140.8
X149.2Y-127.2
X149.2Y-130.0
X150.0Y-119.6
X150.0Y-126.8
X150.0Y-129.6
X150.0Y-133.6
X150.8Y-128.8
X151.2Y-120.8
X151.2Y-132.8
X151.6Y-102.8
X151.6Y-105.2
X151.6Y-128.0
X152.0Y-121.6
X152.0Y-123.2
X152.0Y-144.8
X152.0Y-148.0
X152.4Y-108.4
X152.8Y-147.6
X152.8Y-152.0
X153.6Y-120.0
X153.6Y-122.4
X154.0Y-127.2
X154.0Y-130.0
X154.4Y-120.8
X154.8Y-144.8
X155.2Y-123.2
X155.2Y-143.2
X155.6Y-124.8
X155.6Y-133.6
X155.6Y-138.4
X156.0Y-111.2
X156.0Y-112.8
X156.0Y-120.8
X156.0Y-121.6
X156.8Y-124.0
X157.6Y-148.4
X158.4Y-102.8
X158.4Y-105.2
X158.4Y-132.8
X160.0Y-106.0
X160.0Y-114.0
X160.0Y-121.6
X160.0Y-145.6
X160.4Y-123.2
X160.4Y-124.8
X160.8Y-143.6
X161.2Y-111.2
X161.2Y-119.2
X161.6Y-146.4
X161.6Y-149.6
X162.0Y-110.8
X162.0Y-112.0
X162.0Y-133.6
X163.2Y-119.2
X163.2Y-120.8
X164.0Y-145.6
X164.4Y-109.2
X164.8Y-132.8
X165.2Y-101.2
X165.6Y-112.0
X166.0Y-143.6
X166.4Y-103.6
X166.4Y-104.4
X166.4Y-108.8
X166.4Y-131.2
X166.8Y-152.0
X167.2Y-110.8
X167.2Y-122.0
X167.2Y-147.2
X167.2Y-151.2
X167.6Y-101.2
X167.6Y-102.4
X167.6Y-132.8
X168.0Y-104.8
X168.0Y-107.6
X168.0Y-108.4
X168.0Y-110.0
X168.4Y-111.2
X168.4Y-112.8
X168.4Y-114.0
X168.4Y-118.8
X168.8Y-133.6
X168.8Y-138.4
X170.0Y-119.2
X170.8Y-104.4
X170.8Y-117.6
X171.2Y-132.8
X171.6Y-114.4
X171.6Y-116.0
X171.6Y-116.8
X172.0Y-150.0
X172.8Y-147.2
X172.8Y-152.0
X174.4Y-132.8
X175.2Y-143.2
X175.2Y-148.8
X176.0Y-150.0
X176.4Y-110.4
X178.0Y-144.8
X178.0Y-148.0
X178.4Y-143.2
X178.8Y-150.0
X180.2Y-135.0
X181.2Y-120.0
X181.6Y-144.0
X181.8Y-145.55
X182.0Y-148.0
X183.137Y-135.0
X183.2Y-148.8
X184.8Y-143.0
X185.4Y-133.2
X185.4Y-139.6
X185.5Y-138.2
X186.0Y-146.4
X186.8Y-118.8
X187.6Y-118.0
X188.0Y-104.8
X188.0Y-106.4
X188.0Y-110.0
X188.0Y-112.8
X188.0Y-116.0
X188.4Y-134.75
X188.8Y-101.2
X188.8Y-143.6
X190.0Y-111.2
X190.0Y-115.2
X190.8Y-110.0
X192.0Y-110.0
X192.4Y-129.825
X192.4Y-142.675
X193.2Y-104.8
X193.2Y-108.0
X194.0Y-110.0
X194.0Y-116.0
X194.0Y-118.0
X194.0Y-126.8
X194.0Y-145.6
T4
X188.6Y-133.61
X188.6Y-139.39
T5
X102.9Y-126.5
X197.0Y-103.0
X197.0Y-152.0
T3
G00X187.52Y-132.18
M15
G01X188.62Y-132.18
M16
G05
G00X187.52Y-140.82
M15
G01X188.62Y-140.82
M16
G05
G00X191.95Y-132.18
M15
G01X192.55Y-132.18
M16
G05
G00X191.95Y-140.82
M15
G01X192.55Y-140.82
M16
G05
M30
