%TF.GenerationSoftware,KiCad,Pcbnew,10.0.1-10.0.1~ubuntu24.04.1*%
%TF.CreationDate,1970-01-01T00:00:00+00:00*%
%TF.ProjectId,Esp32Tap,45737033-3254-4617-902e-6b696361645f,E*%
%TF.SameCoordinates,Original*%
%TF.FileFunction,Copper,L3,Inr*%
%TF.FilePolarity,Positive*%
%FSLAX46Y46*%
G04 Gerber Fmt 4.6, Leading zero omitted, Abs format (unit mm)*
G04 Created by KiCad (PCBNEW 10.0.1-10.0.1~ubuntu24.04.1) date 1970-01-01 00:00:00*
%MOMM*%
%LPD*%
G01*
G04 APERTURE LIST*
%TA.AperFunction,HeatsinkPad*%
%ADD10O,1.000000X2.100000*%
%TD*%
%TA.AperFunction,HeatsinkPad*%
%ADD11O,1.000000X1.600000*%
%TD*%
%TA.AperFunction,HeatsinkPad*%
%ADD12C,0.600000*%
%TD*%
%TA.AperFunction,ViaPad*%
%ADD13C,0.600000*%
%TD*%
%TA.AperFunction,ViaPad*%
%ADD14C,1.400000*%
%TD*%
%TA.AperFunction,ViaPad*%
%ADD15C,0.800000*%
%TD*%
%TA.AperFunction,Conductor*%
%ADD16C,1.900000*%
%TD*%
%TA.AperFunction,Conductor*%
%ADD17C,0.600000*%
%TD*%
%TA.AperFunction,Conductor*%
%ADD18C,0.200000*%
%TD*%
%TA.AperFunction,Conductor*%
%ADD19C,0.500000*%
%TD*%
%TA.AperFunction,Conductor*%
%ADD20C,0.400000*%
%TD*%
G04 APERTURE END LIST*
D10*
%TO.N,GND*%
%TO.C,J3*%
X179280000Y-148070000D03*
D11*
X179280000Y-152250000D03*
D10*
X187920000Y-148070000D03*
D11*
X187920000Y-152250000D03*
%TD*%
D12*
%TO.N,GND*%
%TO.C,U1*%
X175100000Y-114810000D03*
X175100000Y-116210000D03*
X175800000Y-114110000D03*
X175800000Y-115510000D03*
X175800000Y-116910000D03*
X176500000Y-114810000D03*
X176500000Y-116210000D03*
X177200000Y-114110000D03*
X177200000Y-115510000D03*
X177200000Y-116910000D03*
X177900000Y-114810000D03*
X177900000Y-116210000D03*
%TD*%
D13*
%TO.N,GND*%
X194000000Y-116000000D03*
X138800000Y-121600000D03*
D14*
X109900000Y-140170000D03*
X182100000Y-133829999D03*
D13*
X144000000Y-118800000D03*
X177200000Y-153200000D03*
X164000000Y-145600000D03*
X160000000Y-112800000D03*
D14*
X182100000Y-141450000D03*
D13*
X176400000Y-116800000D03*
X166000000Y-144400000D03*
D14*
X183600000Y-141450000D03*
D13*
X165200000Y-107600000D03*
X172800000Y-152000000D03*
X190000000Y-145200000D03*
X126800000Y-140800000D03*
X134000000Y-117200000D03*
X149200000Y-132400000D03*
X138400000Y-138400000D03*
X155600000Y-124800000D03*
X145200000Y-105200000D03*
X147200000Y-140800000D03*
X134400000Y-124000000D03*
D14*
X183600000Y-133829999D03*
D13*
X132400000Y-140800000D03*
X150000000Y-119200000D03*
D14*
X111400000Y-132550000D03*
X112900000Y-132550000D03*
D13*
X138400000Y-152000000D03*
D14*
X112900000Y-140170000D03*
X185100000Y-133829999D03*
D13*
X171200000Y-147200000D03*
X166800000Y-106800000D03*
X145200000Y-102800000D03*
D14*
X185100000Y-141450000D03*
X111400000Y-140170000D03*
D13*
X134400000Y-124800000D03*
X136800000Y-139200000D03*
X177137500Y-147300000D03*
X192400000Y-144800000D03*
X154000000Y-132400000D03*
X161600000Y-149600000D03*
X140000000Y-144800000D03*
X194000000Y-110000000D03*
X128800000Y-149200000D03*
X134000000Y-146000000D03*
X152800000Y-147600000D03*
X123200000Y-147600000D03*
X160000000Y-121600000D03*
X178400000Y-152000000D03*
X149200000Y-127200000D03*
X146000000Y-149600000D03*
X194000000Y-118000000D03*
X152800000Y-152000000D03*
X144000000Y-123200000D03*
X189200000Y-107600000D03*
X166400000Y-110800000D03*
X140800000Y-122800000D03*
X148000000Y-148000000D03*
X154000000Y-127200000D03*
X171200000Y-144400000D03*
X127200000Y-116400000D03*
X166000000Y-118000000D03*
D14*
X109900000Y-132550000D03*
D13*
X167200000Y-127200000D03*
X138400000Y-140800000D03*
X139200000Y-152400000D03*
D15*
%TO.N,+8V_RAW*%
X178250000Y-140180000D03*
X118400000Y-150000000D03*
X180250000Y-140180000D03*
X180250000Y-132550000D03*
X114750000Y-133820000D03*
X114750000Y-141450000D03*
X116750000Y-133820000D03*
X115750000Y-141450000D03*
X115750000Y-133820000D03*
X119400000Y-150000000D03*
X178250000Y-132550000D03*
X179250000Y-132550000D03*
X116750000Y-141450000D03*
X179550000Y-131000000D03*
X179250000Y-140180000D03*
X143000000Y-129900000D03*
X117400000Y-150000000D03*
D13*
%TO.N,VIN*%
X149200000Y-138400000D03*
X147200000Y-152000000D03*
X136000000Y-146400000D03*
X137600000Y-142800000D03*
X128400000Y-118400000D03*
X140800000Y-149600000D03*
X148000000Y-145600000D03*
X160000000Y-145600000D03*
X134000000Y-139200000D03*
X127600000Y-152000000D03*
X131600000Y-152000000D03*
X139200000Y-138800000D03*
X130800000Y-152400000D03*
X160400000Y-146400000D03*
X136000000Y-124000000D03*
X136000000Y-121600000D03*
X160800000Y-144800000D03*
X117200000Y-147200000D03*
X143600000Y-149600000D03*
X126800000Y-138400000D03*
X109600000Y-144800000D03*
X109200000Y-123600000D03*
%TO.N,BUCK_EN*%
X157600000Y-148400000D03*
X152000000Y-146400000D03*
X152000000Y-148000000D03*
%TO.N,+3V3*%
X154800000Y-144800000D03*
X142800000Y-141200000D03*
X151200000Y-120800000D03*
X123200000Y-144800000D03*
X160400000Y-122400000D03*
X146000000Y-119200000D03*
X167200000Y-109200000D03*
X167200000Y-151200000D03*
X165600000Y-110800000D03*
X119200000Y-147200000D03*
X165200000Y-114000000D03*
X108000000Y-124400000D03*
X154000000Y-144800000D03*
X132400000Y-139200000D03*
X161600000Y-114000000D03*
X156400000Y-121600000D03*
X167600000Y-149600000D03*
X153200000Y-120000000D03*
X167200000Y-147200000D03*
X187200000Y-126400000D03*
X143200000Y-152400000D03*
X190000000Y-115200000D03*
X121600000Y-133600000D03*
X157600000Y-121600000D03*
X166800000Y-115600000D03*
%TO.N,VBUS*%
X176400000Y-152900000D03*
X190200000Y-147900000D03*
X181150000Y-146050000D03*
X167800000Y-144900000D03*
X173800000Y-147300000D03*
X186050000Y-145300000D03*
%TO.N,CC1*%
X191600000Y-147900000D03*
X182100000Y-149000000D03*
%TO.N,CC2*%
X185350000Y-146000000D03*
X174400000Y-154000000D03*
%TO.N,CONS6*%
X125600000Y-122400000D03*
X162400000Y-118400000D03*
X127200000Y-113200000D03*
X113200000Y-138900000D03*
%TO.N,MOT6*%
X128800000Y-144800000D03*
X183200000Y-137200000D03*
X142400000Y-126800000D03*
X125600000Y-124400000D03*
%TO.N,TX_DRV*%
X168000000Y-132800000D03*
X141200000Y-114000000D03*
X126800000Y-126000000D03*
%TO.N,TX_BUF*%
X136800000Y-113200000D03*
X160400000Y-124800000D03*
%TO.N,ESP_TX*%
X154800000Y-122000000D03*
X168400000Y-119200000D03*
X162400000Y-120800000D03*
%TO.N,CONS_RX*%
X166000000Y-119600000D03*
X168400000Y-120400000D03*
%TO.N,PIN3*%
X152400000Y-119200000D03*
X122000000Y-145600000D03*
X130800000Y-139200000D03*
X181200000Y-138800000D03*
X121600000Y-135200000D03*
X139200000Y-138000000D03*
X161600000Y-119200000D03*
X107600000Y-141200000D03*
%TO.N,PIN3_RX*%
X168000000Y-117600000D03*
X166000000Y-115600000D03*
X164400000Y-114800000D03*
%TO.N,PIN4_PASS*%
X181600000Y-138000000D03*
X187200000Y-141200000D03*
X120800000Y-136400000D03*
X181200000Y-151600000D03*
X120000000Y-147200000D03*
%TO.N,PIN5_SAFETY*%
X182400000Y-137600000D03*
X120800000Y-137200000D03*
X186000000Y-150800000D03*
X182400000Y-139600000D03*
X187200000Y-145200000D03*
%TO.N,TREAD_OK*%
X144000000Y-121600000D03*
X151200000Y-122400000D03*
X143600000Y-140400000D03*
X133199999Y-139200000D03*
X154800000Y-132400000D03*
X147600000Y-138800000D03*
%TO.N,TREAD_OK_MCU*%
X158400000Y-132400000D03*
X168000000Y-114800000D03*
X158400000Y-124000000D03*
%TO.N,RELAY_CMD*%
X144800000Y-120800000D03*
X148000000Y-123200000D03*
X181200000Y-126400000D03*
X144800000Y-127200000D03*
X146800000Y-125600000D03*
X146800000Y-127200000D03*
%TO.N,RELAY_GATE*%
X159200000Y-132800000D03*
X138800000Y-120800000D03*
X152000000Y-121600000D03*
X156400000Y-132800000D03*
X145200000Y-132400000D03*
X135200000Y-126000000D03*
%TO.N,+5V_RLY*%
X139200000Y-124000000D03*
X124400000Y-118000000D03*
X152000000Y-132400000D03*
X138400000Y-115200000D03*
X126800000Y-110800000D03*
X140800000Y-126000000D03*
%TO.N,RELAY_SW*%
X162000000Y-132800000D03*
X152800000Y-124800000D03*
X133199999Y-111600000D03*
X133600000Y-118800000D03*
X137600000Y-115200000D03*
X133199999Y-115600000D03*
%TO.N,Q1_B*%
X140000000Y-118800000D03*
X139200000Y-116800000D03*
X134000000Y-113200000D03*
%TO.N,K1_NC_FB*%
X112800000Y-128400000D03*
X170400000Y-132800000D03*
X128000000Y-132800000D03*
X144400000Y-140400000D03*
X113600000Y-141600000D03*
X168000000Y-112000000D03*
X134400000Y-122400000D03*
%TO.N,K1_NO_FB*%
X126000000Y-120800000D03*
X135200000Y-132800000D03*
X108000000Y-126000000D03*
X128400000Y-119200000D03*
X133600000Y-126000000D03*
X171600000Y-124000000D03*
X177200000Y-145200000D03*
X174400000Y-132800000D03*
%TO.N,TX_ENABLE*%
X150000000Y-123200000D03*
X150800000Y-116800000D03*
X168000000Y-116400000D03*
X150000000Y-127200000D03*
%TO.N,TX_GATE*%
X150000000Y-132400000D03*
X148400000Y-138400000D03*
X155600000Y-123200000D03*
X163200000Y-139200000D03*
X143600000Y-122400000D03*
X141200000Y-132800000D03*
%TO.N,VBUS_PRESENT_N*%
X172000000Y-149500000D03*
X170800000Y-115600000D03*
X176400000Y-149200000D03*
%TO.N,STATUS_LED*%
X188000000Y-119200000D03*
X189200000Y-110000000D03*
%TO.N,LED1_A*%
X191200000Y-110000000D03*
X192000000Y-110000000D03*
%TO.N,LED2_A*%
X142000000Y-152400000D03*
X146400000Y-154000000D03*
%TO.N,EN*%
X138800000Y-102800000D03*
X160000000Y-116000000D03*
X138800000Y-105200000D03*
X167200000Y-110800000D03*
%TO.N,IO0*%
X188800000Y-118000000D03*
X188800000Y-116000000D03*
X186800000Y-125600000D03*
X190000000Y-111200000D03*
%TO.N,U0TXD*%
X187200000Y-111600000D03*
X193200000Y-124400000D03*
%TO.N,U0RXD*%
X186400000Y-112800000D03*
X193200000Y-127200000D03*
%TD*%
%TO.N,+8V_RAW*%
D16*
X115750000Y-141450000D02*
X115750000Y-133820000D01*
X119000000Y-128100000D02*
X141000000Y-128100000D01*
X117000000Y-129900000D02*
X119000000Y-128100000D01*
X115750000Y-133820000D02*
X115750000Y-129900000D01*
X141000000Y-128100000D02*
X143000000Y-129900000D01*
X179550000Y-131000000D02*
X179250000Y-132550000D01*
X115750000Y-129900000D02*
X143000000Y-129900000D01*
X179250000Y-132550000D02*
X179250000Y-140180000D01*
%TO.N,VIN*%
D17*
X124800000Y-123600000D02*
X109200000Y-123600000D01*
X126800000Y-118800000D02*
X126800000Y-119200000D01*
X116800000Y-150800000D02*
X116400000Y-150800000D01*
X126800000Y-119200000D02*
X126400000Y-119200000D01*
X130800000Y-152000000D02*
X127600000Y-152000000D01*
X134800000Y-146000000D02*
X136000000Y-146000000D01*
X112000000Y-146000000D02*
X112000000Y-146400000D01*
X134000000Y-145200000D02*
X134800000Y-145200000D01*
X136000000Y-146000000D02*
X136000000Y-146400000D01*
X139200000Y-139200000D02*
X137600000Y-139200000D01*
X111200000Y-146000000D02*
X112000000Y-146000000D01*
X128400000Y-118400000D02*
X127200000Y-118400000D01*
X143600000Y-149600000D02*
X140800000Y-149600000D01*
X131600000Y-138400000D02*
X131600000Y-144800000D01*
X111200000Y-145600000D02*
X111200000Y-146000000D01*
X139200000Y-138800000D02*
X139200000Y-139200000D01*
X110800000Y-145200000D02*
X110800000Y-145600000D01*
X136000000Y-149600000D02*
X136000000Y-146400000D01*
X112000000Y-146400000D02*
X116400000Y-146400000D01*
X134800000Y-145200000D02*
X134800000Y-146000000D01*
X126400000Y-119600000D02*
X125600000Y-119600000D01*
X136000000Y-142800000D02*
X136000000Y-146000000D01*
X131600000Y-152000000D02*
X130800000Y-152000000D01*
X127200000Y-118800000D02*
X126800000Y-118800000D01*
X120000000Y-152000000D02*
X120000000Y-151200000D01*
X130800000Y-152400000D02*
X130800000Y-152000000D01*
X126400000Y-119200000D02*
X126400000Y-119600000D01*
X137600000Y-139200000D02*
X137600000Y-138400000D01*
X131600000Y-144800000D02*
X134000000Y-144800000D01*
X109600000Y-144800000D02*
X110400000Y-144800000D01*
X116400000Y-146400000D02*
X116400000Y-147200000D01*
X134000000Y-144800000D02*
X134000000Y-145200000D01*
X137600000Y-142800000D02*
X136000000Y-142800000D01*
X116800000Y-151200000D02*
X116800000Y-150800000D01*
X110400000Y-145200000D02*
X110800000Y-145200000D01*
X134000000Y-139200000D02*
X134000000Y-138400000D01*
X116400000Y-147200000D02*
X117200000Y-147200000D01*
X125200000Y-120000000D02*
X125200000Y-121600000D01*
X160000000Y-146400000D02*
X160000000Y-145600000D01*
X127600000Y-152000000D02*
X120000000Y-152000000D01*
X125200000Y-121600000D02*
X124800000Y-121600000D01*
X140800000Y-149600000D02*
X136000000Y-149600000D01*
X127200000Y-118400000D02*
X127200000Y-118800000D01*
X116400000Y-150800000D02*
X116400000Y-147200000D01*
X110400000Y-144800000D02*
X110400000Y-145200000D01*
X120000000Y-151200000D02*
X116800000Y-151200000D01*
X134000000Y-138400000D02*
X131600000Y-138400000D01*
X110800000Y-145600000D02*
X111200000Y-145600000D01*
X125600000Y-119600000D02*
X125600000Y-120000000D01*
X160400000Y-146400000D02*
X160000000Y-146400000D01*
X160800000Y-144800000D02*
X160000000Y-144800000D01*
X124800000Y-121600000D02*
X124800000Y-123600000D01*
X160000000Y-144800000D02*
X160000000Y-145600000D01*
X125600000Y-120000000D02*
X125200000Y-120000000D01*
X137600000Y-138400000D02*
X134000000Y-138400000D01*
%TO.N,BUCK_EN*%
D18*
X157600000Y-148400000D02*
X152000000Y-148400000D01*
X152000000Y-148000000D02*
X152000000Y-146400000D01*
X152000000Y-148400000D02*
X152000000Y-148000000D01*
%TO.N,+3V3*%
D17*
X147200000Y-120800000D02*
X151200000Y-120800000D01*
X106800000Y-140400000D02*
X106800000Y-142400000D01*
X108000000Y-124400000D02*
X108000000Y-125200000D01*
X107200000Y-142800000D02*
X107600000Y-142800000D01*
X112800000Y-145200000D02*
X112800000Y-145600000D01*
X107600000Y-143200000D02*
X111200000Y-143200000D01*
X119200000Y-145600000D02*
X119200000Y-146400000D01*
X122800000Y-144800000D02*
X122800000Y-146400000D01*
X111600000Y-144400000D02*
X111600000Y-144800000D01*
X111200000Y-143200000D02*
X111200000Y-144400000D01*
X190000000Y-115200000D02*
X189600000Y-115200000D01*
X165200000Y-114000000D02*
X161600000Y-114000000D01*
X112000000Y-145200000D02*
X112800000Y-145200000D01*
X123200000Y-144800000D02*
X122800000Y-144800000D01*
X107200000Y-125200000D02*
X107200000Y-140400000D01*
X146000000Y-119200000D02*
X146400000Y-119200000D01*
X107200000Y-142400000D02*
X107200000Y-142800000D01*
X187600000Y-120800000D02*
X187600000Y-126400000D01*
X122800000Y-146400000D02*
X119200000Y-146400000D01*
X165200000Y-114800000D02*
X165200000Y-114000000D01*
X146400000Y-119200000D02*
X146400000Y-120000000D01*
X154800000Y-144800000D02*
X154000000Y-144800000D01*
X187600000Y-126400000D02*
X187200000Y-126400000D01*
X147200000Y-120000000D02*
X147200000Y-120800000D01*
X108000000Y-125200000D02*
X107200000Y-125200000D01*
X166800000Y-114800000D02*
X165200000Y-114800000D01*
X166800000Y-115600000D02*
X166800000Y-114800000D01*
X107600000Y-142800000D02*
X107600000Y-143200000D01*
X160400000Y-122400000D02*
X157600000Y-122400000D01*
X153200000Y-120800000D02*
X153200000Y-120000000D01*
X154800000Y-147200000D02*
X154800000Y-144800000D01*
X151200000Y-120800000D02*
X153200000Y-120800000D01*
X146400000Y-120000000D02*
X147200000Y-120000000D01*
X189600000Y-120800000D02*
X187600000Y-120800000D01*
X167600000Y-149600000D02*
X167200000Y-149600000D01*
X107200000Y-140400000D02*
X106800000Y-140400000D01*
X157600000Y-122400000D02*
X157600000Y-121600000D01*
X119200000Y-146400000D02*
X119200000Y-147200000D01*
X189600000Y-115200000D02*
X189600000Y-120800000D01*
X167200000Y-147200000D02*
X154800000Y-147200000D01*
X112000000Y-144800000D02*
X112000000Y-145200000D01*
X112800000Y-145600000D02*
X119200000Y-145600000D01*
X106800000Y-142400000D02*
X107200000Y-142400000D01*
X111600000Y-144800000D02*
X112000000Y-144800000D01*
X167200000Y-149600000D02*
X167200000Y-147200000D01*
X157600000Y-121600000D02*
X156400000Y-121600000D01*
X111200000Y-144400000D02*
X111600000Y-144400000D01*
%TO.N,CC1*%
D18*
X182100000Y-149000000D02*
X182100000Y-144000000D01*
X191600000Y-145000000D02*
X191600000Y-147900000D01*
X190800000Y-144000000D02*
X191600000Y-145000000D01*
X182100000Y-144000000D02*
X190800000Y-144000000D01*
%TO.N,CC2*%
X185350000Y-153800000D02*
X174400000Y-153800000D01*
X185350000Y-146000000D02*
X185350000Y-153800000D01*
X174400000Y-153800000D02*
X174400000Y-154000000D01*
%TO.N,CONS6*%
X131199999Y-118000000D02*
X162400000Y-118400000D01*
X127200000Y-113200000D02*
X131199999Y-118000000D01*
X113200000Y-138900000D02*
X108600000Y-138900000D01*
X108600000Y-138900000D02*
X108600000Y-116000000D01*
X125600000Y-122400000D02*
X131199999Y-118000000D01*
X120000000Y-116000000D02*
X131199999Y-118000000D01*
X108600000Y-116000000D02*
X120000000Y-116000000D01*
%TO.N,MOT6*%
X144000000Y-131600000D02*
X144000000Y-131199999D01*
X143600000Y-128400000D02*
X143600000Y-128000000D01*
X143600000Y-128000000D02*
X143200000Y-128000000D01*
X144400000Y-129199999D02*
X144400000Y-128800000D01*
X142400000Y-127200000D02*
X142400000Y-126800000D01*
X144400000Y-130400000D02*
X144800000Y-130400000D01*
X144000000Y-131199999D02*
X144400000Y-131199999D01*
X143200000Y-128000000D02*
X143200000Y-127600000D01*
X144800000Y-129199999D02*
X144400000Y-129199999D01*
X143200000Y-127600000D02*
X142800000Y-127600000D01*
X142800000Y-127600000D02*
X142800000Y-127200000D01*
X128800000Y-144800000D02*
X128800000Y-131600000D01*
X144800000Y-130400000D02*
X144800000Y-129199999D01*
X128800000Y-131600000D02*
X144000000Y-131600000D01*
X144400000Y-131199999D02*
X144400000Y-130400000D01*
X142800000Y-127200000D02*
X142400000Y-127200000D01*
X144400000Y-128800000D02*
X144000000Y-128800000D01*
X144000000Y-128800000D02*
X144000000Y-128400000D01*
X144000000Y-128400000D02*
X143600000Y-128400000D01*
%TO.N,TX_DRV*%
X168000000Y-132800000D02*
X164000000Y-132800000D01*
X163200000Y-117600000D02*
X145600000Y-117600000D01*
X163200000Y-125600000D02*
X163200000Y-117600000D01*
X145600000Y-117600000D02*
X145600000Y-117200000D01*
X145600000Y-117200000D02*
X141200000Y-117200000D01*
X141200000Y-117200000D02*
X141200000Y-114000000D01*
X164000000Y-132800000D02*
X164000000Y-125600000D01*
X164000000Y-125600000D02*
X163200000Y-125600000D01*
%TO.N,ESP_TX*%
X162400000Y-120800000D02*
X161600000Y-120800000D01*
X161600000Y-120000000D02*
X154800000Y-120000000D01*
X154800000Y-120000000D02*
X154800000Y-122000000D01*
X161600000Y-120800000D02*
X161600000Y-120000000D01*
%TO.N,CONS_RX*%
X168400000Y-120400000D02*
X166000000Y-120400000D01*
X166000000Y-120400000D02*
X166000000Y-119600000D01*
%TO.N,PIN3*%
X112400000Y-144000000D02*
X112800000Y-144000000D01*
X130800000Y-137600000D02*
X130800000Y-139200000D01*
X107600000Y-141600000D02*
X108000000Y-141600000D01*
X112000000Y-142400000D02*
X112000000Y-143600000D01*
X161600000Y-119200000D02*
X152400000Y-119200000D01*
X112000000Y-143600000D02*
X112400000Y-143600000D01*
X113600000Y-144400000D02*
X113600000Y-144800000D01*
X108000000Y-141600000D02*
X108000000Y-142000000D01*
X108000000Y-142000000D02*
X108400000Y-142000000D01*
X139200000Y-138000000D02*
X139200000Y-137600000D01*
X108400000Y-142000000D02*
X108400000Y-142400000D01*
X112800000Y-144000000D02*
X112800000Y-144400000D01*
X108400000Y-142400000D02*
X112000000Y-142400000D01*
X107600000Y-141200000D02*
X107600000Y-141600000D01*
X112400000Y-143600000D02*
X112400000Y-144000000D01*
X113600000Y-144800000D02*
X122000000Y-144800000D01*
X139200000Y-137600000D02*
X130800000Y-137600000D01*
X112800000Y-144400000D02*
X113600000Y-144400000D01*
X122000000Y-144800000D02*
X122000000Y-145600000D01*
%TO.N,PIN3_RX*%
X166000000Y-115600000D02*
X164400000Y-115600000D01*
X164400000Y-115600000D02*
X164400000Y-114800000D01*
%TO.N,PIN4_PASS*%
X181600000Y-138000000D02*
X181600000Y-136400000D01*
X168000000Y-152000000D02*
X153600000Y-152000000D01*
X120800000Y-147200000D02*
X120000000Y-147200000D01*
X180400000Y-151600000D02*
X180400000Y-150800000D01*
X184000000Y-136400000D02*
X184000000Y-140000000D01*
X177200000Y-150800000D02*
X177200000Y-151200000D01*
X181200000Y-151600000D02*
X180400000Y-151600000D01*
X184000000Y-140000000D02*
X186000000Y-140000000D01*
X180400000Y-150800000D02*
X177200000Y-150800000D01*
X177200000Y-151200000D02*
X168000000Y-151200000D01*
X153600000Y-152000000D02*
X153600000Y-151200000D01*
X186000000Y-140400000D02*
X186400000Y-140400000D01*
X181600000Y-136400000D02*
X184000000Y-136400000D01*
X168000000Y-151200000D02*
X168000000Y-152000000D01*
X120800000Y-151200000D02*
X120800000Y-147200000D01*
X153600000Y-151200000D02*
X120800000Y-151200000D01*
X186400000Y-141200000D02*
X187200000Y-141200000D01*
X186400000Y-140400000D02*
X186400000Y-141200000D01*
X186000000Y-140000000D02*
X186000000Y-140400000D01*
%TO.N,PIN5_SAFETY*%
X189200000Y-150000000D02*
X186000000Y-150000000D01*
X182400000Y-137600000D02*
X182400000Y-139600000D01*
X187200000Y-146400000D02*
X189200000Y-146400000D01*
X187200000Y-145200000D02*
X187200000Y-146400000D01*
X186000000Y-150000000D02*
X186000000Y-150800000D01*
X189200000Y-146400000D02*
X189200000Y-150000000D01*
%TO.N,TREAD_OK*%
X152800000Y-134000000D02*
X147600000Y-134000000D01*
X139200000Y-140400000D02*
X139200000Y-140000000D01*
X139200000Y-140000000D02*
X133199999Y-140000000D01*
X145600000Y-121600000D02*
X145600000Y-122400000D01*
X143600000Y-140400000D02*
X139200000Y-140400000D01*
X154800000Y-132400000D02*
X154800000Y-133199999D01*
X144000000Y-121600000D02*
X145600000Y-121600000D01*
X151200000Y-122400000D02*
X151200000Y-127200000D01*
X154800000Y-133199999D02*
X152800000Y-133199999D01*
X147600000Y-138800000D02*
X143600000Y-138800000D01*
X152800000Y-127200000D02*
X152800000Y-133199999D01*
X145600000Y-122400000D02*
X151200000Y-122400000D01*
X147600000Y-134000000D02*
X147600000Y-138800000D01*
X143600000Y-138800000D02*
X143600000Y-140400000D01*
X152800000Y-133199999D02*
X152800000Y-134000000D01*
X151200000Y-127200000D02*
X152800000Y-127200000D01*
X133199999Y-140000000D02*
X133199999Y-139200000D01*
%TO.N,TREAD_OK_MCU*%
X158400000Y-124000000D02*
X158400000Y-132400000D01*
%TO.N,RELAY_CMD*%
X146800000Y-127200000D02*
X146800000Y-123200000D01*
X146800000Y-123200000D02*
X148000000Y-123200000D01*
%TO.N,RELAY_GATE*%
X154800000Y-131600000D02*
X154800000Y-126400000D01*
X154800000Y-126400000D02*
X152000000Y-126400000D01*
X156400000Y-132800000D02*
X155600000Y-132800000D01*
X145600000Y-120800000D02*
X145600000Y-120000000D01*
X146400000Y-121600000D02*
X146400000Y-120800000D01*
X155600000Y-132800000D02*
X155600000Y-131600000D01*
X145600000Y-120000000D02*
X138800000Y-120000000D01*
X152000000Y-126400000D02*
X152000000Y-121600000D01*
X138800000Y-120800000D02*
X135200000Y-120800000D01*
X156400000Y-133199999D02*
X156400000Y-132800000D01*
X159200000Y-132800000D02*
X159200000Y-133199999D01*
X146400000Y-120800000D02*
X145600000Y-120800000D01*
X135200000Y-120800000D02*
X135200000Y-126000000D01*
X152000000Y-121600000D02*
X146400000Y-121600000D01*
X159200000Y-133199999D02*
X156400000Y-133199999D01*
X138800000Y-120000000D02*
X138800000Y-120800000D01*
X155600000Y-131600000D02*
X154800000Y-131600000D01*
%TO.N,+5V_RLY*%
D19*
X134000000Y-110800000D02*
X126800000Y-110800000D01*
X139600000Y-126000000D02*
X139600000Y-124000000D01*
X137600000Y-112400000D02*
X134000000Y-112400000D01*
X139600000Y-124000000D02*
X139200000Y-124000000D01*
X143200000Y-126000000D02*
X140800000Y-126000000D01*
X143200000Y-126400000D02*
X143200000Y-126000000D01*
X137600000Y-114400000D02*
X137600000Y-112400000D01*
X138400000Y-114400000D02*
X137600000Y-114400000D01*
X152000000Y-132400000D02*
X150800000Y-132400000D01*
X145600000Y-131600000D02*
X145600000Y-126400000D01*
X145600000Y-126400000D02*
X143200000Y-126400000D01*
X134000000Y-112400000D02*
X134000000Y-110800000D01*
X150800000Y-132400000D02*
X150800000Y-131600000D01*
X140800000Y-126000000D02*
X139600000Y-126000000D01*
X150800000Y-131600000D02*
X145600000Y-131600000D01*
X138400000Y-115200000D02*
X138400000Y-114400000D01*
%TO.N,RELAY_SW*%
D20*
X159200000Y-132000000D02*
X159200000Y-123200000D01*
X162000000Y-132800000D02*
X160000000Y-132800000D01*
X160000000Y-132000000D02*
X159200000Y-132000000D01*
X156400000Y-123200000D02*
X156400000Y-124000000D01*
X133199999Y-115600000D02*
X133199999Y-111600000D01*
X152800000Y-124000000D02*
X152800000Y-124800000D01*
X159200000Y-123200000D02*
X156400000Y-123200000D01*
X160000000Y-132800000D02*
X160000000Y-132000000D01*
X156400000Y-124000000D02*
X152800000Y-124000000D01*
%TO.N,Q1_B*%
D18*
X139200000Y-116800000D02*
X134800000Y-116800000D01*
X134800000Y-116400000D02*
X134000000Y-116400000D01*
X134800000Y-116800000D02*
X134800000Y-116400000D01*
X134000000Y-116400000D02*
X134000000Y-113200000D01*
%TO.N,K1_NC_FB*%
X126000000Y-126400000D02*
X118000000Y-126400000D01*
X116800000Y-128000000D02*
X116400000Y-128000000D01*
X114000000Y-142400000D02*
X114400000Y-142400000D01*
X117200000Y-127200000D02*
X117200000Y-127600000D01*
X117200000Y-142800000D02*
X117200000Y-142400000D01*
X117200000Y-127600000D02*
X116800000Y-127600000D01*
X114400000Y-142800000D02*
X115200000Y-142800000D01*
X115200000Y-142800000D02*
X115200000Y-143200000D01*
X168000000Y-112000000D02*
X169200000Y-112000000D01*
X169200000Y-112000000D02*
X169200000Y-132800000D01*
X116800000Y-127600000D02*
X116800000Y-128000000D01*
X118000000Y-126800000D02*
X117600000Y-126800000D01*
X114000000Y-142000000D02*
X114000000Y-142400000D01*
X116400000Y-142800000D02*
X117200000Y-142800000D01*
X113600000Y-142000000D02*
X114000000Y-142000000D01*
X168800000Y-132800000D02*
X168800000Y-133600000D01*
X144400000Y-140000000D02*
X144400000Y-140400000D01*
X134400000Y-122400000D02*
X128000000Y-122400000D01*
X113600000Y-141600000D02*
X113600000Y-142000000D01*
X117600000Y-142000000D02*
X118000000Y-142000000D01*
X164000000Y-133600000D02*
X164000000Y-140000000D01*
X118000000Y-132800000D02*
X128000000Y-132800000D01*
X168800000Y-133600000D02*
X164000000Y-133600000D01*
X117600000Y-126800000D02*
X117600000Y-127200000D01*
X117600000Y-142400000D02*
X117600000Y-142000000D01*
X116400000Y-128400000D02*
X112800000Y-128400000D01*
X114400000Y-142400000D02*
X114400000Y-142800000D01*
X128000000Y-125200000D02*
X126000000Y-125200000D01*
X128000000Y-122400000D02*
X128000000Y-125200000D01*
X126000000Y-125200000D02*
X126000000Y-126400000D01*
X116400000Y-128000000D02*
X116400000Y-128400000D01*
X117600000Y-127200000D02*
X117200000Y-127200000D01*
X118000000Y-142000000D02*
X118000000Y-132800000D01*
X117200000Y-142400000D02*
X117600000Y-142400000D01*
X170400000Y-132800000D02*
X168800000Y-132800000D01*
X116400000Y-143200000D02*
X116400000Y-142800000D01*
X118000000Y-126400000D02*
X118000000Y-126800000D01*
X164000000Y-140000000D02*
X144400000Y-140000000D01*
X115200000Y-143200000D02*
X116400000Y-143200000D01*
%TO.N,K1_NO_FB*%
X135200000Y-150400000D02*
X135200000Y-146800000D01*
X173600000Y-130000000D02*
X173600000Y-131199999D01*
X112800000Y-142800000D02*
X112800000Y-141600000D01*
X177600000Y-148000000D02*
X177600000Y-148400000D01*
X113600000Y-143600000D02*
X113600000Y-143200000D01*
X108800000Y-140800000D02*
X108400000Y-140800000D01*
X113200000Y-142800000D02*
X112800000Y-142800000D01*
X108800000Y-141200000D02*
X108800000Y-140800000D01*
X108000000Y-139600000D02*
X108000000Y-126000000D01*
X135200000Y-132800000D02*
X129600000Y-132800000D01*
X112800000Y-141600000D02*
X109200000Y-141600000D01*
X128000000Y-144000000D02*
X114400000Y-144000000D01*
X126400000Y-120800000D02*
X126400000Y-120400000D01*
X114400000Y-143600000D02*
X113600000Y-143600000D01*
X127200000Y-120000000D02*
X127600000Y-120000000D01*
X133199999Y-146800000D02*
X133199999Y-145600000D01*
X173600000Y-131199999D02*
X174000000Y-131199999D01*
X174400000Y-131600000D02*
X174400000Y-132800000D01*
X113200000Y-143200000D02*
X113200000Y-142800000D01*
X176400000Y-150000000D02*
X176400000Y-150400000D01*
X127200000Y-120400000D02*
X127200000Y-120000000D01*
X178000000Y-148000000D02*
X177600000Y-148000000D01*
X108400000Y-140800000D02*
X108400000Y-139600000D01*
X172000000Y-128400000D02*
X172400000Y-128400000D01*
X128000000Y-119200000D02*
X128400000Y-119200000D01*
X172400000Y-128400000D02*
X172400000Y-129600000D01*
X133199999Y-145600000D02*
X129600000Y-145600000D01*
X177200000Y-148400000D02*
X177200000Y-150000000D01*
X113600000Y-143200000D02*
X113200000Y-143200000D01*
X126000000Y-120800000D02*
X126400000Y-120800000D01*
X177200000Y-146400000D02*
X178000000Y-146400000D01*
X173200000Y-130000000D02*
X173600000Y-130000000D01*
X126400000Y-120400000D02*
X127200000Y-120400000D01*
X178000000Y-146400000D02*
X178000000Y-148000000D01*
X177600000Y-148400000D02*
X177200000Y-148400000D01*
X174000000Y-131199999D02*
X174000000Y-131600000D01*
X135200000Y-146800000D02*
X133199999Y-146800000D01*
X173200000Y-129600000D02*
X173200000Y-130000000D01*
X128000000Y-145600000D02*
X128000000Y-144000000D01*
X128000000Y-119600000D02*
X128000000Y-119200000D01*
X176400000Y-150400000D02*
X135200000Y-150400000D01*
X172400000Y-129600000D02*
X173200000Y-129600000D01*
X109200000Y-141600000D02*
X109200000Y-141200000D01*
X171600000Y-128000000D02*
X172000000Y-128000000D01*
X127600000Y-119600000D02*
X128000000Y-119600000D01*
X171600000Y-124000000D02*
X171600000Y-128000000D01*
X172000000Y-128000000D02*
X172000000Y-128400000D01*
X114400000Y-144000000D02*
X114400000Y-143600000D01*
X108400000Y-139600000D02*
X108000000Y-139600000D01*
X129600000Y-132800000D02*
X129600000Y-145600000D01*
X127600000Y-120000000D02*
X127600000Y-119600000D01*
X177200000Y-145200000D02*
X177200000Y-146400000D01*
X129600000Y-145600000D02*
X128000000Y-145600000D01*
X177200000Y-150000000D02*
X176400000Y-150000000D01*
X109200000Y-141200000D02*
X108800000Y-141200000D01*
X174000000Y-131600000D02*
X174400000Y-131600000D01*
%TO.N,TX_ENABLE*%
X168000000Y-116400000D02*
X160800000Y-116400000D01*
X160800000Y-116400000D02*
X160800000Y-116800000D01*
X160800000Y-116800000D02*
X150800000Y-116800000D01*
X150000000Y-127200000D02*
X150000000Y-123200000D01*
%TO.N,TX_GATE*%
X148400000Y-134800000D02*
X153600000Y-134800000D01*
X155600000Y-120800000D02*
X155600000Y-123200000D01*
X163200000Y-139200000D02*
X162800000Y-139200000D01*
X150000000Y-133199999D02*
X144400000Y-133199999D01*
X150000000Y-132400000D02*
X150000000Y-133199999D01*
X161200000Y-121600000D02*
X160800000Y-121600000D01*
X144400000Y-132800000D02*
X141200000Y-132800000D01*
X162800000Y-132000000D02*
X161200000Y-132000000D01*
X162800000Y-139200000D02*
X162800000Y-133600000D01*
X153600000Y-134800000D02*
X153600000Y-134000000D01*
X160000000Y-133600000D02*
X162800000Y-133600000D01*
X160800000Y-121600000D02*
X160800000Y-120800000D01*
X160000000Y-134000000D02*
X160000000Y-133600000D01*
X160800000Y-120800000D02*
X155600000Y-120800000D01*
X144400000Y-133199999D02*
X144400000Y-132800000D01*
X153600000Y-134000000D02*
X160000000Y-134000000D01*
X162800000Y-133600000D02*
X162800000Y-132000000D01*
X148400000Y-138400000D02*
X148400000Y-134800000D01*
X161200000Y-132000000D02*
X161200000Y-121600000D01*
%TO.N,VBUS_PRESENT_N*%
X175800000Y-123000000D02*
X170800000Y-123000000D01*
X170800000Y-123000000D02*
X170800000Y-115600000D01*
X172000000Y-149500000D02*
X175800000Y-149500000D01*
X176400000Y-149200000D02*
X175800000Y-149200000D01*
X175800000Y-149500000D02*
X175800000Y-123000000D01*
%TO.N,STATUS_LED*%
X189200000Y-111600000D02*
X188000000Y-111600000D01*
X189200000Y-110000000D02*
X189200000Y-111600000D01*
X188000000Y-111600000D02*
X188000000Y-119200000D01*
%TO.N,LED1_A*%
X192000000Y-110000000D02*
X191200000Y-110000000D01*
%TO.N,LED2_A*%
X146400000Y-154000000D02*
X142000000Y-154000000D01*
X142000000Y-154000000D02*
X142000000Y-152400000D01*
%TO.N,EN*%
X160000000Y-116000000D02*
X142000000Y-116000000D01*
X167200000Y-110800000D02*
X167200000Y-110000000D01*
X160000000Y-113600000D02*
X160000000Y-116000000D01*
X167200000Y-110000000D02*
X160800000Y-110000000D01*
X142000000Y-116000000D02*
X142000000Y-113200000D01*
X138800000Y-105200000D02*
X138800000Y-102800000D01*
X160800000Y-113600000D02*
X160000000Y-113600000D01*
X142000000Y-113200000D02*
X138800000Y-113200000D01*
X160800000Y-110000000D02*
X160800000Y-113600000D01*
X138800000Y-113200000D02*
X138800000Y-105200000D01*
%TO.N,IO0*%
X188800000Y-112400000D02*
X188800000Y-116000000D01*
X188800000Y-116000000D02*
X188800000Y-118000000D01*
X190000000Y-112400000D02*
X188800000Y-112400000D01*
X188800000Y-120000000D02*
X186800000Y-120000000D01*
X188800000Y-118000000D02*
X188800000Y-120000000D01*
X190000000Y-111200000D02*
X190000000Y-112400000D01*
X186800000Y-120000000D02*
X186800000Y-125600000D01*
%TO.N,U0RXD*%
X193200000Y-127200000D02*
X186400000Y-127200000D01*
X186000000Y-126400000D02*
X186000000Y-112800000D01*
X186000000Y-112800000D02*
X186400000Y-112800000D01*
X186400000Y-126400000D02*
X186000000Y-126400000D01*
X186400000Y-127200000D02*
X186400000Y-126400000D01*
%TD*%
M02*
