%TF.GenerationSoftware,KiCad,Pcbnew,10.0.1-10.0.1~ubuntu24.04.1*%
%TF.CreationDate,1970-01-01T00:00:00+00:00*%
%TF.ProjectId,Esp32Tap,45737033-3254-4617-902e-6b696361645f,B*%
%TF.SameCoordinates,Original*%
%TF.FileFunction,Legend,Top*%
%TF.FilePolarity,Positive*%
%FSLAX46Y46*%
G04 Gerber Fmt 4.6, Leading zero omitted, Abs format (unit mm)*
G04 Created by KiCad (PCBNEW 10.0.1-10.0.1~ubuntu24.04.1) date 1970-01-01 00:00:00*
%MOMM*%
%LPD*%
G01*
G04 APERTURE LIST*
%ADD10C,0.200000*%
%ADD11C,0.120000*%
G04 APERTURE END LIST*
D10*
X103904761Y-122856980D02*
X103857142Y-122904600D01*
X103857142Y-122904600D02*
X103714285Y-122952219D01*
X103714285Y-122952219D02*
X103619047Y-122952219D01*
X103619047Y-122952219D02*
X103476190Y-122904600D01*
X103476190Y-122904600D02*
X103380952Y-122809361D01*
X103380952Y-122809361D02*
X103333333Y-122714123D01*
X103333333Y-122714123D02*
X103285714Y-122523647D01*
X103285714Y-122523647D02*
X103285714Y-122380790D01*
X103285714Y-122380790D02*
X103333333Y-122190314D01*
X103333333Y-122190314D02*
X103380952Y-122095076D01*
X103380952Y-122095076D02*
X103476190Y-121999838D01*
X103476190Y-121999838D02*
X103619047Y-121952219D01*
X103619047Y-121952219D02*
X103714285Y-121952219D01*
X103714285Y-121952219D02*
X103857142Y-121999838D01*
X103857142Y-121999838D02*
X103904761Y-122047457D01*
X104523809Y-121952219D02*
X104714285Y-121952219D01*
X104714285Y-121952219D02*
X104809523Y-121999838D01*
X104809523Y-121999838D02*
X104904761Y-122095076D01*
X104904761Y-122095076D02*
X104952380Y-122285552D01*
X104952380Y-122285552D02*
X104952380Y-122618885D01*
X104952380Y-122618885D02*
X104904761Y-122809361D01*
X104904761Y-122809361D02*
X104809523Y-122904600D01*
X104809523Y-122904600D02*
X104714285Y-122952219D01*
X104714285Y-122952219D02*
X104523809Y-122952219D01*
X104523809Y-122952219D02*
X104428571Y-122904600D01*
X104428571Y-122904600D02*
X104333333Y-122809361D01*
X104333333Y-122809361D02*
X104285714Y-122618885D01*
X104285714Y-122618885D02*
X104285714Y-122285552D01*
X104285714Y-122285552D02*
X104333333Y-122095076D01*
X104333333Y-122095076D02*
X104428571Y-121999838D01*
X104428571Y-121999838D02*
X104523809Y-121952219D01*
X105380952Y-122952219D02*
X105380952Y-121952219D01*
X105380952Y-121952219D02*
X105952380Y-122952219D01*
X105952380Y-122952219D02*
X105952380Y-121952219D01*
X106380952Y-122904600D02*
X106523809Y-122952219D01*
X106523809Y-122952219D02*
X106761904Y-122952219D01*
X106761904Y-122952219D02*
X106857142Y-122904600D01*
X106857142Y-122904600D02*
X106904761Y-122856980D01*
X106904761Y-122856980D02*
X106952380Y-122761742D01*
X106952380Y-122761742D02*
X106952380Y-122666504D01*
X106952380Y-122666504D02*
X106904761Y-122571266D01*
X106904761Y-122571266D02*
X106857142Y-122523647D01*
X106857142Y-122523647D02*
X106761904Y-122476028D01*
X106761904Y-122476028D02*
X106571428Y-122428409D01*
X106571428Y-122428409D02*
X106476190Y-122380790D01*
X106476190Y-122380790D02*
X106428571Y-122333171D01*
X106428571Y-122333171D02*
X106380952Y-122237933D01*
X106380952Y-122237933D02*
X106380952Y-122142695D01*
X106380952Y-122142695D02*
X106428571Y-122047457D01*
X106428571Y-122047457D02*
X106476190Y-121999838D01*
X106476190Y-121999838D02*
X106571428Y-121952219D01*
X106571428Y-121952219D02*
X106809523Y-121952219D01*
X106809523Y-121952219D02*
X106952380Y-121999838D01*
X107571428Y-121952219D02*
X107761904Y-121952219D01*
X107761904Y-121952219D02*
X107857142Y-121999838D01*
X107857142Y-121999838D02*
X107952380Y-122095076D01*
X107952380Y-122095076D02*
X107999999Y-122285552D01*
X107999999Y-122285552D02*
X107999999Y-122618885D01*
X107999999Y-122618885D02*
X107952380Y-122809361D01*
X107952380Y-122809361D02*
X107857142Y-122904600D01*
X107857142Y-122904600D02*
X107761904Y-122952219D01*
X107761904Y-122952219D02*
X107571428Y-122952219D01*
X107571428Y-122952219D02*
X107476190Y-122904600D01*
X107476190Y-122904600D02*
X107380952Y-122809361D01*
X107380952Y-122809361D02*
X107333333Y-122618885D01*
X107333333Y-122618885D02*
X107333333Y-122285552D01*
X107333333Y-122285552D02*
X107380952Y-122095076D01*
X107380952Y-122095076D02*
X107476190Y-121999838D01*
X107476190Y-121999838D02*
X107571428Y-121952219D01*
X108904761Y-122952219D02*
X108428571Y-122952219D01*
X108428571Y-122952219D02*
X108428571Y-121952219D01*
X109238095Y-122428409D02*
X109571428Y-122428409D01*
X109714285Y-122952219D02*
X109238095Y-122952219D01*
X109238095Y-122952219D02*
X109238095Y-121952219D01*
X109238095Y-121952219D02*
X109714285Y-121952219D01*
X104238095Y-131452219D02*
X104238095Y-130452219D01*
X104238095Y-130452219D02*
X104571428Y-131166504D01*
X104571428Y-131166504D02*
X104904761Y-130452219D01*
X104904761Y-130452219D02*
X104904761Y-131452219D01*
X105571428Y-130452219D02*
X105761904Y-130452219D01*
X105761904Y-130452219D02*
X105857142Y-130499838D01*
X105857142Y-130499838D02*
X105952380Y-130595076D01*
X105952380Y-130595076D02*
X105999999Y-130785552D01*
X105999999Y-130785552D02*
X105999999Y-131118885D01*
X105999999Y-131118885D02*
X105952380Y-131309361D01*
X105952380Y-131309361D02*
X105857142Y-131404600D01*
X105857142Y-131404600D02*
X105761904Y-131452219D01*
X105761904Y-131452219D02*
X105571428Y-131452219D01*
X105571428Y-131452219D02*
X105476190Y-131404600D01*
X105476190Y-131404600D02*
X105380952Y-131309361D01*
X105380952Y-131309361D02*
X105333333Y-131118885D01*
X105333333Y-131118885D02*
X105333333Y-130785552D01*
X105333333Y-130785552D02*
X105380952Y-130595076D01*
X105380952Y-130595076D02*
X105476190Y-130499838D01*
X105476190Y-130499838D02*
X105571428Y-130452219D01*
X106285714Y-130452219D02*
X106857142Y-130452219D01*
X106571428Y-131452219D02*
X106571428Y-130452219D01*
X107380952Y-130452219D02*
X107571428Y-130452219D01*
X107571428Y-130452219D02*
X107666666Y-130499838D01*
X107666666Y-130499838D02*
X107761904Y-130595076D01*
X107761904Y-130595076D02*
X107809523Y-130785552D01*
X107809523Y-130785552D02*
X107809523Y-131118885D01*
X107809523Y-131118885D02*
X107761904Y-131309361D01*
X107761904Y-131309361D02*
X107666666Y-131404600D01*
X107666666Y-131404600D02*
X107571428Y-131452219D01*
X107571428Y-131452219D02*
X107380952Y-131452219D01*
X107380952Y-131452219D02*
X107285714Y-131404600D01*
X107285714Y-131404600D02*
X107190476Y-131309361D01*
X107190476Y-131309361D02*
X107142857Y-131118885D01*
X107142857Y-131118885D02*
X107142857Y-130785552D01*
X107142857Y-130785552D02*
X107190476Y-130595076D01*
X107190476Y-130595076D02*
X107285714Y-130499838D01*
X107285714Y-130499838D02*
X107380952Y-130452219D01*
X108809523Y-131452219D02*
X108476190Y-130976028D01*
X108238095Y-131452219D02*
X108238095Y-130452219D01*
X108238095Y-130452219D02*
X108619047Y-130452219D01*
X108619047Y-130452219D02*
X108714285Y-130499838D01*
X108714285Y-130499838D02*
X108761904Y-130547457D01*
X108761904Y-130547457D02*
X108809523Y-130642695D01*
X108809523Y-130642695D02*
X108809523Y-130785552D01*
X108809523Y-130785552D02*
X108761904Y-130880790D01*
X108761904Y-130880790D02*
X108714285Y-130928409D01*
X108714285Y-130928409D02*
X108619047Y-130976028D01*
X108619047Y-130976028D02*
X108238095Y-130976028D01*
X105619048Y-103452219D02*
X105619048Y-102452219D01*
X105619048Y-102452219D02*
X106000000Y-102452219D01*
X106000000Y-102452219D02*
X106095238Y-102499838D01*
X106095238Y-102499838D02*
X106142857Y-102547457D01*
X106142857Y-102547457D02*
X106190476Y-102642695D01*
X106190476Y-102642695D02*
X106190476Y-102785552D01*
X106190476Y-102785552D02*
X106142857Y-102880790D01*
X106142857Y-102880790D02*
X106095238Y-102928409D01*
X106095238Y-102928409D02*
X106000000Y-102976028D01*
X106000000Y-102976028D02*
X105619048Y-102976028D01*
X106619048Y-103452219D02*
X106619048Y-102452219D01*
X107095238Y-103452219D02*
X107095238Y-102452219D01*
X107095238Y-102452219D02*
X107666666Y-103452219D01*
X107666666Y-103452219D02*
X107666666Y-102452219D01*
X109428571Y-103452219D02*
X108857143Y-103452219D01*
X109142857Y-103452219D02*
X109142857Y-102452219D01*
X109142857Y-102452219D02*
X109047619Y-102595076D01*
X109047619Y-102595076D02*
X108952381Y-102690314D01*
X108952381Y-102690314D02*
X108857143Y-102737933D01*
X121761904Y-112928409D02*
X121904761Y-112976028D01*
X121904761Y-112976028D02*
X121952380Y-113023647D01*
X121952380Y-113023647D02*
X121999999Y-113118885D01*
X121999999Y-113118885D02*
X121999999Y-113261742D01*
X121999999Y-113261742D02*
X121952380Y-113356980D01*
X121952380Y-113356980D02*
X121904761Y-113404600D01*
X121904761Y-113404600D02*
X121809523Y-113452219D01*
X121809523Y-113452219D02*
X121428571Y-113452219D01*
X121428571Y-113452219D02*
X121428571Y-112452219D01*
X121428571Y-112452219D02*
X121761904Y-112452219D01*
X121761904Y-112452219D02*
X121857142Y-112499838D01*
X121857142Y-112499838D02*
X121904761Y-112547457D01*
X121904761Y-112547457D02*
X121952380Y-112642695D01*
X121952380Y-112642695D02*
X121952380Y-112737933D01*
X121952380Y-112737933D02*
X121904761Y-112833171D01*
X121904761Y-112833171D02*
X121857142Y-112880790D01*
X121857142Y-112880790D02*
X121761904Y-112928409D01*
X121761904Y-112928409D02*
X121428571Y-112928409D01*
X122619047Y-112976028D02*
X122619047Y-113452219D01*
X122285714Y-112452219D02*
X122619047Y-112976028D01*
X122619047Y-112976028D02*
X122952380Y-112452219D01*
X123285714Y-113452219D02*
X123285714Y-112452219D01*
X123285714Y-112452219D02*
X123666666Y-112452219D01*
X123666666Y-112452219D02*
X123761904Y-112499838D01*
X123761904Y-112499838D02*
X123809523Y-112547457D01*
X123809523Y-112547457D02*
X123857142Y-112642695D01*
X123857142Y-112642695D02*
X123857142Y-112785552D01*
X123857142Y-112785552D02*
X123809523Y-112880790D01*
X123809523Y-112880790D02*
X123761904Y-112928409D01*
X123761904Y-112928409D02*
X123666666Y-112976028D01*
X123666666Y-112976028D02*
X123285714Y-112976028D01*
X124238095Y-113166504D02*
X124714285Y-113166504D01*
X124142857Y-113452219D02*
X124476190Y-112452219D01*
X124476190Y-112452219D02*
X124809523Y-113452219D01*
X125095238Y-113404600D02*
X125238095Y-113452219D01*
X125238095Y-113452219D02*
X125476190Y-113452219D01*
X125476190Y-113452219D02*
X125571428Y-113404600D01*
X125571428Y-113404600D02*
X125619047Y-113356980D01*
X125619047Y-113356980D02*
X125666666Y-113261742D01*
X125666666Y-113261742D02*
X125666666Y-113166504D01*
X125666666Y-113166504D02*
X125619047Y-113071266D01*
X125619047Y-113071266D02*
X125571428Y-113023647D01*
X125571428Y-113023647D02*
X125476190Y-112976028D01*
X125476190Y-112976028D02*
X125285714Y-112928409D01*
X125285714Y-112928409D02*
X125190476Y-112880790D01*
X125190476Y-112880790D02*
X125142857Y-112833171D01*
X125142857Y-112833171D02*
X125095238Y-112737933D01*
X125095238Y-112737933D02*
X125095238Y-112642695D01*
X125095238Y-112642695D02*
X125142857Y-112547457D01*
X125142857Y-112547457D02*
X125190476Y-112499838D01*
X125190476Y-112499838D02*
X125285714Y-112452219D01*
X125285714Y-112452219D02*
X125523809Y-112452219D01*
X125523809Y-112452219D02*
X125666666Y-112499838D01*
X126047619Y-113404600D02*
X126190476Y-113452219D01*
X126190476Y-113452219D02*
X126428571Y-113452219D01*
X126428571Y-113452219D02*
X126523809Y-113404600D01*
X126523809Y-113404600D02*
X126571428Y-113356980D01*
X126571428Y-113356980D02*
X126619047Y-113261742D01*
X126619047Y-113261742D02*
X126619047Y-113166504D01*
X126619047Y-113166504D02*
X126571428Y-113071266D01*
X126571428Y-113071266D02*
X126523809Y-113023647D01*
X126523809Y-113023647D02*
X126428571Y-112976028D01*
X126428571Y-112976028D02*
X126238095Y-112928409D01*
X126238095Y-112928409D02*
X126142857Y-112880790D01*
X126142857Y-112880790D02*
X126095238Y-112833171D01*
X126095238Y-112833171D02*
X126047619Y-112737933D01*
X126047619Y-112737933D02*
X126047619Y-112642695D01*
X126047619Y-112642695D02*
X126095238Y-112547457D01*
X126095238Y-112547457D02*
X126142857Y-112499838D01*
X126142857Y-112499838D02*
X126238095Y-112452219D01*
X126238095Y-112452219D02*
X126476190Y-112452219D01*
X126476190Y-112452219D02*
X126619047Y-112499838D01*
X124380952Y-148452219D02*
X124380952Y-147452219D01*
X124380952Y-147452219D02*
X124619047Y-147452219D01*
X124619047Y-147452219D02*
X124761904Y-147499838D01*
X124761904Y-147499838D02*
X124857142Y-147595076D01*
X124857142Y-147595076D02*
X124904761Y-147690314D01*
X124904761Y-147690314D02*
X124952380Y-147880790D01*
X124952380Y-147880790D02*
X124952380Y-148023647D01*
X124952380Y-148023647D02*
X124904761Y-148214123D01*
X124904761Y-148214123D02*
X124857142Y-148309361D01*
X124857142Y-148309361D02*
X124761904Y-148404600D01*
X124761904Y-148404600D02*
X124619047Y-148452219D01*
X124619047Y-148452219D02*
X124380952Y-148452219D01*
X125904761Y-148452219D02*
X125333333Y-148452219D01*
X125619047Y-148452219D02*
X125619047Y-147452219D01*
X125619047Y-147452219D02*
X125523809Y-147595076D01*
X125523809Y-147595076D02*
X125428571Y-147690314D01*
X125428571Y-147690314D02*
X125333333Y-147737933D01*
X127095238Y-148452219D02*
X127095238Y-147452219D01*
X127666666Y-148452219D02*
X127238095Y-147880790D01*
X127666666Y-147452219D02*
X127095238Y-148023647D01*
X125023809Y-134928409D02*
X125357142Y-134928409D01*
X125499999Y-135452219D02*
X125023809Y-135452219D01*
X125023809Y-135452219D02*
X125023809Y-134452219D01*
X125023809Y-134452219D02*
X125499999Y-134452219D01*
X125928571Y-135452219D02*
X125928571Y-134452219D01*
X125928571Y-134452219D02*
X126261904Y-135166504D01*
X126261904Y-135166504D02*
X126595237Y-134452219D01*
X126595237Y-134452219D02*
X126595237Y-135452219D01*
X127071428Y-134452219D02*
X127071428Y-135261742D01*
X127071428Y-135261742D02*
X127119047Y-135356980D01*
X127119047Y-135356980D02*
X127166666Y-135404600D01*
X127166666Y-135404600D02*
X127261904Y-135452219D01*
X127261904Y-135452219D02*
X127452380Y-135452219D01*
X127452380Y-135452219D02*
X127547618Y-135404600D01*
X127547618Y-135404600D02*
X127595237Y-135356980D01*
X127595237Y-135356980D02*
X127642856Y-135261742D01*
X127642856Y-135261742D02*
X127642856Y-134452219D01*
X128595237Y-135452219D02*
X128119047Y-135452219D01*
X128119047Y-135452219D02*
X128119047Y-134452219D01*
X128880952Y-135166504D02*
X129357142Y-135166504D01*
X128785714Y-135452219D02*
X129119047Y-134452219D01*
X129119047Y-134452219D02*
X129452380Y-135452219D01*
X129642857Y-134452219D02*
X130214285Y-134452219D01*
X129928571Y-135452219D02*
X129928571Y-134452219D01*
X130547619Y-134928409D02*
X130880952Y-134928409D01*
X131023809Y-135452219D02*
X130547619Y-135452219D01*
X130547619Y-135452219D02*
X130547619Y-134452219D01*
X130547619Y-134452219D02*
X131023809Y-134452219D01*
X129214286Y-113452219D02*
X129214286Y-112452219D01*
X129214286Y-112452219D02*
X129785714Y-113452219D01*
X129785714Y-113452219D02*
X129785714Y-112452219D01*
X130833333Y-113356980D02*
X130785714Y-113404600D01*
X130785714Y-113404600D02*
X130642857Y-113452219D01*
X130642857Y-113452219D02*
X130547619Y-113452219D01*
X130547619Y-113452219D02*
X130404762Y-113404600D01*
X130404762Y-113404600D02*
X130309524Y-113309361D01*
X130309524Y-113309361D02*
X130261905Y-113214123D01*
X130261905Y-113214123D02*
X130214286Y-113023647D01*
X130214286Y-113023647D02*
X130214286Y-112880790D01*
X130214286Y-112880790D02*
X130261905Y-112690314D01*
X130261905Y-112690314D02*
X130309524Y-112595076D01*
X130309524Y-112595076D02*
X130404762Y-112499838D01*
X130404762Y-112499838D02*
X130547619Y-112452219D01*
X130547619Y-112452219D02*
X130642857Y-112452219D01*
X130642857Y-112452219D02*
X130785714Y-112499838D01*
X130785714Y-112499838D02*
X130833333Y-112547457D01*
X133190476Y-135452219D02*
X133190476Y-134452219D01*
X133190476Y-134452219D02*
X133761904Y-135452219D01*
X133761904Y-135452219D02*
X133761904Y-134452219D01*
X134428571Y-134452219D02*
X134619047Y-134452219D01*
X134619047Y-134452219D02*
X134714285Y-134499838D01*
X134714285Y-134499838D02*
X134809523Y-134595076D01*
X134809523Y-134595076D02*
X134857142Y-134785552D01*
X134857142Y-134785552D02*
X134857142Y-135118885D01*
X134857142Y-135118885D02*
X134809523Y-135309361D01*
X134809523Y-135309361D02*
X134714285Y-135404600D01*
X134714285Y-135404600D02*
X134619047Y-135452219D01*
X134619047Y-135452219D02*
X134428571Y-135452219D01*
X134428571Y-135452219D02*
X134333333Y-135404600D01*
X134333333Y-135404600D02*
X134238095Y-135309361D01*
X134238095Y-135309361D02*
X134190476Y-135118885D01*
X134190476Y-135118885D02*
X134190476Y-134785552D01*
X134190476Y-134785552D02*
X134238095Y-134595076D01*
X134238095Y-134595076D02*
X134333333Y-134499838D01*
X134333333Y-134499838D02*
X134428571Y-134452219D01*
X133380952Y-148452219D02*
X133380952Y-147452219D01*
X133380952Y-147452219D02*
X133619047Y-147452219D01*
X133619047Y-147452219D02*
X133761904Y-147499838D01*
X133761904Y-147499838D02*
X133857142Y-147595076D01*
X133857142Y-147595076D02*
X133904761Y-147690314D01*
X133904761Y-147690314D02*
X133952380Y-147880790D01*
X133952380Y-147880790D02*
X133952380Y-148023647D01*
X133952380Y-148023647D02*
X133904761Y-148214123D01*
X133904761Y-148214123D02*
X133857142Y-148309361D01*
X133857142Y-148309361D02*
X133761904Y-148404600D01*
X133761904Y-148404600D02*
X133619047Y-148452219D01*
X133619047Y-148452219D02*
X133380952Y-148452219D01*
X134285714Y-147452219D02*
X134904761Y-147452219D01*
X134904761Y-147452219D02*
X134571428Y-147833171D01*
X134571428Y-147833171D02*
X134714285Y-147833171D01*
X134714285Y-147833171D02*
X134809523Y-147880790D01*
X134809523Y-147880790D02*
X134857142Y-147928409D01*
X134857142Y-147928409D02*
X134904761Y-148023647D01*
X134904761Y-148023647D02*
X134904761Y-148261742D01*
X134904761Y-148261742D02*
X134857142Y-148356980D01*
X134857142Y-148356980D02*
X134809523Y-148404600D01*
X134809523Y-148404600D02*
X134714285Y-148452219D01*
X134714285Y-148452219D02*
X134428571Y-148452219D01*
X134428571Y-148452219D02*
X134333333Y-148404600D01*
X134333333Y-148404600D02*
X134285714Y-148356980D01*
X136095238Y-148452219D02*
X136095238Y-147452219D01*
X136666666Y-148452219D02*
X136238095Y-147880790D01*
X136666666Y-147452219D02*
X136095238Y-148023647D01*
X185857142Y-146952219D02*
X185857142Y-147761742D01*
X185857142Y-147761742D02*
X185904761Y-147856980D01*
X185904761Y-147856980D02*
X185952380Y-147904600D01*
X185952380Y-147904600D02*
X186047618Y-147952219D01*
X186047618Y-147952219D02*
X186238094Y-147952219D01*
X186238094Y-147952219D02*
X186333332Y-147904600D01*
X186333332Y-147904600D02*
X186380951Y-147856980D01*
X186380951Y-147856980D02*
X186428570Y-147761742D01*
X186428570Y-147761742D02*
X186428570Y-146952219D01*
X186857142Y-147904600D02*
X186999999Y-147952219D01*
X186999999Y-147952219D02*
X187238094Y-147952219D01*
X187238094Y-147952219D02*
X187333332Y-147904600D01*
X187333332Y-147904600D02*
X187380951Y-147856980D01*
X187380951Y-147856980D02*
X187428570Y-147761742D01*
X187428570Y-147761742D02*
X187428570Y-147666504D01*
X187428570Y-147666504D02*
X187380951Y-147571266D01*
X187380951Y-147571266D02*
X187333332Y-147523647D01*
X187333332Y-147523647D02*
X187238094Y-147476028D01*
X187238094Y-147476028D02*
X187047618Y-147428409D01*
X187047618Y-147428409D02*
X186952380Y-147380790D01*
X186952380Y-147380790D02*
X186904761Y-147333171D01*
X186904761Y-147333171D02*
X186857142Y-147237933D01*
X186857142Y-147237933D02*
X186857142Y-147142695D01*
X186857142Y-147142695D02*
X186904761Y-147047457D01*
X186904761Y-147047457D02*
X186952380Y-146999838D01*
X186952380Y-146999838D02*
X187047618Y-146952219D01*
X187047618Y-146952219D02*
X187285713Y-146952219D01*
X187285713Y-146952219D02*
X187428570Y-146999838D01*
X188190475Y-147428409D02*
X188333332Y-147476028D01*
X188333332Y-147476028D02*
X188380951Y-147523647D01*
X188380951Y-147523647D02*
X188428570Y-147618885D01*
X188428570Y-147618885D02*
X188428570Y-147761742D01*
X188428570Y-147761742D02*
X188380951Y-147856980D01*
X188380951Y-147856980D02*
X188333332Y-147904600D01*
X188333332Y-147904600D02*
X188238094Y-147952219D01*
X188238094Y-147952219D02*
X187857142Y-147952219D01*
X187857142Y-147952219D02*
X187857142Y-146952219D01*
X187857142Y-146952219D02*
X188190475Y-146952219D01*
X188190475Y-146952219D02*
X188285713Y-146999838D01*
X188285713Y-146999838D02*
X188333332Y-147047457D01*
X188333332Y-147047457D02*
X188380951Y-147142695D01*
X188380951Y-147142695D02*
X188380951Y-147237933D01*
X188380951Y-147237933D02*
X188333332Y-147333171D01*
X188333332Y-147333171D02*
X188285713Y-147380790D01*
X188285713Y-147380790D02*
X188190475Y-147428409D01*
X188190475Y-147428409D02*
X187857142Y-147428409D01*
X189619047Y-147952219D02*
X189619047Y-146952219D01*
X189619047Y-146952219D02*
X189857142Y-146952219D01*
X189857142Y-146952219D02*
X189999999Y-146999838D01*
X189999999Y-146999838D02*
X190095237Y-147095076D01*
X190095237Y-147095076D02*
X190142856Y-147190314D01*
X190142856Y-147190314D02*
X190190475Y-147380790D01*
X190190475Y-147380790D02*
X190190475Y-147523647D01*
X190190475Y-147523647D02*
X190142856Y-147714123D01*
X190142856Y-147714123D02*
X190095237Y-147809361D01*
X190095237Y-147809361D02*
X189999999Y-147904600D01*
X189999999Y-147904600D02*
X189857142Y-147952219D01*
X189857142Y-147952219D02*
X189619047Y-147952219D01*
X190571428Y-147666504D02*
X191047618Y-147666504D01*
X190476190Y-147952219D02*
X190809523Y-146952219D01*
X190809523Y-146952219D02*
X191142856Y-147952219D01*
X191333333Y-146952219D02*
X191904761Y-146952219D01*
X191619047Y-147952219D02*
X191619047Y-146952219D01*
X192190476Y-147666504D02*
X192666666Y-147666504D01*
X192095238Y-147952219D02*
X192428571Y-146952219D01*
X192428571Y-146952219D02*
X192761904Y-147952219D01*
X194047619Y-146952219D02*
X194238095Y-146952219D01*
X194238095Y-146952219D02*
X194333333Y-146999838D01*
X194333333Y-146999838D02*
X194428571Y-147095076D01*
X194428571Y-147095076D02*
X194476190Y-147285552D01*
X194476190Y-147285552D02*
X194476190Y-147618885D01*
X194476190Y-147618885D02*
X194428571Y-147809361D01*
X194428571Y-147809361D02*
X194333333Y-147904600D01*
X194333333Y-147904600D02*
X194238095Y-147952219D01*
X194238095Y-147952219D02*
X194047619Y-147952219D01*
X194047619Y-147952219D02*
X193952381Y-147904600D01*
X193952381Y-147904600D02*
X193857143Y-147809361D01*
X193857143Y-147809361D02*
X193809524Y-147618885D01*
X193809524Y-147618885D02*
X193809524Y-147285552D01*
X193809524Y-147285552D02*
X193857143Y-147095076D01*
X193857143Y-147095076D02*
X193952381Y-146999838D01*
X193952381Y-146999838D02*
X194047619Y-146952219D01*
X194904762Y-147952219D02*
X194904762Y-146952219D01*
X194904762Y-146952219D02*
X195476190Y-147952219D01*
X195476190Y-147952219D02*
X195476190Y-146952219D01*
X196428571Y-147952219D02*
X195952381Y-147952219D01*
X195952381Y-147952219D02*
X195952381Y-146952219D01*
X196952381Y-147476028D02*
X196952381Y-147952219D01*
X196619048Y-146952219D02*
X196952381Y-147476028D01*
X196952381Y-147476028D02*
X197285714Y-146952219D01*
X138171429Y-101916171D02*
X138571429Y-101916171D01*
X138742857Y-102544742D02*
X138171429Y-102544742D01*
X138171429Y-102544742D02*
X138171429Y-101344742D01*
X138171429Y-101344742D02*
X138742857Y-101344742D01*
X139200000Y-102487600D02*
X139314286Y-102544742D01*
X139314286Y-102544742D02*
X139542857Y-102544742D01*
X139542857Y-102544742D02*
X139657143Y-102487600D01*
X139657143Y-102487600D02*
X139714286Y-102373314D01*
X139714286Y-102373314D02*
X139714286Y-102316171D01*
X139714286Y-102316171D02*
X139657143Y-102201885D01*
X139657143Y-102201885D02*
X139542857Y-102144742D01*
X139542857Y-102144742D02*
X139371429Y-102144742D01*
X139371429Y-102144742D02*
X139257143Y-102087600D01*
X139257143Y-102087600D02*
X139200000Y-101973314D01*
X139200000Y-101973314D02*
X139200000Y-101916171D01*
X139200000Y-101916171D02*
X139257143Y-101801885D01*
X139257143Y-101801885D02*
X139371429Y-101744742D01*
X139371429Y-101744742D02*
X139542857Y-101744742D01*
X139542857Y-101744742D02*
X139657143Y-101801885D01*
X140228572Y-101744742D02*
X140228572Y-102944742D01*
X140228572Y-101801885D02*
X140342858Y-101744742D01*
X140342858Y-101744742D02*
X140571429Y-101744742D01*
X140571429Y-101744742D02*
X140685715Y-101801885D01*
X140685715Y-101801885D02*
X140742858Y-101859028D01*
X140742858Y-101859028D02*
X140800000Y-101973314D01*
X140800000Y-101973314D02*
X140800000Y-102316171D01*
X140800000Y-102316171D02*
X140742858Y-102430457D01*
X140742858Y-102430457D02*
X140685715Y-102487600D01*
X140685715Y-102487600D02*
X140571429Y-102544742D01*
X140571429Y-102544742D02*
X140342858Y-102544742D01*
X140342858Y-102544742D02*
X140228572Y-102487600D01*
X141200000Y-101344742D02*
X141942857Y-101344742D01*
X141942857Y-101344742D02*
X141542857Y-101801885D01*
X141542857Y-101801885D02*
X141714286Y-101801885D01*
X141714286Y-101801885D02*
X141828572Y-101859028D01*
X141828572Y-101859028D02*
X141885714Y-101916171D01*
X141885714Y-101916171D02*
X141942857Y-102030457D01*
X141942857Y-102030457D02*
X141942857Y-102316171D01*
X141942857Y-102316171D02*
X141885714Y-102430457D01*
X141885714Y-102430457D02*
X141828572Y-102487600D01*
X141828572Y-102487600D02*
X141714286Y-102544742D01*
X141714286Y-102544742D02*
X141371429Y-102544742D01*
X141371429Y-102544742D02*
X141257143Y-102487600D01*
X141257143Y-102487600D02*
X141200000Y-102430457D01*
X142400000Y-101459028D02*
X142457143Y-101401885D01*
X142457143Y-101401885D02*
X142571429Y-101344742D01*
X142571429Y-101344742D02*
X142857143Y-101344742D01*
X142857143Y-101344742D02*
X142971429Y-101401885D01*
X142971429Y-101401885D02*
X143028571Y-101459028D01*
X143028571Y-101459028D02*
X143085714Y-101573314D01*
X143085714Y-101573314D02*
X143085714Y-101687600D01*
X143085714Y-101687600D02*
X143028571Y-101859028D01*
X143028571Y-101859028D02*
X142342857Y-102544742D01*
X142342857Y-102544742D02*
X143085714Y-102544742D01*
X143428571Y-101344742D02*
X144114286Y-101344742D01*
X143771428Y-102544742D02*
X143771428Y-101344742D01*
X145028572Y-102544742D02*
X145028572Y-101916171D01*
X145028572Y-101916171D02*
X144971429Y-101801885D01*
X144971429Y-101801885D02*
X144857143Y-101744742D01*
X144857143Y-101744742D02*
X144628572Y-101744742D01*
X144628572Y-101744742D02*
X144514286Y-101801885D01*
X145028572Y-102487600D02*
X144914286Y-102544742D01*
X144914286Y-102544742D02*
X144628572Y-102544742D01*
X144628572Y-102544742D02*
X144514286Y-102487600D01*
X144514286Y-102487600D02*
X144457143Y-102373314D01*
X144457143Y-102373314D02*
X144457143Y-102259028D01*
X144457143Y-102259028D02*
X144514286Y-102144742D01*
X144514286Y-102144742D02*
X144628572Y-102087600D01*
X144628572Y-102087600D02*
X144914286Y-102087600D01*
X144914286Y-102087600D02*
X145028572Y-102030457D01*
X145600000Y-101744742D02*
X145600000Y-102944742D01*
X145600000Y-101801885D02*
X145714286Y-101744742D01*
X145714286Y-101744742D02*
X145942857Y-101744742D01*
X145942857Y-101744742D02*
X146057143Y-101801885D01*
X146057143Y-101801885D02*
X146114286Y-101859028D01*
X146114286Y-101859028D02*
X146171428Y-101973314D01*
X146171428Y-101973314D02*
X146171428Y-102316171D01*
X146171428Y-102316171D02*
X146114286Y-102430457D01*
X146114286Y-102430457D02*
X146057143Y-102487600D01*
X146057143Y-102487600D02*
X145942857Y-102544742D01*
X145942857Y-102544742D02*
X145714286Y-102544742D01*
X145714286Y-102544742D02*
X145600000Y-102487600D01*
X147600000Y-102544742D02*
X147600000Y-101744742D01*
X147600000Y-101973314D02*
X147657143Y-101859028D01*
X147657143Y-101859028D02*
X147714286Y-101801885D01*
X147714286Y-101801885D02*
X147828571Y-101744742D01*
X147828571Y-101744742D02*
X147942857Y-101744742D01*
X148800000Y-102487600D02*
X148685714Y-102544742D01*
X148685714Y-102544742D02*
X148457143Y-102544742D01*
X148457143Y-102544742D02*
X148342857Y-102487600D01*
X148342857Y-102487600D02*
X148285714Y-102373314D01*
X148285714Y-102373314D02*
X148285714Y-101916171D01*
X148285714Y-101916171D02*
X148342857Y-101801885D01*
X148342857Y-101801885D02*
X148457143Y-101744742D01*
X148457143Y-101744742D02*
X148685714Y-101744742D01*
X148685714Y-101744742D02*
X148800000Y-101801885D01*
X148800000Y-101801885D02*
X148857143Y-101916171D01*
X148857143Y-101916171D02*
X148857143Y-102030457D01*
X148857143Y-102030457D02*
X148285714Y-102144742D01*
X149257142Y-101744742D02*
X149542856Y-102544742D01*
X149542856Y-102544742D02*
X149828571Y-101744742D01*
X151600000Y-101916171D02*
X151771428Y-101973314D01*
X151771428Y-101973314D02*
X151828571Y-102030457D01*
X151828571Y-102030457D02*
X151885714Y-102144742D01*
X151885714Y-102144742D02*
X151885714Y-102316171D01*
X151885714Y-102316171D02*
X151828571Y-102430457D01*
X151828571Y-102430457D02*
X151771428Y-102487600D01*
X151771428Y-102487600D02*
X151657143Y-102544742D01*
X151657143Y-102544742D02*
X151200000Y-102544742D01*
X151200000Y-102544742D02*
X151200000Y-101344742D01*
X151200000Y-101344742D02*
X151600000Y-101344742D01*
X151600000Y-101344742D02*
X151714286Y-101401885D01*
X151714286Y-101401885D02*
X151771428Y-101459028D01*
X151771428Y-101459028D02*
X151828571Y-101573314D01*
X151828571Y-101573314D02*
X151828571Y-101687600D01*
X151828571Y-101687600D02*
X151771428Y-101801885D01*
X151771428Y-101801885D02*
X151714286Y-101859028D01*
X151714286Y-101859028D02*
X151600000Y-101916171D01*
X151600000Y-101916171D02*
X151200000Y-101916171D01*
%TO.C,TP8*%
D11*
X162650000Y-135050000D02*
X164550000Y-135050000D01*
X162650000Y-136950000D02*
X162650000Y-135050000D01*
X164550000Y-135050000D02*
X164550000Y-136950000D01*
X164550000Y-136950000D02*
X162650000Y-136950000D01*
%TO.C,C6*%
X169288748Y-145640000D02*
X170711252Y-145640000D01*
X169288748Y-148360000D02*
X170711252Y-148360000D01*
%TO.C,C3*%
X162788748Y-142590000D02*
X164211252Y-142590000D01*
X162788748Y-144410000D02*
X164211252Y-144410000D01*
%TO.C,D3*%
X131340000Y-149850000D02*
X131340000Y-154150000D01*
X131340000Y-149850000D02*
X137150000Y-149850000D01*
X131340000Y-154150000D02*
X137150000Y-154150000D01*
%TO.C,D1*%
X131010000Y-150850000D02*
X125500000Y-150850000D01*
X131010000Y-154150000D02*
X125500000Y-154150000D01*
X131010000Y-154150000D02*
X131010000Y-150850000D01*
%TO.C,R20*%
X141237258Y-141477500D02*
X140762742Y-141477500D01*
X141237258Y-142522500D02*
X140762742Y-142522500D01*
%TO.C,C19*%
X137859420Y-144490000D02*
X138140580Y-144490000D01*
X137859420Y-145510000D02*
X138140580Y-145510000D01*
%TO.C,J1*%
X98420000Y-104685000D02*
X98420000Y-120205000D01*
X112000000Y-104000000D02*
X112500000Y-104500000D01*
X112500000Y-104500000D02*
X113000000Y-104000000D01*
X113000000Y-104000000D02*
X112000000Y-104000000D01*
X116380000Y-104685000D02*
X98420000Y-104685000D01*
X116380000Y-120205000D02*
X98420000Y-120205000D01*
X116380000Y-120205000D02*
X116380000Y-104685000D01*
%TO.C,R5*%
X193477500Y-129237258D02*
X193477500Y-128762742D01*
X194522500Y-129237258D02*
X194522500Y-128762742D01*
%TO.C,D7*%
X118150000Y-136390000D02*
X118150000Y-139050000D01*
X119850000Y-136390000D02*
X118150000Y-136390000D01*
X119850000Y-136390000D02*
X119850000Y-139050000D01*
%TO.C,R24*%
X146762742Y-129477500D02*
X147237258Y-129477500D01*
X146762742Y-130522500D02*
X147237258Y-130522500D01*
%TO.C,R29*%
X179762742Y-147477500D02*
X180237258Y-147477500D01*
X179762742Y-148522500D02*
X180237258Y-148522500D01*
%TO.C,R9*%
X137977500Y-119237258D02*
X137977500Y-118762742D01*
X139022500Y-119237258D02*
X139022500Y-118762742D01*
%TO.C,TP6*%
X156250000Y-135050000D02*
X158150000Y-135050000D01*
X156250000Y-136950000D02*
X156250000Y-135050000D01*
X158150000Y-135050000D02*
X158150000Y-136950000D01*
X158150000Y-136950000D02*
X156250000Y-136950000D01*
%TO.C,U1*%
X168800000Y-93550000D02*
X168800000Y-99750000D01*
X168800000Y-93550000D02*
X187200000Y-93550000D01*
X168800000Y-118400000D02*
X168800000Y-119400000D01*
X168800000Y-119400000D02*
X170300000Y-119400000D01*
X187200000Y-93550000D02*
X187200000Y-99750000D01*
X187200000Y-119400000D02*
X185700000Y-119400000D01*
X187200000Y-119400000D02*
X187200000Y-118400000D01*
X168800000Y-100425000D02*
X168300000Y-100425000D01*
X168800000Y-99925000D01*
X168800000Y-100425000D01*
G36*
X168800000Y-100425000D02*
G01*
X168300000Y-100425000D01*
X168800000Y-99925000D01*
X168800000Y-100425000D01*
G37*
%TO.C,LED2*%
X175515000Y-149265000D02*
X175515000Y-150735000D01*
X175515000Y-150735000D02*
X177800000Y-150735000D01*
X177800000Y-149265000D02*
X175515000Y-149265000D01*
%TO.C,U4*%
X134090000Y-140440000D02*
X135910000Y-140440000D01*
X134090000Y-140490000D02*
X134090000Y-140440000D01*
X134090000Y-143560000D02*
X134090000Y-143510000D01*
X135910000Y-140440000D02*
X135910000Y-140490000D01*
X135910000Y-143510000D02*
X135910000Y-143560000D01*
X135910000Y-143560000D02*
X134090000Y-143560000D01*
X133550000Y-140490000D02*
X133310000Y-140160000D01*
X133790000Y-140160000D01*
X133550000Y-140490000D01*
G36*
X133550000Y-140490000D02*
G01*
X133310000Y-140160000D01*
X133790000Y-140160000D01*
X133550000Y-140490000D01*
G37*
%TO.C,R17*%
X128762742Y-138477500D02*
X129237258Y-138477500D01*
X128762742Y-139522500D02*
X129237258Y-139522500D01*
%TO.C,U3*%
X186090000Y-133440000D02*
X187910000Y-133440000D01*
X186090000Y-133490000D02*
X186090000Y-133440000D01*
X186090000Y-136560000D02*
X186090000Y-136510000D01*
X187910000Y-133440000D02*
X187910000Y-133490000D01*
X187910000Y-136510000D02*
X187910000Y-136560000D01*
X187910000Y-136560000D02*
X186090000Y-136560000D01*
X188690000Y-136840000D02*
X188210000Y-136840000D01*
X188450000Y-136510000D01*
X188690000Y-136840000D01*
G36*
X188690000Y-136840000D02*
G01*
X188210000Y-136840000D01*
X188450000Y-136510000D01*
X188690000Y-136840000D01*
G37*
%TO.C,R8*%
X163762742Y-109977500D02*
X164237258Y-109977500D01*
X163762742Y-111022500D02*
X164237258Y-111022500D01*
%TO.C,TP7*%
X159450000Y-135050000D02*
X161350000Y-135050000D01*
X159450000Y-136950000D02*
X159450000Y-135050000D01*
X161350000Y-135050000D02*
X161350000Y-136950000D01*
X161350000Y-136950000D02*
X159450000Y-136950000D01*
%TO.C,R19*%
X140762742Y-138477500D02*
X141237258Y-138477500D01*
X140762742Y-139522500D02*
X141237258Y-139522500D01*
%TO.C,R10*%
X141762742Y-117977500D02*
X142237258Y-117977500D01*
X141762742Y-119022500D02*
X142237258Y-119022500D01*
%TO.C,Q2*%
X183240000Y-144940000D02*
X184760000Y-144940000D01*
X183240000Y-144990000D02*
X183240000Y-144940000D01*
X183240000Y-146890000D02*
X183240000Y-146110000D01*
X183240000Y-148060000D02*
X183240000Y-148010000D01*
X184760000Y-144940000D02*
X184760000Y-145940000D01*
X184760000Y-147060000D02*
X184760000Y-148060000D01*
X184760000Y-148060000D02*
X183240000Y-148060000D01*
X182940000Y-146450000D02*
X182460000Y-146450000D01*
X182700000Y-146120000D01*
X182940000Y-146450000D01*
G36*
X182940000Y-146450000D02*
G01*
X182460000Y-146450000D01*
X182700000Y-146120000D01*
X182940000Y-146450000D01*
G37*
%TO.C,TP11*%
X172250000Y-135050000D02*
X174150000Y-135050000D01*
X172250000Y-136950000D02*
X172250000Y-135050000D01*
X174150000Y-135050000D02*
X174150000Y-136950000D01*
X174150000Y-136950000D02*
X172250000Y-136950000D01*
%TO.C,R11*%
X189762742Y-109477500D02*
X190237258Y-109477500D01*
X189762742Y-110522500D02*
X190237258Y-110522500D01*
%TO.C,R4*%
X193477500Y-143262742D02*
X193477500Y-143737258D01*
X194522500Y-143262742D02*
X194522500Y-143737258D01*
%TO.C,R25*%
X132977500Y-129237258D02*
X132977500Y-128762742D01*
X134022500Y-129237258D02*
X134022500Y-128762742D01*
%TO.C,C17*%
X134859420Y-137990000D02*
X135140580Y-137990000D01*
X134859420Y-139010000D02*
X135140580Y-139010000D01*
%TO.C,C20*%
X147859420Y-118990000D02*
X148140580Y-118990000D01*
X147859420Y-120010000D02*
X148140580Y-120010000D01*
%TO.C,C1*%
X139062500Y-147652500D02*
X139850000Y-147652500D01*
X139456250Y-147258750D02*
X139456250Y-148046250D01*
X140090000Y-147154437D02*
X140090000Y-148440000D01*
X140090000Y-147154437D02*
X141154437Y-146090000D01*
X140090000Y-151845563D02*
X140090000Y-150560000D01*
X140090000Y-151845563D02*
X141154437Y-152910000D01*
X141154437Y-146090000D02*
X146910000Y-146090000D01*
X141154437Y-152910000D02*
X146910000Y-152910000D01*
X146910000Y-146090000D02*
X146910000Y-148440000D01*
X146910000Y-152910000D02*
X146910000Y-150560000D01*
%TO.C,TP2*%
X191050000Y-107050000D02*
X192950000Y-107050000D01*
X191050000Y-108950000D02*
X191050000Y-107050000D01*
X192950000Y-107050000D02*
X192950000Y-108950000D01*
X192950000Y-108950000D02*
X191050000Y-108950000D01*
%TO.C,U5*%
X136090000Y-123440000D02*
X137910000Y-123440000D01*
X136090000Y-123490000D02*
X136090000Y-123440000D01*
X136090000Y-126560000D02*
X136090000Y-126510000D01*
X137910000Y-123440000D02*
X137910000Y-123490000D01*
X137910000Y-124610000D02*
X137910000Y-125390000D01*
X137910000Y-126510000D02*
X137910000Y-126560000D01*
X137910000Y-126560000D02*
X136090000Y-126560000D01*
X135550000Y-123490000D02*
X135310000Y-123160000D01*
X135790000Y-123160000D01*
X135550000Y-123490000D01*
G36*
X135550000Y-123490000D02*
G01*
X135310000Y-123160000D01*
X135790000Y-123160000D01*
X135550000Y-123490000D01*
G37*
%TO.C,TP12*%
X175450000Y-135050000D02*
X177350000Y-135050000D01*
X175450000Y-136950000D02*
X175450000Y-135050000D01*
X177350000Y-135050000D02*
X177350000Y-136950000D01*
X177350000Y-136950000D02*
X175450000Y-136950000D01*
%TO.C,C18*%
X131859420Y-144490000D02*
X132140580Y-144490000D01*
X131859420Y-145510000D02*
X132140580Y-145510000D01*
%TO.C,R3*%
X149762742Y-144477500D02*
X150237258Y-144477500D01*
X149762742Y-145522500D02*
X150237258Y-145522500D01*
%TO.C,C15*%
X136859420Y-120990000D02*
X137140580Y-120990000D01*
X136859420Y-122010000D02*
X137140580Y-122010000D01*
%TO.C,L1*%
X162890000Y-146390000D02*
X167110000Y-146390000D01*
X167110000Y-150610000D02*
X162890000Y-150610000D01*
%TO.C,R13*%
X159477500Y-112237258D02*
X159477500Y-111762742D01*
X160522500Y-112237258D02*
X160522500Y-111762742D01*
%TO.C,F1*%
X119113748Y-150790000D02*
X121886252Y-150790000D01*
X119113748Y-154210000D02*
X121886252Y-154210000D01*
%TO.C,J2*%
X98420000Y-133685000D02*
X98420000Y-149205000D01*
X112000000Y-133000000D02*
X112500000Y-133500000D01*
X112500000Y-133500000D02*
X113000000Y-133000000D01*
X113000000Y-133000000D02*
X112000000Y-133000000D01*
X116380000Y-133685000D02*
X98420000Y-133685000D01*
X116380000Y-149205000D02*
X98420000Y-149205000D01*
X116380000Y-149205000D02*
X116380000Y-133685000D01*
%TO.C,J3*%
X194300000Y-131800000D02*
X196300000Y-131800000D01*
X194300000Y-141200000D02*
X196300000Y-141200000D01*
X198200000Y-131800000D02*
X200100000Y-131800000D01*
X198200000Y-141200000D02*
X200100000Y-141200000D01*
X200100000Y-141200000D02*
X200100000Y-131800000D01*
%TO.C,D6*%
X119150000Y-141390000D02*
X119150000Y-144050000D01*
X120850000Y-141390000D02*
X119150000Y-141390000D01*
X120850000Y-141390000D02*
X120850000Y-144050000D01*
%TO.C,C7*%
X169288748Y-150640000D02*
X170711252Y-150640000D01*
X169288748Y-153360000D02*
X170711252Y-153360000D01*
%TO.C,K1*%
X123660000Y-126800000D02*
X123660000Y-126000000D01*
X123660000Y-129000000D02*
X123660000Y-128400000D01*
X123660000Y-131100000D02*
X123660000Y-130600000D01*
X123700000Y-120910000D02*
X123700000Y-121410000D01*
X123700000Y-120910000D02*
X130360000Y-120900000D01*
X123700000Y-121410000D02*
X123100000Y-121410000D01*
X123700000Y-122910000D02*
X123100000Y-122910000D01*
X123700000Y-124310000D02*
X123700000Y-122910000D01*
X130360000Y-120900000D02*
X130360000Y-121400000D01*
X130360000Y-123000000D02*
X130360000Y-124400000D01*
X130360000Y-126000000D02*
X130360000Y-126800000D01*
X130360000Y-128400000D02*
X130360000Y-129000000D01*
X130360000Y-130600000D02*
X130360000Y-131100000D01*
X130360000Y-131100000D02*
X123660000Y-131100000D01*
%TO.C,R12*%
X173762742Y-149477500D02*
X174237258Y-149477500D01*
X173762742Y-150522500D02*
X174237258Y-150522500D01*
%TO.C,C5*%
X160959420Y-150590000D02*
X161240580Y-150590000D01*
X160959420Y-151610000D02*
X161240580Y-151610000D01*
%TO.C,C14*%
X166790000Y-119859420D02*
X166790000Y-120140580D01*
X167810000Y-119859420D02*
X167810000Y-120140580D01*
%TO.C,TP13*%
X178650000Y-135050000D02*
X180550000Y-135050000D01*
X178650000Y-136950000D02*
X178650000Y-135050000D01*
X180550000Y-135050000D02*
X180550000Y-136950000D01*
X180550000Y-136950000D02*
X178650000Y-136950000D01*
%TO.C,TP4*%
X176050000Y-142050000D02*
X177950000Y-142050000D01*
X176050000Y-143950000D02*
X176050000Y-142050000D01*
X177950000Y-142050000D02*
X177950000Y-143950000D01*
X177950000Y-143950000D02*
X176050000Y-143950000D01*
%TO.C,C21*%
X157859420Y-120990000D02*
X158140580Y-120990000D01*
X157859420Y-122010000D02*
X158140580Y-122010000D01*
%TO.C,R21*%
X144762742Y-138477500D02*
X145237258Y-138477500D01*
X144762742Y-139522500D02*
X145237258Y-139522500D01*
%TO.C,TP5*%
X153050000Y-135050000D02*
X154950000Y-135050000D01*
X153050000Y-136950000D02*
X153050000Y-135050000D01*
X154950000Y-135050000D02*
X154950000Y-136950000D01*
X154950000Y-136950000D02*
X153050000Y-136950000D01*
%TO.C,R18*%
X129237258Y-141477500D02*
X128762742Y-141477500D01*
X129237258Y-142522500D02*
X128762742Y-142522500D01*
%TO.C,C12*%
X156859420Y-142490000D02*
X157140580Y-142490000D01*
X156859420Y-143510000D02*
X157140580Y-143510000D01*
%TO.C,R23*%
X146762742Y-126477500D02*
X147237258Y-126477500D01*
X146762742Y-127522500D02*
X147237258Y-127522500D01*
%TO.C,R31*%
X189477500Y-115237258D02*
X189477500Y-114762742D01*
X190522500Y-115237258D02*
X190522500Y-114762742D01*
%TO.C,C11*%
X186859420Y-142490000D02*
X187140580Y-142490000D01*
X186859420Y-143510000D02*
X187140580Y-143510000D01*
%TO.C,R1*%
X156762742Y-144477500D02*
X157237258Y-144477500D01*
X156762742Y-145522500D02*
X157237258Y-145522500D01*
%TO.C,R7*%
X163762742Y-112477500D02*
X164237258Y-112477500D01*
X163762742Y-113522500D02*
X164237258Y-113522500D01*
%TO.C,C2*%
X149288748Y-151090000D02*
X150711252Y-151090000D01*
X149288748Y-152910000D02*
X150711252Y-152910000D01*
%TO.C,D4*%
X123490000Y-115850000D02*
X123490000Y-119150000D01*
X123490000Y-115850000D02*
X129000000Y-115850000D01*
X123490000Y-119150000D02*
X129000000Y-119150000D01*
%TO.C,C10*%
X159490000Y-108140580D02*
X159490000Y-107859420D01*
X160510000Y-108140580D02*
X160510000Y-107859420D01*
%TO.C,R28*%
X151762742Y-129477500D02*
X152237258Y-129477500D01*
X151762742Y-130522500D02*
X152237258Y-130522500D01*
%TO.C,LED1*%
X192200000Y-110735000D02*
X194485000Y-110735000D01*
X194485000Y-109265000D02*
X192200000Y-109265000D01*
X194485000Y-110735000D02*
X194485000Y-109265000D01*
%TO.C,U6*%
X149500000Y-120500000D02*
X146500000Y-120500000D01*
X149500000Y-123500000D02*
X146500000Y-123500000D01*
X146150000Y-120600000D02*
X145910000Y-120270000D01*
X146390000Y-120270000D01*
X146150000Y-120600000D01*
G36*
X146150000Y-120600000D02*
G01*
X145910000Y-120270000D01*
X146390000Y-120270000D01*
X146150000Y-120600000D01*
G37*
%TO.C,R16*%
X166262742Y-116977500D02*
X166737258Y-116977500D01*
X166262742Y-118022500D02*
X166737258Y-118022500D01*
%TO.C,R27*%
X151762742Y-126477500D02*
X152237258Y-126477500D01*
X151762742Y-127522500D02*
X152237258Y-127522500D01*
%TO.C,SW2*%
X191800000Y-117050000D02*
X191800000Y-116950000D01*
X191800000Y-118550000D02*
X196200000Y-118550000D01*
X196200000Y-115450000D02*
X191800000Y-115450000D01*
X196200000Y-117050000D02*
X196200000Y-116950000D01*
%TO.C,R15*%
X166262742Y-114977500D02*
X166737258Y-114977500D01*
X166262742Y-116022500D02*
X166737258Y-116022500D01*
%TO.C,U2*%
X159090000Y-146940000D02*
X160910000Y-146940000D01*
X159090000Y-146990000D02*
X159090000Y-146940000D01*
X159090000Y-150060000D02*
X159090000Y-150010000D01*
X160910000Y-146940000D02*
X160910000Y-146990000D01*
X160910000Y-150010000D02*
X160910000Y-150060000D01*
X160910000Y-150060000D02*
X159090000Y-150060000D01*
X161690000Y-150340000D02*
X161210000Y-150340000D01*
X161450000Y-150010000D01*
X161690000Y-150340000D01*
G36*
X161690000Y-150340000D02*
G01*
X161210000Y-150340000D01*
X161450000Y-150010000D01*
X161690000Y-150340000D01*
G37*
%TO.C,C13*%
X166790000Y-112940580D02*
X166790000Y-112659420D01*
X167810000Y-112940580D02*
X167810000Y-112659420D01*
%TO.C,D5*%
X119150000Y-113390000D02*
X119150000Y-116050000D01*
X120850000Y-113390000D02*
X119150000Y-113390000D01*
X120850000Y-113390000D02*
X120850000Y-116050000D01*
%TO.C,R2*%
X155237258Y-146977500D02*
X154762742Y-146977500D01*
X155237258Y-148022500D02*
X154762742Y-148022500D01*
%TO.C,C8*%
X165765000Y-106761252D02*
X165765000Y-106238748D01*
X167235000Y-106761252D02*
X167235000Y-106238748D01*
%TO.C,Q1*%
X134240000Y-117440000D02*
X135760000Y-117440000D01*
X134240000Y-117490000D02*
X134240000Y-117440000D01*
X134240000Y-119390000D02*
X134240000Y-118610000D01*
X134240000Y-120560000D02*
X134240000Y-120510000D01*
X135760000Y-117440000D02*
X135760000Y-118440000D01*
X135760000Y-119560000D02*
X135760000Y-120560000D01*
X135760000Y-120560000D02*
X134240000Y-120560000D01*
X133940000Y-118950000D02*
X133460000Y-118950000D01*
X133700000Y-118620000D01*
X133940000Y-118950000D01*
G36*
X133940000Y-118950000D02*
G01*
X133460000Y-118950000D01*
X133700000Y-118620000D01*
X133940000Y-118950000D01*
G37*
%TO.C,TP10*%
X169050000Y-135050000D02*
X170950000Y-135050000D01*
X169050000Y-136950000D02*
X169050000Y-135050000D01*
X170950000Y-135050000D02*
X170950000Y-136950000D01*
X170950000Y-136950000D02*
X169050000Y-136950000D01*
%TO.C,R22*%
X144762742Y-141477500D02*
X145237258Y-141477500D01*
X144762742Y-142522500D02*
X145237258Y-142522500D01*
%TO.C,TP1*%
X191050000Y-104050000D02*
X192950000Y-104050000D01*
X191050000Y-105950000D02*
X191050000Y-104050000D01*
X192950000Y-104050000D02*
X192950000Y-105950000D01*
X192950000Y-105950000D02*
X191050000Y-105950000D01*
%TO.C,C16*%
X140265000Y-125261252D02*
X140265000Y-124738748D01*
X141735000Y-125261252D02*
X141735000Y-124738748D01*
%TO.C,R26*%
X132977500Y-133237258D02*
X132977500Y-132762742D01*
X134022500Y-133237258D02*
X134022500Y-132762742D01*
%TO.C,U7*%
X157090000Y-122440000D02*
X158910000Y-122440000D01*
X157090000Y-122490000D02*
X157090000Y-122440000D01*
X157090000Y-125560000D02*
X157090000Y-125510000D01*
X158910000Y-122440000D02*
X158910000Y-122490000D01*
X158910000Y-123610000D02*
X158910000Y-124390000D01*
X158910000Y-125510000D02*
X158910000Y-125560000D01*
X158910000Y-125560000D02*
X157090000Y-125560000D01*
X156550000Y-122490000D02*
X156310000Y-122160000D01*
X156790000Y-122160000D01*
X156550000Y-122490000D01*
G36*
X156550000Y-122490000D02*
G01*
X156310000Y-122160000D01*
X156790000Y-122160000D01*
X156550000Y-122490000D01*
G37*
%TO.C,R6*%
X138762742Y-113477500D02*
X139237258Y-113477500D01*
X138762742Y-114522500D02*
X139237258Y-114522500D01*
%TO.C,TP9*%
X165850000Y-135050000D02*
X167750000Y-135050000D01*
X165850000Y-136950000D02*
X165850000Y-135050000D01*
X167750000Y-135050000D02*
X167750000Y-136950000D01*
X167750000Y-136950000D02*
X165850000Y-136950000D01*
%TO.C,SW1*%
X152800000Y-104050000D02*
X152800000Y-103950000D01*
X152800000Y-105550000D02*
X157200000Y-105550000D01*
X157200000Y-102450000D02*
X152800000Y-102450000D01*
X157200000Y-104050000D02*
X157200000Y-103950000D01*
%TO.C,R30*%
X179762742Y-144477500D02*
X180237258Y-144477500D01*
X179762742Y-145522500D02*
X180237258Y-145522500D01*
%TO.C,TP3*%
X173050000Y-142050000D02*
X174950000Y-142050000D01*
X173050000Y-143950000D02*
X173050000Y-142050000D01*
X174950000Y-142050000D02*
X174950000Y-143950000D01*
X174950000Y-143950000D02*
X173050000Y-143950000D01*
%TO.C,C4*%
X161859420Y-144990000D02*
X162140580Y-144990000D01*
X161859420Y-146010000D02*
X162140580Y-146010000D01*
%TO.C,C9*%
X165990000Y-102140580D02*
X165990000Y-101859420D01*
X167010000Y-102140580D02*
X167010000Y-101859420D01*
%TO.C,R14*%
X149762742Y-147477500D02*
X150237258Y-147477500D01*
X149762742Y-148522500D02*
X150237258Y-148522500D01*
%TD*%
M02*
